<svg version="1.1" xmlns="http://www.w3.org/2000/svg" xmlns:xlink="http://www.w3.org/1999/xlink" width="749.52942" height="450.06555" viewBox="0,0,749.52942,450.06555"><defs><linearGradient x1="316.50001" y1="-29.77397" x2="316.50001" y2="389.774" gradientUnits="userSpaceOnUse" id="color-1"><stop offset="0" stop-color="#76f263"/><stop offset="1" stop-color="#48e050"/></linearGradient><linearGradient x1="411.53705" y1="136.80749" x2="471.63587" y2="138.88717" gradientUnits="userSpaceOnUse" id="color-2"><stop offset="0" stop-color="#00d672"/><stop offset="1" stop-color="#8fd600"/></linearGradient><linearGradient x1="506.62715" y1="138.8045" x2="566.72596" y2="140.88415" gradientUnits="userSpaceOnUse" id="color-3"><stop offset="0" stop-color="#00d672"/><stop offset="1" stop-color="#8fd600"/></linearGradient><linearGradient x1="473.2527" y1="217.71141" x2="516.44161" y2="219.79106" gradientUnits="userSpaceOnUse" id="color-4"><stop offset="0" stop-color="#00d672"/><stop offset="1" stop-color="#8fd600"/></linearGradient><linearGradient x1="442.4873" y1="143.47189" x2="442.4873" y2="152.97189" gradientUnits="userSpaceOnUse" id="color-5"><stop offset="0" stop-color="#9c7500"/><stop offset="1" stop-color="#9c4a00"/></linearGradient><linearGradient x1="534.57439" y1="143.96739" x2="534.57439" y2="153.46739" gradientUnits="userSpaceOnUse" id="color-6"><stop offset="0" stop-color="#9c7500"/><stop offset="1" stop-color="#9c4a00"/></linearGradient><linearGradient x1="496.03084" y1="218.8743" x2="496.03084" y2="228.3743" gradientUnits="userSpaceOnUse" id="color-7"><stop offset="0" stop-color="#9c7500"/><stop offset="1" stop-color="#9c4a00"/></linearGradient><linearGradient x1="480.50301" y1="208.44926" x2="514.51803" y2="210.57541" gradientUnits="userSpaceOnUse" id="color-8"><stop offset="0" stop-color="#00d672"/><stop offset="1" stop-color="#8fd600"/></linearGradient></defs><g transform="translate(58.2647,45.33877)"><g data-paper-data="{&quot;isPaintingLayer&quot;:true}" fill-rule="nonzero" stroke-linejoin="miter" stroke-miterlimit="10" stroke-dasharray="" stroke-dashoffset="0" style="mix-blend-mode: normal"><path d="M-57.2647,389.774v-419.54797h747.52942v419.54797z" fill="url(#color-1)" stroke="#000000" stroke-width="2" stroke-linecap="butt"/><path d="M-34.52492,345.98495v-72.30741h332.85238v72.30741z" fill="#f1f5ba" stroke="none" stroke-width="0" stroke-linecap="butt"/><path d="M286.97367,404.72678v-450.06555h76.24808v450.06555z" fill="#f9fdc0" stroke="none" stroke-width="0" stroke-linecap="butt"/><path d="M352.4687,217.81495v-72.30741h332.85238v72.30741z" fill="#f9fdc0" stroke="none" stroke-width="0" stroke-linecap="butt"/><path d="M247.04091,180.00002c0,-40.29419 32.6649,-72.95909 72.95909,-72.95909c40.2942,0 72.95909,32.6649 72.95909,72.95909c0,40.2942 -32.66489,72.95909 -72.95909,72.95909c-40.29419,0 -72.95909,-32.66489 -72.95909,-72.95909z" fill="#fcffd3" stroke="none" stroke-width="0" stroke-linecap="butt"/><path d="M353.77856,191.94553c0,8.29256 -15.77566,24.02402 -31.53153,24.02402c-15.75587,0 -28.52853,-6.72245 -28.52853,-15.01502c0,-8.29256 -23.8851,-11.99075 -8.12923,-11.99075c15.75587,0 68.18929,-5.31082 68.18929,2.98174z" fill="#eeeeee" stroke="#000000" stroke-width="2" stroke-linecap="butt"/><path d="M353.77856,186.69028c0,2.9024 -14.7894,5.25526 -33.03304,5.25526c-18.24364,0 -33.03303,-2.35286 -33.03303,-5.25526c0,-2.9024 14.78939,-5.25526 33.03303,-5.25526c18.24364,0 33.03304,2.35286 33.03304,5.25526z" fill="#adadad" stroke="#000000" stroke-width="2" stroke-linecap="butt"/><path d="M309.98645,153.76978c0.87781,-2.34082 3.21863,-1.46302 3.21863,-1.46302l1.53928,1.09552c1.73062,-1.1024 3.73161,-2.06079 5.70718,-1.35521c0.61114,0.21827 1.20712,0.54809 1.74573,0.96047c-0.00002,-0.06366 -0.00009,-0.12733 -0.00019,-0.191v-1.64795c0,0 0,-2.5 2.5,-2.5c0.54773,0 0.97547,0.12001 1.30948,0.30743c1.98401,-1.38315 4.58359,-2.25151 6.34566,-3.14828c0,0 2.22806,-1.13392 3.36198,1.09414c1.13392,2.22806 -1.09413,3.36198 -1.09413,3.36198c-1.0854,0.55239 -2.22951,0.99817 -3.34847,1.48743c0.06202,0.07935 0.12275,0.15986 0.18215,0.24141c0.36977,-0.34477 0.91193,-0.59752 1.70683,-0.59752c2.5,0 2.5,2.5 2.5,2.5l-0.70525,2.65589c-1.90291,1.92087 -3.9894,4.59695 -7.19974,4.414c-0.24164,-0.01377 -0.49134,-0.06119 -0.74511,-0.13819c-0.48851,11.62679 -1.76653,23.14421 -1.76653,34.81635c0,0 0,2.5 -2.5,2.5c-2.5,0 -2.5,-2.5 -2.5,-2.5c0,-12.32077 1.45526,-24.46336 1.85358,-36.74519l-3.11472,1.45101c0.11023,-1.25954 0.26039,-2.51622 0.33069,-3.77863c0.03131,-0.56224 -1.00893,0.50044 -1.51378,0.74988c-0.09457,0.04673 -0.18762,0.09621 -0.27949,0.14779c0.13374,0.59874 0.11982,1.15058 -0.2736,1.58188c-0.33637,0.36875 -0.72806,0.65542 -1.15764,0.88585l0.17929,0.28333l-2.5723,1.62777c-0.3932,0.25774 -0.86346,0.40763 -1.36873,0.40763c-1.38071,0 -2.5,-1.11929 -2.5,-2.5c0,-0.50203 0.14798,-0.9695 0.40269,-1.36116l0.9681,-1.54289c-0.57949,-0.30797 -1.90778,-1.24423 -1.21161,-3.10071z" fill="#dadada" stroke="none" stroke-width="0.5" stroke-linecap="butt"/><path d="M294.08959,184.89106c-2.41143,-0.65956 -1.75187,-3.07098 -1.75187,-3.07098l0.63941,-2.33617c1.12913,-4.44591 2.32746,-8.86136 3.60273,-13.26466c0.18744,-0.64721 0.37429,-1.31063 0.57202,-1.97886c-0.3596,-0.19493 -0.70755,-0.52139 -1.00089,-1.04286c-1.22571,-2.1789 0.95319,-3.40462 0.95319,-3.40462l0.41168,-0.21307c0.78433,-0.56396 1.55788,-1.15655 2.36073,-1.70127c0.37618,-0.54915 0.79669,-1.06843 1.27148,-1.54797c1.91035,-1.92945 4.64029,-2.82101 6.97815,-4.20181c0,0 2.15259,-1.27137 3.42396,0.88121c1.09294,1.85049 -0.34447,3.04976 -0.76945,3.34992c1.54676,0.27902 3.01333,0.59275 4.17331,0.75587c0,0 2.47564,0.34814 2.1275,2.82378c-0.34814,2.47564 -2.82378,2.12751 -2.82378,2.12751c-1.88608,-0.26523 -7.21606,-1.76282 -9.49411,-1.14115c-0.39021,0.10648 -0.84321,0.3259 -1.31394,0.60106c-1.04263,1.8769 -1.54216,4.25287 -2.06778,6.08509c-1.24859,4.35242 -2.44342,8.71073 -3.55864,13.10252l-0.66272,2.42458c0,0 -0.65956,2.41143 -3.07099,1.75187z" fill="#6dc5ff" stroke="none" stroke-width="0.5" stroke-linecap="butt"/><path d="M344.87934,187.90932c-2.5,0 -2.5,-2.5 -2.5,-2.5l0.06739,-1.80379c-1.26589,-5.36263 -3.68125,-9.96779 -6.01597,-14.89647c-3.07834,-6.49846 -4.68101,-12.68523 -9.66319,-18.04068c0,0 -1.69705,-1.83576 0.13871,-3.53281c1.83576,-1.69705 3.53281,0.13871 3.53281,0.13871c5.37206,5.84419 7.18819,12.29269 10.51906,19.31283c2.48768,5.24303 4.99714,10.16301 6.35378,15.86525l0.0674,2.95695c0,0 0,2.5 -2.5,2.5z" fill="#6dc5ff" stroke="none" stroke-width="0.5" stroke-linecap="butt"/><path d="M334.14468,202.23589c0,0 -8.56013,6.91126 -12.5794,7.17021c-4.18444,0.26959 -12.05167,-5.5833 -12.05167,-5.5833" fill="none" stroke="#000000" stroke-width="1.5" stroke-linecap="round"/><path d="M303.26477,159.40834c0,-0.69036 0.55964,-1.25 1.25,-1.25c0.69036,0 1.25,0.55964 1.25,1.25c0,0.69036 -0.55964,1.25 -1.25,1.25c-0.69036,0 -1.25,-0.55964 -1.25,-1.25z" fill="#fcffd3" stroke="none" stroke-width="0.5" stroke-linecap="butt"/><path d="M108.37735,107.41641c1.25,0 1.25,1.25 1.25,1.25c0,4.16667 0,9.85492 0,14.02159c0,0 0,1.25 -1.25,1.25c-1.25,0 -1.25,-1.25 -1.25,-1.25c0,-4.16667 0,-8.33333 0,-12.5v-1.52159c0,0 0,-1.25 1.25,-1.25z" fill="#00ca6c" stroke="none" stroke-width="0.5" stroke-linecap="butt"/><path d="M175.94943,139.60324c-1.24405,0.12182 -1.36587,-1.12224 -1.36587,-1.12224c-0.21386,-2.18403 -0.47217,-4.82208 -0.72811,-7.43592l-1.47066,-0.13495c-4.9144,-0.98998 -9.70257,-1.21927 -14.70548,-1.4751c0,0 -1.24837,-0.06384 -1.18453,-1.31221c0.06384,-1.24837 1.31221,-1.18453 1.31221,-1.18453c5.1251,0.26208 10.03507,0.50651 15.0715,1.52107l0.72968,0.06035c-0.14308,-1.46122 -0.28037,-2.86332 -0.40304,-4.11604c-0.15337,-1.56633 0.06984,-3.20922 -0.42881,-4.70196c-0.67917,-2.03312 -2.66557,-4.31478 -3.78405,-6.15063c-3.03501,-4.98162 -6.07002,-9.96323 -9.10503,-14.94485c-3.43198,-5.63319 -6.58869,-11.60746 -10.36324,-17.01469c-4.74891,-6.80305 -10.40093,-13.02348 -15.27666,-19.75533c0,0 -0.73323,-1.01236 0.27913,-1.74559c1.01236,-0.73323 1.74559,0.27913 1.74559,0.27913c4.8845,6.74396 10.54418,12.97515 15.30189,19.79081c3.80463,5.45032 6.98908,11.4671 10.44826,17.14495c3.03501,4.98162 6.07002,9.96323 9.10503,14.94485c1.21889,2.00067 3.28117,4.44673 4.02027,6.65924c0.05811,0.17395 0.51281,4.91444 0.54571,5.25044c0.40605,4.14683 0.8121,8.29367 1.21815,12.4405l0.16028,1.63683c0,0 0.12182,1.24405 -1.12224,1.36587z" fill="#00ca6c" stroke="none" stroke-width="0.5" stroke-linecap="butt"/><path d="M106.20315,181.72913c-1.03024,-0.70789 -0.32235,-1.73813 -0.32235,-1.73813l0.14823,-0.21572c2.86355,-4.16751 6.01055,-8.039 9.19861,-11.9618c0,0 0.78836,-0.97005 1.75841,-0.18169c0.97005,0.78836 0.18169,1.75841 0.18169,1.75841c-3.14588,3.87089 -6.25276,7.68877 -9.07823,11.80087l-0.14823,0.21572c0,0 -0.70789,1.03024 -1.73813,0.32235z" fill="#00ca6c" stroke="none" stroke-width="0.5" stroke-linecap="butt"/><path d="M181.05059,198.40973c-0.93992,0.82404 -1.76396,-0.11588 -1.76396,-0.11588c-5.49361,-6.26615 -12.10211,-13.80397 -17.59572,-20.07012c0,0 -0.82404,-0.93992 0.11588,-1.76396c0.93992,-0.82404 1.76396,0.11588 1.76396,0.11588c5.49361,6.26615 10.98723,12.5323 16.48084,18.79846l1.11488,1.27166c0,0 0.82404,0.93992 -0.11588,1.76396z" fill="#00ca6c" stroke="none" stroke-width="0.5" stroke-linecap="butt"/><path d="M129.79944,262.67805c-0.87391,0.89375 -1.76766,0.01985 -1.76766,0.01985c-5.95834,-5.82603 -13.61729,-13.31492 -19.57563,-19.14095c-2.84823,-2.78499 -6.85329,-5.64582 -9.09568,-8.9276c-0.09094,-0.13309 -1.95796,-4.54067 -2.07545,-4.81686c-3.61193,-8.49054 -4.3096,-18.15829 -4.81885,-27.32455c0,0 -0.06934,-1.24808 1.17874,-1.31742c1.24808,-0.06934 1.31742,1.17874 1.31742,1.17874c0.49293,8.87246 1.12769,18.26772 4.62319,26.48459c0.62048,1.45856 0.94489,3.07638 1.83912,4.3851c0.68143,0.99729 1.54239,1.95602 2.4874,2.88558c0.05244,-0.08305 0.09309,-0.13069 0.09309,-0.13069c3.78653,-4.43734 7.94395,-9.30932 11.73048,-13.74666c0,0 0.8114,-0.95086 1.76226,-0.13946c0.95086,0.8114 0.13946,1.76226 0.13946,1.76226c-3.78653,4.43734 -7.57306,8.87468 -11.35959,13.31202l-0.37089,0.43464c0,0 -0.07034,0.08243 -0.19387,0.17804c1.55087,1.37536 3.1624,2.69567 4.491,3.99477c5.95834,5.82603 11.91667,11.65207 17.87501,17.4781l1.70062,1.66285c0,0 0.89375,0.87391 0.01985,1.76766z" fill="#00ca6c" stroke="none" stroke-width="0.5" stroke-linecap="butt"/><path d="M191.23953,240.81026c-0.17595,1.23755 -1.4135,1.06161 -1.4135,1.06161l-0.77345,-0.10997c0.73903,1.01761 1.49624,2.01861 2.27696,2.99741c1.38154,1.73205 2.81217,4.26329 4.50314,5.68764c3.49837,2.94677 8.91905,4.87125 12.94374,7.08192c1.4608,0.80239 2.92161,1.60478 4.38241,2.40716l0.90589,0.49759c0,0 1.0956,0.60179 0.49381,1.69739c-0.60179,1.0956 -1.69739,0.49381 -1.69739,0.49381c-1.4608,-0.80239 -3.8275,-2.10236 -5.28831,-2.90475c-4.17874,-2.29529 -9.71252,-4.29649 -13.35075,-7.36106c-1.81676,-1.5303 -3.36238,-4.17761 -4.84738,-6.04129c-1.29875,-1.62994 -2.53366,-3.3196 -3.72853,-5.04425c-11.77001,-1.72224 -23.34359,-3.8489 -35.00192,-6.28901c0,0 -1.22349,-0.25608 -0.96741,-1.47957c0.25608,-1.22349 1.47957,-0.96741 1.47957,-0.96741c10.86241,2.27353 21.64913,4.27373 32.59269,5.92646c-2.38274,-3.60928 -4.65035,-7.31031 -7.0099,-10.88812c0,0 -0.68819,-1.0435 0.35532,-1.73169c1.0435,-0.68819 1.73169,0.35532 1.73169,0.35532c2.76722,4.19595 5.40415,8.56892 8.25607,12.75632c0.2984,0.04299 0.59692,0.08572 0.89559,0.12818l2.20005,0.31279c0,0 1.23755,0.17595 1.06161,1.4135z" fill="#00ca6c" stroke="none" stroke-width="0.5" stroke-linecap="butt"/><path d="M270.76053,115.81796c1.09643,0.60029 0.49614,1.69672 0.49614,1.69672l-1.18414,2.16283c-3.68298,6.72699 -8.58292,12.19807 -12.72229,18.59234c-3.58665,5.53417 -7.60672,10.9686 -10.83649,16.71603c-4.05279,7.21201 -7.16979,15.04825 -10.91926,22.43002c0,0 -0.56608,1.11447 -1.68056,0.54839c-1.11447,-0.56608 -0.54839,-1.68056 -0.54839,-1.68056c3.76562,-7.41356 6.89833,-15.27921 10.96875,-22.5226c3.25587,-5.79387 7.30253,-11.27229 10.91801,-16.85094c4.11385,-6.34075 8.97552,-11.76312 12.62737,-18.43326l1.18414,-2.16283c0,0 0.60029,-1.09643 1.69672,-0.49614z" fill="#00ca6c" stroke="none" stroke-width="0.5" stroke-linecap="butt"/><path d="M229.72331,39.4782c-0.91969,-0.84656 -0.07313,-1.76625 -0.07313,-1.76625l0.65208,-0.70841c0.07918,-0.08602 0.15805,-0.17208 0.23662,-0.25816c-6.51505,-0.53935 -12.85617,-0.97448 -19.40141,-0.80154l-0.57414,0.01517c0,0 -1.24956,0.03302 -1.28258,-1.21655c-0.03302,-1.24956 1.21655,-1.28258 1.21655,-1.28258l0.57414,-0.01517c6.77539,-0.17902 13.33984,0.28125 20.09103,0.84385c0,0 0.70198,0.0585 1.00809,0.61463c3.16479,-3.68121 5.8648,-7.46583 8.5979,-11.60492c0,0 0.68878,-1.04311 1.73189,-0.35433c1.04311,0.68878 0.35433,1.73189 0.35433,1.73189c-3.32581,5.03671 -6.62256,9.57698 -10.71303,14.02082l-0.65208,0.70841c0,0 -0.84656,0.91969 -1.76625,0.07313z" fill="#00ca6c" stroke="none" stroke-width="0.5" stroke-linecap="butt"/><path d="M109.6143,43.8326c-0.3253,-1.20693 0.88162,-1.53223 0.88162,-1.53223c7.24157,-1.95183 16.21939,-4.37163 23.46096,-6.32346c0,0 1.20693,-0.3253 1.53223,0.88162c0.3253,1.20693 -0.88162,1.53223 -0.88162,1.53223c-7.24157,1.95183 -14.48314,3.90366 -21.72471,5.85549l-1.73625,0.46797c0,0 -1.20693,0.3253 -1.53223,-0.88162z" fill="#00ca6c" stroke="none" stroke-width="0.5" stroke-linecap="butt"/><path d="M196.81797,104.69239c-1.24971,-0.02677 -1.22294,-1.27648 -1.22294,-1.27648c0.16061,-7.49828 0.32817,-15.32117 0.48879,-22.81945c0,0 0.02677,-1.24971 1.27648,-1.22294c1.24971,0.02677 1.22294,1.27648 1.22294,1.27648c-0.16061,7.49828 -0.32122,14.99656 -0.48183,22.49484l-0.00695,0.32461c0,0 -0.02677,1.24971 -1.27648,1.22294z" fill="#00ca6c" stroke="none" stroke-width="0.5" stroke-linecap="butt"/><path d="M169.80611,177.10113c-0.52624,-1.13383 0.60759,-1.66007 0.60759,-1.66007l1.55861,-0.72339c6.95765,-3.22921 13.02387,-6.50119 19.25516,-10.97992c0,0 1.01502,-0.72955 1.74456,0.28547c0.72955,1.01502 -0.28547,1.74456 -0.28547,1.74456c-2.69488,1.93695 -5.35523,4.22698 -8.219,5.90056c-3.57393,2.08859 -7.68593,3.57335 -11.44277,5.31698l-1.55861,0.72339c0,0 -1.13383,0.52624 -1.66007,-0.60759z" fill="#00ca6c" stroke="none" stroke-width="0.5" stroke-linecap="butt"/><path d="M235.10676,285.82331c-1.19976,-0.35083 -0.84893,-1.55059 -0.84893,-1.55059l0.5218,-1.78443c3.51875,-12.03331 6.20286,-24.05785 8.74044,-36.33345c0,0 0.25305,-1.22412 1.47717,-0.97107c1.22412,0.25305 0.97107,1.47717 0.97107,1.47717c-2.55104,12.3407 -5.25168,24.43163 -8.78916,36.52902l-0.5218,1.78443c0,0 -0.35083,1.19976 -1.55059,0.84893z" fill="#00ca6c" stroke="none" stroke-width="0.5" stroke-linecap="butt"/><path d="M2.5904,178.05664c-0.38201,-1.1902 0.80818,-1.57221 0.80818,-1.57221l0.35768,-0.1148c6.51561,-2.0913 12.72612,-3.96807 19.48683,-5.06537c14.79922,-2.402 29.59956,-4.74206 44.336,-7.50514c0,0 1.22859,-0.23036 1.45895,0.99823c0.23036,1.22859 -0.99823,1.45895 -0.99823,1.45895c-14.75647,2.76684 -29.57687,5.11041 -44.3962,7.51567c-6.63839,1.07745 -12.72374,2.92399 -19.12332,4.97806l-0.35768,0.1148c0,0 -1.1902,0.38201 -1.57221,-0.80818z" fill="#00ca6c" stroke="none" stroke-width="0.5" stroke-linecap="butt"/><path d="M95.74552,290.27018c-1.24768,0.07617 -1.32385,-1.1715 -1.32385,-1.1715l-0.13989,-2.29129c-0.6457,-10.57633 -0.29349,-21.83941 -2.27351,-32.24441c-2.30504,-12.18097 -3.98177,-24.70956 -7.39162,-36.62906c-1.24196,-4.3414 -1.85021,-10.03519 -4.79821,-13.47913c-6.31862,-7.56488 -12.26292,-15.92011 -19.16432,-22.9505c-3.4383,-3.50256 -7.54937,-6.54139 -11.25933,-9.75862c0,0 -0.94437,-0.81894 -0.12542,-1.76331c0.81894,-0.94437 1.76331,-0.12542 1.76331,-0.12542c3.76108,3.26156 7.91948,6.34487 11.4055,9.89603c6.94944,7.07931 12.93681,15.48214 19.299,23.09918c3.1832,3.88805 3.90857,9.58948 5.28306,14.39417c3.43113,11.99391 5.12505,24.59501 7.44444,36.85182c1.98075,10.52267 1.65974,21.86565 2.31246,32.5569l0.13989,2.29129c0,0 0.07617,1.24768 -1.1715,1.32385z" fill="#00ca6c" stroke="none" stroke-width="0.5" stroke-linecap="butt"/><path d="M39.48613,250.68191c-1.24974,0.02535 -1.2751,-1.22439 -1.2751,-1.22439l-0.03238,-1.59634c-0.21994,-10.84179 -0.45661,-21.67652 -0.45661,-32.52072c0,0 0,-1.25 1.25,-1.25c1.25,0 1.25,1.25 1.25,1.25c0,10.8273 0.2365,21.64513 0.4561,32.47002l0.03238,1.59634c0,0 0.02535,1.24974 -1.22439,1.2751z" fill="#00ca6c" stroke="none" stroke-width="0.5" stroke-linecap="butt"/><path d="M51.05783,237.35811c-0.57286,-1.111 0.53814,-1.68387 0.53814,-1.68387c9.6287,-4.9648 19.6975,-10.15652 29.3262,-15.12132c0,0 1.111,-0.57286 1.68387,0.53814c0.57286,1.111 -0.53814,1.68387 -0.53814,1.68387c-5.65304,2.91485 -11.30608,5.8297 -16.95912,8.74455c0.02646,0.10123 0.04054,0.20746 0.04054,0.31697c0,0.69036 -0.55964,1.25 -1.25,1.25c-0.38542,0 -0.73009,-0.17443 -0.95939,-0.44866c-3.25271,1.67718 -6.50542,3.35436 -9.75813,5.03154l-0.4401,0.22693c0,0 -1.111,0.57286 -1.68387,-0.53814z" fill="#00ca6c" stroke="none" stroke-width="0.5" stroke-linecap="butt"/><path d="M83.66639,227.71244c0,-0.69036 0.55964,-1.25 1.25,-1.25c0.69036,0 1.25,0.55964 1.25,1.25c0,0.69036 -0.55964,1.25 -1.25,1.25c-0.69036,0 -1.25,-0.55964 -1.25,-1.25z" fill="#00ca6c" stroke="none" stroke-width="0.5" stroke-linecap="butt"/><path d="M87.72364,108.97971c-2.7451,-5.14706 -6.05276,-11.34893 -8.79786,-16.49599c0,0 -0.58824,-1.10294 0.51471,-1.69118c1.10294,-0.58824 1.69118,0.51471 1.69118,0.51471c2.7451,5.14706 5.4902,10.29412 8.23529,15.44118l0.26059,0.48861c0.58566,-4.03335 1.20227,-8.07232 2.1267,-11.99158c1.7147,-7.26969 4.4359,-14.44592 6.63037,-21.58777c0,0 0.36715,-1.19487 1.56201,-0.82772c1.19487,0.36715 0.82772,1.56201 0.82772,1.56201c-2.17803,7.08835 -4.8851,14.21248 -6.58688,21.4274c-1.51196,6.41015 -2.18863,13.14775 -3.27181,19.64639l-0.36736,2.20401c0,0 -0.20551,1.23299 -1.4385,1.02748c-1.23299,-0.20551 -1.02748,-1.4385 -1.02748,-1.4385l0.36736,-2.20401c0.30325,-1.8194 0.57529,-3.65705 0.8427,-5.50091c-1.02399,0.4473 -1.56874,-0.57413 -1.56874,-0.57413z" fill="#00ca6c" stroke="none" stroke-width="0.5" stroke-linecap="butt"/><path d="M240.38693,81.62185c-0.72369,1.0192 -1.74289,0.29551 -1.74289,0.29551l-1.2687,-0.90085c-8.16851,-5.80012 -16.19927,-11.75407 -24.20587,-17.77541c-4.65847,-3.50339 -9.56118,-6.82376 -14.0358,-10.55757c-7.02246,-5.85983 -13.52586,-12.49716 -20.24422,-18.70565c0,0 -0.91803,-0.84836 -0.06967,-1.76639c0.84836,-0.91803 1.76639,-0.06967 1.76639,-0.06967c6.68721,6.1797 13.15945,12.78965 20.14922,18.62221c4.44199,3.70658 9.31209,7.00112 13.9367,10.47904c7.98841,6.00765 16.0007,11.94811 24.15064,17.73504l1.2687,0.90085c0,0 1.0192,0.72369 0.29551,1.74289z" fill="#00ca6c" stroke="none" stroke-width="0.5" stroke-linecap="butt"/><path d="M226.38725,42.40757c0,-0.69036 0.55964,-1.25 1.25,-1.25c0.69036,0 1.25,0.55964 1.25,1.25c0,0.69036 -0.55964,1.25 -1.25,1.25c-0.69036,0 -1.25,-0.55964 -1.25,-1.25z" fill="#00ca6c" stroke="none" stroke-width="0.5" stroke-linecap="butt"/><path d="M275.65084,-20.61116c0.6089,1.09167 -0.48277,1.70057 -0.48277,1.70057l-0.7094,0.39568c-2.22014,1.23833 -4.44034,2.47646 -6.6635,3.70938c-14.36505,4.58059 -29.15355,7.34399 -43.75396,11.13448c0,0 -1.20989,0.31411 -1.524,-0.89578c-0.31411,-1.20989 0.89578,-1.524 0.89578,-1.524c14.47872,-3.7589 29.12589,-6.54174 43.39135,-11.00997c2.14333,-1.20308 4.28995,-2.40015 6.43652,-3.59744l0.7094,-0.39568c0,0 1.09167,-0.6089 1.70057,0.48277z" fill="#00ca6c" stroke="none" stroke-width="0.5" stroke-linecap="butt"/><path d="M248.02508,81.73211c-0.55902,-1.11803 0.55902,-1.67705 0.55902,-1.67705c3.72678,-1.86339 9.47001,-4.73501 13.19679,-6.5984c0,0 1.11803,-0.55902 1.67705,0.55902c0.55902,1.11803 -0.55902,1.67705 -0.55902,1.67705c-3.72678,1.86339 -7.45356,3.72678 -11.18034,5.59017l-2.01645,1.00823c0,0 -1.11803,0.55902 -1.67705,-0.55902z" fill="#00ca6c" stroke="none" stroke-width="0.5" stroke-linecap="butt"/><path d="M41.4675,71.56539c-0.83977,-0.9259 0.08612,-1.76567 0.08612,-1.76567l0.10468,-0.09494c2.5383,-2.3022 4.93461,-4.64672 7.80718,-6.52493c12.56702,-8.18963 25.13404,-16.37926 37.70106,-24.56888c0,0 1.04725,-0.68247 1.72972,0.36478c0.68247,1.04725 -0.36478,1.72972 -0.36478,1.72972c-12.56702,8.18963 -25.13404,16.37926 -37.70106,24.56888c-2.76178,1.79331 -5.05648,4.07272 -7.49257,6.28222l-0.10468,0.09494c0,0 -0.9259,0.83977 -1.76567,-0.08612z" fill="#00ca6c" stroke="none" stroke-width="0.5" stroke-linecap="butt"/><path d="M161.40758,0.33743c-0.26957,1.22059 -1.49016,0.95101 -1.49016,0.95101l-0.13028,-0.02877c-11.39798,-2.5173 -22.71575,-5.33911 -34.09328,-7.94646c0,0 -1.21842,-0.27922 -0.9392,-1.49764c0.27922,-1.21842 1.49764,-0.9392 1.49764,-0.9392c11.37112,2.60588 22.68245,5.42624 34.07399,7.94212l0.13028,0.02877c0,0 1.22059,0.26957 0.95101,1.49016z" fill="#00ca6c" stroke="none" stroke-width="0.5" stroke-linecap="butt"/><path d="M92.38655,70.55092c-1.19995,-0.35018 -0.84977,-1.55013 -0.84977,-1.55013c0.23345,-0.79997 0.99072,-3.3949 1.22418,-4.19487c1.86708,-6.39791 3.74152,-12.79359 5.57909,-19.20004c1.09061,-3.80226 2.87869,-7.9264 3.40931,-11.83885c0.38742,-2.85658 0.48492,-5.98937 0.23706,-9.0838c-0.68821,0.23713 -1.37192,0.48369 -2.05029,0.74116c-3.11717,1.18083 -6.23434,2.36167 -9.35151,3.5425l-0.82649,0.31309c0,0 -1.16894,0.44281 -1.61175,-0.72613c-0.44281,-1.16894 0.72613,-1.61175 0.72613,-1.61175c3.11717,-1.18083 7.06082,-2.67475 10.17799,-3.85559c0.87594,-0.33121 1.76032,-0.64483 2.65149,-0.94388c-0.37696,-2.59932 -1.01594,-5.10785 -1.95128,-7.33075c-5.8176,-13.8259 -11.6352,-27.6518 -17.45279,-41.4777c0,0 -0.4848,-1.15216 0.66736,-1.63696c1.15216,-0.4848 1.63696,0.66736 1.63696,0.66736c5.8176,13.8259 11.6352,27.6518 17.45279,41.4777c1.02884,2.44511 1.69869,4.96021 2.07839,7.52308c5.49291,-1.67561 11.18141,-2.91211 16.68864,-4.39157c9.65123,-2.5927 19.19556,-5.48726 28.75861,-8.38703c14.3487,-4.35092 28.70619,-8.65375 42.96808,-13.282c0,0 1.18896,-0.38584 1.5748,0.80312c0.38584,1.18896 -0.80312,1.5748 -0.80312,1.5748c-14.27727,4.63324 -28.65016,8.9409 -43.01431,13.29651c-9.58853,2.90751 -19.15849,5.80938 -28.83545,8.409c-5.62618,1.51142 -11.455,2.75738 -17.05584,4.50045c1.056,13.84467 -5.52683,28.84583 -9.25398,41.61762c-0.23345,0.79997 -0.4669,1.59993 -0.70035,2.3999l-0.52382,1.79497c0,0 -0.35018,1.19995 -1.55013,0.84977z" fill="#00ca6c" stroke="none" stroke-width="0.5" stroke-linecap="butt"/><path d="M428.68634,120.87098c-1.20725,-0.32413 -0.88312,-1.53137 -0.88312,-1.53137l0.45667,-1.70093c1.08905,-4.05628 2.81073,-7.85173 3.96212,-11.86229c2.42707,-8.45408 4.07668,-18.04869 4.71206,-26.79901c1.07885,-14.85793 1.87906,-29.84266 0.12178,-44.67069c0,0 -0.14711,-1.24131 1.0942,-1.38842c1.24131,-0.14711 1.38842,1.0942 1.38842,1.0942c1.77607,14.98649 0.97942,30.12921 -0.11097,45.14596c-0.64749,8.91719 -2.3286,18.69044 -4.80256,27.30781c-1.14808,3.99906 -2.86509,7.77775 -3.95056,11.82069l-0.45667,1.70093c0,0 -0.32413,1.20725 -1.53137,0.88312z" fill="#00ca6c" stroke="none" stroke-width="0.5" stroke-linecap="butt"/><path d="M410.08794,51.58082c-1.2002,-0.34933 -0.85087,-1.54952 -0.85087,-1.54952l0.1241,-0.42637c1.87756,-6.45081 3.23364,-12.55016 3.44496,-19.28514c0.46477,-14.81241 -1.97016,-29.81498 -5.05767,-44.28765c0,0 -0.2608,-1.22249 0.96169,-1.48329c1.22249,-0.2608 1.48329,0.96169 1.48329,0.96169c3.12971,14.67053 5.58258,29.87287 5.11146,44.88765c-0.21794,6.94588 -1.60716,13.25319 -3.54334,19.90539l-0.1241,0.42637c0,0 -0.34933,1.2002 -1.54952,0.85087z" fill="#00ca6c" stroke="none" stroke-width="0.5" stroke-linecap="butt"/><path d="M466.68695,44.63942c-1.13213,0.5299 -1.66202,-0.60223 -1.66202,-0.60223l-0.91968,-1.96489c-6.03101,-12.88522 -10.88719,-26.15266 -16.21415,-39.3367c0,0 -0.46828,-1.15897 0.69069,-1.62725c1.15897,-0.46828 1.62725,0.69069 1.62725,0.69069c5.31014,13.14242 10.14858,26.36913 16.16045,39.21345l0.91968,1.96489c0,0 0.5299,1.13213 -0.60223,1.66202z" fill="#00ca6c" stroke="none" stroke-width="0.5" stroke-linecap="butt"/><path d="M543.9932,63.84338c-1.0908,0.61045 -1.70125,-0.48035 -1.70125,-0.48035l-0.46499,-0.83088c-0.70138,-1.25329 -1.3789,-2.55818 -2.05443,-3.88193c-2.46014,2.74899 -4.89861,5.51754 -7.35993,8.26645c0.91172,1.02511 1.8419,2.0165 2.80356,2.95364l0.95419,1.63025c0,0 0.59975,1.09672 -0.49698,1.69647c-1.09672,0.59975 -1.69647,-0.49698 -1.69647,-0.49698l-0.50579,-1.03955c-0.93444,-0.91113 -1.84005,-1.88039 -2.72899,-2.8861c-2.70471,2.99351 -5.44875,5.95298 -8.2903,8.82724c-9.39667,9.50481 -18.54563,19.27906 -27.97017,28.76067c2.20217,4.82571 4.44948,9.63332 6.75836,14.42491l0.25701,0.53336c0,0 0.54262,1.12608 -0.58347,1.6687c-1.12608,0.54262 -1.6687,-0.58347 -1.6687,-0.58347l-0.25701,-0.53336c-2.18059,-4.52534 -4.3072,-9.06468 -6.39269,-13.62011c-1.70761,1.70338 -3.42532,3.39602 -5.15622,5.07461l-0.37204,0.3608c0,0 -0.89734,0.87022 -1.76756,-0.02712c-0.87022,-0.89734 0.02712,-1.76756 0.02712,-1.76756l0.37204,-0.3608c1.94513,-1.88635 3.87359,-3.79047 5.78975,-5.70768c-3.07038,-6.7613 -6.05541,-13.55877 -8.99692,-20.39922c-2.42234,-4.80332 -5.05305,-9.45556 -7.82727,-14.01449c0.83032,3.56678 1.66065,7.13357 2.49097,10.70035l0.48366,2.07765c0,0 0.28341,1.21745 -0.93403,1.50086c-1.21745,0.28341 -1.50086,-0.93403 -1.50086,-0.93403c-1.38159,-5.93483 -3.16725,-13.60544 -4.61832,-19.83872c-3.79165,-5.86753 -7.77591,-11.62259 -11.80727,-17.39475c0,0 -0.71574,-1.0248 0.30906,-1.74054c1.0248,-0.71574 1.74054,0.30906 1.74054,0.30906c2.6506,3.79516 5.28028,7.5833 7.84876,11.40047c-0.35414,-1.40797 -0.65084,-2.81621 -0.78502,-4.19416c-0.31804,-3.26609 0.22702,-6.87535 0.34059,-10.15838c0.20128,-5.81853 -0.20044,-12.0491 1.38282,-17.70374c0.67176,-2.39918 1.81813,-4.78712 2.70556,-7.11662c0,0 0.44499,-1.16811 1.6131,-0.72312c1.16811,0.44499 0.72312,1.6131 0.72312,1.6131c-0.86037,2.25846 -1.98301,4.57437 -2.63437,6.90069c-1.52578,5.44932 -1.09776,11.5091 -1.29173,17.11611c-0.10971,3.17152 -0.65799,6.6756 -0.35086,9.82966c0.30713,3.15406 1.52113,6.48654 2.24064,9.57731c0.10082,0.43309 0.20164,0.86617 0.30246,1.29926c4.25715,6.6079 8.26907,13.35994 11.83394,20.43687c2.82303,6.55665 5.68266,13.07505 8.61863,19.56023c9.18845,-9.26914 18.1252,-18.80552 27.29854,-28.08443c2.88996,-2.92321 5.6793,-5.93424 8.42901,-8.97952c-4.4711,-5.34009 -8.70322,-11.28319 -14.33184,-14.91546c-12.6019,-8.19975 -24.79203,-16.55527 -38.39518,-22.98273c0,0 -1.13019,-0.53401 -0.59618,-1.6642c0.53401,-1.13019 1.6642,-0.59618 1.6642,-0.59618c13.70705,6.47655 25.99356,14.88597 38.69063,23.14765c5.76234,3.77694 10.05926,9.74604 14.63202,15.15987c2.60488,-2.91024 5.18502,-5.8417 7.79305,-8.74816c-1.58072,-3.09806 -3.22113,-6.19246 -5.19488,-8.87381c-1.88731,-2.56392 -4.58807,-4.82399 -6.78148,-7.13689c-5.16086,-5.44201 -10.32172,-10.88403 -15.48258,-16.32604c-2.76017,-2.91053 -5.40596,-6.41223 -8.49167,-8.9674c-2.45814,-2.03551 -5.6028,-3.59106 -8.2905,-5.31887c0,0 -1.05147,-0.67595 -0.37553,-1.72742c0.67595,-1.05147 1.72742,-0.37553 1.72742,-0.37553c2.77322,1.78278 5.99606,3.39546 8.53307,5.49628c3.16551,2.62126 5.88062,6.18786 8.7112,9.17264c5.16086,5.44201 10.32172,10.88403 15.48258,16.32604c2.26579,2.38923 5.03067,4.72585 6.98082,7.37514c1.87379,2.54555 3.45455,5.44721 4.96558,8.37759c3.54138,-3.90487 7.15538,-7.74501 10.97143,-11.40673c0,0 0.90193,-0.86546 1.76739,0.03648c0.86546,0.90193 -0.03648,1.76739 -0.03648,1.76739c-4.00195,3.84009 -7.78122,7.87718 -11.48769,11.97941c0.80762,1.58418 1.61249,3.1508 2.45019,4.64766l0.46499,0.83088c0,0 0.61045,1.0908 -0.48035,1.70125z" fill="#00ca6c" stroke="none" stroke-width="0.5" stroke-linecap="butt"/><path d="M539.58213,107.09149c-0.89949,-0.868 -0.03149,-1.76749 -0.03149,-1.76749l0.04931,-0.0511c5.65769,-5.86294 12.51091,-11.25983 17.61634,-17.58086c2.012,-2.49106 3.55302,-5.62314 5.26855,-8.33082c5.8551,-9.24125 11.76906,-18.40166 17.31102,-27.80272c-1.99083,-13.12862 -3.988,-26.25591 -6.0267,-39.37724c-2.97965,-14.65789 -5.59389,-29.44985 -9.11784,-43.98618c0,0 -0.2945,-1.21481 0.92031,-1.50931c1.21481,-0.2945 1.50931,0.92031 1.50931,0.92031c3.53577,14.58505 6.16329,29.42631 9.14901,44.13414c1.88649,12.12042 3.73262,24.2467 5.57224,36.37422c1.35574,-2.35651 2.68516,-4.73036 3.98162,-7.12652c0,0 0.59484,-1.0994 1.69423,-0.50456c1.0994,0.59484 0.50456,1.69423 0.50456,1.69423c-1.80321,3.33275 -3.66979,6.62258 -5.58206,9.8827c0.08714,0.57478 0.17427,1.14956 0.2614,1.72434l0.08074,0.53264c0,0 0.18734,1.23588 -1.04854,1.42322c-0.63511,0.09627 -0.99331,-0.1833 -1.19149,-0.47786c-5.13206,8.57483 -10.54311,16.97221 -15.906,25.43659c-1.76734,2.78943 -3.3623,5.99681 -5.43551,8.56365c-5.15485,6.38222 -12.05108,11.8277 -17.76222,17.74602l-0.04931,0.0511c0,0 -0.868,0.89949 -1.76749,0.03149z" fill="#00ca6c" stroke="none" stroke-width="0.5" stroke-linecap="butt"/><path d="M538.26066,134.08435c-1.22384,0.25441 -1.47825,-0.96942 -1.47825,-0.96942l-0.24938,-1.19961c-3.05835,-14.71197 -7.28352,-29.00623 -10.98007,-43.56121c0,0 -0.3077,-1.21154 0.90384,-1.51923c1.21154,-0.3077 1.51923,0.90384 1.51923,0.90384c3.70549,14.59017 7.93886,28.91995 11.00466,43.66777l0.24938,1.19961c0,0 0.25441,1.22384 -0.96942,1.47825z" fill="#00ca6c" stroke="none" stroke-width="0.5" stroke-linecap="butt"/><path d="M385.89257,96.84391c-1.09936,-0.59491 -0.50445,-1.69426 -0.50445,-1.69426l0.36199,-0.66894c2.28097,-4.16193 2.70497,-9.43393 3.58263,-14.0778c1.7267,-9.13632 2.88567,-17.75155 3.23718,-27.04526c0,0 0.04724,-1.24911 1.29635,-1.20186c1.24911,0.04724 1.20186,1.29635 1.20186,1.29635c-0.35603,9.41304 -1.53018,18.16231 -3.27888,27.41504c-0.9344,4.9441 -1.4563,10.34837 -3.84043,14.80335l-0.36199,0.66894c0,0 -0.59491,1.09936 -1.69426,0.50445z" fill="#00ca6c" stroke="none" stroke-width="0.5" stroke-linecap="butt"/><path d="M442.05849,299.84804c-1.20288,0.33996 -1.54285,-0.86292 -1.54285,-0.86292l-0.56147,-1.98663c-4.06655,-14.38847 -6.81422,-29.16281 -12.58561,-42.95995c0,0 -0.48238,-1.15317 0.6708,-1.63555c1.15317,-0.48238 1.63555,0.6708 1.63555,0.6708c5.81204,13.8943 8.59035,28.75675 12.68503,43.24477l0.56147,1.98663c0,0 0.33996,1.20288 -0.86292,1.54285z" fill="#00ca6c" stroke="none" stroke-width="0.5" stroke-linecap="butt"/><path d="M387.19262,296.99555c0,-0.69036 0.55964,-1.25 1.25,-1.25c0.69036,0 1.25,0.55964 1.25,1.25c0,0.69036 -0.55964,1.25 -1.25,1.25c-0.69036,0 -1.25,-0.55964 -1.25,-1.25z" fill="#00ca6c" stroke="none" stroke-width="0.5" stroke-linecap="butt"/><path d="M407.0025,304.46371c-1.1447,-0.50215 -0.64256,-1.64685 -0.64256,-1.64685c3.01289,-6.86822 6.27371,-14.30163 9.2866,-21.16985c0,0 0.50215,-1.1447 1.64685,-0.64256c1.1447,0.50215 0.64256,1.64685 0.64256,1.64685c-3.01289,6.86822 -6.02578,13.73645 -9.03867,20.60467l-0.24793,0.56518c0,0 -0.50215,1.1447 -1.64685,0.64256z" fill="#00ca6c" stroke="none" stroke-width="0.5" stroke-linecap="butt"/><path d="M482.55704,338.40367c-0.99294,0.75932 -1.75226,-0.23362 -1.75226,-0.23362l-1.20132,-1.57093c-4.49574,-5.87897 -10.35375,-10.49965 -16.13927,-15.10033c-7.1386,-5.69163 -16.07587,-8.85616 -23.46654,-14.18077c-4.69218,-3.38048 -8.91617,-7.7752 -13.27547,-11.58019c0,0 -0.94173,-0.82198 -0.11975,-1.76371c0.82198,-0.94173 1.76371,-0.11975 1.76371,-0.11975c4.29972,3.75298 8.46552,8.10146 13.09288,11.43524c7.42605,5.3501 16.37052,8.5484 23.56118,14.25243c5.94902,4.7307 11.94522,9.49183 16.56915,15.53844l1.20132,1.57093c0,0 0.75932,0.99294 -0.23362,1.75226z" fill="#00ca6c" stroke="none" stroke-width="0.5" stroke-linecap="butt"/><path d="M479.08141,295.62089c0,-0.69036 0.55964,-1.25 1.25,-1.25c0.69036,0 1.25,0.55964 1.25,1.25c0,0.69036 -0.55964,1.25 -1.25,1.25c-0.69036,0 -1.25,-0.55964 -1.25,-1.25z" fill="#00ca6c" stroke="none" stroke-width="0.5" stroke-linecap="butt"/><path d="M508.59947,275.69844c-1.2474,-0.08058 -1.16682,-1.32798 -1.16682,-1.32798l0.09175,-1.42039c0.59033,-9.13862 1.37789,-18.15047 0.88503,-27.29973c0,0 -0.06724,-1.24819 1.18095,-1.31543c1.24819,-0.06724 1.31543,1.18095 1.31543,1.18095c0.49825,9.24927 -0.28989,18.3577 -0.88661,27.59536l-0.09175,1.42039c0,0 -0.08058,1.2474 -1.32798,1.16682z" fill="#00ca6c" stroke="none" stroke-width="0.5" stroke-linecap="butt"/><path d="M438.04585,348.05076c-1.01737,0.72626 -1.74363,-0.29111 -1.74363,-0.29111l-0.93182,-1.31689c-2.28535,-4.07477 -2.72217,-8.00533 -2.72217,-12.60616c0,0 0,-1.25 1.25,-1.25c1.25,0 1.25,1.25 1.25,1.25c0,4.13914 0.29189,7.71514 2.39635,11.3721l0.79238,1.09843c0,0 0.72626,1.01737 -0.29111,1.74363z" fill="#00ca6c" stroke="none" stroke-width="0.5" stroke-linecap="butt"/><path d="M528.55749,387.31333c-1.23944,-0.16216 -1.07728,-1.40159 -1.07728,-1.40159l0.00057,-0.00433c1.08527,-8.29001 2.4051,-16.36753 3.07369,-24.72057c0.73158,-9.14004 1.86111,-18.23353 2.58932,-27.37382c0.46533,-5.84074 1.14364,-11.30266 0.20712,-17.09778c0,0 -0.19942,-1.23399 1.03457,-1.43341c1.23399,-0.19942 1.43341,1.03457 1.43341,1.03457c0.97032,6.0042 0.29853,11.65127 -0.18299,17.69517c-0.72824,9.14063 -1.85779,18.23442 -2.58939,27.37474c-0.67182,8.39333 -1.99775,16.51554 -3.08684,24.84542l-0.00057,0.00433c0,0 -0.16216,1.23944 -1.40159,1.07728z" fill="#00ca6c" stroke="none" stroke-width="0.5" stroke-linecap="butt"/><path d="M620.7216,341.87037c-0.61058,1.09073 -1.70131,0.48016 -1.70131,0.48016l-1.87075,-1.10081c-2.93113,-2.92807 -5.69086,-6.00641 -8.64058,-8.9205c-11.97637,-9.42938 -21.75411,-20.59762 -31.38994,-32.34129c0,0 -0.7929,-0.96634 0.17345,-1.75924c0.96634,-0.7929 1.75924,0.17345 1.75924,0.17345c9.55824,11.64911 19.24839,22.68293 31.11162,32.05276c2.99113,2.94594 5.78436,6.06245 8.75278,9.02585l1.32534,0.68832c0,0 1.09073,0.61058 0.48016,1.70131z" fill="#00ca6c" stroke="none" stroke-width="0.5" stroke-linecap="butt"/><path d="M540.55056,294.05972c-1.18816,-0.3883 -0.79985,-1.57646 -0.79985,-1.57646l0.52067,-1.59319c1.30949,-3.9932 3.36027,-7.98106 5.75194,-11.45414c2.3575,-3.42345 5.43065,-6.21071 7.51951,-9.8315c7.40004,-12.7784 16.16985,-25.48293 21.92508,-39.08001c0,0 0.48724,-1.15113 1.63837,-0.66389c1.15113,0.48724 0.66389,1.63837 0.66389,1.63837c-5.79682,13.69534 -14.61072,26.48818 -22.06392,39.35838c-4.20985,7.24415 -10.38037,12.58453 -13.05856,20.80941l-0.52067,1.59319c0,0 -0.3883,1.18816 -1.57646,0.79985z" fill="#00ca6c" stroke="none" stroke-width="0.5" stroke-linecap="butt"/><path d="M483.19989,288.77608c-0.85332,0.91343 -1.76674,0.06011 -1.76674,0.06011l-0.24437,-0.22829c-3.41925,-3.19423 -5.54506,-6.03782 -7.68596,-10.19865c-7.01207,-13.21187 -13.96504,-26.42405 -22.54493,-38.70881c0,0 -0.71574,-1.0248 0.30906,-1.74054c1.0248,-0.71574 1.74054,0.30906 1.74054,0.30906c8.64131,12.37272 15.64896,25.6757 22.711,38.98235c2.024,3.93345 3.94534,6.51082 7.17692,9.52972l0.24437,0.22829c0,0 0.91343,0.85332 0.06011,1.76674z" fill="#00ca6c" stroke="none" stroke-width="0.5" stroke-linecap="butt"/><path d="M418.4697,139.53419l-1.22963,-0.27238c-0.36337,-0.24549 -0.74764,-0.48073 -1.14538,-0.70613l0.05239,-0.01914l-0.95768,-0.93563c-0.2152,-0.21663 -0.49772,-0.36672 -0.93822,-0.38196c-0.68994,-0.02387 -1.26103,0.29476 -1.27552,0.71329c-0.00311,0.09 0.01973,0.17678 0.06442,0.25851l-0.03918,0.12136c-3.02109,-2.15405 -0.51345,-3.93999 0.54283,-6.25235c0.19535,-0.42766 0.45305,-0.84838 0.57398,-1.28759c0.07933,-0.28811 0.01662,-0.58847 0.02457,-0.88208c0.00391,-0.14452 0.07364,-0.55063 0.10287,-0.40646c0.57766,2.84951 6.22455,3.38742 10.06142,3.52019c0.75976,0.02629 4.37594,0.51447 4.77661,0.44586c2.53537,-0.4342 3.94559,-2.64836 5.7471,-3.65766c0.17731,-0.09934 3.77825,-1.83692 3.90739,-1.79042c2.47718,0.89187 2.19033,3.67225 4.01824,4.92524l0.39907,0.78239c0.14628,0.3151 0.62362,0.55889 1.18559,0.57833c0.68994,0.02387 1.21557,-0.24305 1.23005,-0.66158l0.03476,-0.90828c0.29113,-0.78795 -0.38589,-1.7316 0.02561,-2.49704c0.26985,-0.50195 1.47441,-0.59856 1.94948,-1.03714c0.04723,-0.0436 1.38235,-1.81424 2.11695,-1.42171c0.54724,0.29241 0.57786,0.84072 1.10741,1.145c1.2807,0.73589 3.38768,1.18287 5.2239,1.76515c-0.34754,0.48088 -0.70121,0.93189 -1.12249,1.29307c-0.8317,0.71306 -2.38642,1.04976 -3.14062,1.79486c-0.62088,0.61339 -0.01927,2.68257 1.23788,2.95284c1.51565,0.32584 2.33726,-0.93534 2.83377,-1.47201c3.69289,0.3946 7.34261,-1.60311 5.07654,-3.95948c-0.46071,-0.47907 -1.1526,-0.86677 -1.96558,-1.20693c0.04948,-0.08393 0.10016,-0.16701 0.1518,-0.24962c0.14291,-0.22862 2.5678,-1.54688 2.99228,-1.34539c1.64363,0.78021 2.61428,2.52484 3.89771,3.56359c1.00133,0.81043 2.1738,1.79251 2.64157,2.77219c0.00131,0.01059 -0.09528,0.032 -0.09449,0.04247c-0.92372,-0.02353 -1.7003,-0.0161 -1.90742,0.06146c-0.56777,0.21261 -0.49228,0.76544 -0.87026,1.09892c-1.57256,1.38744 -5.1417,3.2104 -3.85493,5.25483c0.02427,0.03856 0.05006,0.07688 0.07739,0.11455l-0.03361,0.00562l0.45887,0.91154c0.14628,0.3151 0.51883,0.53561 1.08079,0.55505c0.56196,0.01945 1.0443,-0.18777 1.21201,-0.492l0.52071,-0.87397l-0.06848,-0.01632l0.12046,-0.10003c0.07531,-2.17637 2.88706,-3.29225 4.54845,-4.76346c0.15584,0.39206 0.04843,0.90593 0.37722,1.26981c0.23011,0.25467 0.72979,0.39349 0.97845,0.64192c1.36887,1.36759 -0.87509,3.04198 -1.32123,4.29715c-0.31942,0.89865 -0.08918,2.11299 -0.10747,3.0358c-0.04839,0.17281 -0.10504,0.90833 -1.04367,0.54409c-2.34453,-0.90981 -4.63665,-3.13429 -8.14502,-2.35037c-0.88835,0.1985 -1.39196,0.77678 -2.13984,1.12403c-1.85889,0.86309 -3.74894,1.31588 -5.66647,2.0107c-0.12758,0.04623 -2.9068,1.5734 -3.54602,1.31606c-0.98073,-0.39483 -1.1343,-1.25056 -1.73697,-1.86376c-1.68511,-1.71454 -3.2181,-2.27004 -6.49769,-2.39482c-2.8657,-0.01554 -4.35412,1.18957 -6.97708,1.61487c-0.652,0.10572 -1.5303,0.63756 -1.96301,0.30865c-0.41861,-0.3182 -0.276,-0.83742 -0.73873,-1.13245c-1.08969,-0.69477 -5.40649,-1.90533 -6.96034,-2.26081c-1.18626,-0.27138 -3.31505,0.19729 -4.38392,-0.12889c-0.81982,-0.25017 -1.47695,-0.68021 -2.29172,-0.93673c-0.25701,-0.08092 -0.50815,-0.4671 -0.75512,-0.94472l0.82529,0.17058c0,0 1.07968,0.29275 1.4996,-0.41251c0.41993,-0.70526 -0.75763,-0.98814 -0.75763,-0.98814z" data-paper-data="{&quot;noHover&quot;:false,&quot;origItem&quot;:[&quot;Path&quot;,{&quot;applyMatrix&quot;:true,&quot;segments&quot;:[[[445.18103,565.61837],[2.37171,0.79057],[-2.37171,-0.79057]],[443.59989,562.4561],[[444.11858,560.98815],[0,0],[-1.54558,0.52669]],[[441.09823,562.56099],[0.23732,-0.5193],[-0.75234,1.6463]],[[438.2813,567.20337],[0.73084,-1.65596],[-0.95286,2.15903]],[[438.36433,575.97113],[0.75894,-2.38987],[-0.99412,3.13043]],[[431.73937,590.01443],[2.16501,-2.22613],[-0.91937,0.94532]],[[428.09823,591.56099],[1.00073,-0.85872],[-1.03444,0.88766]],[[429.34331,595.4561],[-0.42267,-1.2959],[1.70041,5.21337]],[[435.4716,609.24667],[-0.27554,-5.72904],[-0.0372,6.56389]],[[428.31326,622.35616],[5.45725,-3.48678],[-1.95178,1.24704]],[[422.36924,625.95472],[1.18913,-1.98759],[-0.77506,1.29549]],[[427.09823,632.93234],[-0.16687,-0.25181],[2.50804,3.78472]],[[434.34519,644.09705],[-3.05583,-3.65587],[1.22943,1.47083]],[[438.2813,648.28996],[-0.75533,-1.7619],[2.98304,6.95831]],[[431.38089,664.914],[2.73051,-4.74919],[-1.09315,1.90133]],[[433.37206,666.77895],[-0.57493,-0.08476],[3.04276,-0.02729]],[[443.37206,666.77895],[-2.99747,-0.5763],[4.18663,0.80493]],[[457.65727,669.12004],[-4.35012,2.83069],[0.79023,-0.51422]],[[459.65727,667.12004],[-0.81291,0.47757],[1.1615,-0.68236]],[[463.81658,666.47725],[-1.27407,0.33861],[-5.03704,-3.21902]],[[447.57115,657.71438],[7.17972,0],[0,0]],[447.22703,657.48038],[447.18103,657.61837],[[444.23572,656.6366],[0,0],[-1.02156,-0.31417]],[[442.4716,654.24667],[0,1.1246],[0,-1.1246]],[[444.23572,651.85673],[-1.02156,0.31417],[0,0]],[447.18103,650.87496],[[447.20329,650.94173],[0,0],[0.12101,-0.05724]],[[447.57115,650.77895],[-0.12428,0.05117],[6.58968,-2.7134]],[[465.28593,658.12004],[-4.75091,-3.04727],[1.14192,0.73243]],[[468.99971,659.78489],[-0.76529,-1.12016],[0.27917,0.40863]],[[469.46745,663.78742],[-0.02778,-1.84796],[0.0344,-0.00231]],[[469.57115,663.77895],[-0.03474,0.00334],[3.17469,-1.00273]],[[478.38663,658.31331],[-2.5562,2.05752],[3.27633,-2.63717]],[[489.6619,650.28996],[-2.38338,3.33926],[0.61554,-0.8624]],[[485.01489,644.55636],[0.76959,0.26983],[-0.27808,-0.0975]],[[484.17428,644.27089],[0.28219,0.0931],[-1.02811,1.64852]],[[480.41172,648.2902],[1.52599,-0.954],[-7.50586,4.69242]],[[466.76741,638.42631],[-0.87915,7.40866],[-1.82493,-0.95531]],[[461.53848,632.67228],[-0.90084,3.05202],[0.7472,-2.5315]],[[471.08963,630.0106],[-2.09192,-1.19859],[2.54109,1.45595]],[[477.35835,636.16654],[-2.44436,-1.61309],[1.23812,0.81707]],[[481.74279,638.32428],[-1.62411,-0.66141],[1.70924,-3.71051]],[[486.9435,627.78489],[-2.27872,2.61077],[0.94221,-1.07951]],[[490.58532,625.50125],[-0.9011,1.11405],[1.20961,-1.49547]],[[485.65727,621.37329],[0.14906,0.09139],[-1.4993,-0.91923]],[[482.01489,617.55636],[1.6847,0.50465],[-2.56906,-0.76956]],[[473.9716,617.74667],[2.62948,0.5274],[0,0]],[[470.9716,617.74667],[0,0],[-1.38071,0]],[[468.4716,615.24667],[0,1.38071],[0,-1.1246]],[[470.23572,612.85673],[-1.02156,0.31417],[0,0]],[[472.76685,612.01302],[0,0],[3.92017,-3.74031]],[[488.53848,603.67228],[-2.65624,5.01309],[0.13847,-0.26134]],[[482.20383,596.01443],[0.34755,0.34755],[-3.53105,-3.53105]],[[469.53848,584.82105],[1.71975,5.03768],[-0.27178,-0.79611]],[[470.4716,575.24667],[0,1.52042],[0,-7.67832]],[[481.00109,554.70814],[-9.32324,1.35171],[0.47172,-0.06839]],[[479.57115,554.71438],[0.47665,-0.00217],[-0.96833,0.00441]],[[476.66614,554.72793],[0.95837,0.13863],[-1.46099,-0.21134]],[[472.36526,553.67202],[1.43141,0.36089],[-7.73965,-1.95136]],[[451.73735,553.02285],[6.75311,-6.18755],[0,0]],[[452.12567,552.89341],[0,0],[0.2642,-0.09499]],[[452.9716,552.74667],[-0.29691,0],[1.38071,0]],[[455.4716,555.24667],[0,-1.38071],[0,0.88153]],[[454.32609,557.3483],[0.68925,-0.44514],[0,0]],[451.35835,559.32679],[[451.28941,559.22339],[0,0],[-0.69732,0.8106]],[[449.09823,561.56099],[0.76744,-0.74329],[0,0]],[448.34331,564.03724]],&quot;closed&quot;:true}]}" fill="url(#color-2)" stroke="none" stroke-width="0.5" stroke-linecap="butt"/><path d="M513.55979,141.5312l-1.22963,-0.27238c-0.36337,-0.24549 -0.74764,-0.48073 -1.14538,-0.70612l0.05239,-0.01915l-0.95767,-0.93563c-0.21521,-0.21663 -0.49772,-0.36671 -0.93822,-0.38196c-0.68995,-0.02388 -1.26103,0.29476 -1.27552,0.71329c-0.00311,0.09 0.01972,0.17678 0.06442,0.25851l-0.03918,0.12136c-3.02109,-2.15405 -0.51346,-3.93998 0.54282,-6.25235c0.19536,-0.42766 0.45306,-0.84838 0.57398,-1.2876c0.07932,-0.28811 0.01662,-0.58847 0.02457,-0.88207c0.00392,-0.14452 0.07364,-0.55063 0.10287,-0.40646c0.57765,2.84951 6.22455,3.38742 10.06142,3.52019c0.75975,0.02629 4.37594,0.51447 4.77661,0.44586c2.53537,-0.43419 3.94559,-2.64836 5.7471,-3.65767c0.17732,-0.09934 3.77825,-1.83692 3.90739,-1.79042c2.47719,0.89186 2.19032,3.67225 4.01824,4.92524l0.39907,0.78239c0.14628,0.3151 0.62362,0.55889 1.18559,0.57833c0.68995,0.02388 1.21557,-0.24304 1.23005,-0.66158l0.03476,-0.90829c0.29113,-0.78795 -0.38589,-1.73159 0.02561,-2.49704c0.26984,-0.50196 1.47441,-0.59856 1.94948,-1.03715c0.04723,-0.04361 1.38235,-1.81424 2.11695,-1.42172c0.54724,0.29242 0.57786,0.84073 1.10741,1.145c1.2807,0.73589 3.38769,1.18287 5.2239,1.76515c-0.34755,0.48087 -0.70121,0.93189 -1.12249,1.29307c-0.8317,0.71306 -2.38642,1.04976 -3.14062,1.79486c-0.62088,0.61339 -0.01928,2.68257 1.23787,2.95284c1.51565,0.32584 2.33726,-0.93534 2.83377,-1.472c3.6929,0.3946 7.34261,-1.60311 5.07654,-3.95949c-0.46071,-0.47906 -1.1526,-0.86677 -1.96558,-1.20693c0.04948,-0.08393 0.10016,-0.16701 0.15179,-0.24962c0.1429,-0.22862 2.5678,-1.54689 2.99228,-1.34538c1.64363,0.78021 2.61428,2.52484 3.89772,3.56359c1.00133,0.81044 2.1738,1.79251 2.64156,2.77219c0.00131,0.01058 -0.09528,0.032 -0.09449,0.04247c-0.92372,-0.02354 -1.7003,-0.0161 -1.90742,0.06146c-0.56777,0.21261 -0.49228,0.76544 -0.87026,1.09893c-1.57256,1.38745 -5.1417,3.21039 -3.85493,5.25483c0.02427,0.03856 0.05006,0.07688 0.07739,0.11455l-0.03361,0.00562l0.45887,0.91154c0.14628,0.3151 0.51883,0.53561 1.08079,0.55506c0.56196,0.01944 1.0443,-0.18777 1.21201,-0.492l0.52071,-0.87397l-0.06848,-0.01631l0.12046,-0.10003c0.07531,-2.17638 2.88706,-3.29226 4.54844,-4.76346c0.15584,0.39206 0.04843,0.90592 0.37722,1.26981c0.23012,0.25467 0.72979,0.39348 0.97845,0.64192c1.36887,1.36759 -0.87509,3.04198 -1.32123,4.29715c-0.31942,0.89865 -0.08918,2.11299 -0.10746,3.03581c-0.04839,0.17281 -0.10504,0.90832 -1.04367,0.54408c-2.34453,-0.90982 -4.63666,-3.13429 -8.14502,-2.35037c-0.88835,0.1985 -1.39197,0.77679 -2.13984,1.12403c-1.8589,0.86309 -3.74894,1.31588 -5.66647,2.01069c-0.12758,0.04623 -2.9068,1.5734 -3.54602,1.31606c-0.98073,-0.39483 -1.1343,-1.25056 -1.73697,-1.86376c-1.68511,-1.71454 -3.2181,-2.27005 -6.49769,-2.39482c-2.8657,-0.01554 -4.35412,1.18957 -6.97708,1.61487c-0.65199,0.10572 -1.5303,0.63756 -1.96301,0.30864c-0.41861,-0.3182 -0.27599,-0.83742 -0.73873,-1.13245c-1.08969,-0.69477 -5.40649,-1.90533 -6.96034,-2.26081c-1.18626,-0.27138 -3.31504,0.19728 -4.38392,-0.12888c-0.81982,-0.25017 -1.47695,-0.68021 -2.29172,-0.93673c-0.257,-0.08092 -0.50814,-0.4671 -0.75512,-0.94472l0.82529,0.17058c0,0 1.07968,0.29275 1.4996,-0.41251c0.41992,-0.70526 -0.75763,-0.98813 -0.75763,-0.98813z" data-paper-data="{&quot;noHover&quot;:false,&quot;origItem&quot;:[&quot;Path&quot;,{&quot;applyMatrix&quot;:true,&quot;segments&quot;:[[[445.18103,565.61837],[2.37171,0.79057],[-2.37171,-0.79057]],[443.59989,562.4561],[[444.11858,560.98815],[0,0],[-1.54558,0.52669]],[[441.09823,562.56099],[0.23732,-0.5193],[-0.75234,1.6463]],[[438.2813,567.20337],[0.73084,-1.65596],[-0.95286,2.15903]],[[438.36433,575.97113],[0.75894,-2.38987],[-0.99412,3.13043]],[[431.73937,590.01443],[2.16501,-2.22613],[-0.91937,0.94532]],[[428.09823,591.56099],[1.00073,-0.85872],[-1.03444,0.88766]],[[429.34331,595.4561],[-0.42267,-1.2959],[1.70041,5.21337]],[[435.4716,609.24667],[-0.27554,-5.72904],[-0.0372,6.56389]],[[428.31326,622.35616],[5.45725,-3.48678],[-1.95178,1.24704]],[[422.36924,625.95472],[1.18913,-1.98759],[-0.77506,1.29549]],[[427.09823,632.93234],[-0.16687,-0.25181],[2.50804,3.78472]],[[434.34519,644.09705],[-3.05583,-3.65587],[1.22943,1.47083]],[[438.2813,648.28996],[-0.75533,-1.7619],[2.98304,6.95831]],[[431.38089,664.914],[2.73051,-4.74919],[-1.09315,1.90133]],[[433.37206,666.77895],[-0.57493,-0.08476],[3.04276,-0.02729]],[[443.37206,666.77895],[-2.99747,-0.5763],[4.18663,0.80493]],[[457.65727,669.12004],[-4.35012,2.83069],[0.79023,-0.51422]],[[459.65727,667.12004],[-0.81291,0.47757],[1.1615,-0.68236]],[[463.81658,666.47725],[-1.27407,0.33861],[-5.03704,-3.21902]],[[447.57115,657.71438],[7.17972,0],[0,0]],[447.22703,657.48038],[447.18103,657.61837],[[444.23572,656.6366],[0,0],[-1.02156,-0.31417]],[[442.4716,654.24667],[0,1.1246],[0,-1.1246]],[[444.23572,651.85673],[-1.02156,0.31417],[0,0]],[447.18103,650.87496],[[447.20329,650.94173],[0,0],[0.12101,-0.05724]],[[447.57115,650.77895],[-0.12428,0.05117],[6.58968,-2.7134]],[[465.28593,658.12004],[-4.75091,-3.04727],[1.14192,0.73243]],[[468.99971,659.78489],[-0.76529,-1.12016],[0.27917,0.40863]],[[469.46745,663.78742],[-0.02778,-1.84796],[0.0344,-0.00231]],[[469.57115,663.77895],[-0.03474,0.00334],[3.17469,-1.00273]],[[478.38663,658.31331],[-2.5562,2.05752],[3.27633,-2.63717]],[[489.6619,650.28996],[-2.38338,3.33926],[0.61554,-0.8624]],[[485.01489,644.55636],[0.76959,0.26983],[-0.27808,-0.0975]],[[484.17428,644.27089],[0.28219,0.0931],[-1.02811,1.64852]],[[480.41172,648.2902],[1.52599,-0.954],[-7.50586,4.69242]],[[466.76741,638.42631],[-0.87915,7.40866],[-1.82493,-0.95531]],[[461.53848,632.67228],[-0.90084,3.05202],[0.7472,-2.5315]],[[471.08963,630.0106],[-2.09192,-1.19859],[2.54109,1.45595]],[[477.35835,636.16654],[-2.44436,-1.61309],[1.23812,0.81707]],[[481.74279,638.32428],[-1.62411,-0.66141],[1.70924,-3.71051]],[[486.9435,627.78489],[-2.27872,2.61077],[0.94221,-1.07951]],[[490.58532,625.50125],[-0.9011,1.11405],[1.20961,-1.49547]],[[485.65727,621.37329],[0.14906,0.09139],[-1.4993,-0.91923]],[[482.01489,617.55636],[1.6847,0.50465],[-2.56906,-0.76956]],[[473.9716,617.74667],[2.62948,0.5274],[0,0]],[[470.9716,617.74667],[0,0],[-1.38071,0]],[[468.4716,615.24667],[0,1.38071],[0,-1.1246]],[[470.23572,612.85673],[-1.02156,0.31417],[0,0]],[[472.76685,612.01302],[0,0],[3.92017,-3.74031]],[[488.53848,603.67228],[-2.65624,5.01309],[0.13847,-0.26134]],[[482.20383,596.01443],[0.34755,0.34755],[-3.53105,-3.53105]],[[469.53848,584.82105],[1.71975,5.03768],[-0.27178,-0.79611]],[[470.4716,575.24667],[0,1.52042],[0,-7.67832]],[[481.00109,554.70814],[-9.32324,1.35171],[0.47172,-0.06839]],[[479.57115,554.71438],[0.47665,-0.00217],[-0.96833,0.00441]],[[476.66614,554.72793],[0.95837,0.13863],[-1.46099,-0.21134]],[[472.36526,553.67202],[1.43141,0.36089],[-7.73965,-1.95136]],[[451.73735,553.02285],[6.75311,-6.18755],[0,0]],[[452.12567,552.89341],[0,0],[0.2642,-0.09499]],[[452.9716,552.74667],[-0.29691,0],[1.38071,0]],[[455.4716,555.24667],[0,-1.38071],[0,0.88153]],[[454.32609,557.3483],[0.68925,-0.44514],[0,0]],[451.35835,559.32679],[[451.28941,559.22339],[0,0],[-0.69732,0.8106]],[[449.09823,561.56099],[0.76744,-0.74329],[0,0]],[448.34331,564.03724]],&quot;closed&quot;:true}]}" fill="url(#color-3)" stroke="none" stroke-width="0.5" stroke-linecap="butt"/><path d="M478.23471,220.4381l-0.88365,-0.27238c-0.26113,-0.24549 -0.53728,-0.48073 -0.82311,-0.70612l0.03765,-0.01915l-0.68822,-0.93563c-0.15465,-0.21663 -0.35768,-0.36671 -0.67423,-0.38196c-0.49582,-0.02388 -0.90622,0.29476 -0.91663,0.71329c-0.00224,0.09 0.01418,0.17678 0.04629,0.25851l-0.02815,0.12136c-2.17105,-2.15405 -3.7226,-17.27332 -2.96352,-19.58568c0.14039,-0.42766 3.67919,12.48495 3.7661,12.04574c0.05701,-0.28811 0.01194,-0.58847 0.01766,-0.88207c0.00281,-0.14452 0.05292,-0.55063 0.07393,-0.40646c0.41512,2.84951 4.47316,3.38742 7.23045,3.52019c0.54598,0.02629 3.14469,0.51447 3.43262,0.44585c1.822,-0.43419 2.83543,-2.64836 4.13005,-3.65767c0.12742,-0.09934 2.71517,-1.83692 2.80797,-1.79042c1.78018,0.89186 1.57404,3.67225 2.88764,4.92524l0.28679,0.78239c0.10512,0.3151 0.44815,0.55889 0.852,0.57833c0.49582,0.02388 0.87354,-0.24304 0.88395,-0.66158l0.02498,-0.90829c0.20921,-0.78795 -0.27731,-1.73159 0.0184,-2.49704c0.19392,-0.50196 1.05956,-0.59856 1.40096,-1.03715c0.03394,-0.04361 0.9934,-1.81424 1.5213,-1.42172c0.39326,0.29242 0.41527,0.84073 0.79582,1.145c0.92035,0.73589 2.4345,1.18287 3.75406,1.76515c-0.24976,0.48087 -0.50391,0.93189 -0.80666,1.29307c-0.59769,0.71306 -1.71496,1.04976 -2.25695,1.79486c-0.44618,0.61339 -0.01386,2.68257 0.88958,2.95284c1.08919,0.32584 1.67963,-0.93534 2.03644,-1.472c2.65383,0.3946 5.27663,-1.60311 3.64816,-3.95949c-0.33108,-0.47906 -0.8283,-0.86677 -1.41253,-1.20693c0.03556,-0.08393 0.07198,-0.16701 0.10908,-0.24962c0.1027,-0.22862 1.8453,-1.54689 2.15035,-1.34538c1.18116,0.78021 1.87871,2.52484 2.80102,3.56359c0.71959,0.81044 1.56216,1.79251 1.89831,2.77219c0.00094,0.01058 -0.06847,0.032 -0.0679,0.04247c-0.66381,-0.02354 -1.22189,-0.0161 -1.37073,0.06146c-0.40802,0.21261 -0.35377,0.76544 -0.6254,1.09893c-1.13009,1.38745 -3.69499,3.21039 -2.77028,5.25483c0.01744,0.03856 0.03597,0.07688 0.05561,0.11455l-0.02415,0.00562l0.32975,0.91154c0.10512,0.3151 0.37285,0.53561 0.77669,0.55505c0.40385,0.01944 0.75047,-0.18777 0.87099,-0.492l0.3742,-0.87397l-0.04921,-0.01631l0.08657,-0.10003c0.05412,-2.17638 3.512,-9.62559 4.70592,-11.09679c0.11199,0.39206 6.26294,-7.09408 6.49922,-6.73019c0.16537,0.25467 -4.26643,15.39348 -4.08773,15.64192c0.98371,1.36759 -3.50339,2.37532 -3.824,3.63048c-0.22955,0.89865 -0.06409,2.11299 -0.07723,3.03581c-0.03477,0.17281 -0.07549,0.90832 -0.75001,0.54408c-1.68485,-0.90982 -3.33205,-3.13429 -5.85327,-2.35037c-0.6384,0.1985 -1.00031,0.77679 -1.53775,1.12403c-1.33586,0.86309 -2.6941,1.31588 -4.07211,2.01069c-0.09168,0.04623 -2.08892,1.5734 -2.54829,1.31606c-0.70478,-0.39483 -0.81514,-1.25056 -1.24825,-1.86376c-1.21097,-1.71454 -2.31263,-2.27005 -4.66945,-2.39482c-2.05938,-0.01554 -3.12901,1.18957 -5.01395,1.61487c-0.46854,0.10572 -1.09973,0.63756 -1.41068,0.30864c-0.30083,-0.3182 -0.19834,-0.83742 -0.53087,-1.13245c-0.78309,-0.69477 -3.88528,-1.90533 -5.00192,-2.26081c-0.85248,-0.27138 -2.3823,0.19728 -3.15042,-0.12888c-0.58915,-0.25017 -1.06139,-0.68021 -1.6469,-0.93673c-0.18469,-0.08092 -0.36517,-0.4671 -0.54265,-0.94472l0.59308,0.17058c0,0 0.77589,0.29275 1.07766,-0.41251c0.30177,-0.70526 -0.54446,-0.98813 -0.54446,-0.98813z" data-paper-data="{&quot;noHover&quot;:false,&quot;origItem&quot;:[&quot;Path&quot;,{&quot;applyMatrix&quot;:true,&quot;segments&quot;:[[[445.18103,565.61837],[2.37171,0.79057],[-2.37171,-0.79057]],[443.59989,562.4561],[[444.11858,560.98815],[0,0],[-1.54558,0.52669]],[[441.09823,562.56099],[0.23732,-0.5193],[-0.75234,1.6463]],[[438.2813,567.20337],[0.73084,-1.65596],[-0.95286,2.15903]],[[438.36433,575.97113],[0.75894,-2.38987],[-0.99412,3.13043]],[[431.73937,590.01443],[2.16501,-2.22613],[-0.91937,0.94532]],[[428.09823,591.56099],[1.00073,-0.85872],[-1.03444,0.88766]],[[429.34331,595.4561],[-0.42267,-1.2959],[1.70041,5.21337]],[[435.4716,609.24667],[-0.27554,-5.72904],[-0.0372,6.56389]],[[428.31326,622.35616],[5.45725,-3.48678],[-1.95178,1.24704]],[[422.36924,625.95472],[1.18913,-1.98759],[-0.77506,1.29549]],[[427.09823,632.93234],[-0.16687,-0.25181],[2.50804,3.78472]],[[434.34519,644.09705],[-3.05583,-3.65587],[1.22943,1.47083]],[[438.2813,648.28996],[-0.75533,-1.7619],[2.98304,6.95831]],[[431.38089,664.914],[2.73051,-4.74919],[-1.09315,1.90133]],[[433.37206,666.77895],[-0.57493,-0.08476],[3.04276,-0.02729]],[[443.37206,666.77895],[-2.99747,-0.5763],[4.18663,0.80493]],[[457.65727,669.12004],[-4.35012,2.83069],[0.79023,-0.51422]],[[459.65727,667.12004],[-0.81291,0.47757],[1.1615,-0.68236]],[[463.81658,666.47725],[-1.27407,0.33861],[-5.03704,-3.21902]],[[447.57115,657.71438],[7.17972,0],[0,0]],[447.22703,657.48038],[447.18103,657.61837],[[444.23572,656.6366],[0,0],[-1.02156,-0.31417]],[[442.4716,654.24667],[0,1.1246],[0,-1.1246]],[[444.23572,651.85673],[-1.02156,0.31417],[0,0]],[447.18103,650.87496],[[447.20329,650.94173],[0,0],[0.12101,-0.05724]],[[447.57115,650.77895],[-0.12428,0.05117],[6.58968,-2.7134]],[[465.28593,658.12004],[-4.75091,-3.04727],[1.14192,0.73243]],[[468.99971,659.78489],[-0.76529,-1.12016],[0.27917,0.40863]],[[469.46745,663.78742],[-0.02778,-1.84796],[0.0344,-0.00231]],[[469.57115,663.77895],[-0.03474,0.00334],[3.17469,-1.00273]],[[478.38663,658.31331],[-2.5562,2.05752],[3.27633,-2.63717]],[[489.6619,650.28996],[-2.38338,3.33926],[0.61554,-0.8624]],[[485.01489,644.55636],[0.76959,0.26983],[-0.27808,-0.0975]],[[484.17428,644.27089],[0.28219,0.0931],[-1.02811,1.64852]],[[480.41172,648.2902],[1.52599,-0.954],[-7.50586,4.69242]],[[466.76741,638.42631],[-0.87915,7.40866],[-1.82493,-0.95531]],[[461.53848,632.67228],[-0.90084,3.05202],[0.7472,-2.5315]],[[471.08963,630.0106],[-2.09192,-1.19859],[2.54109,1.45595]],[[477.35835,636.16654],[-2.44436,-1.61309],[1.23812,0.81707]],[[481.74279,638.32428],[-1.62411,-0.66141],[1.70924,-3.71051]],[[486.9435,627.78489],[-2.27872,2.61077],[0.94221,-1.07951]],[[490.58532,625.50125],[-0.9011,1.11405],[1.20961,-1.49547]],[[485.65727,621.37329],[0.14906,0.09139],[-1.4993,-0.91923]],[[482.01489,617.55636],[1.6847,0.50465],[-2.56906,-0.76956]],[[473.9716,617.74667],[2.62948,0.5274],[0,0]],[[470.9716,617.74667],[0,0],[-1.38071,0]],[[468.4716,615.24667],[0,1.38071],[0,-1.1246]],[[470.23572,612.85673],[-1.02156,0.31417],[0,0]],[[472.76685,612.01302],[0,0],[3.92017,-3.74031]],[[488.53848,603.67228],[-2.65624,5.01309],[0.13847,-0.26134]],[[482.20383,596.01443],[0.34755,0.34755],[-3.53105,-3.53105]],[[469.53848,584.82105],[1.71975,5.03768],[-0.27178,-0.79611]],[[470.4716,575.24667],[0,1.52042],[0,-7.67832]],[[481.00109,554.70814],[-9.32324,1.35171],[0.47172,-0.06839]],[[479.57115,554.71438],[0.47665,-0.00217],[-0.96833,0.00441]],[[476.66614,554.72793],[0.95837,0.13863],[-1.46099,-0.21134]],[[472.36526,553.67202],[1.43141,0.36089],[-7.73965,-1.95136]],[[451.73735,553.02285],[6.75311,-6.18755],[0,0]],[[452.12567,552.89341],[0,0],[0.2642,-0.09499]],[[452.9716,552.74667],[-0.29691,0],[1.38071,0]],[[455.4716,555.24667],[0,-1.38071],[0,0.88153]],[[454.32609,557.3483],[0.68925,-0.44514],[0,0]],[451.35835,559.32679],[[451.28941,559.22339],[0,0],[-0.69732,0.8106]],[[449.09823,561.56099],[0.76744,-0.74329],[0,0]],[448.34331,564.03724]],&quot;closed&quot;:true}]}" fill="url(#color-4)" stroke="none" stroke-width="0.5" stroke-linecap="butt"/><path d="M418.4873,152.97189v-9.5h48v9.5z" fill="url(#color-5)" stroke="#000000" stroke-width="1.5" stroke-linecap="butt"/><path d="M510.57439,153.46739v-9.5h48v9.5z" fill="url(#color-6)" stroke="#000000" stroke-width="1.5" stroke-linecap="butt"/><path d="M472.03084,228.3743v-10.5c0,0 16.63513,7.66667 24.69439,7.66667c7.93892,0 23.30561,-7.33333 23.30561,-7.33333v10.16667c0,0 -15.42466,6.33333 -23.30561,6.33333c-8.11236,0 -24.69439,-6.33333 -24.69439,-6.33333z" fill="url(#color-7)" stroke="#000000" stroke-width="1.5" stroke-linecap="butt"/><path d="M484.42679,211.23691l-0.69595,-0.27847c-0.20566,-0.25097 -0.42315,-0.49148 -0.64827,-0.72191l0.02965,-0.01957l-0.54203,-0.95655c-0.1218,-0.22147 -0.2817,-0.37491 -0.53102,-0.3905c-0.3905,-0.02441 -0.71372,0.30135 -0.72192,0.72924c-0.00176,0.09201 0.01116,0.18073 0.03646,0.26429l-0.02217,0.12407c-1.70989,-2.20221 -2.93187,-17.65953 -2.33403,-20.0236c0.11057,-0.43722 2.89768,12.7641 2.96613,12.31507c0.0449,-0.29455 0.0094,-0.60163 0.0139,-0.9018c0.00222,-0.14776 0.04168,-0.56295 0.05822,-0.41555c0.32694,2.91322 3.523,3.46316 5.69461,3.5989c0.43001,0.02688 2.47672,0.52597 2.70349,0.45582c1.43498,-0.4439 2.23315,-2.70758 3.25277,-3.73945c0.10036,-0.10156 2.13843,-1.87799 2.21152,-1.83046c1.40205,0.91181 1.23969,3.75436 2.27426,5.03536l0.22587,0.79988c0.08279,0.32214 0.35296,0.57139 0.67102,0.59127c0.3905,0.02441 0.68799,-0.24848 0.69619,-0.67637l0.01967,-0.92859c0.16477,-0.80557 -0.21841,-1.77031 0.0145,-2.55288c0.15273,-0.51318 0.8345,-0.61194 1.10338,-1.06033c0.02673,-0.04458 0.78238,-1.85481 1.19816,-1.4535c0.30973,0.29895 0.32706,0.85953 0.62678,1.17061c0.72486,0.75234 1.91738,1.20932 2.95665,1.80462c-0.1967,0.49163 -0.39687,0.95273 -0.63531,1.32198c-0.47073,0.729 -1.35068,1.07323 -1.77754,1.83499c-0.35141,0.62711 -0.01091,2.74255 0.70062,3.01886c0.85783,0.33313 1.32285,-0.95625 1.60387,-1.50492c2.09012,0.40342 4.1558,-1.63895 2.87324,-4.04802c-0.26075,-0.48978 -0.65235,-0.88615 -1.11249,-1.23391c0.02801,-0.08581 0.05669,-0.17074 0.08591,-0.2552c0.08088,-0.23373 1.45333,-1.58147 1.69358,-1.37547c0.93027,0.79765 1.47965,2.58129 2.20605,3.64327c0.56674,0.82856 1.23034,1.83259 1.49508,2.83417c0.00074,0.01082 -0.05393,0.03272 -0.05348,0.04342c-0.52281,-0.02406 -0.96234,-0.01645 -1.07957,0.06284c-0.32135,0.21736 -0.27862,0.78256 -0.49255,1.1235c-0.89004,1.41847 -2.91012,3.28217 -2.18183,5.37232c0.01374,0.03942 0.02833,0.0786 0.0438,0.11711l-0.01902,0.00575l0.25971,0.93192c0.08279,0.32214 0.29365,0.54759 0.61171,0.56747c0.31806,0.01988 0.59106,-0.19197 0.68598,-0.503l0.29471,-0.89351l-0.03876,-0.01668l0.06818,-0.10227c0.04262,-2.22504 2.766,-9.84081 3.70632,-11.34491c0.0882,0.40083 4.93261,-7.25269 5.1187,-6.88067c0.13024,0.26037 -3.36018,15.73767 -3.21944,15.99166c0.77476,1.39817 -2.75923,2.42843 -3.01173,3.71165c-0.18079,0.91875 -0.05048,2.16023 -0.06082,3.10368c-0.02739,0.17667 -0.05945,0.92863 -0.5907,0.55625c-1.32697,-0.93016 -2.62428,-3.20437 -4.60996,-2.40292c-0.50279,0.20293 -0.78783,0.79415 -1.21112,1.14916c-1.05211,0.88239 -2.12184,1.3453 -3.20714,2.05565c-0.07221,0.04726 -1.64521,1.60859 -2.007,1.34549c-0.55508,-0.40366 -0.642,-1.27852 -0.9831,-1.90543c-0.95374,-1.75288 -1.8214,-2.3208 -3.6776,-2.44837c-1.62194,-0.01589 -2.46437,1.21617 -3.94892,1.65097c-0.36902,0.10808 -0.86613,0.65182 -1.11104,0.31555c-0.23693,-0.32531 -0.15621,-0.85615 -0.41811,-1.15778c-0.61675,-0.7103 -3.05999,-1.94793 -3.93945,-2.31136c-0.67141,-0.27745 -1.87626,0.2017 -2.48123,-0.13177c-0.464,-0.25576 -0.83594,-0.69541 -1.29708,-0.95767c-0.14546,-0.08272 -0.2876,-0.47754 -0.42738,-0.96584l0.4671,0.17439c0,0 0.61108,0.2993 0.84875,-0.42173c0.23767,-0.72103 -0.42881,-1.01023 -0.42881,-1.01023z" data-paper-data="{&quot;noHover&quot;:false,&quot;origItem&quot;:[&quot;Path&quot;,{&quot;applyMatrix&quot;:true,&quot;segments&quot;:[[[445.18103,565.61837],[2.37171,0.79057],[-2.37171,-0.79057]],[443.59989,562.4561],[[444.11858,560.98815],[0,0],[-1.54558,0.52669]],[[441.09823,562.56099],[0.23732,-0.5193],[-0.75234,1.6463]],[[438.2813,567.20337],[0.73084,-1.65596],[-0.95286,2.15903]],[[438.36433,575.97113],[0.75894,-2.38987],[-0.99412,3.13043]],[[431.73937,590.01443],[2.16501,-2.22613],[-0.91937,0.94532]],[[428.09823,591.56099],[1.00073,-0.85872],[-1.03444,0.88766]],[[429.34331,595.4561],[-0.42267,-1.2959],[1.70041,5.21337]],[[435.4716,609.24667],[-0.27554,-5.72904],[-0.0372,6.56389]],[[428.31326,622.35616],[5.45725,-3.48678],[-1.95178,1.24704]],[[422.36924,625.95472],[1.18913,-1.98759],[-0.77506,1.29549]],[[427.09823,632.93234],[-0.16687,-0.25181],[2.50804,3.78472]],[[434.34519,644.09705],[-3.05583,-3.65587],[1.22943,1.47083]],[[438.2813,648.28996],[-0.75533,-1.7619],[2.98304,6.95831]],[[431.38089,664.914],[2.73051,-4.74919],[-1.09315,1.90133]],[[433.37206,666.77895],[-0.57493,-0.08476],[3.04276,-0.02729]],[[443.37206,666.77895],[-2.99747,-0.5763],[4.18663,0.80493]],[[457.65727,669.12004],[-4.35012,2.83069],[0.79023,-0.51422]],[[459.65727,667.12004],[-0.81291,0.47757],[1.1615,-0.68236]],[[463.81658,666.47725],[-1.27407,0.33861],[-5.03704,-3.21902]],[[447.57115,657.71438],[7.17972,0],[0,0]],[447.22703,657.48038],[447.18103,657.61837],[[444.23572,656.6366],[0,0],[-1.02156,-0.31417]],[[442.4716,654.24667],[0,1.1246],[0,-1.1246]],[[444.23572,651.85673],[-1.02156,0.31417],[0,0]],[447.18103,650.87496],[[447.20329,650.94173],[0,0],[0.12101,-0.05724]],[[447.57115,650.77895],[-0.12428,0.05117],[6.58968,-2.7134]],[[465.28593,658.12004],[-4.75091,-3.04727],[1.14192,0.73243]],[[468.99971,659.78489],[-0.76529,-1.12016],[0.27917,0.40863]],[[469.46745,663.78742],[-0.02778,-1.84796],[0.0344,-0.00231]],[[469.57115,663.77895],[-0.03474,0.00334],[3.17469,-1.00273]],[[478.38663,658.31331],[-2.5562,2.05752],[3.27633,-2.63717]],[[489.6619,650.28996],[-2.38338,3.33926],[0.61554,-0.8624]],[[485.01489,644.55636],[0.76959,0.26983],[-0.27808,-0.0975]],[[484.17428,644.27089],[0.28219,0.0931],[-1.02811,1.64852]],[[480.41172,648.2902],[1.52599,-0.954],[-7.50586,4.69242]],[[466.76741,638.42631],[-0.87915,7.40866],[-1.82493,-0.95531]],[[461.53848,632.67228],[-0.90084,3.05202],[0.7472,-2.5315]],[[471.08963,630.0106],[-2.09192,-1.19859],[2.54109,1.45595]],[[477.35835,636.16654],[-2.44436,-1.61309],[1.23812,0.81707]],[[481.74279,638.32428],[-1.62411,-0.66141],[1.70924,-3.71051]],[[486.9435,627.78489],[-2.27872,2.61077],[0.94221,-1.07951]],[[490.58532,625.50125],[-0.9011,1.11405],[1.20961,-1.49547]],[[485.65727,621.37329],[0.14906,0.09139],[-1.4993,-0.91923]],[[482.01489,617.55636],[1.6847,0.50465],[-2.56906,-0.76956]],[[473.9716,617.74667],[2.62948,0.5274],[0,0]],[[470.9716,617.74667],[0,0],[-1.38071,0]],[[468.4716,615.24667],[0,1.38071],[0,-1.1246]],[[470.23572,612.85673],[-1.02156,0.31417],[0,0]],[[472.76685,612.01302],[0,0],[3.92017,-3.74031]],[[488.53848,603.67228],[-2.65624,5.01309],[0.13847,-0.26134]],[[482.20383,596.01443],[0.34755,0.34755],[-3.53105,-3.53105]],[[469.53848,584.82105],[1.71975,5.03768],[-0.27178,-0.79611]],[[470.4716,575.24667],[0,1.52042],[0,-7.67832]],[[481.00109,554.70814],[-9.32324,1.35171],[0.47172,-0.06839]],[[479.57115,554.71438],[0.47665,-0.00217],[-0.96833,0.00441]],[[476.66614,554.72793],[0.95837,0.13863],[-1.46099,-0.21134]],[[472.36526,553.67202],[1.43141,0.36089],[-7.73965,-1.95136]],[[451.73735,553.02285],[6.75311,-6.18755],[0,0]],[[452.12567,552.89341],[0,0],[0.2642,-0.09499]],[[452.9716,552.74667],[-0.29691,0],[1.38071,0]],[[455.4716,555.24667],[0,-1.38071],[0,0.88153]],[[454.32609,557.3483],[0.68925,-0.44514],[0,0]],[451.35835,559.32679],[[451.28941,559.22339],[0,0],[-0.69732,0.8106]],[[449.09823,561.56099],[0.76744,-0.74329],[0,0]],[448.34331,564.03724]],&quot;closed&quot;:true}]}" fill="url(#color-8)" stroke="none" stroke-width="0.5" stroke-linecap="butt"/><path d="M508.80857,211.77529c0,-0.69036 0.55964,-1.25 1.25,-1.25c0.69036,0 1.25,0.55964 1.25,1.25c0,0.69036 -0.55964,1.25 -1.25,1.25c-0.69036,0 -1.25,-0.55964 -1.25,-1.25z" fill="#ff7be5" stroke="none" stroke-width="0.5" stroke-linecap="butt"/><path d="M503.80857,216.10862c0,-0.69036 0.55964,-1.25 1.25,-1.25c0.69036,0 1.25,0.55964 1.25,1.25c0,0.69036 -0.55964,1.25 -1.25,1.25c-0.69036,0 -1.25,-0.55964 -1.25,-1.25z" fill="#ff7be5" stroke="none" stroke-width="0.5" stroke-linecap="butt"/><path d="M492.47524,211.77529c0,-0.69036 0.55964,-1.25 1.25,-1.25c0.69036,0 1.25,0.55964 1.25,1.25c0,0.69036 -0.55964,1.25 -1.25,1.25c-0.69036,0 -1.25,-0.55964 -1.25,-1.25z" fill="#ff7be5" stroke="none" stroke-width="0.5" stroke-linecap="butt"/><path d="M493.1419,217.77529c0,-0.69036 0.55964,-1.25 1.25,-1.25c0.69036,0 1.25,0.55964 1.25,1.25c0,0.69036 -0.55964,1.25 -1.25,1.25c-0.69036,0 -1.25,-0.55964 -1.25,-1.25z" fill="#ff7be5" stroke="none" stroke-width="0.5" stroke-linecap="butt"/><path d="M485.80857,216.77529c0,-0.69036 0.55964,-1.25 1.25,-1.25c0.69036,0 1.25,0.55964 1.25,1.25c0,0.69036 -0.55964,1.25 -1.25,1.25c-0.69036,0 -1.25,-0.55964 -1.25,-1.25z" fill="#ff7be5" stroke="none" stroke-width="0.5" stroke-linecap="butt"/><path d="M523.24652,138.0791c0,-0.69036 0.55964,-1.25 1.25,-1.25c0.69036,0 1.25,0.55964 1.25,1.25c0,0.69036 -0.55964,1.25 -1.25,1.25c-0.69036,0 -1.25,-0.55964 -1.25,-1.25z" fill="#ff7be5" stroke="none" stroke-width="0.5" stroke-linecap="butt"/><path d="M535.24652,142.0791c0,-0.69036 0.55964,-1.25 1.25,-1.25c0.69036,0 1.25,0.55964 1.25,1.25c0,0.69036 -0.55964,1.25 -1.25,1.25c-0.69036,0 -1.25,-0.55964 -1.25,-1.25z" fill="#ff7be5" stroke="none" stroke-width="0.5" stroke-linecap="butt"/><path d="M552.24652,136.0791c0,-0.69036 0.55964,-1.25 1.25,-1.25c0.69036,0 1.25,0.55964 1.25,1.25c0,0.69036 -0.55964,1.25 -1.25,1.25c-0.69036,0 -1.25,-0.55964 -1.25,-1.25z" fill="#ff7be5" stroke="none" stroke-width="0.5" stroke-linecap="butt"/><path d="M425.24652,139.0791c0,-0.69036 0.55964,-1.25 1.25,-1.25c0.69036,0 1.25,0.55964 1.25,1.25c0,0.69036 -0.55964,1.25 -1.25,1.25c-0.69036,0 -1.25,-0.55964 -1.25,-1.25z" fill="#ff7be5" stroke="none" stroke-width="0.5" stroke-linecap="butt"/><path d="M439.24652,136.0791c0,-0.69036 0.55964,-1.25 1.25,-1.25c0.69036,0 1.25,0.55964 1.25,1.25c0,0.69036 -0.55964,1.25 -1.25,1.25c-0.69036,0 -1.25,-0.55964 -1.25,-1.25z" fill="#ff7be5" stroke="none" stroke-width="0.5" stroke-linecap="butt"/><path d="M167.12413,251.11231c0,2.76142 -1.95875,5 -4.375,5c-2.41625,0 -4.375,-2.23858 -4.375,-5c0,-2.76142 1.95875,-5 4.375,-5c2.41625,0 4.375,2.23858 4.375,5z" fill="#ff7be5" stroke="#000000" stroke-width="0.5" stroke-linecap="butt"/><path d="M183.88455,260.96343c0,2.41439 -1.62136,4.37164 -3.62142,4.37164c-2.00005,0 -3.62142,-1.95725 -3.62142,-4.37164c0,-2.41439 1.62136,-4.37164 3.62142,-4.37164c2.00005,0 3.62142,1.95725 3.62142,4.37164z" fill="#ff7be5" stroke="#000000" stroke-width="0.5" stroke-linecap="butt"/><path d="M198.1261,244.18639c1.70792,0 3.09245,1.92651 3.09245,4.30298c0,2.37647 -1.38454,4.30298 -3.09245,4.30298c-1.70792,0 -3.09245,-1.92651 -3.09245,-4.30298c0,-2.37647 1.38454,-4.30298 3.09245,-4.30298z" fill="#ff7be5" stroke="#000000" stroke-width="0.5" stroke-linecap="butt"/><path d="M215.46008,264.76287c0,2.56608 -1.9675,4.6463 -4.39454,4.6463c-2.42704,0 -4.39454,-2.08022 -4.39454,-4.6463c0,-2.56608 1.9675,-4.6463 4.39454,-4.6463c2.42704,0 4.39454,2.08022 4.39454,4.6463z" fill="#ff7be5" stroke="#000000" stroke-width="0.5" stroke-linecap="butt"/><path d="M208.25793,351.2573c2.045,0 3.7028,1.74205 3.7028,3.89099c0,2.14893 -1.6578,3.89099 -3.7028,3.89099c-2.045,0 -3.7028,-1.74205 -3.7028,-3.89099c0,-2.14893 1.6578,-3.89099 3.7028,-3.89099z" fill="#ff7be5" stroke="#000000" stroke-width="0.5" stroke-linecap="butt"/><path d="M194.42329,349.06003c1.86522,0 3.37728,1.23993 3.37728,2.76947c0,1.52954 -1.51206,2.76947 -3.37728,2.76947c-1.86522,0 -3.37728,-1.23993 -3.37728,-2.76947c0,-1.52954 1.51206,-2.76947 3.37728,-2.76947z" fill="#ff7be5" stroke="#000000" stroke-width="0.5" stroke-linecap="butt"/><path d="M174.07823,355.19406c0.69664,0 1.26139,0.94276 1.26139,2.10571c0,1.16295 -0.56474,2.10571 -1.26139,2.10571c-0.69664,0 -1.26139,-0.94276 -1.26139,-2.10571c0,-1.16295 0.56474,-2.10571 1.26139,-2.10571z" fill="#ff7be5" stroke="#000000" stroke-width="0.5" stroke-linecap="butt"/><path d="M165.94022,346.2219c1.6405,0 2.97038,1.38339 2.97038,3.0899c0,1.7065 -1.32989,3.0899 -2.97038,3.0899c-1.6405,0 -2.97038,-1.38339 -2.97038,-3.0899c0,-1.7065 1.32989,-3.0899 2.97038,-3.0899z" fill="#ff7be5" stroke="#000000" stroke-width="0.5" stroke-linecap="butt"/><path d="M149.54898,158.83557c6.60691,0 11.96288,5.34914 11.96288,11.94763c0,6.59849 -5.35596,11.94763 -11.96288,11.94763c-6.60691,0 -11.96288,-5.34914 -11.96288,-11.94763c0,-6.59849 5.35596,-11.94763 11.96288,-11.94763z" fill="#ff3d3d" stroke="#000000" stroke-width="0.5" stroke-linecap="butt"/><path d="M138.92017,177.83181c-0.38295,-2.72321 2.34026,-3.10615 2.34026,-3.10615l0.12192,0.03731c2.35607,-0.82829 4.99765,-1.33058 6.98688,-2.92452c1.98639,-1.59166 2.33226,-3.93361 3.6324,-6.00128c0.51179,-0.81393 3.32004,-4.19077 3.95459,-4.96421c0,0 1.74437,-2.12595 3.87032,-0.38158c2.12595,1.74437 0.38158,3.87032 0.38158,3.87032c-0.14195,0.17298 -3.27635,3.96508 -3.53235,4.37417c-1.68121,2.68652 -2.2233,5.23946 -4.83116,7.36542c-2.54457,2.07436 -5.61511,2.78759 -8.63812,3.85038l-1.18017,0.22041c0,0 -2.72321,0.38295 -3.10615,-2.34026z" fill="#ffffff" stroke="none" stroke-width="0.5" stroke-linecap="butt"/></g></g></svg>