<svg version="1.1" xmlns="http://www.w3.org/2000/svg" xmlns:xlink="http://www.w3.org/1999/xlink" width="16.07612" height="31.46764" viewBox="0,0,16.07612,31.46764"><defs><linearGradient x1="239.83777" y1="166.91371" x2="239.83777" y2="181.69423" gradientUnits="userSpaceOnUse" id="color-1"><stop offset="0" stop-color="#ffffff"/><stop offset="1" stop-color="#ececec"/></linearGradient><linearGradient x1="239.74765" y1="162.01633" x2="239.74765" y2="173.22247" gradientUnits="userSpaceOnUse" id="color-2"><stop offset="0" stop-color="#0cff00"/><stop offset="1" stop-color="#0ad900"/></linearGradient></defs><g transform="translate(-231.97739,-161.1682)"><g data-paper-data="{&quot;isPaintingLayer&quot;:true}" fill-rule="nonzero" stroke-linejoin="miter" stroke-miterlimit="10" stroke-dasharray="" stroke-dashoffset="0" style="mix-blend-mode: normal"><g fill="none" stroke="#000000" stroke-width="0.25" stroke-linecap="round"><path d="M236.80377,184.6405l2.9803,-4.3054v7.9096l-2.37947,1.29207"/><path d="M239.92811,180.1368c0,0 1.61266,2.40828 2.40592,3.01902c0.77621,0.59761 1.80359,2.77357 1.80359,2.77357"/><path d="M242.33144,192.51084l-2.64367,-4.56295"/></g><path d="M232.44751,174.30397c0,-4.08153 3.30873,-7.39026 7.39026,-7.39026c4.08153,0 7.39026,3.30874 7.39026,7.39026c0,4.08153 -3.30873,7.39026 -7.39026,7.39026c-4.08153,0 -7.39026,-3.30874 -7.39026,-7.39026z" fill="url(#color-1)" stroke="#e8e8e8" stroke-width="0.5" stroke-linecap="butt"/><path d="M247.76879,172.68172c0,0 -5.54574,3.04717 -8.0197,3.13559c-2.56593,0.09171 -7.25425,-1.90466 -7.25425,-1.90466l-0.26362,-2.67293c0,0 0.98172,-3.09911 2.25065,-3.53733c0.92962,-0.32104 2.416,-0.83435 2.416,-0.83435l3.66253,-5.21221l2.25151,4.53688c0,0 1.768,1.1364 2.85098,1.83249c1.43436,0.92194 1.7454,3.03427 1.7454,3.03427z" fill="url(#color-2)" stroke="#46d954" stroke-width="0.5" stroke-linecap="round"/></g></g></svg>