<svg version="1.1" xmlns="http://www.w3.org/2000/svg" xmlns:xlink="http://www.w3.org/1999/xlink" width="752.52942" height="438.08704" viewBox="0,0,752.52942,438.08704"><defs><linearGradient x1="317.00002" y1="-29.77397" x2="317.00002" y2="389.774" gradientUnits="userSpaceOnUse" id="color-1"><stop offset="0" stop-color="#edf7a1"/><stop offset="1" stop-color="#d9e57c"/></linearGradient><linearGradient x1="506.62716" y1="138.80451" x2="566.72597" y2="140.88414" gradientUnits="userSpaceOnUse" id="color-2"><stop offset="0" stop-color="#00d672"/><stop offset="1" stop-color="#8fd600"/></linearGradient><linearGradient x1="90.36983" y1="151.64534" x2="133.55874" y2="153.725" gradientUnits="userSpaceOnUse" id="color-3"><stop offset="0" stop-color="#00d672"/><stop offset="1" stop-color="#8fd600"/></linearGradient><linearGradient x1="180.20272" y1="221.96277" x2="214.21774" y2="224.08892" gradientUnits="userSpaceOnUse" id="color-4"><stop offset="0" stop-color="#00d672"/><stop offset="1" stop-color="#8fd600"/></linearGradient><linearGradient x1="158.08798" y1="245.85792" x2="158.08798" y2="256.95947" gradientUnits="userSpaceOnUse" id="color-5"><stop offset="0" stop-color="#f5f300"/><stop offset="1" stop-color="#f5f5f5"/></linearGradient><linearGradient x1="155.69936" y1="271.0441" x2="155.69936" y2="259.94256" gradientUnits="userSpaceOnUse" id="color-6"><stop offset="0" stop-color="#f5f300"/><stop offset="1" stop-color="#f5f5f5"/></linearGradient><linearGradient x1="146.3603" y1="232.27904" x2="146.3603" y2="241.32097" gradientUnits="userSpaceOnUse" id="color-7"><stop offset="0" stop-color="#00b725"/><stop offset="1" stop-color="#b7b700"/></linearGradient><linearGradient x1="127.03174" y1="231.0576" x2="127.03174" y2="238.89748" gradientUnits="userSpaceOnUse" id="color-8"><stop offset="0" stop-color="#00b725"/><stop offset="1" stop-color="#b7b700"/></linearGradient><linearGradient x1="116.77134" y1="233.61188" x2="116.77134" y2="240.84539" gradientUnits="userSpaceOnUse" id="color-9"><stop offset="0" stop-color="#00b725"/><stop offset="1" stop-color="#b7b700"/></linearGradient></defs><g transform="translate(59.2647,33.36025)"><g data-paper-data="{&quot;isPaintingLayer&quot;:true}" fill-rule="nonzero" stroke-linejoin="miter" stroke-miterlimit="10" stroke-dasharray="" stroke-dashoffset="0" style="mix-blend-mode: normal"><path d="M-58.26469,389.774v-419.54797h750.52942v419.54797z" fill="url(#color-1)" stroke="#000000" stroke-width="2" stroke-linecap="butt"/><path d="M-37.52792,222.86182v-72.30741h332.85238v72.30741z" fill="#f1f5ba" stroke="none" stroke-width="0" stroke-linecap="butt"/><path d="M282.46918,404.72678v-247.36284h76.24808v247.36284z" fill="#f9fdc0" stroke="none" stroke-width="0" stroke-linecap="butt"/><path d="M352.46871,217.81495v-72.30741h332.85238v72.30741z" fill="#f9fdc0" stroke="none" stroke-width="0" stroke-linecap="butt"/><path d="M247.04092,180.00002c0,-40.29419 32.6649,-72.95909 72.95909,-72.95909c40.2942,0 72.95909,32.6649 72.95909,72.95909c0,40.2942 -32.66489,72.95909 -72.95909,72.95909c-40.29419,0 -72.95909,-32.66489 -72.95909,-72.95909z" fill="#fcffd3" stroke="none" stroke-width="0" stroke-linecap="butt"/><path d="M303.26478,159.40834c0,-0.69036 0.55964,-1.25 1.25,-1.25c0.69036,0 1.25,0.55964 1.25,1.25c0,0.69036 -0.55964,1.25 -1.25,1.25c-0.69036,0 -1.25,-0.55964 -1.25,-1.25z" fill="#fcffd3" stroke="none" stroke-width="0.5" stroke-linecap="butt"/><path d="M106.20316,181.72913c-1.03024,-0.70789 -0.32235,-1.73813 -0.32235,-1.73813l0.14823,-0.21572c2.86355,-4.16751 6.01055,-8.039 9.19861,-11.9618c0,0 0.78836,-0.97005 1.75841,-0.18169c0.97005,0.78836 0.18169,1.75841 0.18169,1.75841c-3.14588,3.87089 -6.25276,7.68877 -9.07823,11.80087l-0.14823,0.21572c0,0 -0.70789,1.03024 -1.73813,0.32235z" fill="#00ca6c" stroke="none" stroke-width="0.5" stroke-linecap="butt"/><path d="M181.0506,198.40973c-0.93992,0.82404 -1.76396,-0.11588 -1.76396,-0.11588c-5.49361,-6.26615 -12.10211,-13.80397 -17.59572,-20.07012c0,0 -0.82404,-0.93992 0.11588,-1.76396c0.93992,-0.82404 1.76396,0.11588 1.76396,0.11588c5.49361,6.26615 10.98723,12.5323 16.48084,18.79846l1.11488,1.27166c0,0 0.82404,0.93992 -0.11588,1.76396z" fill="#00ca6c" stroke="none" stroke-width="0.5" stroke-linecap="butt"/><path d="M129.79945,262.67805c-0.87391,0.89375 -1.76766,0.01985 -1.76766,0.01985c-5.95834,-5.82603 -13.61729,-13.31492 -19.57563,-19.14095c-2.84823,-2.78499 -6.85329,-5.64582 -9.09568,-8.9276c-0.09094,-0.13309 -1.95796,-4.54067 -2.07545,-4.81686c-3.61193,-8.49054 -4.3096,-18.15829 -4.81885,-27.32455c0,0 -0.06934,-1.24808 1.17874,-1.31742c1.24808,-0.06934 1.31742,1.17874 1.31742,1.17874c0.49293,8.87246 1.12769,18.26772 4.62319,26.48459c0.62048,1.45856 0.94489,3.07638 1.83912,4.3851c0.68143,0.99729 1.54239,1.95602 2.4874,2.88558c0.05244,-0.08305 0.09309,-0.13069 0.09309,-0.13069c3.78653,-4.43734 7.94395,-9.30932 11.73048,-13.74666c0,0 0.8114,-0.95086 1.76226,-0.13946c0.95086,0.8114 0.13946,1.76226 0.13946,1.76226c-3.78653,4.43734 -7.57306,8.87468 -11.35959,13.31202l-0.37089,0.43464c0,0 -0.07034,0.08243 -0.19387,0.17804c1.55087,1.37536 3.1624,2.69567 4.491,3.99477c5.95834,5.82603 11.91667,11.65207 17.87501,17.4781l1.70062,1.66285c0,0 0.89375,0.87391 0.01985,1.76766z" fill="#00ca6c" stroke="none" stroke-width="0.5" stroke-linecap="butt"/><path d="M191.23954,240.81026c-0.17595,1.23755 -1.4135,1.06161 -1.4135,1.06161l-0.77345,-0.10997c0.73903,1.01761 1.49624,2.01861 2.27696,2.99741c1.38154,1.73205 2.81217,4.26329 4.50314,5.68764c3.49837,2.94677 8.91905,4.87125 12.94374,7.08192c1.4608,0.80239 2.92161,1.60478 4.38241,2.40716l0.90589,0.49759c0,0 1.0956,0.60179 0.49381,1.69739c-0.60179,1.0956 -1.69739,0.49381 -1.69739,0.49381c-1.4608,-0.80239 -3.8275,-2.10236 -5.28831,-2.90475c-4.17874,-2.29529 -9.71252,-4.29649 -13.35075,-7.36106c-1.81676,-1.5303 -3.36238,-4.17761 -4.84738,-6.04129c-1.29875,-1.62994 -2.53366,-3.3196 -3.72853,-5.04425c-11.77001,-1.72224 -23.34359,-3.8489 -35.00192,-6.28901c0,0 -1.22349,-0.25608 -0.96741,-1.47957c0.25608,-1.22349 1.47957,-0.96741 1.47957,-0.96741c10.86241,2.27353 21.64913,4.27373 32.59269,5.92646c-2.38274,-3.60928 -4.65035,-7.31031 -7.0099,-10.88812c0,0 -0.68819,-1.0435 0.35532,-1.73169c1.0435,-0.68819 1.73169,0.35532 1.73169,0.35532c2.76722,4.19595 5.40415,8.56892 8.25607,12.75632c0.2984,0.04299 0.59692,0.08572 0.89559,0.12818l2.20005,0.31279c0,0 1.23755,0.17595 1.06161,1.4135z" fill="#00ca6c" stroke="none" stroke-width="0.5" stroke-linecap="butt"/><path d="M270.76054,115.81797c1.09643,0.60029 0.49614,1.69672 0.49614,1.69672l-1.18414,2.16283c-3.68298,6.72699 -8.58292,12.19807 -12.72229,18.59234c-3.58665,5.53417 -7.60672,10.9686 -10.83649,16.71603c-4.05279,7.21201 -7.16979,15.04825 -10.91926,22.43002c0,0 -0.56608,1.11447 -1.68056,0.54839c-1.11447,-0.56608 -0.54839,-1.68056 -0.54839,-1.68056c3.76562,-7.41356 6.89833,-15.27921 10.96875,-22.5226c3.25587,-5.79387 7.30253,-11.27229 10.91801,-16.85094c4.11385,-6.34075 8.97552,-11.76312 12.62737,-18.43326l1.18414,-2.16283c0,0 0.60029,-1.09643 1.69672,-0.49614z" fill="#00ca6c" stroke="none" stroke-width="0.5" stroke-linecap="butt"/><path d="M229.72332,39.4782c-0.91969,-0.84656 -0.07313,-1.76625 -0.07313,-1.76625l0.65208,-0.70841c0.07918,-0.08602 0.15805,-0.17208 0.23662,-0.25816c-6.51505,-0.53935 -12.85617,-0.97448 -19.40141,-0.80154l-0.57414,0.01517c0,0 -1.24956,0.03302 -1.28258,-1.21655c-0.03302,-1.24956 1.21655,-1.28258 1.21655,-1.28258l0.57414,-0.01517c6.77539,-0.17902 13.33984,0.28125 20.09103,0.84385c0,0 0.70198,0.0585 1.00809,0.61463c3.16479,-3.68121 5.8648,-7.46583 8.5979,-11.60492c0,0 0.68878,-1.04311 1.73189,-0.35433c1.04311,0.68878 0.35433,1.73189 0.35433,1.73189c-3.32581,5.03671 -6.62256,9.57698 -10.71303,14.02082l-0.65208,0.70841c0,0 -0.84656,0.91969 -1.76625,0.07313z" fill="#00ca6c" stroke="none" stroke-width="0.5" stroke-linecap="butt"/><path d="M109.61431,43.8326c-0.3253,-1.20693 0.88162,-1.53223 0.88162,-1.53223c7.24157,-1.95183 16.21939,-4.37163 23.46096,-6.32346c0,0 1.20693,-0.3253 1.53223,0.88162c0.3253,1.20693 -0.88162,1.53223 -0.88162,1.53223c-7.24157,1.95183 -14.48314,3.90366 -21.72471,5.85549l-1.73625,0.46797c0,0 -1.20693,0.3253 -1.53223,-0.88162z" fill="#00ca6c" stroke="none" stroke-width="0.5" stroke-linecap="butt"/><path d="M196.81798,104.69239c-1.24971,-0.02677 -1.22294,-1.27648 -1.22294,-1.27648c0.16061,-7.49828 0.32817,-15.32117 0.48879,-22.81945c0,0 0.02677,-1.24971 1.27648,-1.22294c1.24971,0.02677 1.22294,1.27648 1.22294,1.27648c-0.16061,7.49828 -0.32122,14.99656 -0.48183,22.49484l-0.00695,0.32461c0,0 -0.02677,1.24971 -1.27648,1.22294z" fill="#00ca6c" stroke="none" stroke-width="0.5" stroke-linecap="butt"/><path d="M169.80612,177.10113c-0.52624,-1.13383 0.60759,-1.66007 0.60759,-1.66007l1.55861,-0.72339c6.95765,-3.22921 13.02387,-6.50119 19.25516,-10.97992c0,0 1.01502,-0.72955 1.74456,0.28547c0.72955,1.01502 -0.28547,1.74456 -0.28547,1.74456c-2.69488,1.93695 -5.35523,4.22698 -8.219,5.90056c-3.57393,2.08859 -7.68593,3.57335 -11.44277,5.31698l-1.55861,0.72339c0,0 -1.13383,0.52624 -1.66007,-0.60759z" fill="#00ca6c" stroke="none" stroke-width="0.5" stroke-linecap="butt"/><path d="M235.10677,285.82331c-1.19976,-0.35083 -0.84893,-1.55059 -0.84893,-1.55059l0.5218,-1.78443c3.51875,-12.03331 6.20286,-24.05785 8.74044,-36.33345c0,0 0.25305,-1.22412 1.47717,-0.97107c1.22412,0.25305 0.97107,1.47717 0.97107,1.47717c-2.55104,12.3407 -5.25168,24.43163 -8.78916,36.52902l-0.5218,1.78443c0,0 -0.35083,1.19976 -1.55059,0.84893z" fill="#00ca6c" stroke="none" stroke-width="0.5" stroke-linecap="butt"/><path d="M2.59041,178.05664c-0.38201,-1.1902 0.80818,-1.57221 0.80818,-1.57221l0.35768,-0.1148c6.51561,-2.0913 12.72612,-3.96807 19.48683,-5.06537c14.79922,-2.402 29.59956,-4.74206 44.336,-7.50514c0,0 1.22859,-0.23036 1.45895,0.99823c0.23036,1.22859 -0.99823,1.45895 -0.99823,1.45895c-14.75647,2.76684 -29.57687,5.11041 -44.3962,7.51567c-6.63839,1.07745 -12.72374,2.92399 -19.12332,4.97806l-0.35768,0.1148c0,0 -1.1902,0.38201 -1.57221,-0.80818z" fill="#00ca6c" stroke="none" stroke-width="0.5" stroke-linecap="butt"/><path d="M95.74552,290.27018c-1.24768,0.07617 -1.32385,-1.1715 -1.32385,-1.1715l-0.13989,-2.29129c-0.6457,-10.57633 -0.29349,-21.83941 -2.27351,-32.24441c-2.30504,-12.18097 -3.98177,-24.70956 -7.39162,-36.62906c-1.24196,-4.3414 -1.85021,-10.03519 -4.79821,-13.47913c-6.31862,-7.56488 -12.26292,-15.92011 -19.16432,-22.9505c-3.4383,-3.50256 -7.54937,-6.54139 -11.25933,-9.75862c0,0 -0.94437,-0.81894 -0.12542,-1.76331c0.81894,-0.94437 1.76331,-0.12542 1.76331,-0.12542c3.76108,3.26156 7.91948,6.34487 11.4055,9.89603c6.94944,7.07931 12.93681,15.48214 19.299,23.09918c3.1832,3.88805 3.90857,9.58948 5.28306,14.39417c3.43113,11.99391 5.12505,24.59501 7.44444,36.85182c1.98075,10.52267 1.65974,21.86565 2.31246,32.5569l0.13989,2.29129c0,0 0.07617,1.24768 -1.1715,1.32385z" fill="#00ca6c" stroke="none" stroke-width="0.5" stroke-linecap="butt"/><path d="M39.48613,250.68192c-1.24974,0.02535 -1.2751,-1.22439 -1.2751,-1.22439l-0.03238,-1.59634c-0.21994,-10.84179 -0.45661,-21.67652 -0.45661,-32.52072c0,0 0,-1.25 1.25,-1.25c1.25,0 1.25,1.25 1.25,1.25c0,10.8273 0.2365,21.64513 0.4561,32.47002l0.03238,1.59634c0,0 0.02535,1.24974 -1.22439,1.2751z" fill="#00ca6c" stroke="none" stroke-width="0.5" stroke-linecap="butt"/><path d="M51.05784,237.35811c-0.57286,-1.111 0.53814,-1.68387 0.53814,-1.68387c9.6287,-4.9648 19.6975,-10.15652 29.3262,-15.12132c0,0 1.111,-0.57286 1.68387,0.53814c0.57286,1.111 -0.53814,1.68387 -0.53814,1.68387c-5.65304,2.91485 -11.30608,5.8297 -16.95912,8.74455c0.02646,0.10123 0.04054,0.20746 0.04054,0.31697c0,0.69036 -0.55964,1.25 -1.25,1.25c-0.38542,0 -0.73009,-0.17443 -0.95939,-0.44866c-3.25271,1.67718 -6.50542,3.35436 -9.75813,5.03154l-0.4401,0.22693c0,0 -1.111,0.57286 -1.68387,-0.53814z" fill="#00ca6c" stroke="none" stroke-width="0.5" stroke-linecap="butt"/><path d="M83.66639,227.71245c0,-0.69036 0.55964,-1.25 1.25,-1.25c0.69036,0 1.25,0.55964 1.25,1.25c0,0.69036 -0.55964,1.25 -1.25,1.25c-0.69036,0 -1.25,-0.55964 -1.25,-1.25z" fill="#00ca6c" stroke="none" stroke-width="0.5" stroke-linecap="butt"/><path d="M240.38694,81.62184c-0.72369,1.0192 -1.74289,0.29551 -1.74289,0.29551l-1.2687,-0.90085c-8.16851,-5.80012 -16.19927,-11.75407 -24.20587,-17.77541c-4.65847,-3.50339 -9.56118,-6.82376 -14.0358,-10.55757c-7.02246,-5.85983 -13.52586,-12.49716 -20.24422,-18.70565c0,0 -0.91803,-0.84836 -0.06967,-1.76639c0.84836,-0.91803 1.76639,-0.06967 1.76639,-0.06967c6.68721,6.1797 13.15945,12.78965 20.14922,18.62221c4.44199,3.70658 9.31209,7.00112 13.9367,10.47904c7.98841,6.00765 16.0007,11.94811 24.15064,17.73504l1.2687,0.90085c0,0 1.0192,0.72369 0.29551,1.74289z" fill="#00ca6c" stroke="none" stroke-width="0.5" stroke-linecap="butt"/><path d="M226.38725,42.40757c0,-0.69036 0.55964,-1.25 1.25,-1.25c0.69036,0 1.25,0.55964 1.25,1.25c0,0.69036 -0.55964,1.25 -1.25,1.25c-0.69036,0 -1.25,-0.55964 -1.25,-1.25z" fill="#00ca6c" stroke="none" stroke-width="0.5" stroke-linecap="butt"/><path d="M275.65085,-20.61116c0.6089,1.09167 -0.48277,1.70057 -0.48277,1.70057l-0.7094,0.39568c-2.22014,1.23833 -4.44034,2.47646 -6.6635,3.70938c-14.36505,4.58059 -29.15355,7.34399 -43.75396,11.13448c0,0 -1.20989,0.31411 -1.524,-0.89578c-0.31411,-1.20989 0.89578,-1.524 0.89578,-1.524c14.47872,-3.7589 29.12589,-6.54174 43.39135,-11.00997c2.14333,-1.20308 4.28995,-2.40015 6.43652,-3.59744l0.7094,-0.39568c0,0 1.09167,-0.6089 1.70057,0.48277z" fill="#00ca6c" stroke="none" stroke-width="0.5" stroke-linecap="butt"/><path d="M248.02509,81.73211c-0.55902,-1.11803 0.55902,-1.67705 0.55902,-1.67705c3.72678,-1.86339 9.47001,-4.73501 13.19679,-6.5984c0,0 1.11803,-0.55902 1.67705,0.55902c0.55902,1.11803 -0.55902,1.67705 -0.55902,1.67705c-3.72678,1.86339 -7.45356,3.72678 -11.18034,5.59017l-2.01645,1.00823c0,0 -1.11803,0.55902 -1.67705,-0.55902z" fill="#00ca6c" stroke="none" stroke-width="0.5" stroke-linecap="butt"/><path d="M41.4675,71.56539c-0.83977,-0.9259 0.08612,-1.76567 0.08612,-1.76567l0.10468,-0.09494c2.5383,-2.3022 4.93461,-4.64672 7.80718,-6.52493c12.56702,-8.18963 25.13404,-16.37926 37.70106,-24.56888c0,0 1.04725,-0.68247 1.72972,0.36478c0.68247,1.04725 -0.36478,1.72972 -0.36478,1.72972c-12.56702,8.18963 -25.13404,16.37926 -37.70106,24.56888c-2.76178,1.79331 -5.05648,4.07272 -7.49257,6.28222l-0.10468,0.09494c0,0 -0.9259,0.83977 -1.76567,-0.08612z" fill="#00ca6c" stroke="none" stroke-width="0.5" stroke-linecap="butt"/><path d="M161.40758,0.33744c-0.26957,1.22059 -1.49016,0.95101 -1.49016,0.95101l-0.13028,-0.02877c-11.39798,-2.5173 -22.71575,-5.33911 -34.09328,-7.94646c0,0 -1.21842,-0.27922 -0.9392,-1.49764c0.27922,-1.21842 1.49764,-0.9392 1.49764,-0.9392c11.37112,2.60588 22.68245,5.42624 34.07399,7.94212l0.13028,0.02877c0,0 1.22059,0.26957 0.95101,1.49016z" fill="#00ca6c" stroke="none" stroke-width="0.5" stroke-linecap="butt"/><path d="M92.38655,70.55092c-1.19995,-0.35018 -0.84977,-1.55013 -0.84977,-1.55013c0.23345,-0.79997 0.99072,-3.3949 1.22418,-4.19487c1.86708,-6.39791 3.74152,-12.79359 5.57909,-19.20004c1.09061,-3.80226 2.87869,-7.9264 3.40931,-11.83885c0.38742,-2.85658 0.48492,-5.98937 0.23706,-9.0838c-0.68821,0.23713 -1.37192,0.48369 -2.05029,0.74116c-3.11717,1.18083 -6.23434,2.36167 -9.35151,3.5425l-0.82649,0.31309c0,0 -1.16894,0.44281 -1.61175,-0.72613c-0.44281,-1.16894 0.72613,-1.61175 0.72613,-1.61175c3.11717,-1.18083 7.06082,-2.67475 10.17799,-3.85559c0.87594,-0.33121 1.76032,-0.64483 2.65149,-0.94388c-0.37696,-2.59932 -1.01594,-5.10785 -1.95128,-7.33075c-5.8176,-13.8259 -11.6352,-27.6518 -17.45279,-41.4777c0,0 -0.4848,-1.15216 0.66736,-1.63696c1.15216,-0.4848 1.63696,0.66736 1.63696,0.66736c5.8176,13.8259 11.6352,27.6518 17.45279,41.4777c1.02884,2.44511 1.69869,4.96021 2.07839,7.52308c5.49291,-1.67561 11.18141,-2.91211 16.68864,-4.39157c9.65123,-2.5927 19.19556,-5.48726 28.75861,-8.38703c14.3487,-4.35092 28.70619,-8.65375 42.96808,-13.282c0,0 1.18896,-0.38584 1.5748,0.80312c0.38584,1.18896 -0.80312,1.5748 -0.80312,1.5748c-14.27727,4.63324 -28.65016,8.9409 -43.01431,13.29651c-9.58853,2.90751 -19.15849,5.80938 -28.83545,8.409c-5.62618,1.51142 -11.455,2.75738 -17.05584,4.50045c1.056,13.84467 -5.52683,28.84583 -9.25398,41.61762c-0.23345,0.79997 -0.4669,1.59993 -0.70035,2.3999l-0.52382,1.79497c0,0 -0.35018,1.19995 -1.55013,0.84977z" fill="#00ca6c" stroke="none" stroke-width="0.5" stroke-linecap="butt"/><path d="M428.68634,120.87098c-1.20725,-0.32413 -0.88312,-1.53137 -0.88312,-1.53137l0.45667,-1.70093c1.08905,-4.05628 2.81073,-7.85173 3.96212,-11.86229c2.42707,-8.45408 4.07668,-18.04869 4.71206,-26.79901c1.07885,-14.85793 1.87906,-29.84266 0.12178,-44.67069c0,0 -0.14711,-1.24131 1.0942,-1.38842c1.24131,-0.14711 1.38842,1.0942 1.38842,1.0942c1.77607,14.98649 0.97942,30.12921 -0.11097,45.14596c-0.64749,8.91719 -2.3286,18.69044 -4.80256,27.30781c-1.14808,3.99906 -2.86509,7.77775 -3.95056,11.82069l-0.45667,1.70093c0,0 -0.32413,1.20725 -1.53137,0.88312z" fill="#00ca6c" stroke="none" stroke-width="0.5" stroke-linecap="butt"/><path d="M410.08795,51.58082c-1.2002,-0.34933 -0.85087,-1.54952 -0.85087,-1.54952l0.1241,-0.42637c1.87756,-6.45081 3.23364,-12.55016 3.44496,-19.28514c0.46477,-14.81241 -1.97016,-29.81498 -5.05767,-44.28765c0,0 -0.2608,-1.22249 0.96169,-1.48329c1.22249,-0.2608 1.48329,0.96169 1.48329,0.96169c3.12971,14.67053 5.58258,29.87287 5.11146,44.88765c-0.21794,6.94588 -1.60716,13.25319 -3.54334,19.90539l-0.1241,0.42637c0,0 -0.34933,1.2002 -1.54952,0.85087z" fill="#00ca6c" stroke="none" stroke-width="0.5" stroke-linecap="butt"/><path d="M466.68696,44.63942c-1.13213,0.5299 -1.66202,-0.60223 -1.66202,-0.60223l-0.91968,-1.96489c-6.03101,-12.88522 -10.88719,-26.15266 -16.21415,-39.3367c0,0 -0.46828,-1.15897 0.69069,-1.62725c1.15897,-0.46828 1.62725,0.69069 1.62725,0.69069c5.31014,13.14242 10.14858,26.36913 16.16045,39.21345l0.91968,1.96489c0,0 0.5299,1.13213 -0.60223,1.66202z" fill="#00ca6c" stroke="none" stroke-width="0.5" stroke-linecap="butt"/><path d="M539.58214,107.0915c-0.89949,-0.868 -0.03149,-1.76749 -0.03149,-1.76749l0.04931,-0.0511c5.65769,-5.86294 12.51091,-11.25983 17.61634,-17.58086c2.012,-2.49106 3.55302,-5.62314 5.26855,-8.33082c5.8551,-9.24125 11.76906,-18.40166 17.31102,-27.80272c-1.99083,-13.12862 -3.988,-26.25591 -6.0267,-39.37724c-2.97965,-14.65789 -5.59389,-29.44985 -9.11784,-43.98618c0,0 -0.2945,-1.21481 0.92031,-1.50931c1.21481,-0.2945 1.50931,0.92031 1.50931,0.92031c3.53577,14.58505 6.16329,29.42631 9.14901,44.13414c1.88649,12.12042 3.73262,24.2467 5.57224,36.37422c1.35574,-2.35651 2.68516,-4.73036 3.98162,-7.12652c0,0 0.59484,-1.0994 1.69423,-0.50456c1.0994,0.59484 0.50456,1.69423 0.50456,1.69423c-1.80321,3.33275 -3.66979,6.62258 -5.58206,9.8827c0.08714,0.57478 0.17427,1.14956 0.2614,1.72434l0.08074,0.53264c0,0 0.18734,1.23588 -1.04854,1.42322c-0.63511,0.09627 -0.99331,-0.1833 -1.19149,-0.47786c-5.13206,8.57483 -10.54311,16.97221 -15.906,25.43659c-1.76734,2.78943 -3.3623,5.99681 -5.43551,8.56365c-5.15485,6.38222 -12.05108,11.8277 -17.76222,17.74602l-0.04931,0.0511c0,0 -0.868,0.89949 -1.76749,0.03149z" fill="#00ca6c" stroke="none" stroke-width="0.5" stroke-linecap="butt"/><path d="M538.26067,134.08435c-1.22384,0.25441 -1.47825,-0.96942 -1.47825,-0.96942l-0.24938,-1.19961c-3.05835,-14.71197 -7.28352,-29.00623 -10.98007,-43.56121c0,0 -0.3077,-1.21154 0.90384,-1.51923c1.21154,-0.3077 1.51923,0.90384 1.51923,0.90384c3.70549,14.59017 7.93886,28.91995 11.00466,43.66777l0.24938,1.19961c0,0 0.25441,1.22384 -0.96942,1.47825z" fill="#00ca6c" stroke="none" stroke-width="0.5" stroke-linecap="butt"/><path d="M385.89257,96.84391c-1.09936,-0.59491 -0.50445,-1.69426 -0.50445,-1.69426l0.36199,-0.66894c2.28097,-4.16193 2.70497,-9.43393 3.58263,-14.0778c1.7267,-9.13632 2.88567,-17.75155 3.23718,-27.04526c0,0 0.04724,-1.24911 1.29635,-1.20186c1.24911,0.04724 1.20186,1.29635 1.20186,1.29635c-0.35603,9.41304 -1.53018,18.16231 -3.27888,27.41504c-0.9344,4.9441 -1.4563,10.34837 -3.84043,14.80335l-0.36199,0.66894c0,0 -0.59491,1.09936 -1.69426,0.50445z" fill="#00ca6c" stroke="none" stroke-width="0.5" stroke-linecap="butt"/><path d="M442.0585,299.84804c-1.20288,0.33996 -1.54285,-0.86292 -1.54285,-0.86292l-0.56147,-1.98663c-4.06655,-14.38847 -6.81422,-29.16281 -12.58561,-42.95995c0,0 -0.48238,-1.15317 0.6708,-1.63555c1.15317,-0.48238 1.63555,0.6708 1.63555,0.6708c5.81204,13.8943 8.59035,28.75675 12.68503,43.24477l0.56147,1.98663c0,0 0.33996,1.20288 -0.86292,1.54285z" fill="#00ca6c" stroke="none" stroke-width="0.5" stroke-linecap="butt"/><path d="M387.19263,296.99556c0,-0.69036 0.55964,-1.25 1.25,-1.25c0.69036,0 1.25,0.55964 1.25,1.25c0,0.69036 -0.55964,1.25 -1.25,1.25c-0.69036,0 -1.25,-0.55964 -1.25,-1.25z" fill="#00ca6c" stroke="none" stroke-width="0.5" stroke-linecap="butt"/><path d="M407.00251,304.46371c-1.1447,-0.50215 -0.64256,-1.64685 -0.64256,-1.64685c3.01289,-6.86822 6.27371,-14.30163 9.2866,-21.16985c0,0 0.50215,-1.1447 1.64685,-0.64256c1.1447,0.50215 0.64256,1.64685 0.64256,1.64685c-3.01289,6.86822 -6.02578,13.73645 -9.03867,20.60467l-0.24793,0.56518c0,0 -0.50215,1.1447 -1.64685,0.64256z" fill="#00ca6c" stroke="none" stroke-width="0.5" stroke-linecap="butt"/><path d="M479.08142,295.62089c0,-0.69036 0.55964,-1.25 1.25,-1.25c0.69036,0 1.25,0.55964 1.25,1.25c0,0.69036 -0.55964,1.25 -1.25,1.25c-0.69036,0 -1.25,-0.55964 -1.25,-1.25z" fill="#00ca6c" stroke="none" stroke-width="0.5" stroke-linecap="butt"/><path d="M508.59948,275.69844c-1.2474,-0.08058 -1.16682,-1.32798 -1.16682,-1.32798l0.09175,-1.42039c0.59033,-9.13862 1.37789,-18.15047 0.88503,-27.29973c0,0 -0.06724,-1.24819 1.18095,-1.31543c1.24819,-0.06724 1.31543,1.18095 1.31543,1.18095c0.49825,9.24927 -0.28989,18.3577 -0.88661,27.59536l-0.09175,1.42039c0,0 -0.08058,1.2474 -1.32798,1.16682z" fill="#00ca6c" stroke="none" stroke-width="0.5" stroke-linecap="butt"/><path d="M438.04585,348.05076c-1.01737,0.72626 -1.74363,-0.29111 -1.74363,-0.29111l-0.93182,-1.31689c-2.28535,-4.07477 -2.72217,-8.00533 -2.72217,-12.60616c0,0 0,-1.25 1.25,-1.25c1.25,0 1.25,1.25 1.25,1.25c0,4.13914 0.29189,7.71514 2.39635,11.3721l0.79238,1.09843c0,0 0.72626,1.01737 -0.29111,1.74363z" fill="#00ca6c" stroke="none" stroke-width="0.5" stroke-linecap="butt"/><path d="M528.5575,387.31333c-1.23944,-0.16216 -1.07728,-1.40159 -1.07728,-1.40159l0.00057,-0.00433c1.08527,-8.29001 2.4051,-16.36753 3.07369,-24.72057c0.73158,-9.14004 1.86111,-18.23353 2.58932,-27.37382c0.46533,-5.84074 1.14364,-11.30266 0.20712,-17.09778c0,0 -0.19942,-1.23399 1.03457,-1.43341c1.23399,-0.19942 1.43341,1.03457 1.43341,1.03457c0.97032,6.0042 0.29853,11.65127 -0.18299,17.69517c-0.72824,9.14063 -1.85779,18.23442 -2.58939,27.37474c-0.67182,8.39333 -1.99775,16.51554 -3.08684,24.84542l-0.00057,0.00433c0,0 -0.16216,1.23944 -1.40159,1.07728z" fill="#00ca6c" stroke="none" stroke-width="0.5" stroke-linecap="butt"/><path d="M620.7216,341.87037c-0.61058,1.09073 -1.70131,0.48016 -1.70131,0.48016l-1.87075,-1.10081c-2.93113,-2.92807 -5.69086,-6.00641 -8.64058,-8.9205c-11.97637,-9.42938 -21.75411,-20.59762 -31.38994,-32.34129c0,0 -0.7929,-0.96634 0.17345,-1.75924c0.96634,-0.7929 1.75924,0.17345 1.75924,0.17345c9.55824,11.64911 19.24839,22.68293 31.11162,32.05276c2.99113,2.94594 5.78436,6.06245 8.75278,9.02585l1.32534,0.68832c0,0 1.09073,0.61058 0.48016,1.70131z" fill="#00ca6c" stroke="none" stroke-width="0.5" stroke-linecap="butt"/><path d="M513.5598,141.5312l-1.22963,-0.27238c-0.36337,-0.24549 -0.74764,-0.48073 -1.14538,-0.70612l0.05239,-0.01915l-0.95767,-0.93563c-0.21521,-0.21663 -0.49772,-0.36671 -0.93822,-0.38196c-0.68995,-0.02388 -1.26103,0.29476 -1.27552,0.71329c-0.00311,0.09 0.01972,0.17678 0.06442,0.25851l-0.03918,0.12136c-3.02109,-2.15405 -0.51346,-3.93998 0.54282,-6.25235c0.19536,-0.42766 0.45306,-0.84838 0.57398,-1.2876c0.07932,-0.28811 0.01662,-0.58847 0.02457,-0.88207c0.00392,-0.14452 0.07364,-0.55063 0.10287,-0.40646c0.57765,2.84951 6.22455,3.38742 10.06142,3.52019c0.75975,0.02629 4.37594,0.51447 4.77661,0.44586c2.53537,-0.43419 3.94559,-2.64836 5.7471,-3.65767c0.17732,-0.09934 3.77825,-1.83692 3.90739,-1.79042c2.47719,0.89186 2.19032,3.67225 4.01824,4.92524l0.39907,0.78239c0.14628,0.3151 0.62362,0.55889 1.18559,0.57833c0.68995,0.02388 1.21557,-0.24304 1.23005,-0.66158l0.03476,-0.90829c0.29113,-0.78795 -0.38589,-1.73159 0.02561,-2.49704c0.26984,-0.50196 1.47441,-0.59856 1.94948,-1.03715c0.04723,-0.04361 1.38235,-1.81424 2.11695,-1.42172c0.54724,0.29242 0.57786,0.84073 1.10741,1.145c1.2807,0.73589 3.38769,1.18287 5.2239,1.76515c-0.34755,0.48087 -0.70121,0.93189 -1.12249,1.29307c-0.8317,0.71306 -2.38642,1.04976 -3.14062,1.79486c-0.62088,0.61339 -0.01928,2.68257 1.23787,2.95284c1.51565,0.32584 2.33726,-0.93534 2.83377,-1.472c3.6929,0.3946 7.34261,-1.60311 5.07654,-3.95949c-0.46071,-0.47906 -1.1526,-0.86677 -1.96558,-1.20693c0.04948,-0.08393 0.10016,-0.16701 0.15179,-0.24962c0.1429,-0.22862 2.5678,-1.54689 2.99228,-1.34538c1.64363,0.78021 2.61428,2.52484 3.89772,3.56359c1.00133,0.81044 2.1738,1.79251 2.64156,2.77219c0.00131,0.01058 -0.09528,0.032 -0.09449,0.04247c-0.92372,-0.02354 -1.7003,-0.0161 -1.90742,0.06146c-0.56777,0.21261 -0.49228,0.76544 -0.87026,1.09893c-1.57256,1.38745 -5.1417,3.21039 -3.85493,5.25483c0.02427,0.03856 0.05006,0.07688 0.07739,0.11455l-0.03361,0.00562l0.45887,0.91154c0.14628,0.3151 0.51883,0.53561 1.08079,0.55506c0.56196,0.01944 1.0443,-0.18777 1.21201,-0.492l0.52071,-0.87397l-0.06848,-0.01631l0.12046,-0.10003c0.07531,-2.17638 2.88706,-3.29226 4.54844,-4.76346c0.15584,0.39206 0.04843,0.90592 0.37722,1.26981c0.23012,0.25467 0.72979,0.39348 0.97845,0.64192c1.36887,1.36759 -0.87509,3.04198 -1.32123,4.29715c-0.31942,0.89865 -0.08918,2.11299 -0.10746,3.03581c-0.04839,0.17281 -0.10504,0.90832 -1.04367,0.54408c-2.34453,-0.90982 -4.63666,-3.13429 -8.14502,-2.35037c-0.88835,0.1985 -1.39197,0.77679 -2.13984,1.12403c-1.8589,0.86309 -3.74894,1.31588 -5.66647,2.01069c-0.12758,0.04623 -2.9068,1.5734 -3.54602,1.31606c-0.98073,-0.39483 -1.1343,-1.25056 -1.73697,-1.86376c-1.68511,-1.71454 -3.2181,-2.27005 -6.49769,-2.39482c-2.8657,-0.01554 -4.35412,1.18957 -6.97708,1.61487c-0.65199,0.10572 -1.5303,0.63756 -1.96301,0.30864c-0.41861,-0.3182 -0.27599,-0.83742 -0.73873,-1.13245c-1.08969,-0.69477 -5.40649,-1.90533 -6.96034,-2.26081c-1.18626,-0.27138 -3.31504,0.19728 -4.38392,-0.12888c-0.81982,-0.25017 -1.47695,-0.68021 -2.29172,-0.93673c-0.257,-0.08092 -0.50814,-0.4671 -0.75512,-0.94472l0.82529,0.17058c0,0 1.07968,0.29275 1.4996,-0.41251c0.41992,-0.70526 -0.75763,-0.98813 -0.75763,-0.98813z" data-paper-data="{&quot;noHover&quot;:false,&quot;origItem&quot;:[&quot;Path&quot;,{&quot;applyMatrix&quot;:true,&quot;segments&quot;:[[[445.18103,565.61837],[2.37171,0.79057],[-2.37171,-0.79057]],[443.59989,562.4561],[[444.11858,560.98815],[0,0],[-1.54558,0.52669]],[[441.09823,562.56099],[0.23732,-0.5193],[-0.75234,1.6463]],[[438.2813,567.20337],[0.73084,-1.65596],[-0.95286,2.15903]],[[438.36433,575.97113],[0.75894,-2.38987],[-0.99412,3.13043]],[[431.73937,590.01443],[2.16501,-2.22613],[-0.91937,0.94532]],[[428.09823,591.56099],[1.00073,-0.85872],[-1.03444,0.88766]],[[429.34331,595.4561],[-0.42267,-1.2959],[1.70041,5.21337]],[[435.4716,609.24667],[-0.27554,-5.72904],[-0.0372,6.56389]],[[428.31326,622.35616],[5.45725,-3.48678],[-1.95178,1.24704]],[[422.36924,625.95472],[1.18913,-1.98759],[-0.77506,1.29549]],[[427.09823,632.93234],[-0.16687,-0.25181],[2.50804,3.78472]],[[434.34519,644.09705],[-3.05583,-3.65587],[1.22943,1.47083]],[[438.2813,648.28996],[-0.75533,-1.7619],[2.98304,6.95831]],[[431.38089,664.914],[2.73051,-4.74919],[-1.09315,1.90133]],[[433.37206,666.77895],[-0.57493,-0.08476],[3.04276,-0.02729]],[[443.37206,666.77895],[-2.99747,-0.5763],[4.18663,0.80493]],[[457.65727,669.12004],[-4.35012,2.83069],[0.79023,-0.51422]],[[459.65727,667.12004],[-0.81291,0.47757],[1.1615,-0.68236]],[[463.81658,666.47725],[-1.27407,0.33861],[-5.03704,-3.21902]],[[447.57115,657.71438],[7.17972,0],[0,0]],[447.22703,657.48038],[447.18103,657.61837],[[444.23572,656.6366],[0,0],[-1.02156,-0.31417]],[[442.4716,654.24667],[0,1.1246],[0,-1.1246]],[[444.23572,651.85673],[-1.02156,0.31417],[0,0]],[447.18103,650.87496],[[447.20329,650.94173],[0,0],[0.12101,-0.05724]],[[447.57115,650.77895],[-0.12428,0.05117],[6.58968,-2.7134]],[[465.28593,658.12004],[-4.75091,-3.04727],[1.14192,0.73243]],[[468.99971,659.78489],[-0.76529,-1.12016],[0.27917,0.40863]],[[469.46745,663.78742],[-0.02778,-1.84796],[0.0344,-0.00231]],[[469.57115,663.77895],[-0.03474,0.00334],[3.17469,-1.00273]],[[478.38663,658.31331],[-2.5562,2.05752],[3.27633,-2.63717]],[[489.6619,650.28996],[-2.38338,3.33926],[0.61554,-0.8624]],[[485.01489,644.55636],[0.76959,0.26983],[-0.27808,-0.0975]],[[484.17428,644.27089],[0.28219,0.0931],[-1.02811,1.64852]],[[480.41172,648.2902],[1.52599,-0.954],[-7.50586,4.69242]],[[466.76741,638.42631],[-0.87915,7.40866],[-1.82493,-0.95531]],[[461.53848,632.67228],[-0.90084,3.05202],[0.7472,-2.5315]],[[471.08963,630.0106],[-2.09192,-1.19859],[2.54109,1.45595]],[[477.35835,636.16654],[-2.44436,-1.61309],[1.23812,0.81707]],[[481.74279,638.32428],[-1.62411,-0.66141],[1.70924,-3.71051]],[[486.9435,627.78489],[-2.27872,2.61077],[0.94221,-1.07951]],[[490.58532,625.50125],[-0.9011,1.11405],[1.20961,-1.49547]],[[485.65727,621.37329],[0.14906,0.09139],[-1.4993,-0.91923]],[[482.01489,617.55636],[1.6847,0.50465],[-2.56906,-0.76956]],[[473.9716,617.74667],[2.62948,0.5274],[0,0]],[[470.9716,617.74667],[0,0],[-1.38071,0]],[[468.4716,615.24667],[0,1.38071],[0,-1.1246]],[[470.23572,612.85673],[-1.02156,0.31417],[0,0]],[[472.76685,612.01302],[0,0],[3.92017,-3.74031]],[[488.53848,603.67228],[-2.65624,5.01309],[0.13847,-0.26134]],[[482.20383,596.01443],[0.34755,0.34755],[-3.53105,-3.53105]],[[469.53848,584.82105],[1.71975,5.03768],[-0.27178,-0.79611]],[[470.4716,575.24667],[0,1.52042],[0,-7.67832]],[[481.00109,554.70814],[-9.32324,1.35171],[0.47172,-0.06839]],[[479.57115,554.71438],[0.47665,-0.00217],[-0.96833,0.00441]],[[476.66614,554.72793],[0.95837,0.13863],[-1.46099,-0.21134]],[[472.36526,553.67202],[1.43141,0.36089],[-7.73965,-1.95136]],[[451.73735,553.02285],[6.75311,-6.18755],[0,0]],[[452.12567,552.89341],[0,0],[0.2642,-0.09499]],[[452.9716,552.74667],[-0.29691,0],[1.38071,0]],[[455.4716,555.24667],[0,-1.38071],[0,0.88153]],[[454.32609,557.3483],[0.68925,-0.44514],[0,0]],[451.35835,559.32679],[[451.28941,559.22339],[0,0],[-0.69732,0.8106]],[[449.09823,561.56099],[0.76744,-0.74329],[0,0]],[448.34331,564.03724]],&quot;closed&quot;:true}]}" fill="url(#color-2)" stroke="none" stroke-width="0.5" stroke-linecap="butt"/><path d="M95.35184,154.37203l-0.88365,-0.27238c-0.26113,-0.24549 -0.53728,-0.48073 -0.82311,-0.70612l0.03765,-0.01915l-0.68822,-0.93563c-0.15465,-0.21663 -0.35768,-0.36671 -0.67423,-0.38196c-0.49582,-0.02388 -0.90622,0.29476 -0.91663,0.71329c-0.00224,0.09 0.01418,0.17678 0.04629,0.25851l-0.02815,0.12136c-2.17105,-2.15405 -3.7226,-17.27332 -2.96352,-19.58568c0.14039,-0.42766 3.67919,12.48495 3.7661,12.04574c0.05701,-0.28811 0.01194,-0.58847 0.01766,-0.88207c0.00281,-0.14452 0.05292,-0.55063 0.07393,-0.40646c0.41512,2.84951 4.47316,3.38742 7.23045,3.52019c0.54598,0.02629 3.14469,0.51447 3.43262,0.44585c1.822,-0.43419 2.83543,-2.64836 4.13005,-3.65767c0.12742,-0.09934 2.71517,-1.83692 2.80797,-1.79042c1.78018,0.89186 1.57404,3.67225 2.88764,4.92524l0.28679,0.78239c0.10512,0.3151 0.44815,0.55889 0.852,0.57833c0.49582,0.02388 0.87354,-0.24304 0.88395,-0.66158l0.02498,-0.90829c0.20921,-0.78795 -0.27731,-1.73159 0.0184,-2.49704c0.19392,-0.50196 1.05956,-0.59856 1.40096,-1.03715c0.03394,-0.04361 0.9934,-1.81424 1.5213,-1.42172c0.39326,0.29242 0.41527,0.84073 0.79582,1.145c0.92035,0.73589 2.4345,1.18287 3.75406,1.76515c-0.24976,0.48087 -0.50391,0.93189 -0.80666,1.29307c-0.59769,0.71306 -1.71496,1.04976 -2.25695,1.79486c-0.44618,0.61339 -0.01386,2.68257 0.88958,2.95284c1.08919,0.32584 1.67963,-0.93534 2.03644,-1.472c2.65383,0.3946 5.27663,-1.60311 3.64816,-3.95949c-0.33108,-0.47906 -0.8283,-0.86677 -1.41253,-1.20693c0.03556,-0.08393 0.07198,-0.16701 0.10908,-0.24962c0.1027,-0.22862 1.8453,-1.54689 2.15035,-1.34538c1.18116,0.78021 1.87871,2.52484 2.80102,3.56359c0.71959,0.81044 1.56216,1.79251 1.89831,2.77219c0.00094,0.01058 -0.06847,0.032 -0.0679,0.04247c-0.66381,-0.02354 -1.22189,-0.0161 -1.37073,0.06146c-0.40802,0.21261 -0.35377,0.76544 -0.6254,1.09893c-1.13009,1.38745 -3.69499,3.21039 -2.77028,5.25483c0.01744,0.03856 0.03597,0.07688 0.05561,0.11455l-0.02415,0.00562l0.32975,0.91154c0.10512,0.3151 0.37285,0.53561 0.77669,0.55505c0.40385,0.01944 0.75047,-0.18777 0.87099,-0.492l0.3742,-0.87397l-0.04921,-0.01631l0.08657,-0.10003c0.05412,-2.17638 3.512,-9.62559 4.70592,-11.09679c0.11199,0.39206 6.26294,-7.09408 6.49922,-6.73019c0.16537,0.25467 -4.26643,15.39348 -4.08773,15.64192c0.98371,1.36759 -3.50339,2.37532 -3.824,3.63048c-0.22955,0.89865 -0.06409,2.11299 -0.07723,3.03581c-0.03477,0.17281 -0.07549,0.90832 -0.75001,0.54408c-1.68485,-0.90982 -3.33205,-3.13429 -5.85327,-2.35037c-0.6384,0.1985 -1.00031,0.77679 -1.53775,1.12403c-1.33586,0.86309 -2.6941,1.31588 -4.07211,2.01069c-0.09168,0.04623 -2.08892,1.5734 -2.54829,1.31606c-0.70478,-0.39483 -0.81514,-1.25056 -1.24825,-1.86376c-1.21097,-1.71454 -2.31263,-2.27005 -4.66945,-2.39482c-2.05938,-0.01554 -3.12901,1.18957 -5.01395,1.61487c-0.46854,0.10572 -1.09973,0.63756 -1.41068,0.30864c-0.30083,-0.3182 -0.19834,-0.83742 -0.53087,-1.13245c-0.78309,-0.69477 -3.88528,-1.90533 -5.00192,-2.26081c-0.85248,-0.27138 -2.3823,0.19728 -3.15042,-0.12888c-0.58915,-0.25017 -1.06139,-0.68021 -1.6469,-0.93673c-0.18469,-0.08092 -0.36517,-0.4671 -0.54265,-0.94472l0.59308,0.17058c0,0 0.77589,0.29275 1.07766,-0.41251c0.30177,-0.70526 -0.54446,-0.98813 -0.54446,-0.98813z" data-paper-data="{&quot;noHover&quot;:false,&quot;origItem&quot;:[&quot;Path&quot;,{&quot;applyMatrix&quot;:true,&quot;segments&quot;:[[[445.18103,565.61837],[2.37171,0.79057],[-2.37171,-0.79057]],[443.59989,562.4561],[[444.11858,560.98815],[0,0],[-1.54558,0.52669]],[[441.09823,562.56099],[0.23732,-0.5193],[-0.75234,1.6463]],[[438.2813,567.20337],[0.73084,-1.65596],[-0.95286,2.15903]],[[438.36433,575.97113],[0.75894,-2.38987],[-0.99412,3.13043]],[[431.73937,590.01443],[2.16501,-2.22613],[-0.91937,0.94532]],[[428.09823,591.56099],[1.00073,-0.85872],[-1.03444,0.88766]],[[429.34331,595.4561],[-0.42267,-1.2959],[1.70041,5.21337]],[[435.4716,609.24667],[-0.27554,-5.72904],[-0.0372,6.56389]],[[428.31326,622.35616],[5.45725,-3.48678],[-1.95178,1.24704]],[[422.36924,625.95472],[1.18913,-1.98759],[-0.77506,1.29549]],[[427.09823,632.93234],[-0.16687,-0.25181],[2.50804,3.78472]],[[434.34519,644.09705],[-3.05583,-3.65587],[1.22943,1.47083]],[[438.2813,648.28996],[-0.75533,-1.7619],[2.98304,6.95831]],[[431.38089,664.914],[2.73051,-4.74919],[-1.09315,1.90133]],[[433.37206,666.77895],[-0.57493,-0.08476],[3.04276,-0.02729]],[[443.37206,666.77895],[-2.99747,-0.5763],[4.18663,0.80493]],[[457.65727,669.12004],[-4.35012,2.83069],[0.79023,-0.51422]],[[459.65727,667.12004],[-0.81291,0.47757],[1.1615,-0.68236]],[[463.81658,666.47725],[-1.27407,0.33861],[-5.03704,-3.21902]],[[447.57115,657.71438],[7.17972,0],[0,0]],[447.22703,657.48038],[447.18103,657.61837],[[444.23572,656.6366],[0,0],[-1.02156,-0.31417]],[[442.4716,654.24667],[0,1.1246],[0,-1.1246]],[[444.23572,651.85673],[-1.02156,0.31417],[0,0]],[447.18103,650.87496],[[447.20329,650.94173],[0,0],[0.12101,-0.05724]],[[447.57115,650.77895],[-0.12428,0.05117],[6.58968,-2.7134]],[[465.28593,658.12004],[-4.75091,-3.04727],[1.14192,0.73243]],[[468.99971,659.78489],[-0.76529,-1.12016],[0.27917,0.40863]],[[469.46745,663.78742],[-0.02778,-1.84796],[0.0344,-0.00231]],[[469.57115,663.77895],[-0.03474,0.00334],[3.17469,-1.00273]],[[478.38663,658.31331],[-2.5562,2.05752],[3.27633,-2.63717]],[[489.6619,650.28996],[-2.38338,3.33926],[0.61554,-0.8624]],[[485.01489,644.55636],[0.76959,0.26983],[-0.27808,-0.0975]],[[484.17428,644.27089],[0.28219,0.0931],[-1.02811,1.64852]],[[480.41172,648.2902],[1.52599,-0.954],[-7.50586,4.69242]],[[466.76741,638.42631],[-0.87915,7.40866],[-1.82493,-0.95531]],[[461.53848,632.67228],[-0.90084,3.05202],[0.7472,-2.5315]],[[471.08963,630.0106],[-2.09192,-1.19859],[2.54109,1.45595]],[[477.35835,636.16654],[-2.44436,-1.61309],[1.23812,0.81707]],[[481.74279,638.32428],[-1.62411,-0.66141],[1.70924,-3.71051]],[[486.9435,627.78489],[-2.27872,2.61077],[0.94221,-1.07951]],[[490.58532,625.50125],[-0.9011,1.11405],[1.20961,-1.49547]],[[485.65727,621.37329],[0.14906,0.09139],[-1.4993,-0.91923]],[[482.01489,617.55636],[1.6847,0.50465],[-2.56906,-0.76956]],[[473.9716,617.74667],[2.62948,0.5274],[0,0]],[[470.9716,617.74667],[0,0],[-1.38071,0]],[[468.4716,615.24667],[0,1.38071],[0,-1.1246]],[[470.23572,612.85673],[-1.02156,0.31417],[0,0]],[[472.76685,612.01302],[0,0],[3.92017,-3.74031]],[[488.53848,603.67228],[-2.65624,5.01309],[0.13847,-0.26134]],[[482.20383,596.01443],[0.34755,0.34755],[-3.53105,-3.53105]],[[469.53848,584.82105],[1.71975,5.03768],[-0.27178,-0.79611]],[[470.4716,575.24667],[0,1.52042],[0,-7.67832]],[[481.00109,554.70814],[-9.32324,1.35171],[0.47172,-0.06839]],[[479.57115,554.71438],[0.47665,-0.00217],[-0.96833,0.00441]],[[476.66614,554.72793],[0.95837,0.13863],[-1.46099,-0.21134]],[[472.36526,553.67202],[1.43141,0.36089],[-7.73965,-1.95136]],[[451.73735,553.02285],[6.75311,-6.18755],[0,0]],[[452.12567,552.89341],[0,0],[0.2642,-0.09499]],[[452.9716,552.74667],[-0.29691,0],[1.38071,0]],[[455.4716,555.24667],[0,-1.38071],[0,0.88153]],[[454.32609,557.3483],[0.68925,-0.44514],[0,0]],[451.35835,559.32679],[[451.28941,559.22339],[0,0],[-0.69732,0.8106]],[[449.09823,561.56099],[0.76744,-0.74329],[0,0]],[448.34331,564.03724]],&quot;closed&quot;:true}]}" fill="url(#color-3)" stroke="none" stroke-width="0.5" stroke-linecap="butt"/><path d="M184.12649,224.75042l-0.69595,-0.27847c-0.20566,-0.25097 -0.42315,-0.49148 -0.64827,-0.72191l0.02965,-0.01957l-0.54203,-0.95655c-0.1218,-0.22147 -0.2817,-0.37491 -0.53102,-0.3905c-0.3905,-0.02441 -0.71372,0.30135 -0.72192,0.72924c-0.00176,0.09201 0.01116,0.18073 0.03646,0.26429l-0.02217,0.12407c-1.70989,-2.20221 -2.93187,-17.65953 -2.33403,-20.0236c0.11057,-0.43722 2.89768,12.7641 2.96613,12.31507c0.0449,-0.29455 0.0094,-0.60163 0.0139,-0.9018c0.00222,-0.14776 0.04168,-0.56295 0.05822,-0.41555c0.32694,2.91322 3.523,3.46316 5.69461,3.5989c0.43001,0.02688 2.47672,0.52597 2.70349,0.45582c1.43498,-0.4439 2.23315,-2.70758 3.25277,-3.73945c0.10036,-0.10156 2.13843,-1.87799 2.21152,-1.83046c1.40205,0.91181 1.23969,3.75436 2.27426,5.03536l0.22587,0.79988c0.08279,0.32214 0.35296,0.57139 0.67102,0.59127c0.3905,0.02441 0.68799,-0.24848 0.69619,-0.67637l0.01967,-0.92859c0.16477,-0.80557 -0.21841,-1.77031 0.0145,-2.55288c0.15273,-0.51318 0.8345,-0.61194 1.10338,-1.06033c0.02673,-0.04458 0.78238,-1.85481 1.19816,-1.4535c0.30973,0.29895 0.32706,0.85953 0.62678,1.17061c0.72486,0.75234 1.91738,1.20932 2.95665,1.80462c-0.1967,0.49163 -0.39687,0.95273 -0.63531,1.32198c-0.47073,0.729 -1.35068,1.07323 -1.77754,1.83499c-0.35141,0.62711 -0.01091,2.74255 0.70062,3.01886c0.85783,0.33313 1.32285,-0.95625 1.60387,-1.50492c2.09012,0.40342 4.1558,-1.63895 2.87324,-4.04802c-0.26075,-0.48978 -0.65235,-0.88615 -1.11249,-1.23391c0.02801,-0.08581 0.05669,-0.17074 0.08591,-0.2552c0.08088,-0.23373 1.45333,-1.58147 1.69358,-1.37547c0.93027,0.79765 1.47965,2.58129 2.20605,3.64327c0.56674,0.82856 1.23034,1.83259 1.49508,2.83417c0.00074,0.01082 -0.05393,0.03272 -0.05348,0.04342c-0.52281,-0.02406 -0.96234,-0.01645 -1.07957,0.06284c-0.32135,0.21736 -0.27862,0.78256 -0.49255,1.1235c-0.89004,1.41847 -2.91012,3.28217 -2.18183,5.37232c0.01374,0.03942 0.02833,0.0786 0.0438,0.11711l-0.01902,0.00575l0.25971,0.93192c0.08279,0.32214 0.29365,0.54759 0.61171,0.56747c0.31806,0.01988 0.59106,-0.19197 0.68598,-0.503l0.29471,-0.89351l-0.03876,-0.01668l0.06818,-0.10227c0.04262,-2.22504 2.766,-9.84081 3.70632,-11.34491c0.0882,0.40083 4.93261,-7.25269 5.1187,-6.88067c0.13024,0.26037 -3.36018,15.73767 -3.21944,15.99166c0.77476,1.39817 -2.75923,2.42843 -3.01173,3.71165c-0.18079,0.91875 -0.05048,2.16023 -0.06082,3.10368c-0.02739,0.17667 -0.05945,0.92863 -0.5907,0.55625c-1.32697,-0.93016 -2.62428,-3.20437 -4.60996,-2.40292c-0.50279,0.20293 -0.78783,0.79415 -1.21112,1.14916c-1.05211,0.88239 -2.12184,1.3453 -3.20714,2.05565c-0.07221,0.04726 -1.64521,1.60859 -2.007,1.34549c-0.55508,-0.40366 -0.642,-1.27852 -0.9831,-1.90543c-0.95374,-1.75288 -1.8214,-2.3208 -3.6776,-2.44837c-1.62194,-0.01589 -2.46437,1.21617 -3.94892,1.65097c-0.36902,0.10808 -0.86613,0.65182 -1.11104,0.31555c-0.23693,-0.32531 -0.15621,-0.85615 -0.41811,-1.15778c-0.61675,-0.7103 -3.05999,-1.94793 -3.93945,-2.31136c-0.67141,-0.27745 -1.87626,0.2017 -2.48123,-0.13177c-0.464,-0.25576 -0.83594,-0.69541 -1.29708,-0.95767c-0.14546,-0.08272 -0.2876,-0.47754 -0.42738,-0.96584l0.4671,0.17439c0,0 0.61108,0.2993 0.84875,-0.42173c0.23767,-0.72103 -0.42881,-1.01023 -0.42881,-1.01023z" data-paper-data="{&quot;noHover&quot;:false,&quot;origItem&quot;:[&quot;Path&quot;,{&quot;applyMatrix&quot;:true,&quot;segments&quot;:[[[445.18103,565.61837],[2.37171,0.79057],[-2.37171,-0.79057]],[443.59989,562.4561],[[444.11858,560.98815],[0,0],[-1.54558,0.52669]],[[441.09823,562.56099],[0.23732,-0.5193],[-0.75234,1.6463]],[[438.2813,567.20337],[0.73084,-1.65596],[-0.95286,2.15903]],[[438.36433,575.97113],[0.75894,-2.38987],[-0.99412,3.13043]],[[431.73937,590.01443],[2.16501,-2.22613],[-0.91937,0.94532]],[[428.09823,591.56099],[1.00073,-0.85872],[-1.03444,0.88766]],[[429.34331,595.4561],[-0.42267,-1.2959],[1.70041,5.21337]],[[435.4716,609.24667],[-0.27554,-5.72904],[-0.0372,6.56389]],[[428.31326,622.35616],[5.45725,-3.48678],[-1.95178,1.24704]],[[422.36924,625.95472],[1.18913,-1.98759],[-0.77506,1.29549]],[[427.09823,632.93234],[-0.16687,-0.25181],[2.50804,3.78472]],[[434.34519,644.09705],[-3.05583,-3.65587],[1.22943,1.47083]],[[438.2813,648.28996],[-0.75533,-1.7619],[2.98304,6.95831]],[[431.38089,664.914],[2.73051,-4.74919],[-1.09315,1.90133]],[[433.37206,666.77895],[-0.57493,-0.08476],[3.04276,-0.02729]],[[443.37206,666.77895],[-2.99747,-0.5763],[4.18663,0.80493]],[[457.65727,669.12004],[-4.35012,2.83069],[0.79023,-0.51422]],[[459.65727,667.12004],[-0.81291,0.47757],[1.1615,-0.68236]],[[463.81658,666.47725],[-1.27407,0.33861],[-5.03704,-3.21902]],[[447.57115,657.71438],[7.17972,0],[0,0]],[447.22703,657.48038],[447.18103,657.61837],[[444.23572,656.6366],[0,0],[-1.02156,-0.31417]],[[442.4716,654.24667],[0,1.1246],[0,-1.1246]],[[444.23572,651.85673],[-1.02156,0.31417],[0,0]],[447.18103,650.87496],[[447.20329,650.94173],[0,0],[0.12101,-0.05724]],[[447.57115,650.77895],[-0.12428,0.05117],[6.58968,-2.7134]],[[465.28593,658.12004],[-4.75091,-3.04727],[1.14192,0.73243]],[[468.99971,659.78489],[-0.76529,-1.12016],[0.27917,0.40863]],[[469.46745,663.78742],[-0.02778,-1.84796],[0.0344,-0.00231]],[[469.57115,663.77895],[-0.03474,0.00334],[3.17469,-1.00273]],[[478.38663,658.31331],[-2.5562,2.05752],[3.27633,-2.63717]],[[489.6619,650.28996],[-2.38338,3.33926],[0.61554,-0.8624]],[[485.01489,644.55636],[0.76959,0.26983],[-0.27808,-0.0975]],[[484.17428,644.27089],[0.28219,0.0931],[-1.02811,1.64852]],[[480.41172,648.2902],[1.52599,-0.954],[-7.50586,4.69242]],[[466.76741,638.42631],[-0.87915,7.40866],[-1.82493,-0.95531]],[[461.53848,632.67228],[-0.90084,3.05202],[0.7472,-2.5315]],[[471.08963,630.0106],[-2.09192,-1.19859],[2.54109,1.45595]],[[477.35835,636.16654],[-2.44436,-1.61309],[1.23812,0.81707]],[[481.74279,638.32428],[-1.62411,-0.66141],[1.70924,-3.71051]],[[486.9435,627.78489],[-2.27872,2.61077],[0.94221,-1.07951]],[[490.58532,625.50125],[-0.9011,1.11405],[1.20961,-1.49547]],[[485.65727,621.37329],[0.14906,0.09139],[-1.4993,-0.91923]],[[482.01489,617.55636],[1.6847,0.50465],[-2.56906,-0.76956]],[[473.9716,617.74667],[2.62948,0.5274],[0,0]],[[470.9716,617.74667],[0,0],[-1.38071,0]],[[468.4716,615.24667],[0,1.38071],[0,-1.1246]],[[470.23572,612.85673],[-1.02156,0.31417],[0,0]],[[472.76685,612.01302],[0,0],[3.92017,-3.74031]],[[488.53848,603.67228],[-2.65624,5.01309],[0.13847,-0.26134]],[[482.20383,596.01443],[0.34755,0.34755],[-3.53105,-3.53105]],[[469.53848,584.82105],[1.71975,5.03768],[-0.27178,-0.79611]],[[470.4716,575.24667],[0,1.52042],[0,-7.67832]],[[481.00109,554.70814],[-9.32324,1.35171],[0.47172,-0.06839]],[[479.57115,554.71438],[0.47665,-0.00217],[-0.96833,0.00441]],[[476.66614,554.72793],[0.95837,0.13863],[-1.46099,-0.21134]],[[472.36526,553.67202],[1.43141,0.36089],[-7.73965,-1.95136]],[[451.73735,553.02285],[6.75311,-6.18755],[0,0]],[[452.12567,552.89341],[0,0],[0.2642,-0.09499]],[[452.9716,552.74667],[-0.29691,0],[1.38071,0]],[[455.4716,555.24667],[0,-1.38071],[0,0.88153]],[[454.32609,557.3483],[0.68925,-0.44514],[0,0]],[451.35835,559.32679],[[451.28941,559.22339],[0,0],[-0.69732,0.8106]],[[449.09823,561.56099],[0.76744,-0.74329],[0,0]],[448.34331,564.03724]],&quot;closed&quot;:true}]}" fill="url(#color-4)" stroke="none" stroke-width="0.5" stroke-linecap="butt"/><path d="M508.80858,211.77529c0,-0.69036 0.55964,-1.25 1.25,-1.25c0.69036,0 1.25,0.55964 1.25,1.25c0,0.69036 -0.55964,1.25 -1.25,1.25c-0.69036,0 -1.25,-0.55964 -1.25,-1.25z" fill="#ff7be5" stroke="none" stroke-width="0.5" stroke-linecap="butt"/><path d="M503.80858,216.10862c0,-0.69036 0.55964,-1.25 1.25,-1.25c0.69036,0 1.25,0.55964 1.25,1.25c0,0.69036 -0.55964,1.25 -1.25,1.25c-0.69036,0 -1.25,-0.55964 -1.25,-1.25z" fill="#ff7be5" stroke="none" stroke-width="0.5" stroke-linecap="butt"/><path d="M492.47525,211.77529c0,-0.69036 0.55964,-1.25 1.25,-1.25c0.69036,0 1.25,0.55964 1.25,1.25c0,0.69036 -0.55964,1.25 -1.25,1.25c-0.69036,0 -1.25,-0.55964 -1.25,-1.25z" fill="#ff7be5" stroke="none" stroke-width="0.5" stroke-linecap="butt"/><path d="M493.1419,217.77529c0,-0.69036 0.55964,-1.25 1.25,-1.25c0.69036,0 1.25,0.55964 1.25,1.25c0,0.69036 -0.55964,1.25 -1.25,1.25c-0.69036,0 -1.25,-0.55964 -1.25,-1.25z" fill="#ff7be5" stroke="none" stroke-width="0.5" stroke-linecap="butt"/><path d="M485.80858,216.77529c0,-0.69036 0.55964,-1.25 1.25,-1.25c0.69036,0 1.25,0.55964 1.25,1.25c0,0.69036 -0.55964,1.25 -1.25,1.25c-0.69036,0 -1.25,-0.55964 -1.25,-1.25z" fill="#ff7be5" stroke="none" stroke-width="0.5" stroke-linecap="butt"/><path d="M523.24653,138.0791c0,-0.69036 0.55964,-1.25 1.25,-1.25c0.69036,0 1.25,0.55964 1.25,1.25c0,0.69036 -0.55964,1.25 -1.25,1.25c-0.69036,0 -1.25,-0.55964 -1.25,-1.25z" fill="#ff7be5" stroke="none" stroke-width="0.5" stroke-linecap="butt"/><path d="M535.24653,142.0791c0,-0.69036 0.55964,-1.25 1.25,-1.25c0.69036,0 1.25,0.55964 1.25,1.25c0,0.69036 -0.55964,1.25 -1.25,1.25c-0.69036,0 -1.25,-0.55964 -1.25,-1.25z" fill="#ff7be5" stroke="none" stroke-width="0.5" stroke-linecap="butt"/><path d="M552.24653,136.0791c0,-0.69036 0.55964,-1.25 1.25,-1.25c0.69036,0 1.25,0.55964 1.25,1.25c0,0.69036 -0.55964,1.25 -1.25,1.25c-0.69036,0 -1.25,-0.55964 -1.25,-1.25z" fill="#ff7be5" stroke="none" stroke-width="0.5" stroke-linecap="butt"/><path d="M360.00001,180c0,22.91982 -17.90861,41.5 -40,41.5c-22.09139,0 -40,-18.58018 -40,-41.5c0,-22.91981 17.90861,-41.5 40,-41.5c22.09139,0 40,18.58019 40,41.5z" fill="#d4d8a4" stroke="none" stroke-width="0" stroke-linecap="butt"/><path d="M364.98581,180.87482c0,18.77768 -14.99846,34 -33.5,34c-18.50154,0 -33.5,-15.22232 -33.5,-34c0,-18.77768 14.99846,-34 33.5,-34c18.50154,0 33.5,15.22232 33.5,34z" fill="#fcffd3" stroke="none" stroke-width="0" stroke-linecap="butt"/><path d="M355.47529,171.87482h-22.5" fill="none" stroke="#000000" stroke-width="0.5" stroke-linecap="round"/><path d="M330.4753,187.37482l25.5,0.5" fill="none" stroke="#000000" stroke-width="0.5" stroke-linecap="round"/><path d="" fill="none" stroke="#000000" stroke-width="0.5" stroke-linecap="round"/><path d="M167.75707,245.85792l-0.71623,7.16229l-4.29737,-5.37172l1.07434,7.5204l-7.5204,-6.08795l-2.5068,7.87852l-5.37172,-4.29737z" fill="url(#color-5)" stroke="#000000" stroke-width="0.5" stroke-linecap="round"/><path d="M146.03026,264.23993l5.37172,-4.29737l2.5068,7.87852l7.5204,-6.08795l-1.07434,7.5204l4.29737,-5.37172l0.71623,7.16229z" data-paper-data="{&quot;index&quot;:null}" fill="url(#color-6)" stroke="#000000" stroke-width="0.5" stroke-linecap="round"/><path d="M147.70267,258.75004c0,8.90234 21.225,9.43048 20.22093,13.03813c-0.35667,1.28152 -28.89243,7.37439 -34.72456,7.37439c-22.25037,0 -41.0041,-8.70599 -41.0041,-20.77064c0,-12.06465 18.03749,-21.84498 40.28787,-21.84498c8.30366,0 38.6438,7.70844 37.0523,9.91804c-2.67306,3.71121 -21.83244,4.72284 -21.83244,12.28505z" fill="#00f52f" stroke="#000000" stroke-width="0.5" stroke-linecap="butt"/><text transform="translate(96.1342,260.36156) scale(0.16581,0.16581)" font-size="40" xml:space="preserve" fill="#000000" fill-rule="nonzero" stroke="none" stroke-width="1" stroke-linecap="butt" stroke-linejoin="miter" stroke-miterlimit="10" stroke-dasharray="" stroke-dashoffset="0" font-family="Handwriting" font-weight="normal" text-anchor="start" style="mix-blend-mode: normal"><tspan x="0" dy="0">The DINO</tspan></text><path d="M107.59386,263.04741l16.83138,-0.71623" fill="none" stroke="#000000" stroke-width="0.5" stroke-linecap="round"/><path d="M168.77143,246.57415c0,0.29813 -0.29813,0.29813 -0.29813,0.29813h-0.02856c-1.39127,0 -2.78255,0 -4.17382,0c-1.19301,0 -2.38612,0.00433 -3.57912,-0.00192c-0.11767,-0.00062 -1.21189,-0.00424 -1.28329,-0.02663c-0.18938,-0.05939 -0.29683,-0.28278 -0.48531,-0.34498c-0.37478,-0.12368 -0.80184,0.00625 -1.17881,-0.11061c-0.38217,-0.11848 -0.65397,-0.4786 -1.02899,-0.61809c-0.17673,-0.06574 -0.38304,0.03022 -0.56541,-0.01769c-0.74713,-0.19626 -1.37907,-0.8724 -2.13543,-1.03549c-0.50472,-0.10883 -1.20056,0.0078 -1.71806,0.00988c-0.11561,0.00543 -0.97929,0.0371 -1.11335,0.07677c-0.19532,0.0578 -0.34956,0.22469 -0.5481,0.27022c-0.9065,0.20792 -2.11953,0.01352 -3.052,0.00638c-0.54976,-0.00421 -1.37996,0.09816 -1.8971,-0.11142c-0.19986,-0.081 -0.32804,-0.28223 -0.50978,-0.3983c-0.32315,-0.20638 -0.72891,-0.24381 -1.07589,-0.40699c-0.33849,-0.15918 -0.61966,-0.45694 -0.98485,-0.53784c-0.94018,-0.20828 -1.9036,-0.33444 -2.86491,-0.33444c-2.31525,0 -4.81777,-0.26879 -7.11143,0.05205c-0.39069,0.05465 -0.75468,0.23977 -1.14414,0.30258c-0.77571,0.1251 -1.59943,-0.06496 -2.38277,0.06213c-0.5746,0.09322 -1.08804,0.41406 -1.60531,0.66055c-0.40039,0.07834 -0.77246,0.27188 -1.17299,0.34953c-0.95135,0.18444 -1.99376,-0.20477 -2.93319,0.11454c-0.55974,0.19026 -1.06562,0.48108 -1.60119,0.71066c-0.55961,0.23989 -1.19255,0.2512 -1.76004,0.43667c-0.47785,0.15618 -0.58231,0.39641 -1.09133,0.5271c-0.38614,0.09914 -0.80562,-0.02182 -1.19407,0.06783c-0.36973,0.08533 -0.58922,0.50138 -0.94382,0.6364c-0.05074,0.01932 -1.18645,0.02813 -1.29694,0.02939c-0.87689,0.01027 -1.35098,0.448 -2.13289,0.71489c-0.53513,0.18265 -1.14798,0.23168 -1.67688,0.44257c-0.17377,0.06929 -0.28479,0.24704 -0.44891,0.33684c-0.7065,0.38658 -1.53986,0.53745 -2.28503,0.81243c-0.19469,0.07185 -0.92717,0.49576 -1.09839,0.53929c-0.39438,0.10028 -0.81359,-0.02599 -1.20989,0.04877c-0.89635,0.16908 -1.91453,0.63133 -2.7305,1.02971c-3.46388,1.15526 -6.73834,2.5114 -10.4453,2.5114c0,0 -0.29813,0 -0.29813,-0.29813c0,-0.29813 0.29813,-0.29813 0.29813,-0.29813c3.63012,0 6.82531,-1.34343 10.21992,-2.46717c0.85006,-0.4155 1.91093,-0.88735 2.84535,-1.06361c0.38461,-0.07255 0.79415,0.05574 1.17347,-0.04071c0.3752,-0.09541 0.67534,-0.3857 1.03823,-0.52056c0.71657,-0.26631 1.52612,-0.4038 2.20573,-0.77627c0.18455,-0.10115 0.31828,-0.28874 0.5135,-0.36733c0.53857,-0.21682 1.16203,-0.27012 1.70716,-0.45376c0.83984,-0.28292 1.36907,-0.72267 2.31536,-0.74641c0.36267,-0.00413 0.75234,0.14916 1.08802,0.01181c0.37507,-0.15346 0.62776,-0.561 1.02056,-0.6607c0.38417,-0.09751 0.80324,0.03218 1.18721,-0.06612c0.3788,-0.09697 0.68208,-0.39364 1.05344,-0.51603c0.54834,-0.18072 1.17078,-0.18375 1.70993,-0.41769c0.54839,-0.23795 1.07248,-0.54049 1.64894,-0.72887c0.98574,-0.32212 2.02356,0.06411 3.00607,-0.13378c0.37559,-0.07565 0.7246,-0.25822 1.10084,-0.33053c0.55358,-0.26944 1.07853,-0.57898 1.69556,-0.68283c0.78315,-0.1318 1.61125,0.06552 2.38407,-0.06234c0.39352,-0.06511 0.76225,-0.24882 1.1572,-0.30457c2.32085,-0.32759 4.85154,-0.05785 7.19442,-0.05785c0.99636,0 2.02719,0.12027 2.9983,0.34955c0.4049,0.0956 0.72905,0.40219 1.1054,0.57951c0.36949,0.17408 0.79745,0.22458 1.14224,0.44353c0.15357,0.09752 0.25105,0.27892 0.41825,0.3506c0.42315,0.18141 1.22269,0.06238 1.67291,0.06581c0.87273,0.00666 2.06753,0.21457 2.9106,0.00952c0.18833,-0.0458 0.3324,-0.20945 0.51881,-0.26253c0.22394,-0.06376 1.0222,-0.08879 1.26423,-0.10019c0.56387,-0.0024 1.3101,-0.11592 1.85949,0.00342c0.77227,0.16776 1.40343,0.8491 2.15848,1.04096c0.20254,0.05147 0.43044,-0.03724 0.62586,0.0368c0.36313,0.13756 0.62324,0.49314 0.99467,0.60638c0.38004,0.11586 0.80775,-0.00675 1.18657,0.11306c0.18977,0.06002 0.29856,0.28136 0.48697,0.34552c0.34761,0.11837 0.73442,-0.00464 1.10162,-0.00271c1.19196,0.00624 2.38403,0.00191 3.576,0.00191c1.39127,0 2.78255,0 4.17382,0h0.02856c0,0 0.29813,0 0.29813,0.29813z" fill="#00b725" stroke="none" stroke-width="0.5" stroke-linecap="butt"/><path d="M155.9393,245.32075c0,1.48336 -1.443,2.68586 -3.22303,2.68586c-1.78003,0 -3.22303,-1.2025 -3.22303,-2.68586c0,-1.48336 1.443,-2.68586 3.22303,-2.68586c1.78003,0 3.22303,1.2025 3.22303,2.68586z" fill="#000000" stroke="#000000" stroke-width="0.5" stroke-linecap="butt"/><path d="M95.83605,266.62864c-0.00009,-0.29813 0.29804,-0.29821 0.29804,-0.29821l0.55909,-0.00016c0.95625,-0.00076 1.97889,0.09921 2.92341,-0.07395c0.58148,-0.1066 1.10969,-0.37292 1.68024,-0.52667c0.56739,-0.15221 1.18428,-0.39435 1.76596,-0.47109c0.77652,-0.10245 1.60374,0.11154 2.37694,-0.01198c0.39124,-0.0625 0.74224,-0.29258 1.13254,-0.36069c0.34706,-0.06057 0.80883,0.02108 1.15827,-0.07976c0.19611,-0.05659 0.35547,-0.21539 0.55486,-0.25903c0.54772,-0.1199 1.29126,-0.00725 1.85412,-0.00725c1.1925,0 2.385,0.00002 3.57749,-0.00026c1.13228,-0.00027 2.41444,0.16712 3.53195,-0.00605c0.77656,-0.12033 1.50053,-0.58853 2.27893,-0.7067c1.16434,-0.17676 2.39759,0.05437 3.57422,-0.12298c0.96937,-0.1461 1.94152,-0.42221 2.90969,-0.59956c0.97446,-0.17812 1.92823,-0.58478 2.90521,-0.71951c0.7782,-0.10732 1.57603,0.0372 2.35501,-0.13498c2.29851,-0.50804 4.52594,-1.4441 6.79757,-2.0656c0.78422,-0.41419 1.5091,-0.17296 2.32108,-0.44451c0.38689,-0.12939 0.67451,-0.4633 1.07612,-0.5636c0.92722,-0.23157 2.01246,0.08864 2.9543,-0.19985c0.59201,-0.18133 0.99664,-0.58922 1.6224,-0.74997c0.77312,-0.1986 1.53287,-0.09431 2.24203,-0.45912c0,0 0.26665,-0.13333 0.39998,0.13333c0.13333,0.26665 -0.13333,0.39998 -0.13333,0.39998c-0.77825,0.38005 -1.53348,0.29438 -2.36139,0.50359c-0.61672,0.15585 -0.99842,0.55683 -1.59375,0.74191c-0.9539,0.29655 -2.05359,-0.02418 -2.98577,0.20863c-0.37847,0.09452 -0.66214,0.42841 -1.0325,0.55092c-0.80081,0.26491 -1.54108,0.01681 -2.28616,0.43168c-2.29698,0.64425 -4.56319,1.5831 -6.89229,2.09491c-0.79697,0.17513 -1.60763,0.03383 -2.40187,0.14336c-0.96666,0.13331 -1.91444,0.53824 -2.87923,0.71534c-0.97435,0.17849 -1.95249,0.45559 -2.92826,0.60266c-1.17619,0.17728 -2.41145,-0.0532 -3.57368,0.12289c-0.77608,0.11759 -1.4998,0.58597 -2.27704,0.70641c-1.14951,0.17813 -2.45912,0.01281 -3.62312,0.01308c-1.19254,0.00028 -2.38509,0.00026 -3.57763,0.00026c-0.51203,0 -1.226,-0.12228 -1.72344,-0.00725c-0.93531,0.21628 -1.91577,0.55211 -2.88229,0.70651c-0.78099,0.12476 -1.61117,-0.08873 -2.39304,0.01432c-0.55591,0.07327 -1.1474,0.31044 -1.68943,0.45585c-0.58853,0.15711 -1.12567,0.42604 -1.72674,0.53717c-0.98102,0.18137 -2.0375,0.08303 -3.03093,0.08381l-0.55939,0.00016c0,0 -0.29813,0.00009 -0.29821,-0.29804z" fill="#00b725" stroke="none" stroke-width="0.5" stroke-linecap="butt"/><path d="M160.17507,268.38815c0.03098,0.29652 -0.26554,0.32749 -0.26554,0.32749l-0.27662,0.0289c-0.3649,0.03336 -0.69441,0.23419 -1.0415,0.35165c-0.3347,0.11327 -0.74554,0.08321 -1.01213,0.31513c-0.15545,0.13523 -0.23239,0.35257 -0.40206,0.46947c-0.58688,0.40434 -1.17454,0.17293 -1.79524,0.4149c-0.59022,0.23008 -0.93399,0.7665 -1.56976,0.9215c-0.39272,0.09574 -0.81282,-0.01676 -1.21168,0.0489c-1.53822,0.25322 -3.13755,0.59428 -4.63404,1.03014c-0.66834,0.00482 -1.08307,0.24455 -1.7258,0.35972c-0.2003,0.03589 -0.93383,0.01909 -1.15845,0.08496c-0.19515,0.05723 -0.35101,0.21996 -0.54914,0.26583c-0.76147,0.17631 -1.61233,-0.08569 -2.38394,0.09279c-0.57693,0.13345 -1.10658,0.52147 -1.69042,0.62663c-0.77432,0.13947 -1.62583,-0.06372 -2.41007,0.00575c-0.37845,0.03353 -0.71499,0.26198 -1.08418,0.35168c-0.38063,0.09248 -0.78192,0.05045 -1.1718,0.0883c-0.1778,0.09439 -0.33942,0.22938 -0.5334,0.28316c-0.34664,0.09612 -0.79926,-0.12092 -1.07333,0.11207c-0.15826,0.13454 -0.11301,0.4456 -0.29242,0.55029c-0.14121,0.0824 -1.1043,0.04533 -1.31963,0.0676c-0.38559,0.03988 -0.73385,0.25935 -1.1148,0.33111c-0.96574,0.1819 -2.00157,-0.10386 -2.98032,0.07502c-0.77872,0.14232 -1.53014,0.52846 -2.30614,0.64279c-0.78715,0.11597 -1.73191,0.01117 -2.50362,-0.13887c-0.34096,-0.14482 -0.72036,-0.18504 -1.08898,-0.22176c-0.40405,-0.04024 -0.76758,-0.27153 -1.16421,-0.35848c-0.36798,-0.08067 -0.75341,0.0066 -1.13013,0.0066c-1.37837,0 -2.83409,0.13094 -4.20465,-0.0167c-1.3062,-0.14071 -2.11679,-1.09033 -3.28036,-1.53068c-0.34986,-0.13241 -0.72978,-0.16484 -1.0942,-0.24933c-0.21745,-0.00936 -0.44538,0.03928 -0.65234,-0.02808c-0.18899,-0.06151 -0.29972,-0.2785 -0.48772,-0.34296c-0.35682,-0.12235 -0.75633,0.01085 -1.13121,-0.03101c-0.58771,-0.06562 -1.16569,-0.25778 -1.75452,-0.30917c-2.13996,-0.18678 -4.38357,0.00113 -6.53294,0.00113c0,0 -0.29813,0 -0.29813,-0.29813c0,-0.29813 0.29813,-0.29813 0.29813,-0.29813c2.167,0 4.42709,-0.1872 6.58479,0.00113c0.59423,0.05187 1.17623,0.24419 1.76895,0.31061c0.07245,0.00812 1.24258,0.05441 1.25203,0.05743c0.18932,0.06055 0.29939,0.27962 0.48778,0.34298c0.17054,0.05736 0.35986,0.00175 0.53979,0.00263c0.04604,0.01043 1.19222,0.26871 1.23062,0.28324c1.10152,0.41687 1.90335,1.37234 3.13111,1.49529c1.35392,0.13559 2.78217,0.01349 4.14285,0.01349c0.0768,0 1.21391,-0.00199 1.25491,0.0066c0.37522,0.07864 0.71443,0.31305 1.0962,0.34798c0.40795,0.03733 0.82521,0.08946 1.20442,0.24446c0.68665,0.13262 1.54655,0.22266 2.2445,0.11983c0.76749,-0.11307 1.51453,-0.50039 2.28659,-0.63958c0.97509,-0.17578 2.01909,0.11265 2.97459,-0.07395c0.39647,-0.07743 0.76213,-0.29434 1.16369,-0.33839c0.35294,-0.03871 0.77431,0.22482 1.06495,0.02089c0.15546,-0.10907 0.08959,-0.40319 0.24281,-0.51537c0.47316,-0.34641 1.25747,-0.20451 1.7988,-0.49559c0.40032,-0.04622 0.81395,-0.00015 1.205,-0.09748c0.39683,-0.09877 0.76386,-0.32636 1.17084,-0.36631c0.76577,-0.07516 1.60542,0.13701 2.36001,0.00109c0.56967,-0.10261 1.09633,-0.49153 1.66257,-0.62093c0.76877,-0.17567 1.63129,0.09044 2.37992,-0.09185c0.18863,-0.04593 0.33501,-0.20588 0.52184,-0.25868c0.39217,-0.11082 0.81733,-0.02769 1.21858,-0.09894c0.63181,-0.11219 1.08114,-0.35697 1.74268,-0.36248c1.48277,-0.44774 3.09563,-0.77832 4.62532,-1.02877c0.38558,-0.06313 0.79027,0.04505 1.17143,-0.04086c0.56952,-0.12837 0.94495,-0.68567 1.49075,-0.89697c0.51426,-0.19909 1.21829,-0.00674 1.66333,-0.34343c0.15271,-0.11553 0.21812,-0.32144 0.36681,-0.4421c0.3303,-0.26804 0.80108,-0.2866 1.20401,-0.42295c0.38861,-0.1315 0.76311,-0.333 1.17068,-0.37988l0.27662,-0.0289c0,0 0.29652,-0.03098 0.32749,0.26554z" fill="#00b725" stroke="none" stroke-width="0.5" stroke-linecap="butt"/><path d="M113.87068,290.49477c-0.23067,0.18888 -0.41954,-0.04179 -0.41954,-0.04179l-0.04415,-0.05392c-0.42739,-0.52757 -0.51768,-1.041 -0.85186,-1.60273c-0.42619,-0.7164 -1.07215,-1.21406 -1.3121,-2.06396c-0.10468,-0.37079 0.04436,-0.79634 -0.1063,-1.15095c-0.14813,-0.34867 -0.53183,-0.54523 -0.74423,-0.85893c-0.44175,-0.65242 -0.86834,-1.38956 -1.21285,-2.09837c-0.69643,-1.43653 -1.11193,-2.99621 -1.76452,-4.42987c-0.81707,-1.79498 -1.8168,-3.52797 -2.60209,-5.36033c0,0 -0.11744,-0.27402 0.15659,-0.39146c0.27402,-0.11744 0.39146,0.15659 0.39146,0.15659c0.78362,1.82844 1.78179,3.55604 2.59678,5.34829c0.65067,1.4309 1.06387,2.98422 1.75832,4.41667c0.33122,0.68507 0.74551,1.3944 1.17037,2.02467c0.11126,0.16506 0.73725,0.81436 0.79896,0.95959c0.13353,0.31429 0.03681,0.88663 0.13138,1.22222c0.22246,0.7894 0.85308,1.25266 1.25067,1.92098c0.32484,0.54603 0.38511,1.02847 0.80076,1.52983l0.04415,0.05392c0,0 0.18888,0.23067 -0.04179,0.41954z" fill="#b87400" stroke="none" stroke-width="0.5" stroke-linecap="butt"/><path d="M142.26029,283.26789c2.00876,0 3.63719,1.25469 3.63719,2.80242c0,1.54774 -1.62843,2.80242 -3.63719,2.80242c-2.00876,0 -3.63719,-1.25469 -3.63719,-2.80242c0,-1.54774 1.62843,-2.80242 3.63719,-2.80242z" data-paper-data="{&quot;index&quot;:null}" fill="#00f52f" stroke="#000000" stroke-width="0.5" stroke-linecap="butt"/><path d="M121.19102,294.81656l-1.98239,-2.97358" fill="none" stroke="#000000" stroke-width="0.5" stroke-linecap="round"/><path d="M146.11222,290.51693c-0.25283,-0.15799 -0.09484,-0.41081 -0.09484,-0.41081l0.07911,-0.1266c0.20158,-0.31377 0.22785,-0.71134 0.37383,-1.05452c0.14943,-0.35127 0.5211,-0.59602 0.61505,-0.96601c0.15248,-0.60052 0.01654,-1.28727 0.41321,-1.83805c0.18451,-0.2562 0.74428,-0.51555 0.96696,-0.75643c0.13517,-0.14621 0.19374,-0.35287 0.33046,-0.49763c0.27148,-0.28746 0.67657,-0.42657 0.94509,-0.71679c0.24572,-0.26558 0.21349,-0.6937 0.36515,-1.0222c0.22237,-0.48166 0.6943,-1.01173 0.97422,-1.48333c0.06448,-0.21449 0.05768,-0.46534 0.19344,-0.64348c0.12514,-0.16421 0.39538,-0.16009 0.53491,-0.31227c0.12727,-0.1388 0.11401,-0.36641 0.22613,-0.5177c0.36337,-0.49033 0.98887,-0.73152 1.39676,-1.1703c0.627,-0.67449 1.17293,-1.62574 1.66477,-2.40001c0.46437,-0.73101 0.64143,-1.52844 1.46035,-2.00842c0.53473,-0.31341 1.29185,-0.38048 1.88929,-0.38343c0,0 0.29813,0 0.29813,0.29813c0,0.29813 -0.29813,0.29813 -0.29813,0.29813c-0.48877,-0.00279 -1.14886,0.04433 -1.58778,0.30159c-0.71517,0.41916 -0.85337,1.17011 -1.25788,1.81265c-0.50731,0.80584 -1.08082,1.7868 -1.73203,2.48732c-0.38464,0.41377 -1.01806,0.65492 -1.35253,1.11679c-0.12272,0.16946 -0.12612,0.41353 -0.26733,0.56793c-0.12896,0.14101 -0.38482,0.12462 -0.5032,0.27462c-0.10765,0.13641 -0.07654,0.33901 -0.11481,0.50851c-0.27735,0.4771 -0.76191,1.01582 -0.98216,1.50148c-0.17357,0.38273 -0.18638,0.85661 -0.46367,1.17239c-0.26368,0.30029 -0.68151,0.43383 -0.95383,0.72631c-0.13519,0.1452 -0.19328,0.35125 -0.32894,0.496c-0.26381,0.28151 -0.69223,0.39024 -0.92113,0.70081c-0.33213,0.45064 -0.18388,1.14756 -0.31911,1.64024c-0.10821,0.39425 -0.48422,0.66789 -0.64205,1.04503c-0.15606,0.37291 -0.20677,0.79363 -0.4175,1.13861l-0.07911,0.1266c0,0 -0.15799,0.25283 -0.41081,0.09484z" fill="#b87400" stroke="none" stroke-width="0.5" stroke-linecap="butt"/><path d="M111.175,301.72377l-3.58115,-13.25023h45.12241l-4.29737,12.89212z" fill="#b87400" stroke="#8f5b00" stroke-width="0.5" stroke-linecap="butt"/><path d="M134.72586,236.85421c0.42179,-0.38005 0.16682,-1.08026 0.35068,-1.49237c0.12778,-0.2864 0.46657,-0.48083 0.66408,-0.7401c0.95301,-1.251 2.49377,-1.79412 4.2715,-1.8353c0.98893,-0.31417 1.95606,-0.0901 2.93702,-0.30079c0.14251,-0.03061 0.22714,-0.24127 0.36622,-0.20168c0.12258,0.03489 0.01296,0.22855 0.04222,0.33087c0.14009,0.48992 0.39659,0.94446 0.70949,1.37372c0.49377,0.67738 1.1117,1.33665 1.51936,2.02795c0.18567,0.31486 0.14453,0.73368 0.47046,0.96235c0.19753,0.13858 0.49085,0.0993 0.75062,0.12432c0.58466,0.05631 1.21925,0.02054 1.80788,0.02075c0.24502,-0.00918 0.51783,0.06517 0.73495,-0.02702c0.06861,-0.02913 0.72158,-0.78573 0.79163,-0.87785c0.30627,-0.40276 0.51563,-0.86723 0.84823,-1.25567c0.22597,-0.26391 0.55376,-0.46391 0.77845,-0.72854c0.09842,-0.11592 0.12744,-0.29243 0.25758,-0.38571c0.53412,-0.38288 1.61002,-0.08792 2.21988,-0.20536c0.59182,-0.11397 1.47381,-0.50714 2.13784,-0.29857c0.15186,0.0477 0.22931,0.18765 0.34773,0.27806c0.42577,0.32506 0.86785,0.6392 1.30209,0.95686c0.21541,0.23983 0.50175,0.44644 0.65286,0.71644c0.16377,0.29263 0.06097,0.61223 0.15483,0.91324c0.15083,0.48371 0.31498,0.84282 0.36554,1.3592c0.02842,0.29026 0.14757,0.59572 0.04032,0.87369c-0.14579,0.37785 -0.72831,0.79847 -0.98258,1.14046c-0.31908,0.42915 -0.68336,0.73883 -1.0384,1.14161c-0.10131,0.11493 -0.1046,0.2854 -0.23588,0.37846c-0.52109,0.36937 -2.0343,0.20545 -2.55223,-0.0257c-0.62721,-0.24881 -3.25263,0.11903 -3.77796,-0.22274c-0.14882,-0.09682 2.13477,-0.81946 1.99495,-0.92467c-0.4174,-0.3141 -4.54946,1.20949 -5.10908,0.97939c-0.46876,-0.19274 2.55622,-2.23112 2.04023,-2.23366c-0.9943,-0.00491 -1.99728,0.00323 -2.9916,0.00323c-0.09005,0 -1.22587,-0.0031 -1.27382,0.00701c-0.24695,0.05205 -0.8148,0.39621 -1.07398,0.47775c-0.39201,0.12333 -0.66142,0.08996 -1.074,0.09049c-0.59421,0.00025 -1.22557,-0.04414 -1.81692,-0.00013c-1.11139,0.08272 -2.32576,0.48701 -3.45852,0.2919c-1.12387,-0.19358 -2.59887,-1.06592 -3.49895,-1.62587c-0.35662,-0.22185 -0.63948,-0.53669 -0.96919,-0.79224c0.43671,0.01498 0.96672,0.02337 1.2965,-0.27377z" data-paper-data="{&quot;noHover&quot;:false,&quot;origItem&quot;:[&quot;Path&quot;,{&quot;applyMatrix&quot;:true,&quot;segments&quot;:[[[145.68457,236.26065],[3.66205,0.15547],[2.76486,2.65219]],[[153.8112,244.47443],[-2.99044,-2.30246],[7.54774,5.81131]],[[183.14547,261.32244],[-9.42433,-2.00908],[9.49884,2.02497]],[[212.13991,258.27843],[-9.31963,0.8585],[4.95881,-0.45679]],[[227.36276,258.26266],[-4.9828,0.00258],[3.45979,-0.00546]],[[236.35508,257.31145],[-3.28725,1.28],[2.17334,-0.84626]],[[245.34316,252.34286],[-2.07086,0.54017],[0.40214,-0.1049]],[[255.97416,252.26193],[-0.75515,0],[8.33797,0.00001]],[[280.98938,252.26953],[-8.33783,-0.05091],[4.3269,0.02642]],[[297.08548,253.25259],[-3.93085,-2.00033],[4.69272,2.38803]],[[306.8899,265.3975],[-3.50013,-3.25983],[1.17245,1.09195]],[[311.18237,267.56026],[-1.24792,-1.00482],[4.4052,3.54705]],[[321.67264,277.19855],[-5.25951,-2.58225],[4.34312,2.39896]],[[343.06884,277.47526],[-4.36966,3.83346],[1.10084,-0.96575]],[[345.0449,273.5515],[-0.84956,1.1928],[2.97724,-4.18012]],[[353.74776,261.71655],[-2.67564,4.45391],[2.1322,-3.54929]],[[361.98459,249.89265],[-1.2225,3.92149],[0.89936,-2.88494]],[[361.64557,240.83338],[0.23833,3.01246],[-0.42398,-5.35913]],[[358.58019,226.74044],[1.26478,5.02011],[-0.78705,-3.12394]],[[357.28283,217.27162],[1.37335,3.03702],[-1.26717,-2.8022]],[[351.80971,209.84414],[1.80632,2.48903],[-3.64142,-3.29677]],[[340.89472,199.92606],[3.57034,3.37361],[-0.99305,-0.93834]],[[337.9803,197.04407],[1.27341,0.49503],[-5.56831,-2.16462]],[[320.0556,200.1479],[4.96275,-1.18281],[-5.11404,1.21887]],[[301.44616,202.28902],[4.47895,-3.97363],[-1.09131,0.96818]],[[299.45644,206.18722],[0.8253,-1.203],[-1.88413,2.7464]],[[292.93223,213.75481],[1.89488,-2.73899],[-2.78902,4.03143]],[[285.82782,226.81196],[2.56821,-4.17997],[-0.58737,0.95599]],[[279.19059,235.95337],[0.57534,-0.30233],[-1.82073,0.95676]],[[273.02679,236.23906],[2.0546,-0.09523],[-4.93601,-0.00221]],[[257.845,236.07038],[4.90276,0.58435],[-2.17827,-0.25962]],[[251.39275,234.77465],[1.65642,1.43824],[-2.73315,-2.37314]],[[247.46646,224.65035],[1.55696,3.26769],[-3.41844,-7.17452]],[[234.73302,203.59839],[4.14055,7.03004],[-2.62389,-4.45497]],[[228.78836,189.33849],[1.17475,5.0845],[-0.24534,-1.06189]],[[228.53233,186.07895],[1.02794,0.36214],[-1.16623,-0.41086]],[[225.46738,188.16851],[1.195,-0.31764],[-8.22594,2.18653]],[[200.86366,191.26752],[8.29279,-3.2606],[-14.90725,0.42739]],[[165.0628,210.27786],[7.99159,-12.98327],[-1.65623,2.69074]],[[159.49599,217.94983],[1.07151,-2.97238],[-1.5418,4.27697]],[[156.55655,233.42194],[3.53701,-3.94424],[-2.7654,3.0838]]],&quot;closed&quot;:true}]}" fill="url(#color-7)" stroke="none" stroke-width="0.5" stroke-linecap="butt"/><path d="M122.55638,237.95616c0.0353,-0.19601 0.35428,-0.87432 0.42667,-1.03703c0.15627,-0.35124 0.46579,-0.61712 0.64637,-0.9565c0.0625,-0.11746 0.22393,-0.96115 0.26265,-1.15284c0.15161,-0.12262 0.81169,-0.65067 0.89224,-0.76044c0.11419,-0.15563 0.09772,-0.38861 0.21828,-0.53936c0.24442,-0.30563 0.71475,-0.3675 0.98275,-0.65268c0.27274,-0.29022 0.41771,-0.68724 0.68347,-0.98386c0.23687,-0.26437 0.65458,-0.9721 1.10748,-0.78466c0.54475,0.22546 0.93672,1.32508 1.21631,1.797c0.30363,0.51249 0.77942,0.93595 1.07116,1.43355c0.40935,0.69821 0.64222,1.36194 1.2384,1.96316c0.00342,0.3056 0.07291,0.70238 0.21885,1.05428c-1.04663,-0.01915 -2.09859,-0.00327 -3.14538,-0.00327c-0.55645,0 -1.32625,-0.11754 -1.86547,0.0092c-0.72633,0.17071 -1.50372,0.69971 -2.22168,0.95769c-0.57429,0.20635 -1.15323,0.40299 -1.73223,0.59707c0.01907,-0.31814 -0.03916,-0.72326 0.00012,-0.94132z" data-paper-data="{&quot;noHover&quot;:false,&quot;origItem&quot;:[&quot;Path&quot;,{&quot;applyMatrix&quot;:true,&quot;segments&quot;:[[[54.48246,241.37363],[0.15993,-2.66777],[4.85525,-1.62745]],[[68.9967,236.3556],[-4.81576,1.7304],[6.02055,-2.16331]],[[87.58466,228.30421],[-6.09074,1.43154],[4.52171,-1.06276]],[[103.15667,228.23789],[-4.66621,0],[8.7779,0]],[[129.49358,228.30564],[-8.77664,-0.16062],[-1.22375,-2.95089]],[[127.65132,219.48216],[0.02866,2.56264],[-4.9994,-5.04166]],[[117.26449,203.07031],[3.43266,5.85489],[-2.44639,-4.17266]],[[108.31153,191.10084],[2.54611,4.29753],[-2.34457,-3.95736]],[[98.16158,176.05715],[4.56804,1.89057],[-3.79789,-1.57183]],[[88.90506,182.63812],[1.98629,-2.21693],[-2.2286,2.48738]],[[83.20633,190.87876],[2.2871,-2.4337],[-2.24735,2.3914]],[[75.00216,196.3208],[2.04963,-2.56288],[-1.01097,1.26412]],[[73.18315,200.82321],[0.95753,-1.30507],[-0.67543,0.92058]],[[65.70867,207.16715],[1.27139,-1.02824],[-0.32466,1.60742]],[[63.5024,216.80124],[0.52408,-0.98495],[-1.51427,2.84588]],[[58.0763,224.80661],[1.31038,-2.94533],[-0.60703,1.36442]],[[54.49149,233.49056],[0.29604,-1.64367],[-0.32934,1.82859]]],&quot;closed&quot;:true}]}" fill="url(#color-8)" stroke="none" stroke-width="0.5" stroke-linecap="butt"/><path d="M112.90213,236.96901c-0.00386,-0.357 -0.16352,-0.7418 -0.03179,-1.07363c0.10594,-0.26689 0.68162,-0.39801 0.85405,-0.48802c0.68712,-0.35866 1.42893,-0.8677 2.04338,-1.34027c0.13319,-0.10244 0.47373,-0.55919 0.76467,-0.43352c0.32498,0.14038 0.46468,0.5373 0.71159,0.79098c0.26279,0.26416 0.61341,0.46444 0.79979,0.78709c0.19388,0.33565 0.14447,0.77415 0.3023,1.12818c0.21547,0.48332 0.49496,1.19773 0.76505,1.65091c0.21546,0.3615 0.65031,0.53542 0.96508,0.81474c0.1474,0.1308 0.18817,0.35676 0.33635,0.48669c0.09143,0.08017 0.19699,0.15303 0.31171,0.21518c-0.31107,0.10236 -0.62326,0.20676 -0.93374,0.3103c-0.363,0.121 -0.71347,0.30296 -1.09046,0.36842c-0.76833,0.13342 -1.66778,-0.17697 -2.41939,0.02385c-0.58683,0.15679 -0.87122,0.49674 -1.42905,0.63547c-0.10873,-0.21388 -0.35149,-0.3759 -0.56025,-0.4991c-0.2649,-0.15633 -0.72419,-0.17989 -1.15445,-0.17257c-0.38661,-0.94383 -0.22398,-2.19983 -0.23483,-3.2047z" data-paper-data="{&quot;noHover&quot;:false,&quot;origItem&quot;:[&quot;Path&quot;,{&quot;applyMatrix&quot;:true,&quot;segments&quot;:[[[-24.50144,252.07855],[-3.24197,-7.91455],[3.60798,-0.06133]],[[-14.83611,253.51037],[-2.22134,-1.31088],[1.75061,1.03309]],[[-10.15344,257.68553],[-0.9118,-1.7935],[4.67767,-1.16326]],[[1.79933,252.34643],[-4.92088,1.31476],[6.30272,-1.68396]],[[22.0165,252.16137],[-6.44295,1.11883],[3.1613,-0.54897]],[[31.13938,249.09063],[-3.04394,1.01469],[2.60354,-0.86823]],[[38.95859,246.5037],[-2.60847,0.85831],[-0.96201,-0.52111]],[[36.34437,244.69995],[0.7667,0.67224],[-1.24257,-1.08948]],[[33.52064,240.62503],[1.23605,1.09687],[-2.63954,-2.34233]],[[25.42308,233.80501],[1.80672,3.03141],[-2.26488,-3.80014]],[[19.01569,220.04131],[1.80683,4.05293],[-1.32351,-2.96879]],[[16.51449,210.61622],[1.6258,2.81463],[-1.56284,-2.70563]],[[9.84454,204.03001],[2.20369,2.2151],[-2.07048,-2.12725]],[[3.90066,197.39835],[2.72514,1.17715],[-2.43969,-1.05385]],[[-2.48796,201.02919],[1.1169,-0.859],[-5.15254,3.9628]],[[-19.56737,212.22416],[5.76187,-3.0076],[-1.44597,0.75477]],[[-26.72033,216.29751],[0.8884,-2.23803],[-1.10458,2.78261]],[[-26.44859,225.2749],[-0.03234,-2.99366],[0.09102,8.42645]]],&quot;closed&quot;:true}]}" fill="url(#color-9)" stroke="none" stroke-width="0.5" stroke-linecap="butt"/><path d="M145.30122,280.94247c1.1855,0 2.14654,0.90765 2.14654,2.02729c0,1.11964 -0.96104,2.02729 -2.14654,2.02729c-1.1855,0 -2.14654,-0.90765 -2.14654,-2.02729c0,-1.11964 0.96104,-2.02729 2.14654,-2.02729z" data-paper-data="{&quot;index&quot;:null}" fill="#00f52f" stroke="#000000" stroke-width="0.5" stroke-linecap="butt"/><path d="M138.17424,287.81354c-0.13333,0.26666 -0.39998,0.13333 -0.39998,0.13333l-0.19945,-0.10308c-0.08094,-0.02804 -0.16587,-0.05098 -0.25288,-0.07132c-0.56874,-0.05244 -1.27254,-0.31979 -1.59836,-0.43492l-0.03166,-0.0652l-0.02241,0.02241l-0.2385,-0.2385l0.10499,-0.10499l-0.13604,-0.28014c0.10125,0.0167 0.20188,0.03476 0.30198,0.05407l0.0732,-0.14641l0.47701,0.2385l-0.01209,0.02417c0.22013,0.05242 0.43807,0.10998 0.65445,0.1713c0.03116,0.00457 0.06295,0.00914 0.0955,0.0138c0.16225,0.02318 0.32221,0.06541 0.47701,0.11925c0.01965,0.00684 0.04126,0.03353 0.0603,0.05695c0.01758,0.00554 0.03516,0.01109 0.05272,0.01666c0.01382,-0.09138 -0.10911,-0.20024 -0.05455,-0.27614c0.18316,-0.25481 0.57223,-0.25844 0.86428,-0.37327c0.0397,-0.01561 0.0777,-0.03476 0.11462,-0.05614c0.09827,-0.17891 0.16415,-0.34855 0.07439,-0.52816c0,0 -0.09428,-0.28283 0.18855,-0.37711c0.28283,-0.09428 0.37711,0.18855 0.37711,0.18855c0.04071,0.15569 0.05285,0.28598 0.04521,0.40192c0.07418,0.01869 0.15191,0.07018 0.19329,0.19434c0.09428,0.28283 -0.18855,0.37711 -0.18855,0.37711c-0.10087,0.03075 -0.18808,0.09114 -0.27375,0.15531c-0.0577,0.1219 -0.11416,0.25828 -0.15736,0.42426l-0.28713,0.30243c0,0 -0.12236,0.12236 -0.27385,0.08742c-0.00602,0.02329 -0.01517,0.04782 -0.02806,0.0736zM138.05119,287.22463c-0.00251,0.0056 -0.00469,0.01135 -0.00657,0.01722c0.0061,-0.00712 0.00992,-0.01094 0.00992,-0.01094l0.08216,-0.07555c-0.04065,0.01589 -0.07161,0.03819 -0.08551,0.06927z" data-paper-data="{&quot;index&quot;:null}" fill="#00f52f" stroke="none" stroke-width="0.5" stroke-linecap="butt"/><path d="M143.15468,284.28153c-0.16465,0 -0.29813,-0.13348 -0.29813,-0.29813c0,-0.16465 0.13348,-0.29813 0.29813,-0.29813c0.16465,0 0.29813,0.13348 0.29813,0.29813c0,0.16465 -0.13348,0.29813 -0.29813,0.29813z" data-paper-data="{&quot;index&quot;:null}" fill="#00f52f" stroke="none" stroke-width="0.5" stroke-linecap="butt"/><path d="M138.44422,284.52003c0,-0.29813 0.29813,-0.29813 0.29813,-0.29813h0.11925c0.15379,0.01432 0.23952,0.01339 0.27408,0h-0.15483c-0.16465,0 -0.29813,-0.13348 -0.29813,-0.29813c0,-0.16465 0.13348,-0.29813 0.29813,-0.29813h0.35776v0.03541l0.0685,-0.02744c0.01835,0.01192 0.03629,0.02474 0.054,0.03805c0.01691,-0.00773 0.03414,-0.00582 0.05182,0.01025c0.03211,0.02918 0.06163,0.06234 0.08819,0.09846c0.05174,0.03765 0.1058,0.0702 0.16674,0.08762c0.25918,0.0741 0.16957,-0.5761 0.41067,-0.69667c0.17204,-0.08603 0.37996,0.06343 0.56612,0.11186c0.11996,0.03121 0.29985,0.2051 0.36814,0.12596c-0.17777,-0.11647 -0.3347,-0.25143 -0.43472,-0.34783l-0.2385,-0.2385c-0.05395,-0.05395 -0.08732,-0.12848 -0.08732,-0.21081c0,-0.16465 0.13348,-0.29813 0.29813,-0.29813h0.35776v0.01525c0.03795,-0.00133 0.07598,0.00081 0.11409,0.00744c0.22718,0.03954 0.41774,0.33268 0.51258,0.64936c0.01031,-0.00828 0.02,-0.01878 0.02922,-0.03147v-0.4617c0,-0.16465 0.13348,-0.29813 0.29813,-0.29813c0.11098,0 0.20779,0.06064 0.25912,0.15059l0.15745,0.26496c0.13017,0.1291 0.26033,0.25819 0.3905,0.38729c0,0 0.21081,0.21081 0,0.42162c-0.21081,0.21081 -0.42162,0 -0.42162,0c-0.04525,-0.04558 -0.0905,-0.09116 -0.13575,-0.13674c-0.11444,0.31053 -0.32162,0.39424 -0.55134,0.36214c-0.01371,0.03636 -0.03121,0.06865 -0.05277,0.09586c-0.29613,0.37372 -0.72034,0.2524 -1.05165,0.10851c-0.05988,-0.026 -0.10225,-0.17181 -0.14939,-0.12665c-0.21987,0.21067 -0.24076,0.70019 -0.54334,0.73436c-0.04668,0.00527 -0.09196,0.0004 -0.1363,-0.01126c-0.12419,0.43381 -0.54995,0.35769 -0.86547,0.37287h-0.11925c0,0 -0.29813,0 -0.29813,-0.29813z" data-paper-data="{&quot;index&quot;:null}" fill="#00f52f" stroke="none" stroke-width="0.5" stroke-linecap="butt"/><path d="M144.05296,281.81907c-0.32272,-0.21992 -0.45778,-0.33592 -0.51923,-0.56569l-0.06562,0.02188l-0.11705,-0.35115c-0.01133,-0.03151 -0.0175,-0.06547 -0.0175,-0.10088c0,-0.16465 0.13348,-0.29813 0.29813,-0.29813c0.08232,0 0.15686,0.03337 0.21081,0.08732l0.35776,0.35776c0.0539,0.0539 0.35537,0.34991 0.41896,0.4318c0.02469,0.0318 0.04787,0.14804 0.05367,0.1082c0.0837,-0.57462 0.22578,-0.85502 0.56251,-1.11053l-0.02573,-0.02573l0.2385,-0.2385c0.05395,-0.05395 0.12848,-0.08732 0.21081,-0.08732c0.16465,0 0.29813,0.13348 0.29813,0.29813v0.35776c-0.22426,0.98992 0.16643,-0.38174 0.50726,-0.41593c1.12334,-0.1127 0.08768,1.65549 0.83917,1.80263c0,0 0.28283,0.09428 0.18855,0.37711c-0.09428,0.28283 -0.37711,0.18855 -0.37711,0.18855c-0.66795,-0.26937 -0.69394,-0.57699 -0.68308,-1.2344c-0.22956,0.24867 -0.68819,0.34999 -0.98373,0.08911c-0.10383,-0.09166 -0.11663,-0.23044 -0.10827,-0.38018c-0.04999,0.04897 -0.09413,0.1015 -0.12099,0.1642c-0.10035,0.23418 -0.02842,0.58228 -0.23873,0.72608c-0.1553,0.10618 -0.31879,0.09154 -0.47609,0.01716c-0.03994,0.02258 -0.09116,0.03706 -0.15687,0.03706c-0.22791,0 -0.28159,-0.17422 -0.29423,-0.2563z" data-paper-data="{&quot;index&quot;:null}" fill="#00f52f" stroke="none" stroke-width="0.5" stroke-linecap="butt"/><path d="M146.8515,282.91013c-0.16465,0 -0.29813,-0.13348 -0.29813,-0.29813c0,-0.16465 0.13348,-0.29813 0.29813,-0.29813c0.16465,0 0.29813,0.13348 0.29813,0.29813c0,0.16465 -0.13348,0.29813 -0.29813,0.29813z" data-paper-data="{&quot;index&quot;:null}" fill="#000000" stroke="none" stroke-width="0.5" stroke-linecap="butt"/><path d="M146.97075,284.16228c0,0 -1.12836,-0.00981 -1.41231,-0.14232c-0.31002,-0.14467 -0.37647,-0.69244 -0.37647,-0.69244" data-paper-data="{&quot;index&quot;:null}" fill="none" stroke="#000000" stroke-width="0.5" stroke-linecap="round"/></g></g></svg>