<svg version="1.1" xmlns="http://www.w3.org/2000/svg" xmlns:xlink="http://www.w3.org/1999/xlink" width="77.55018" height="140.34" viewBox="0,0,77.55018,140.34"><g transform="translate(-344.32602,-174.85556)"><g data-paper-data="{&quot;isPaintingLayer&quot;:true}" fill-rule="nonzero" stroke-linejoin="miter" stroke-miterlimit="10" stroke-dasharray="" stroke-dashoffset="0" style="mix-blend-mode: normal"><g stroke="none" stroke-width="1" stroke-linecap="butt"><path d="M372.28264,259.69556l6.24,25.74l-6.12,-1.74c0,0 -5.28,-0.18 -7.26,0.42c-7.26,2.28 -7.32,10.26 -6.12,14.16c-2.64,3.48 -3.6,8.94 -4.14,13.2c-1.56,-1.74 -5.7,-15.24 -6.18,-17.46c0,0 -2.1,-20.04 1.62,-39.36c3.72,-19.32 10.14,-18.78 10.14,-18.78c1.8,6.96 11.82,23.82 11.82,23.82z" fill="#c8c8be"/><path d="M379.54264,288.49556c0,0 -25.8,-14.1 -28.74,-27.48l3,-8.1c0,0 4.14,15.42 10.56,22.5c3.48,3.78 14.4,11.4 14.4,11.4z" fill="#f0e6d2"/><path d="M349.42264,286.75556l-0.78,-10.32c0.96,9.66 10.38,21.84 10.38,21.84c-4.2,-2.82 -7.56,-6.78 -9.6,-11.52z" fill="#f0e6d2"/><path d="M362.92264,219.97556l-3.54,23.28c-0.06,1.8 -1.32,3.84 -1.98,5.52c-1.02,2.64 -1.74,5.28 -2.52,7.98c-1.8,6.18 -2.22,12.24 -3.06,18.6c-1.62,12.36 -0.96,24.3 3.06,36.12c-0.3,0.18 -1.32,-2.16 -1.86,-1.68c-0.54,0.48 1.8,3.78 1.38,4.08c-0.42,0.3 -2.28,-3.54 -2.76,-3.06c-0.48,0.48 1.08,3.72 1.26,4.26l-0.12,0.12c-2.58,-2.52 -9.66,-18.06 -8.28,-46.2c0.3,-8.04 1.5,-16.02 3.72,-23.82c1.02,-3.3 2.34,-6.48 3.9,-9.54c4.98,-10.2 10.56,-15.42 10.8,-15.66z" fill="#828278"/></g><g stroke="none" stroke-width="1" stroke-linecap="butt"><path d="M415.96264,265.69556c0.12,6.3 0.24,12.54 0.3,18.78c0.06,4.38 0.78,9.42 0.06,13.74c-0.54,3.3 -3.66,6.54 -5.58,9.24c-0.78,-1.68 -1.5,-5.64 -2.82,-7.62c-1.32,-2.04 -3.18,-3.6 -5.34,-4.62c0,0 2.46,-6.9 -2.76,-9.84c-5.22,-2.94 -15.9,2.94 -15.9,2.94l7.62,-21.48l11.58,-34.02c0,0 12.96,20.94 12.78,22.32c-0.42,3.42 0,7.08 0.06,10.56z" fill="#c8c8be"/><path d="M383.68264,288.67556c0,0 29.16,-16.92 27.36,-42.54l4.14,13.14c-5.1,9.54 -12.36,17.82 -21.18,24.06c-3.12,2.22 -6.54,3.6 -10.32,5.34z" fill="#f0e6d2"/><path d="M402.58264,295.15556c0,0 16.2,-18.36 13.14,-32.52l1.62,4.14c0,0 3.12,14.34 -14.76,28.38z" fill="#f0e6d2"/><path d="M420.58264,294.25556c-0.42,3.36 -1.74,6.48 -3.06,9.54c-0.96,2.16 -2.88,7.92 -5.28,8.88c0,-0.72 1.92,-2.7 1.14,-3.36c-0.84,-0.24 -1.62,1.74 -2.22,2.04c-0.24,-0.72 0.84,-3.36 0.54,-4.08c-0.18,-0.12 -1.14,1.68 -1.44,1.5c0.12,-3.48 1.5,-6.9 2.04,-10.38c0.54,-3.6 1.14,-7.2 1.5,-10.8c0.78,-7.44 0.48,-15 -0.9,-22.32c-1.14,-6.24 -3,-12.3 -5.52,-18.06c-1.2,-2.76 -5.58,-10.44 -5.58,-10.44l-4.68,-18.781c1.5,-0.059 5.22,4.921 6.24,6.061c3.36,3.6 6.36,7.56 8.88,11.82c3,5.34 5.34,11.1 6.84,17.04c1.68,6.3 4.44,18.3 1.5,41.34z" fill="#828278"/></g><path d="M380.56264,283.27556c0,0 -0.36,5.16 -0.3,9.42h-0.96c0.06,-2.16 0.06,-4.14 0.06,-4.14c0,0 -4.08,-3.3 -5.4,-4.74c-4.2,-4.68 -9.18,-17.34 -9.9,-22.08l12.54,6.6c0.54,1.8 3.96,14.94 3.96,14.94z" fill="#3c3c32" stroke="none" stroke-width="1" stroke-linecap="butt"/><path d="M397.96264,263.65556c-0.24,3.78 -3.84,13.8 -6.48,17.82c-2.88,4.5 -6.78,6.9 -7.8,7.2c0,1.14 -0.06,2.82 -0.06,3.96h-1.08c0.06,-1.68 0.18,-9.18 0.18,-9.18c0,0 3.36,-15.42 3.36,-15.6z" fill="#3c3c32" stroke="none" stroke-width="1" stroke-linecap="butt"/><g stroke="none" stroke-width="1" stroke-linecap="butt"><g fill="#64645a"><path d="M369.76264,178.27556l-0.42,-0.24c0,-0.24 0,-0.42 0,-0.6c0,-0.54 -0.06,-1.14 -0.06,-1.68c-0.06,-0.3 0,-0.54 0.18,-0.78c0.3,0.06 0.42,0.12 0.42,0.36c0,0.48 0.06,0.9 0.06,1.38c0,0.48 0,0.72 0,1.08c-0.06,0.18 -0.12,0.3 -0.18,0.48z"/><path d="M368.92264,178.87556l-0.48,-0.12c-0.06,-0.18 -0.06,-0.42 -0.12,-0.6c-0.12,-0.54 -0.3,-1.08 -0.48,-1.62c-0.12,-0.42 -0.12,-0.42 0,-0.78c0.36,0 0.42,0.06 0.48,0.3c0.12,0.42 0.24,0.9 0.36,1.32c0.12,0.42 0.18,0.72 0.24,1.08c0,0.12 0,0.3 0,0.42z"/><path d="M370.24264,178.21556c0.06,-0.36 0.12,-0.66 0.24,-1.08c0.12,-0.42 0.24,-0.9 0.36,-1.32c0.06,-0.24 0.12,-0.3 0.48,-0.3c0.12,0.24 0.12,0.54 0,0.78c-0.18,0.54 -0.36,1.08 -0.48,1.62c-0.06,0.18 -0.06,0.42 -0.12,0.6l-0.48,0.12c-0.06,-0.18 -0.06,-0.3 0,-0.42z"/></g><path d="M362.14264,235.15556c0,0 -2.22,-15.54 -2.1,-23.28c0.12,-6.36 1.08,-12.6 2.22,-18.84c0.72,-4.02 2.64,-14.94 7.68,-15.9c5.82,2.52 6.54,18.78 6.78,23.88c0.36,6.66 0.72,23.64 0.24,30.24c-3.06,1.32 -14.82,3.9 -14.82,3.9z" fill="#64645a"/><path d="M364.18264,224.83556c0,0 -0.6,-15.12 0.66,-26.94c0.9,-8.16 2.94,-13.62 4.2,-13.8c3.12,-0.48 4.02,12.66 4.2,15.96c0.24,4.32 0.3,18.18 0,22.44c-1.98,0.9 -9.06,2.34 -9.06,2.34z" fill="#3c3c32"/></g><g stroke="none" stroke-width="1" stroke-linecap="butt"><g fill="#64645a"><path d="M391.12264,178.15556l-0.42,-0.24c0,-0.24 0,-0.42 0,-0.6c0,-0.54 -0.06,-1.14 -0.06,-1.68c-0.06,-0.3 0,-0.54 0.18,-0.78c0.3,0.06 0.42,0.12 0.42,0.36c0,0.48 0.06,0.9 0.06,1.38c0,0.36 0,0.72 0,1.08c-0.06,0.18 -0.12,0.36 -0.18,0.48z"/><path d="M390.28264,178.81556l-0.48,-0.12c-0.06,-0.24 -0.06,-0.42 -0.12,-0.6c-0.12,-0.54 -0.3,-1.08 -0.48,-1.62c-0.12,-0.42 -0.12,-0.42 0,-0.78c0.36,0 0.42,0.06 0.48,0.24c0.12,0.42 0.24,0.9 0.36,1.32c0.12,0.42 0.18,0.72 0.24,1.08c0,0.18 0,0.3 0,0.48z"/><path d="M391.60264,178.15556c0.06,-0.36 0.12,-0.66 0.24,-1.08c0.12,-0.42 0.24,-0.9 0.36,-1.32c0.06,-0.24 0.12,-0.3 0.48,-0.3c0.12,0.24 0.12,0.54 0,0.78c-0.18,0.54 -0.36,1.08 -0.48,1.62c-0.06,0.18 -0.06,0.42 -0.12,0.6l-0.48,0.12c0,-0.18 -0.06,-0.3 0,-0.42z"/></g><path d="M402.88264,242.53556c-2.7,-3.78 -16.5,-12.66 -17.34,-13.62c-1.44,-6.18 -3.36,-51.72 4.92,-51.78c7.08,-0.06 8.04,13.32 9.06,17.94c1.44,6.72 3.6,39.3 3.36,47.46z" fill="#64645a"/><path d="M389.50264,232.45556c-0.18,-11.28 -1.86,-45.24 1.38,-48.66c3.24,-3.42 5.7,12.84 6.24,17.34c0.54,4.2 0.96,19.38 1.14,31.62z" fill="#3c3c32"/></g><path d="M395.14264,269.95556c-6.72,6.36 -17.4,5.58 -24.72,0.54c-7.02,-4.8 -11.16,-15.84 -11.64,-24.06c-0.48,-7.74 -1.98,-19.02 2.64,-25.74c5.04,-7.26 8.4,-9.3 18.3,-9.54c6.6,-0.24 13.02,2.22 17.82,6.72c3.9,3.72 6.24,9.6 6.72,14.88c1.08,11.94 -3,31.38 -9.12,37.2z" fill="#64645a" stroke="none" stroke-width="1" stroke-linecap="butt"/><g stroke="none" stroke-width="1" stroke-linecap="butt"><path d="M372.94264,238.69556c0.06,-0.24 0,-0.48 0.96,-0.54c2.94,-0.3 8.94,-0.12 11.04,-0.18c2.1,-0.06 4.44,0.3 4.44,0.9c0,0.6 -0.72,1.02 -1.98,1.02c-2.28,0.06 -4.56,0.06 -6.78,0c-1.86,0 -3.66,-0.06 -5.46,-0.18c-0.66,-0.06 -2.46,-0.06 -2.22,-1.02z" fill="#000000"/><path d="M385.30264,237.91556c1.08,0 1.62,0.06 1.62,0.06c-0.36,0.78 -1.56,3.12 -1.92,3.12c-0.42,0 -1.56,-2.4 -1.92,-3.18c0,0 1.92,0 2.22,0z" fill="#ffffff"/><path d="M388.36264,232.69556c-3.3,3.48 -12.18,2.58 -15,0.24c-2.4,-1.98 -1.86,-6.06 0.6,-7.98c2.46,-1.92 6.36,-1.56 9.24,-1.68c2.94,0.36 4.86,0.24 6,3.3c0.84,2.22 0.42,4.86 -0.84,6.12z" fill="#f01446"/><path d="M386.08264,226.21556c1.56,-0.12 1.62,1.98 1.56,2.94c-0.06,0.96 -0.12,2.58 -1.5,2.46c-1.38,-0.12 -1.62,-1.62 -1.56,-2.46c0.06,-0.84 -0.12,-2.88 1.5,-2.94z" fill="#6e1e3c"/><path d="M375.46264,226.21556c1.56,-0.12 1.68,1.98 1.56,2.94c-0.12,0.96 -0.12,2.58 -1.5,2.46c-1.38,-0.12 -1.62,-1.62 -1.56,-2.46c0.06,-0.84 -0.06,-2.88 1.5,-2.94z" fill="#6e1e3c"/><path d="M365.08264,229.63556c-0.36,0 -0.6,-0.24 -0.66,-0.6c-0.12,-0.54 -0.12,-1.08 -0.12,-1.62c0.06,-0.54 0.48,-0.72 0.96,-0.9c0.36,0.54 0.42,1.26 0.24,1.86c0,0.48 0,0.96 -0.42,1.26z" fill="#000000"/><path d="M397.00264,229.81556c-0.84,-0.36 -0.72,-1.02 -0.66,-1.74c0,-0.78 0.12,-0.84 0.84,-1.14c0.78,0.72 0.84,1.86 0.12,2.64c-0.12,0.06 -0.18,0.12 -0.3,0.24z" fill="#000000"/><path d="M377.74264,237.91556h1.32c-0.54,0.96 -1.44,2.58 -1.74,2.58c-0.3,0 -1.14,-1.5 -1.62,-2.52c0.06,0 1.98,-0.06 2.04,-0.06z" fill="#ffffff"/></g><path d="M368.83217,227.31857l-9,-8.33333" fill="none" stroke="#000000" stroke-width="0.5" stroke-linecap="round"/><path d="M393.49884,225.98524l10.33333,-4" fill="none" stroke="#000000" stroke-width="0.5" stroke-linecap="round"/></g></g></svg>