<svg version="1.1" xmlns="http://www.w3.org/2000/svg" xmlns:xlink="http://www.w3.org/1999/xlink" width="396.2854" height="195.96704" viewBox="0,0,396.2854,195.96704"><g transform="translate(-19.74616,-56.2491)"><g data-paper-data="{&quot;isPaintingLayer&quot;:true}" fill="#ffffff" fill-rule="nonzero" stroke="none" stroke-linecap="butt" stroke-linejoin="miter" stroke-miterlimit="10" stroke-dasharray="" stroke-dashoffset="0" style="mix-blend-mode: normal"><text transform="translate(19.99616,78.03035) scale(0.5,0.5)" font-size="40" xml:space="preserve" fill="#ffffff" fill-rule="nonzero" stroke="none" stroke-width="1" stroke-linecap="butt" stroke-linejoin="miter" stroke-miterlimit="10" stroke-dasharray="" stroke-dashoffset="0" font-family="Sans Serif" font-weight="normal" text-anchor="start" style="mix-blend-mode: normal"><tspan x="0" dy="0">Oh my socks! The happy Stone </tspan><tspan x="0" dy="48px">has been stolen again!</tspan><tspan x="0" dy="48px">Let me take you to a better place</tspan></text><text transform="translate(222.9402,229.49711) scale(1.8452,1.8452)" font-size="40" xml:space="preserve" fill="#ffffff" fill-rule="nonzero" stroke="none" stroke-width="1" stroke-linecap="butt" stroke-linejoin="miter" stroke-miterlimit="10" stroke-dasharray="" stroke-dashoffset="0" font-family="Sans Serif" font-weight="normal" text-anchor="start" style="mix-blend-mode: normal"><tspan x="0" dy="0">?</tspan></text><path d="M386.12491,115.63521c-1.76777,-1.76777 0,-3.53553 0,-3.53553l3.30899,-3.26334c2.23831,-1.11915 4.004,-3.003 6.00601,-4.5045c0.89532,-0.67149 2.10284,-0.83651 3.003,-1.5015c1.26688,-0.93589 2.02628,-2.53525 3.42959,-3.2505c1.06642,-0.54354 2.46385,0.12075 3.57653,-0.32043c0.24315,-0.09641 0.47411,-0.21499 0.69669,-0.34892c-4.86853,-1.22659 -10.15811,-0.55979 -15.25004,-0.56105c-0.15556,-0.00004 -5.22368,-0.03922 -5.54434,0.09604c-1.56094,0.65841 -2.66022,2.1923 -4.24171,2.79969c-0.98123,0.37686 -2.13346,-0.21499 -3.15308,0.04039c-1.08562,0.27191 -1.91726,1.23007 -3.003,1.5015c-0.97111,0.24278 -2.02421,-0.20967 -3.003,0c-2.89529,0.62022 -2.83171,3.00076 -5.62368,4.38108c-1.01224,0.50044 -2.291,-0.15499 -3.38533,0.12342c-1.06597,0.27119 -1.87112,1.25213 -2.94563,1.48724c-1.53155,0.33511 -3.2077,-0.29602 -4.69968,0.18557c-1.37459,0.4437 -2.36956,1.65246 -3.55434,2.4787c0,0 -2.08013,1.38675 -3.46688,-0.69338c-1.38675,-2.08013 0.69338,-3.46688 0.69338,-3.46688c1.58872,-1.02277 2.9785,-2.45647 4.76617,-3.06831c1.57855,-0.54026 3.36907,0.08821 4.99784,-0.27343c1.11133,-0.24675 1.95471,-1.24478 3.06038,-1.51576c0.84939,-0.20817 1.84085,0.51923 2.62068,0.12342c1.098,-0.5573 1.50076,-1.99902 2.49794,-2.72141c1.16951,-0.84723 2.4985,-1.52156 3.8904,-1.90652c0.96478,-0.26683 2.03189,0.24278 3.003,0c1.08574,-0.27143 1.91714,-1.23057 3.003,-1.5015c0.92278,-0.23024 1.96701,0.38635 2.85292,0.04039c1.52695,-0.59629 2.54727,-2.16285 4.07879,-2.74731c1.18004,-0.45032 5.66594,-0.36261 7.15618,-0.36297c5.62136,-0.00135 13.14133,-1.37923 18.01802,1.5015c0.2311,0.01393 0.76396,0.26227 0.6933,0.04179c-0.32244,-1.00616 -1.16898,-1.77709 -1.56351,-2.75723c-0.47252,-1.17388 -0.24206,-2.65781 -1.01843,-3.65707c-0.7607,-0.97908 -2.56726,-0.78434 -3.241,-1.82518c-0.65256,-1.00813 0.15684,-2.46891 -0.2661,-3.59287c-0.47052,-1.2504 -1.52654,-2.19143 -2.30326,-3.28004l-1.62805,-1.73598c-0.42189,-0.44759 -0.68047,-1.05082 -0.68047,-1.71445c0,-1.38071 1.11929,-2.5 2.5,-2.5c0.41989,0 0.81561,0.10352 1.16302,0.28642l2.95802,1.47901l-0.07673,0.15346c0.24725,0.08987 0.48974,0.19383 0.72647,0.31484c0.99651,0.50939 0.71443,2.20737 1.5015,3.003c0.69598,0.70355 1.91201,0.63854 2.69701,1.24116c1.33467,1.02459 2.57367,2.21294 3.56933,3.56933c2.39931,3.26857 2.16749,6.66543 1.9734,10.47078c-0.07358,1.44261 0.40287,3.09915 -0.37337,4.31733c-0.81172,1.27385 -2.5956,1.54621 -3.87481,2.34945c-1.54906,0.97268 -2.91278,2.29362 -4.60915,2.97776c-0.96484,0.38912 -2.19054,-0.33279 -3.11799,0.13857c-1.12099,0.56972 -1.57672,1.99275 -2.57642,2.7555c-0.88975,0.67886 -2.10768,0.83001 -3.003,1.5015c-2.002,1.5015 -3.7677,3.38535 -6.00601,4.5045l-2.69701,2.74266c0,0 -1.76777,1.76777 -3.53553,0z" stroke-width="0.5"/></g></g></svg>