<svg version="1.1" xmlns="http://www.w3.org/2000/svg" xmlns:xlink="http://www.w3.org/1999/xlink" width="46.98366" height="65.99652" viewBox="0,0,46.98366,65.99652"><defs><linearGradient x1="239.55" y1="182.91481" x2="239.55" y2="205.29408" gradientUnits="userSpaceOnUse" id="color-1"><stop offset="0" stop-color="#ffffff"/><stop offset="1" stop-color="#ececec"/></linearGradient><linearGradient x1="246.90105" y1="187.99834" x2="246.90105" y2="193.4567" gradientUnits="userSpaceOnUse" id="color-2"><stop offset="0" stop-color="#eeeeee"/><stop offset="1" stop-color="#cdcdcd"/></linearGradient><linearGradient x1="239.3" y1="175.49967" x2="239.3" y2="192.46694" gradientUnits="userSpaceOnUse" id="color-3"><stop offset="0" stop-color="#0cff00"/><stop offset="1" stop-color="#0ad900"/></linearGradient></defs><g transform="translate(-216.48359,-173.93576)"><g data-paper-data="{&quot;isPaintingLayer&quot;:true}" fill-rule="nonzero" stroke-linejoin="miter" stroke-miterlimit="10" stroke-dasharray="" stroke-dashoffset="0" style="mix-blend-mode: normal"><g fill="none" stroke="#000000" stroke-width="0.5" stroke-linecap="round"><path d="M216.88391,191.85163c0,0 -1.23046,22.40057 3.34948,20.99271c4.50797,-1.38574 19.16765,-7.12454 19.16765,-7.12454v20.45065l-11.60046,13.51182"/><path d="M239.80058,205.20714c0,0 12.16033,4.1894 16.88351,4.85852c4.29079,0.60787 6.53316,-18.75986 6.53316,-18.75986"/><path d="M239.13391,225.40306l7.33333,9.6431"/></g><path d="M219.05,194.10445c0,-6.17986 9.17816,-11.18963 20.5,-11.18963c11.32184,0 20.5,5.00977 20.5,11.18963c0,6.17986 -9.17816,11.18963 -20.5,11.18963c-11.32184,0 -20.5,-5.00977 -20.5,-11.18963z" fill="url(#color-1)" stroke="#e8e8e8" stroke-width="1.5" stroke-linecap="butt"/><path d="M241.60104,187.99834l17.2,2.94751l1,2.51084l-3,-2.40168l-3.8,1.63751l-1.4,-2.18334l-5,2.51084l-1.4,-3.38418l-4,3.82085l-2.2,-3.05668l-3.2,2.94751l-1.8,-2.07418z" fill="url(#color-2)" stroke="#000000" stroke-width="0.05" stroke-linecap="round"/><path d="M261.55,191.64819c0,0 -12.82502,-2.68695 -19.68761,-2.55307c-7.11768,0.13886 -22.68114,7.19267 -22.68114,7.19267l-0.73125,-6.82295c0,0 2.7232,-4.69238 6.24312,-5.35589c2.5787,-0.48609 6.70178,-1.2633 6.70178,-1.2633l10.15958,-7.89183l6.24552,6.86932c0,0 4.9043,1.72062 7.9084,2.77458c3.9788,1.39592 4.8416,4.59421 4.8416,4.59421z" fill="url(#color-3)" stroke="#46d954" stroke-width="1.5" stroke-linecap="round"/><path d="M240.28676,185.05083c0,-0.84408 1.31329,-1.52834 2.93333,-1.52834c1.62003,0 2.93333,0.68426 2.93333,1.52834c0,0.84408 -1.3133,1.52834 -2.93333,1.52834c-1.62003,0 -2.93333,-0.68427 -2.93333,-1.52834z" fill="#000000" stroke="#46d954" stroke-width="0" stroke-linecap="butt"/><path d="M247.40105,198.1892v3.38418" fill="none" stroke="#000000" stroke-width="2.5" stroke-linecap="round"/><path d="M255.60105,197.4392v3.38418" fill="none" stroke="#000000" stroke-width="2.5" stroke-linecap="round"/><path d="M254.57313,185.51175c0,-0.89311 0.67137,-1.2251 2.38551,-1.2251c0.9556,0 1.27168,0.32302 1.84103,0.67691c0.45193,0.2809 1.80138,1.13305 1.80138,1.52826c0,0.89311 -1.21004,0.63705 -2.92419,0.63705c-1.71414,0 -3.10373,-0.72401 -3.10373,-1.61713z" fill="#000000" stroke="#46d954" stroke-width="0" stroke-linecap="butt"/></g></g></svg>