<svg version="1.1" xmlns="http://www.w3.org/2000/svg" xmlns:xlink="http://www.w3.org/1999/xlink" width="44.89192" height="101.47187" viewBox="0,0,44.89192,101.47187"><defs><linearGradient x1="242.45" y1="142.87212" x2="242.45" y2="183.87212" gradientUnits="userSpaceOnUse" id="color-1"><stop offset="0" stop-color="#ffffff"/><stop offset="1" stop-color="#ececec"/></linearGradient><linearGradient x1="235.09896" y1="152.18541" x2="235.09896" y2="162.18541" gradientUnits="userSpaceOnUse" id="color-2"><stop offset="0" stop-color="#eeeeee"/><stop offset="1" stop-color="#cdcdcd"/></linearGradient><linearGradient x1="242.7" y1="129.28717" x2="242.7" y2="160.37212" gradientUnits="userSpaceOnUse" id="color-3"><stop offset="0" stop-color="#0cff00"/><stop offset="1" stop-color="#0ad900"/></linearGradient></defs><g transform="translate(-219.41489,-126.82429)"><g data-paper-data="{&quot;isPaintingLayer&quot;:true}" fill-rule="nonzero" stroke-linejoin="miter" stroke-miterlimit="10" stroke-dasharray="" stroke-dashoffset="0" style="mix-blend-mode: normal"><g data-paper-data="{&quot;index&quot;:null}" fill="none" stroke="#000000" stroke-width="0.5" stroke-linecap="round"><path d="M251.19942,228.04616l-6.60047,-9.26076v-37.46667l9.9338,12.72743"/><path d="M238.53276,200.71283l5.66666,-20.33334"/><path d="M244.86609,217.3795l-11.33333,7"/></g><g data-paper-data="{&quot;index&quot;:null}"><path d="M242.45,183.87212c-11.32183,0 -20.5,-9.17817 -20.5,-20.5c0,-11.32183 9.17817,-20.5 20.5,-20.5c11.32183,0 20.5,9.17817 20.5,20.5c0,11.32183 -9.17817,20.5 -20.5,20.5z" fill="url(#color-1)" stroke="#e8e8e8" stroke-width="1.5" stroke-linecap="butt"/><path d="M247.99896,158.18541l-1.8,3.8l-3.2,-5.4l-2.2,5.6l-4,-7l-1.4,6.2l-5,-4.6l-1.4,4l-3.8,-3l-3,4.4l1,-4.6l17.2,-5.4z" fill="url(#color-2)" stroke="#000000" stroke-width="0.05" stroke-linecap="round"/><path d="M221.45,154.37212c0,0 0.8628,-5.85944 4.84159,-8.41683c3.0041,-1.9309 7.90841,-5.08317 7.90841,-5.08317l6.24552,-12.58495l10.15958,14.45825c0,0 4.12308,1.42389 6.70178,2.31443c3.51992,1.21558 6.24312,9.81227 6.24312,9.81227l-0.73125,12.5c0,0 -15.56346,-12.92297 -22.68114,-13.17736c-6.86259,-0.24527 -19.68762,4.67736 -19.68762,4.67736z" fill="url(#color-3)" stroke="#46d954" stroke-width="1.5" stroke-linecap="round"/><path d="M238.77991,149.58541c-1.62004,0 -2.93333,-1.25361 -2.93333,-2.8c0,-1.54639 1.3133,-2.8 2.93333,-2.8c1.62004,0 2.93333,1.25361 2.93333,2.8c0,1.54639 -1.3133,2.8 -2.93333,2.8z" fill="#000000" stroke="#46d954" stroke-width="0" stroke-linecap="butt"/><path d="M234.59896,163.9854v6.2" fill="none" stroke="#000000" stroke-width="2.5" stroke-linecap="round"/><path d="M226.39896,163.9854v6.2" fill="none" stroke="#000000" stroke-width="2.5" stroke-linecap="round"/><path d="M224.32314,150.5925c-1.71414,0 -2.92419,0.46912 -2.92419,-1.16711c0,-0.72406 1.34944,-2.28522 1.80138,-2.79986c0.56934,-0.64834 0.88542,-1.24013 1.84103,-1.24013c1.71414,0 2.38551,0.6082 2.38551,2.24444c0,1.63623 -1.38959,2.96266 -3.10373,2.96266z" fill="#000000" stroke="#46d954" stroke-width="0" stroke-linecap="butt"/></g></g></g></svg>