<svg version="1.1" xmlns="http://www.w3.org/2000/svg" xmlns:xlink="http://www.w3.org/1999/xlink" width="44.89192" height="101.47187" viewBox="0,0,44.89192,101.47187"><defs><linearGradient x1="241.55" y1="142.87212" x2="241.55" y2="183.87212" gradientUnits="userSpaceOnUse" id="color-1"><stop offset="0" stop-color="#ffffff"/><stop offset="1" stop-color="#ececec"/></linearGradient><linearGradient x1="248.90105" y1="152.1854" x2="248.90105" y2="162.1854" gradientUnits="userSpaceOnUse" id="color-2"><stop offset="0" stop-color="#eeeeee"/><stop offset="1" stop-color="#cdcdcd"/></linearGradient><linearGradient x1="241.3" y1="129.28717" x2="241.3" y2="160.37212" gradientUnits="userSpaceOnUse" id="color-3"><stop offset="0" stop-color="#0cff00"/><stop offset="1" stop-color="#0ad900"/></linearGradient></defs><g transform="translate(-219.69319,-126.82429)"><g data-paper-data="{&quot;isPaintingLayer&quot;:true}" fill-rule="nonzero" stroke-linejoin="miter" stroke-miterlimit="10" stroke-dasharray="" stroke-dashoffset="0" style="mix-blend-mode: normal"><g fill="none" stroke="#000000" stroke-width="0.5" stroke-linecap="round"><path d="M229.46725,194.04616l9.9338,-12.72743v37.46667l-6.60047,9.26076"/><path d="M239.80058,180.3795l5.66666,20.33334"/><path d="M239.13392,217.3795l11.33333,7"/></g><g><path d="M221.05,163.37212c0,-11.32183 9.17817,-20.5 20.5,-20.5c11.32183,0 20.5,9.17817 20.5,20.5c0,11.32183 -9.17816,20.5 -20.5,20.5c-11.32183,0 -20.5,-9.17817 -20.5,-20.5z" fill="url(#color-1)" stroke="#e8e8e8" stroke-width="1.5" stroke-linecap="butt"/><path d="M236.00105,158.1854l1.8,3.8l3.2,-5.4l2.2,5.6l4,-7l1.4,6.2l5,-4.6l1.4,4l3.8,-3l3,4.4l-1,-4.6l-17.2,-5.4z" fill="url(#color-2)" stroke="#000000" stroke-width="0.05" stroke-linecap="round"/><path d="M262.55,154.37212c0,0 -0.8628,-5.85944 -4.84159,-8.41683c-3.00409,-1.9309 -7.9084,-5.08317 -7.9084,-5.08317l-6.24552,-12.58495l-10.15958,14.45825c0,0 -4.12308,1.42389 -6.70178,2.31443c-3.51991,1.21558 -6.24312,9.81227 -6.24312,9.81227l0.73125,12.5c0,0 15.56346,-12.92297 22.68113,-13.17736c6.86259,-0.24527 19.68761,4.67736 19.68761,4.67736z" fill="url(#color-3)" stroke="#46d954" stroke-width="1.5" stroke-linecap="round"/><path d="M242.28676,146.7854c0,-1.54639 1.3133,-2.8 2.93333,-2.8c1.62004,0 2.93333,1.2536 2.93333,2.8c0,1.54639 -1.3133,2.8 -2.93333,2.8c-1.62004,0 -2.93333,-1.25361 -2.93333,-2.8z" fill="#000000" stroke="#46d954" stroke-width="0" stroke-linecap="butt"/><path d="M249.40105,163.9854v6.2" fill="none" stroke="#000000" stroke-width="2.5" stroke-linecap="round"/><path d="M257.60104,163.9854v6.2" fill="none" stroke="#000000" stroke-width="2.5" stroke-linecap="round"/><path d="M256.57313,147.62984c0,-1.63623 0.67136,-2.24444 2.38551,-2.24444c0.9556,0 1.27168,0.59179 1.84103,1.24013c0.45193,0.51463 1.80138,2.0758 1.80138,2.79986c0,1.63623 -1.21004,1.16711 -2.92419,1.16711c-1.71414,0 -3.10373,-1.32643 -3.10373,-2.96266z" fill="#000000" stroke="#46d954" stroke-width="0" stroke-linecap="butt"/></g></g></g></svg>