<svg version="1.1" xmlns="http://www.w3.org/2000/svg" xmlns:xlink="http://www.w3.org/1999/xlink" width="809.2599" height="449.44895" viewBox="0,0,809.2599,449.44895"><defs><linearGradient x1="322.99921" y1="-11.56287" x2="322.99921" y2="388.4648" gradientUnits="userSpaceOnUse" id="color-1"><stop offset="0" stop-color="#ff4242"/><stop offset="1" stop-color="#ff9191"/></linearGradient></defs><g transform="translate(81.63074,45.54171)"><g data-paper-data="{&quot;isPaintingLayer&quot;:true}" fill-rule="nonzero" stroke-linejoin="miter" stroke-miterlimit="10" stroke-dasharray="" stroke-dashoffset="0" style="mix-blend-mode: normal"><path d="M-81.63074,388.4648v-400.02767h809.2599v400.02767z" fill="url(#color-1)" stroke="none" stroke-width="0" stroke-linecap="butt"/><g fill="#ff0000" stroke="none" stroke-width="1" stroke-linecap="butt"><path d="M405.84362,147.99573c-1.5276,7.59055 2.83819,13.01262 4.69302,19.95381c1.74632,6.61397 1.30889,15.1811 -2.40076,21.0372c-3.27392,5.53057 -8.51118,9.54202 -14.6233,11.49349c-7.85674,2.38551 -17.67681,3.25358 -26.40671,3.25358v-22.33931c6.87507,-0.10681 16.80535,0.21702 20.29629,-2.49401c4.69302,-3.68592 3.60115,-11.05945 1.4191,-15.83216c-2.72799,-5.96292 -6.65636,-11.38498 -6.43934,-18.21766c0.21871,-6.61397 4.25729,-11.27817 7.96694,-16.48321c8.7299,-12.14454 3.49094,-19.08574 -4.69302,-29.92817c-3.92837,-5.09823 -5.01855,-11.16966 -5.34577,-17.4598c-0.1102,-3.57911 -0.43743,-16.26619 5.23726,-16.15769c1.96334,1.62764 0.32722,8.02459 0.76465,10.08457c0.98167,1.30211 2.39907,2.17018 4.03688,2.38551l1.20038,-0.43234c3.05521,-3.79612 1.74632,-9.21819 4.58281,-13.22963c0.54594,-0.21702 1.20038,0 1.5276,0.43234c0.76465,2.3872 -2.40076,14.53174 4.14708,12.25475l0.76295,-0.75956c0.43743,-1.40892 2.18375,-9.00117 4.58451,-8.56713c2.07185,1.51913 0.32722,7.15821 0.10851,9.21819c-0.54594,4.33697 -0.98167,8.56713 -0.10851,12.90411c1.4174,7.59055 5.67299,11.49518 9.27414,17.89214c3.71135,6.83268 4.3658,14.85727 1.63781,22.1223c-2.72799,7.04801 -10.69493,11.27817 -12.22253,18.86872z"/><path d="M385.22011,198.09473c-6.65636,0.32553 -6.22062,-8.99947 0.21871,-9.325c5.56448,-0.32553 6.43764,8.99947 -0.21871,9.325z"/><path d="M390.78457,145.93575c-3.81816,0.10851 -3.49094,-5.09654 0.1102,-5.31356c3.05521,-0.10851 3.70966,5.20505 -0.1102,5.31356z"/><path d="M403.77008,176.51498c-3.81816,0.10851 -3.49094,-5.09654 0.1102,-5.31356c3.05521,-0.10851 3.70966,5.20505 -0.1102,5.31356z"/><path d="M387.51063,88.78705c-3.81816,0.10851 -3.49094,-5.09654 0.1102,-5.31356c3.16372,-0.10851 3.70966,5.20505 -0.1102,5.31356z"/></g><g fill="#ff0000" stroke="none" stroke-width="1" stroke-linecap="butt"><path d="M289.86399,148.72923c-8.94414,3.49798 -18.37415,5.55446 -27.90207,6.24082c-6.45767,0.11037 -12.66649,-2.58564 -16.9193,-7.39149c-9.2083,-10.7275 -4.77393,-25.03465 -8.92201,-37.52149c-2.46172,-7.31529 -7.31201,-9.87285 -13.27653,-13.96426c-5.78077,-3.93291 -8.4819,-9.26881 -8.91409,-16.25539c-0.43283,-6.98814 0.33126,-13.65279 -4.74095,-19.2906c-1.62292,-1.90757 -13.42883,-8.37802 -11.53827,-10.93084c4.31993,-0.98001 7.5609,2.25111 11.6618,1.59585c4.72167,-4.5557 -7.77922,-6.74016 -6.04577,-10.51896c4.40159,-4.18694 9.65967,6.4256 13.81535,3.6347c2.83829,-2.8308 -5.05341,-7.2918 -5.52834,-9.56094c2.29424,-2.72131 9.54662,3.88785 11.06072,5.25293c4.22039,3.87871 7.50022,8.62032 9.67228,13.8243c2.59003,6.20535 -0.41837,10.04596 -1.24952,16.26826c-0.75626,5.83832 1.46701,10.31542 5.82935,14.25247c3.81115,3.46163 8.57139,5.23553 12.06245,9.06592c3.85852,4.14734 4.52298,8.56959 4.32889,14.05568c-0.2042,7.72436 1.86156,20.60998 9.50469,24.47109c2.97432,1.46111 12.3302,-1.62265 18.55653,-3.98629z"/><path d="M221.89453,86.7354c-3.48333,1.57147 -5.18623,-3.358 -1.94653,-4.94537c2.83602,-1.41888 5.4283,3.37455 1.94653,4.94537z"/><path d="M244.05339,116.02948c-3.48333,1.57147 -5.18623,-3.358 -1.94653,-4.94537c2.77766,-1.27695 5.42988,3.37389 1.94653,4.94537z"/><path d="M245.39355,106.77461c-7.32698,3.41092 -11.06715,-7.24912 -4.08394,-10.63413c6.11751,-2.90609 11.41092,7.22323 4.08394,10.63413z"/></g><g fill="#b50000" stroke="none" stroke-width="1" stroke-linecap="butt"><path d="M313.96353,262.00592c-0.98336,10.00548 -4.03857,13.34122 -10.04048,14.78572c-3.05521,0.77874 -6.00022,0.88999 -8.7299,-0.55451c-5.7832,-3.11324 -6.98358,-11.78546 -9.92858,-17.4557c-5.8934,-1.667 -5.12875,4.66899 -13.53143,4.66899c-14.6233,0 -14.51309,-7.89348 -17.24108,-30.46318c-2.72799,-22.56795 57.39793,-15.56446 57.39793,-15.56446c0,0 3.05521,34.68716 2.07354,44.58314z"/><path d="M324.00232,257.11443c-2.07354,-5.67023 0.43573,-33.35392 0.43573,-33.35392l43.32226,5.00274c0,0 1.5276,14.56496 1.74632,19.1227c0.54594,20.67845 -6.00191,23.23545 -10.47622,23.3467c-20.07758,0.77874 -14.94883,-19.23395 -20.29629,-22.12469c-9.38434,-5.00274 -10.80344,2.44748 -14.73181,8.00647z"/></g><path d="M375.07108,229.86756c-0.32722,7.80757 0.1102,19.19425 -4.25559,26.02693c-4.3641,6.83099 -13.2042,5.63739 -18.11424,0c-4.03688,-4.55569 -5.7832,-19.62828 -17.89553,-18.6517c-12.11233,0.97489 -1.5276,25.37418 -15.82368,31.01326c-6.98358,2.71103 -17.24108,-2.16849 -21.49667,-8.02459c-2.29226,-3.14507 0,-14.09771 -8.7299,-15.07259c-8.7299,-0.97658 -11.56639,7.59055 -17.67681,8.67395c-13.31441,2.38551 -17.35129,-22.66315 -17.89722,-36.1098c-0.65445,-14.31473 -1.63611,-27.86989 -0.54594,-42.07441c1.85652,-25.05035 -0.54424,-52.26918 10.2575,-75.90891c9.82177,-21.47124 39.06667,-34.15833 62.8556,-29.38732c24.66209,4.98803 37.21015,19.62828 44.63116,43.37652c8.51118,27.11032 3.49094,54.00363 6.11042,81.76331c0.98167,11.16966 -0.87316,23.09888 -1.4191,34.37535z" fill="#dba9a9" stroke="none" stroke-width="1" stroke-linecap="butt"/><path d="M362.74007,222.277c6.76656,0.43404 8.51288,27.32734 2.07354,27.00182c-5.56448,-0.32553 -7.09209,-3.4706 -7.41931,-7.15652c-0.65614,-8.67564 -1.4191,-20.27934 5.34577,-19.8453z" fill="#78c8c8" stroke="none" stroke-width="1" stroke-linecap="butt"/><path d="M345.7177,219.13193c6.76487,0.32553 8.51118,13.66367 2.07354,13.55516c-5.56618,-0.21702 -7.09378,-1.73445 -7.42101,-3.57741c-0.65445,-4.33867 -1.4174,-10.30328 5.34746,-9.97775z" fill="#78c8c8" stroke="none" stroke-width="1" stroke-linecap="butt"/><path d="M354.44758,218.48258c-6.65636,0.54085 -6.22062,-17.4598 0.21871,-18.11085c5.56448,-0.54085 6.43764,17.5683 -0.21871,18.11085z" fill="#00a0b4" stroke="none" stroke-width="1" stroke-linecap="butt"/><path d="M286.24623,239.62829c-6.65636,0.32553 -6.22062,-9.00117 0.21871,-9.3267c5.56448,-0.21702 6.43764,9.00117 -0.21871,9.3267z" fill="#006482" stroke="none" stroke-width="1" stroke-linecap="butt"/><path d="M366.23269,181.3945c-6.65636,0.32553 -6.22062,-8.99947 0.21871,-9.325c5.56448,-0.32553 6.43764,9.00117 -0.21871,9.325z" fill="#78c8c8" stroke="none" stroke-width="1" stroke-linecap="butt"/><path d="M270.96849,102.34222c-5.67469,-3.57911 7.52952,-19.19425 12.98549,-15.83216c4.69302,2.92805 -7.3108,19.41126 -12.98549,15.83216z" fill="#78c8c8" stroke="none" stroke-width="1" stroke-linecap="butt"/><path d="M285.15436,225.63909c-4.80153,0.21702 -4.3641,-6.50716 0.21871,-6.72417c3.92837,-0.21532 4.58281,6.50716 -0.21871,6.72417z" fill="#78c8c8" stroke="none" stroke-width="1" stroke-linecap="butt"/><path d="M313.30908,206.01081c-4.80153,0.21702 -4.3658,-6.50546 0.21702,-6.72248c3.92837,-0.21702 4.58281,6.50546 -0.21702,6.72248z" fill="#78c8c8" stroke="none" stroke-width="1" stroke-linecap="butt"/><path d="M304.57915,256.97788c-4.80153,0.21702 -4.3658,-6.50546 0.21702,-6.72248c3.92837,-0.21702 4.58451,6.50546 -0.21702,6.72248z" fill="#78c8c8" stroke="none" stroke-width="1" stroke-linecap="butt"/><path d="M329.8957,224.33698c-4.80153,0.21702 -4.3658,-6.50546 0.21702,-6.72248c3.92837,-0.21702 4.58281,6.50546 -0.21702,6.72248z" fill="#00a0b4" stroke="none" stroke-width="1" stroke-linecap="butt"/><path d="M268.78643,205.03592c10.47622,0.64936 13.2042,40.33996 3.16372,39.79741c-8.61969,-0.43404 -11.12897,-4.98803 -11.56639,-10.5186c-0.98167,-12.79729 -2.07354,-29.92987 8.40267,-29.27881z" fill="#78c8c8" stroke="none" stroke-width="1" stroke-linecap="butt"/><path d="M347.89975,144.74215c2.29226,1.08509 4.14708,2.71103 6.54785,3.03656c0.65445,0.10851 1.20038,0.21702 1.5276,0.97658l-0.32722,0.43404c-0.87316,0.10851 -1.63781,0 -2.40076,-0.43404c-2.07354,-1.08509 -4.14708,-2.06167 -6.22062,-3.14507c-0.43573,-0.21702 -0.98167,-0.43404 -1.5276,-0.65105l-0.32722,-0.86807l8.29417,-4.44548l1.5276,0.21702l-0.1102,0.75956c-3.49094,1.62594 -5.7832,2.81954 -6.98358,4.11996z" fill="#000000" stroke="none" stroke-width="1" stroke-linecap="butt"/><path d="M276.53466,144.95917c-1.63781,-1.84296 -3.49264,-3.4706 -5.34746,-5.09654c-0.32722,-0.43404 -0.21871,-0.97658 0.21871,-1.30041c0,0 0,0 0.10851,0c0.10851,0 0.32722,0 0.43573,0.10681c0.21871,0.10851 0.32892,0.21702 0.54594,0.43404c1.63781,2.06167 3.60115,3.90463 5.7832,5.42206c0.54594,0.32553 1.20038,0.75956 0.98336,1.73615l-0.98336,0.21702c-0.32722,0 -0.65445,0.10851 -0.98167,0.21532c-1.5276,0.65105 -2.9467,1.41062 -4.47431,2.06167l-1.74462,0.75787c-0.76465,-0.10851 -1.09187,-0.32383 -0.98336,-0.97489c2.07354,-0.97658 4.03857,-1.95147 6.00191,-2.92805c0.1102,-0.21702 0.21871,-0.43404 0.43743,-0.65105z" fill="#000000" stroke="none" stroke-width="1" stroke-linecap="butt"/><path d="M218.34876,35.28369c11.24773,0 20.36582,8.31356 20.36582,18.56884c0,10.2553 -9.11809,18.56884 -20.36582,18.56884c-11.24773,0 -20.36582,-8.31356 -20.36582,-18.56884c0,-10.2553 9.11809,-18.56884 20.36582,-18.56884z" fill="#ffde8c" stroke="#bd7575" stroke-width="1.5" stroke-linecap="butt"/><path d="M184.10889,155.90949l-184.68468,81.08108" fill="none" stroke="#ffffff" stroke-width="0.5" stroke-linecap="round"/><path d="M211.13591,256.51009l-82.58258,-49.54955" fill="none" stroke="#ffffff" stroke-width="0.5" stroke-linecap="round"/><path d="M224.64943,146.90048l-54.05405,87.08709" fill="none" stroke="#ffffff" stroke-width="0.5" stroke-linecap="round"/><path d="M97.0218,26.78036l63.06306,135.13514" fill="none" stroke="#ffffff" stroke-width="0.5" stroke-linecap="round"/><path d="M35.46024,163.41699l19.51952,-72.07207" fill="none" stroke="#ffffff" stroke-width="0.5" stroke-linecap="round"/><path d="M247.17196,384.13772l-138.13814,-120.12012" fill="none" stroke="#ffffff" stroke-width="0.5" stroke-linecap="round"/><path d="M254.67946,244.49808l-97.5976,99.0991" fill="none" stroke="#ffffff" stroke-width="0.5" stroke-linecap="round"/><path d="M286.21099,294.04763l163.66366,105.10511" fill="none" stroke="#ffffff" stroke-width="0.5" stroke-linecap="round"/><path d="M364.28907,282.03561l115.61562,-16.51652" fill="none" stroke="#ffffff" stroke-width="0.5" stroke-linecap="round"/><path d="M397.3221,315.06865l192.19219,88.58859" fill="none" stroke="#ffffff" stroke-width="0.5" stroke-linecap="round"/><path d="M466.39117,265.5191l99.0991,24.02402" fill="none" stroke="#ffffff" stroke-width="0.5" stroke-linecap="round"/><path d="M442.36715,259.51309l64.56456,-109.60961" fill="none" stroke="#ffffff" stroke-width="0.5" stroke-linecap="round"/><path d="M702.12691,292.54612l-189.18919,-120.12012" fill="none" stroke="#ffffff" stroke-width="0.5" stroke-linecap="round"/><path d="M422.84763,64.3179l94.59459,75.07508l-79.57958,58.55856" fill="none" stroke="#ffffff" stroke-width="0.5" stroke-linecap="round"/><path d="M524.94973,32.78636l-69.06907,108.10811" fill="none" stroke="#ffffff" stroke-width="0.5" stroke-linecap="round"/><path d="M609.03381,82.33591l-141.14114,-82.58258" fill="none" stroke="#ffffff" stroke-width="0.5" stroke-linecap="round"/><path d="M341.76655,47.80138l88.58859,-51.05105" fill="none" stroke="#ffffff" stroke-width="0.5" stroke-linecap="round"/><path d="M269.69447,31.28486l66.06607,-39.03904l66.06607,48.04805" fill="none" stroke="#ffffff" stroke-width="0.5" stroke-linecap="round"/><path d="M314.73952,46.29988l-46.54655,-66.06607" fill="none" stroke="#ffffff" stroke-width="0.5" stroke-linecap="round"/><path d="M95.5203,116.87045l106.60661,-126.12613" fill="none" stroke="#ffffff" stroke-width="0.5" stroke-linecap="round"/><path d="M181.10589,137.89147l-97.5976,-183.18318" fill="none" stroke="#ffffff" stroke-width="0.5" stroke-linecap="round"/><path d="M87.22509,10.76058c1.00476,-2.2892 3.29397,-1.28444 3.29397,-1.28444l2.79675,1.22753c7.47188,3.31492 16.03572,3.91753 24.05592,5.46541c5.79414,2.88947 11.58582,3.60694 17.8364,5.19393c5.6239,1.42787 11.57032,3.28456 16.979,5.37356c4.63315,1.78947 9.45448,4.10097 13.8721,6.37264c5.50971,2.83326 10.66893,6.64119 16.94862,7.71994c3.61141,0.62039 7.92491,-0.03228 11.61156,-0.03228c0,0 2.5,0 2.5,2.5c0,2.5 -2.5,2.5 -2.5,2.5c-3.95094,0 -8.541,0.62698 -12.41247,-0.03228c-6.84963,-1.16641 -12.42624,-5.11933 -18.43426,-8.20884c-4.26657,-2.194 -8.91193,-4.42656 -13.38701,-6.15498c-5.24564,-2.02603 -11.02122,-3.82918 -16.47512,-5.20907c-6.32681,-1.60074 -12.26718,-2.34252 -18.1349,-5.28421c-8.24728,-1.50925 -16.76844,-2.27757 -24.46936,-5.62541l-2.79675,-1.22753c0,0 -2.2892,-1.00476 -1.28444,-3.29397z" fill="#ffffff" stroke="none" stroke-width="0.5" stroke-linecap="butt"/><path d="M226.15093,-25.26919c2.5,0 2.5,2.5 2.5,2.5v1.5015c-0.01621,7.32021 -1.9815,15.18719 -4.69481,21.97773c-1.26734,3.17175 -3.1123,6.75845 -4.89002,9.66606c-0.76768,1.25561 -2.04608,2.2269 -2.53445,3.6152c-0.36351,1.03336 0.10153,2.18913 0.10727,3.28455c0.01222,2.33174 0.14497,4.82502 1.23757,6.88497c0,0 1.11803,2.23607 -1.11803,3.3541c-2.23607,1.11803 -3.3541,-1.11803 -3.3541,-1.11803c-1.33761,-2.79299 -1.77757,-6.02429 -1.76543,-9.12104c0.00618,-1.57822 -0.38803,-3.23498 0.10727,-4.73347c0.58447,-1.76827 2.06646,-3.10116 3.01255,-4.7053c1.64107,-2.78254 3.37494,-6.03644 4.57799,-9.04046c2.46713,-6.16044 4.33089,-13.41414 4.3142,-20.06431v-1.5015c0,0 0,-2.5 2.5,-2.5z" fill="#ffffff" stroke="none" stroke-width="0.5" stroke-linecap="butt"/><path d="M381.54015,-22.38572c1.11803,2.23607 -1.11803,3.3541 -1.11803,3.3541l-3.41582,1.66391c-5.21813,0.62747 -10.22622,2.41912 -15.41477,3.0858c-1.40044,0.17994 -2.85126,-0.32609 -4.23558,-0.04815c-1.09726,0.22031 -1.90558,1.28204 -3.003,1.5015c-1.52924,0.30581 -3.13997,-0.22084 -4.67843,0.0346c-1.48077,0.24586 -2.82003,1.03754 -4.26329,1.45003c-2.44119,0.69771 -5.0183,0.82914 -7.46944,1.49107c-7.45295,2.01266 -14.59183,5.27401 -22.07993,7.33561c-3.73702,2.91612 -7.78597,4.93409 -11.81805,7.39901c-1.38567,0.84709 -6.64141,4.58493 -7.4641,4.95327c-1.50112,0.67208 -3.25323,0.59809 -4.78978,1.18467c-2.32339,0.88696 -3.78532,3.28305 -5.96325,4.48365c-2.42334,1.33588 -5.35913,1.41087 -7.96122,2.3523c-3.01513,1.09086 -6.00596,2.30235 -8.81899,3.84112c-7.90986,4.32681 -15.52225,8.53858 -23.94904,11.9093c0,0 -2.32119,0.92848 -3.24967,-1.39272c-0.92848,-2.32119 1.39272,-3.24967 1.39272,-3.24967c8.24377,-3.29751 15.66672,-7.43774 23.4105,-11.65572c0.10046,-0.05472 9.36949,-4.10198 9.51342,-4.15406c2.42155,-0.87611 5.18574,-0.857 7.42792,-2.12354c2.19247,-1.23847 3.718,-3.57234 6.04876,-4.52536c1.56303,-0.6391 3.36539,-0.562 4.91165,-1.24068c2.52633,-1.10886 4.50488,-3.19381 6.8585,-4.63339c4.16537,-2.54773 8.29227,-4.67554 12.20597,-7.61601c7.72023,-2.27271 15.23378,-5.58335 22.96511,-7.67941c2.47581,-0.67122 5.07745,-0.81298 7.54558,-1.51193c1.60147,-0.45353 3.10408,-1.27834 4.74572,-1.55297c1.42379,-0.23819 2.91505,0.31774 4.33058,0.0346c1.09741,-0.21951 1.90543,-1.28278 3.003,-1.5015c1.56054,-0.31098 3.19563,0.15812 4.77343,-0.04815c4.92567,-0.64393 9.64225,-2.44972 14.61526,-2.92021l2.59018,-1.3391c0,0 2.23607,-1.11803 3.3541,1.11803z" fill="#ffffff" stroke="none" stroke-width="0.5" stroke-linecap="butt"/><path d="M617.53982,76.32991c0,2.5 -2.5,2.5 -2.5,2.5l-5.01855,-0.05342c-4.54636,-1.95894 -8.63013,-2.11837 -13.47406,-2.99504c-4.25524,-0.77013 -8.3775,-2.26941 -12.62303,-3.09029c-1.01469,-0.19619 -9.15218,-1.24193 -9.99929,-1.43563c-4.62547,-1.05767 -9.04259,-3.23 -13.60647,-4.52834c-7.43077,-2.11393 -15.16988,-3.42186 -22.67021,-5.32182c-7.93082,-2.00901 -15.74935,-4.60428 -23.83346,-5.88067c-3.27936,-0.52289 -6.62412,-0.54429 -9.90845,-1.03495c-4.27232,-0.63826 -8.39515,-2.29506 -12.73119,-2.69756c-2.12868,-0.1976 -8.77765,0.30864 -10.59324,-0.12911c-1.01429,-0.24455 -1.56671,-1.42446 -2.5103,-1.86971c-4.37213,-2.06304 -9.52061,-2.58106 -14.04927,-4.15178c-0.96252,-0.33384 -1.71156,-1.21067 -2.71002,-1.41309c-3.84347,-0.77922 -9.00713,0.06688 -12.93913,0.06688c-7.00701,0 -14.01401,0 -21.02102,0c-13.34835,0 -26.6967,0 -40.04505,0c-7.27667,0 -15.37324,-1.04517 -22.54525,-0.04511c-2.60209,0.36283 -4.78352,2.22324 -7.30664,2.95564c-6.86701,1.99333 -14.38204,1.63524 -21.44761,2.48243c-9.8341,1.17053 -19.87955,0.61304 -29.78159,0.61304c-16.68168,0 -33.36336,0 -50.04505,0c0,0 -2.5,0 -2.5,-2.5c0,-2.5 2.5,-2.5 2.5,-2.5c16.68168,0 33.36336,0 50.04505,0c9.69619,0 19.5596,0.58576 29.18633,-0.57748c6.78739,-0.81384 14.10947,-0.41256 20.69559,-2.33306c2.65284,-0.77356 4.97589,-2.63868 7.70838,-3.05036c5.87361,-0.88493 12.53845,-0.04511 18.49079,-0.04511c15.01502,0 30.03003,0 45.04505,0c8.50851,0 17.01702,0 25.52553,0c0.75046,0 9.1454,-0.01977 9.58339,0.06688c1.19662,0.23672 2.14266,1.19273 3.29599,1.58991c4.7809,1.64645 10.05576,2.2638 14.67919,4.4357c0.71631,0.33649 1.0242,1.3723 1.79427,1.55482c3.05134,0.72324 6.2843,-0.41895 9.40676,-0.12911c4.44704,0.4128 8.63031,2.07996 13.00627,2.7308c3.30015,0.49084 6.65938,0.52142 9.95495,1.04211c8.23754,1.31367 16.19493,3.92467 24.27751,5.97195c7.53702,1.90909 15.30865,3.22869 22.77712,5.35017c4.49748,1.27754 8.86391,3.44219 13.42056,4.48067c3.21691,0.73315 6.5603,0.76645 9.7997,1.3928c4.24495,0.82077 8.36872,2.32366 12.62303,3.09029c4.79057,0.86327 9.07302,0.99844 13.55297,3.01096l3.99046,-0.05342c0,0 2.5,0 2.5,2.5z" fill="#ffffff" stroke="none" stroke-width="0.5" stroke-linecap="butt"/><path d="M-58.54341,116.02618c-0.65724,-2.41206 1.75482,-3.0693 1.75482,-3.0693l0.68639,-0.18703c1.7166,-0.46011 3.38874,-1.1415 5.14981,-1.38033c1.60492,-0.21765 3.25397,0.24147 4.85878,0.02303c2.59002,-0.35255 4.78299,-2.13349 7.26791,-2.94447c2.52954,-0.82554 5.19993,-1.14406 7.82583,-1.57389c4.49133,-0.73518 9.34682,-0.54573 13.75826,-1.63051c3.13847,-0.77175 6.03594,-2.31298 9.05721,-3.4608c6.29122,-2.39011 12.58166,-4.78221 18.8762,-7.16356c6.49953,-1.40221 13.19034,-2.4681 19.60708,-4.20506c6.29417,-1.70378 12.41827,-4.22525 18.63647,-6.19272c4.65291,-1.47221 9.66163,-2.46141 14.19563,-4.26156c3.08669,-1.22552 5.84646,-3.17621 8.91009,-4.45827c0.21716,-0.09088 8.93935,-2.97772 9.04699,-3.01837c2.48762,-0.93949 4.73863,-2.45481 7.2512,-3.32537c2.60819,-0.90369 5.50097,-0.629 8.17783,-1.30259c3.13421,-0.78868 6.07133,-2.25791 9.20825,-3.03575c15.45398,-0.06709 31.23249,0.98234 46.6458,-0.01021c6.03919,-0.3889 11.99017,-2.42039 18.01802,-3.003c5.95398,-0.57547 12.24016,-0.00852 18.22422,-0.00852c0,0 2.5,0 2.5,2.5c0,2.5 -2.5,2.5 -2.5,2.5c-5.84226,0 -12.00136,-0.57838 -17.81182,-0.00852c-6.03019,0.59141 -11.97197,2.60309 -18.01802,3.003c-15.32296,1.01353 -31.08371,0.06749 -46.44729,-0.01021c-3.0047,0.75869 -5.80228,2.22267 -8.80976,2.97026c-2.46267,0.61216 -5.13983,0.26925 -7.5296,1.12277c-2.44411,0.87293 -4.64439,2.33887 -7.07139,3.25828c-2.94741,1.11656 -6.06388,1.77009 -8.97102,2.98763c-2.0295,0.84997 -7.01755,3.70746 -8.97845,4.486c-4.64693,1.84498 -9.76354,2.87262 -14.53236,4.3815c-6.28345,1.98812 -12.47068,4.52771 -18.83108,6.24998c-6.38317,1.72843 -13.0356,2.79994 -19.50502,4.1761c-6.16942,2.35443 -12.3433,4.69708 -18.51624,7.04225c-0.35961,0.13662 -9.44422,3.59421 -9.63901,3.64211c-4.55527,1.12014 -9.53013,0.95328 -14.1641,1.71264c-2.41113,0.39511 -4.86905,0.66322 -7.18919,1.42911c-2.63675,0.8704 -5.00274,2.63903 -7.74711,3.06154c-3.20332,0.49317 -6.51667,0.40481 -9.63965,1.27164l-0.68639,0.18703c0,0 -2.41206,0.65724 -3.0693,-1.75482z" fill="#ffffff" stroke="none" stroke-width="0.5" stroke-linecap="butt"/><path d="M51.24219,259.12962c-1.11803,-2.23607 1.11803,-3.3541 1.11803,-3.3541l2.04063,-0.65177c-0.10472,-5.11616 3.29074,-6.8939 6.0583,-10.58595c0.67126,-0.89549 0.83001,-2.10768 1.5015,-3.003c0.84938,-1.1325 2.15363,-1.8705 3.003,-3.003c0.67149,-0.89532 0.84028,-2.10007 1.5015,-3.003c3.67811,-5.02267 9.32229,-8.28994 13.85675,-12.39718c3.59394,-3.25533 6.14531,-7.04524 9.213,-10.70433c0.10648,-0.12701 6.92023,-6.93255 7.167,-7.1792c1.66956,-1.89073 3.5969,-3.57882 5.02383,-5.65876c0.97262,-1.41771 1.34806,-3.20813 2.41032,-4.55998c1.02458,-1.30389 2.72228,-1.96921 3.74558,-3.27411c1.85158,-2.36111 2.35871,-6.24172 3.65213,-8.78353c1.47256,-2.89386 3.94979,-5.15932 6.07055,-7.61803c3.79506,-4.3998 5.63633,-10.23902 8.9209,-14.89996c3.63203,-5.15399 9.6,-8.69692 13.57111,-13.59027c1.80189,-2.22036 2.84433,-4.9649 4.4004,-7.36395c2.12011,-3.26864 4.60194,-6.17366 6.59703,-9.54911c4.99059,-3.40172 8.68077,-7.5365 13.15447,-11.54336c0.14874,-0.13322 7.83192,-6.52615 7.92577,-6.59413c2.69461,-1.95182 3.98913,-1.71318 6.88334,-3.90532c5.01309,-3.79702 8.52283,-10.40848 12.12303,-15.44859c2.43658,-3.41109 4.88724,-6.80978 7.44863,-10.12939c0.85762,-1.11148 2.18381,-1.95959 2.6276,-3.29148c0.44379,-1.3319 -0.08546,-2.80648 -0.1282,-4.20972c0,0 0,-2.5 2.5,-2.5c2.5,0 2.5,2.5 2.5,2.5c-0.04273,1.93009 0.48208,3.95871 -0.1282,5.79028c-0.61028,1.83157 -2.23095,3.15158 -3.37048,4.70995c-2.45581,3.35846 -4.96192,6.65015 -7.38068,10.03654c-3.92825,5.49975 -7.72248,12.3477 -13.15968,16.51818c-2.15275,1.65122 -4.87324,2.44177 -7.06661,4.03863c-2.61121,1.90106 -5.03267,4.05464 -7.43865,6.20956c-4.34632,3.89278 -7.91226,8.03116 -12.83464,11.22999c-1.75907,3.2198 -4.12578,5.87093 -6.10348,8.92791c-1.61722,2.49977 -2.73823,5.33463 -4.60861,7.65107c-3.90278,4.83352 -9.91574,8.35341 -13.45592,13.43676c-3.31606,4.76153 -5.25866,10.62566 -9.09712,15.13007c-1.87311,2.19808 -4.20196,4.11996 -5.48245,6.70848c-2.18473,4.41643 -0.9501,5.35698 -4.15885,9.59022c-1.01184,1.3349 -2.74077,1.9985 -3.77704,3.31453c-0.99856,1.26815 -1.30439,2.97433 -2.22106,4.30288c-0.11496,0.16661 -4.63407,5.27023 -5.50023,6.24954c-5.83147,5.8342 -10.54564,12.61792 -16.65304,18.1525c-4.23293,3.83592 -9.7801,6.9069 -13.17028,11.62684c-0.65289,0.90898 -0.83001,2.10768 -1.5015,3.003c-0.84938,1.1325 -2.15363,1.8705 -3.003,3.003c-0.67149,0.89532 -0.82979,2.10785 -1.5015,3.003c-2.04626,2.72695 -4.14677,3.20273 -5.43807,6.5074c-0.48058,1.2299 -0.34376,2.61845 -0.51564,3.92767l-3.96537,2.35123c0,0 -2.23607,1.11803 -3.3541,-1.11803z" fill="#ffffff" stroke="none" stroke-width="0.5" stroke-linecap="butt"/><path d="M96.5188,8.76234c0,2.5 -2.5,2.5 -2.5,2.5h-1.5015c-2.97282,-1.60779 0.17366,-0.3587 -0.85757,3.12959c-0.77683,2.62773 -6.29006,6.33092 -1.18872,8.57722c0.62695,0.27607 1.36165,-0.16703 2.04629,-0.1903c3.6814,-0.12514 6.15482,-1.10446 9.38128,-2.90221c4.20359,-2.3422 8.84356,-5.75515 13.56672,-6.93807l4.54493,-1.94783c0.31554,-0.1438 0.66621,-0.22391 1.0356,-0.22391c1.38071,0 2.5,1.11929 2.5,2.5c0,0.69036 -0.27982,1.31536 -0.73223,1.76777l-2.72277,2.72277c-0.27976,0.46815 -0.6114,0.95069 -0.28023,1.2492c0.92589,0.83457 3.29859,-1.9833 3.47493,-2.13966c2.6389,-2.33995 5.08389,-4.29262 7.70651,-6.10234l-0.23448,-0.23448l3.53553,-3.53553l1.01286,1.01286c0.71463,-0.42411 1.45169,-0.8473 2.21668,-1.2732l-0.23801,2.63999l1.01231,0.50615l-1.14912,2.29824c0.41463,1.01618 0.89992,2.00825 1.20512,3.06175c0.33109,1.14286 -0.02985,2.54449 0.67121,3.50588c0.31657,0.43412 1.00672,-0.41736 1.54123,-0.47189c0.80566,-0.0822 1.64073,0.25416 2.42862,0.06688c3.61421,-0.85909 6.39066,-5.04454 9.4032,-6.92823l2.91693,-2.91693c0.45241,-0.45241 1.07741,-0.73223 1.76777,-0.73223c1.38071,0 2.5,1.11929 2.5,2.5c0,0.43153 -0.10933,0.83752 -0.30181,1.19179l-1.70856,3.30385l-0.04411,-0.02281l-0.02284,0.14394c-1.41683,2.12807 -2.81021,4.27308 -4.14407,6.45417c2.8738,-1.37895 7.27921,-1.66607 9.46113,-3.8297c1.00181,-0.99341 0.90501,-3.44856 2.31256,-3.54493c4.08226,-0.27952 6.36442,0.55375 7.30076,1.89652c0.56647,-0.5462 1.14191,-1.00516 1.78474,-1.43611l-0.11528,-0.15371l3.9798,-2.98485c0.42124,-0.32311 0.94829,-0.51515 1.5202,-0.51515c1.38071,0 2.5,1.11929 2.5,2.5v3.003c0,6.34134 0.00129,12.68268 0,19.02402c-0.00033,1.6332 0.2429,3.28486 -0.00202,4.89959c-0.11882,0.78333 -1.83526,1.94616 -1.06357,2.12563c0.77774,0.18088 0.8128,-1.37877 1.13669,-2.10862c1.8768,-4.22917 3.26331,-7.90024 5.85929,-11.81385c0,0 1.38675,-2.08013 3.46688,-0.69338c2.08013,1.38675 0.69338,3.46688 0.69338,3.46688c-1.75558,2.61882 -3.21376,5.44642 -4.44533,8.34874c-0.54975,1.29554 -0.61967,2.9684 -1.70739,3.86143c-2.05182,1.68457 -4.66591,4.27975 -7.18382,3.43838c-2.10524,-0.70348 -1.41808,-4.22998 -1.75208,-6.42438c-1.06564,-7.00152 -0.18,-14.91012 -0.02435,-22.15722l-0.14915,-0.19887c-1.22049,1.68044 -2.5807,3.07662 -3.93412,5.13216l-1.65993,3.20983c-0.4072,0.82848 -1.2595,1.39868 -2.24497,1.39868c-1.38071,0 -2.5,-1.11929 -2.5,-2.5v-4.5045h0.09858c-0.01139,-0.13368 -0.02011,-0.26772 -0.0259,-0.40214c-0.04584,0.25553 -0.13093,0.48838 -0.30942,0.66841c-0.99831,1.00693 -2.45897,1.42065 -3.74663,2.01433c-2.40074,1.10686 -5.06032,1.64488 -7.36778,2.93496c-2.09182,1.16952 -5.85978,4.07581 -7.77665,5.50745c0.55432,0.11074 1.11751,0.28675 1.68975,0.53725c0.59221,0.25924 6.36028,7.52729 6.91703,8.25279c2.62712,3.42339 5.54406,7.10121 7.70702,10.81909c2.11226,3.63072 3.28216,8.22068 4.60307,12.18192c0.38442,1.15284 0.8895,2.28254 1.37622,3.41576c0.75593,-5.27093 1.33922,-10.46012 1.33922,-15.8998c0,0 0,-2.5 2.5,-2.5c2.5,0 2.5,2.5 2.5,2.5c0,7.757 -1.13012,15.0445 -2.30993,22.71323l-0.65272,4.24271c1.20218,-0.43017 2.42915,-0.76019 3.69369,-0.9114c5.94281,-0.71058 12.17698,0.69831 18.11657,-0.17701c1.65819,-0.24437 3.18615,-1.13674 4.85237,-1.31842c1.33626,-0.1457 2.75146,0.80372 4.01722,0.35129c0.65193,-0.23302 0.38651,-1.32961 0.57976,-1.99441c0,0 1.11803,-2.23607 3.3541,-1.11803c2.23607,1.11803 1.11803,3.3541 1.11803,3.3541c-0.80775,1.3372 -1.03665,3.29193 -2.42324,4.0116c-1.7731,0.92027 -4.00841,0.04689 -5.98278,0.35129c-1.63788,0.25252 -3.15546,1.07496 -4.79587,1.31053c-6.00944,0.86297 -12.26308,-0.44404 -18.27122,0.19704c-3.05094,0.32554 -5.73466,2.1862 -8.57164,3.35487c-1.68425,0.69381 -4.11299,-0.57986 -2.98173,3.09541c0.3922,1.27418 1.61606,2.12187 2.37637,3.217c0.92961,1.33898 1.7348,2.76304 2.69159,4.08274c1.90564,2.62843 3.91294,5.18929 6.05663,7.62745c3.43803,3.9103 6.95475,4.866 11.76857,6.52011c1.57155,0.54098 3.14311,1.08196 4.71466,1.62294l4.67938,1.56461c1.02044,0.31486 1.76194,1.26547 1.76194,2.38927c0,1.37521 -1.11038,2.49107 -2.4835,2.49995l-4.99747,0.03776c-1.16159,0.20355 -8.49728,-0.10421 -9.76481,0.02659c-1.62853,0.16806 -3.18709,0.77535 -4.80902,0.99828c-0.08735,0.01201 -7.67748,0.60889 -8.69147,0.51608c-0.51591,-0.04722 -1.20704,-1.05615 -1.43707,-0.59195c-0.50846,1.02611 0.12579,2.29442 0.02805,3.43542c-0.63359,7.39681 -1.23985,14.11455 1.84685,21.19056c0.88347,2.02528 5.83059,5.72088 0.97394,8.52761c-2.05036,1.18493 -4.69083,-0.69412 -6.99576,-1.23754c-6.28021,-1.48062 -12.7662,-3.68144 -18.67238,-6.2408c-0.38552,-0.16754 -9.30678,-4.03612 -9.48385,-4.14859c-0.44833,-0.28474 -0.2106,-1.53843 -0.72773,-1.41742c-0.67292,0.15746 -0.73741,1.17794 -0.99296,1.82005c-1.008,2.53275 -0.66273,5.41499 -1.16041,8.09514c-0.34829,1.87564 -0.88768,3.76687 -1.84259,5.41838c-0.64514,1.11576 -1.84744,1.79958 -2.81993,2.64538c-0.05194,0.04517 -0.15204,0.10164 -0.25453,0.1532c4.08891,-1.64939 10.09748,1.44253 13.73653,3.25652l2.78778,0.70438c1.11036,0.2548 1.93853,1.24904 1.93853,2.4367c0,1.22888 -0.88665,2.25067 -2.05512,2.46053l-4.85749,0.9715l-0.07697,-0.38487c-0.73347,0.27919 -1.4694,0.55155 -2.20658,0.81902c-1.12813,0.40932 -2.06004,1.35083 -3.23996,1.56994c-2.53131,0.47006 -8.56108,-0.99686 -11.06891,1.05515c-1.08115,0.88464 -1.45301,2.38673 -2.21086,3.56024c-0.88163,1.36517 -1.7318,2.75473 -2.70692,4.05477c-0.49266,0.65682 -2.07382,1.07606 -1.68326,1.79828c0.62475,1.1553 2.5918,0.79695 3.56415,1.67988c0.88256,0.8014 1.2051,2.05215 1.77471,3.10466l3.75793,2.50529c0.68925,0.44514 1.14551,1.2201 1.14551,2.10163c0,1.38071 -1.11929,2.5 -2.5,2.5c-0.32273,0 -0.63119,-0.06115 -0.9144,-0.17251l-4.64047,-1.70024c-6.19048,-1.10314 -12.86611,-4.68266 -18.78516,-6.84862c-3.14406,-1.15051 -5.61802,-1.76376 -8.10227,-3.63017c0.2545,0.63336 0.48503,1.2755 0.66826,1.93186c0.67038,2.40142 0.59956,4.9941 1.44994,7.33784c0.40932,1.12813 1.27726,2.0761 1.56994,3.23996c0.24412,0.97078 -0.17135,2.01678 0,3.003c0.37194,2.14077 4.74354,2.51523 4.5391,4.67843c-0.75848,8.02559 -4.23477,4.94132 -8.00096,5.85835c-2.61877,0.63764 -4.99252,2.0338 -7.50751,3.003c-3.33043,0.01492 -6.62242,0.75236 -9.9027,1.32831c-1.13282,0.1989 -2.30423,0.01295 -3.44777,0.1361c-0.51823,0.05581 -1.37217,-0.10404 -1.51219,0.39803c-0.3317,1.18946 0.32034,2.45197 0.37337,3.68567c0.07158,1.66513 0.05559,3.33426 0,5c-0.04263,1.27736 -0.92498,2.71118 -0.29446,3.8229c1.9418,3.42373 10.11328,0.9652 7.14344,9.00485c-0.83334,2.25594 -4.50794,1.70025 -6.83173,2.3197c-5.24861,1.39912 -11.63578,0.75537 -16.66849,2.72412c-1.40743,0.55058 -2.573,1.58614 -3.865,2.37018c-1.09745,0.66597 -2.1134,1.498 -3.30326,1.97981c-0.56759,0.22983 -1.55505,-0.44441 -1.83432,0.10056c-0.24448,0.47709 0.95856,0.5379 1.29207,0.95762c1.0356,1.30328 1.93201,2.71689 2.77042,4.15496c0.52116,0.89392 4.38771,8.75469 4.76875,9.52522c0.07325,1.14663 0.14649,2.29327 0.21974,3.4399l1.32389,2.53623c0,0 1.11803,2.23607 -1.11803,3.3541c-2.23607,1.11803 -3.3541,-1.11803 -3.3541,-1.11803l-1.67912,-3.46978c-0.07218,-1.1427 -0.14436,-2.28539 -0.21654,-3.42809c-2.1802,-4.18873 -4.99729,-8.29161 -7.03956,-12.48487c-0.778,-1.59743 -2.23627,-3.35101 -1.71093,-5.04839c0.50085,-1.61828 2.75456,-1.97431 4.17169,-2.90245c2.54469,-1.66664 5.00973,-3.56157 7.84675,-4.65903c3.74206,-1.44755 8.67038,-1.49047 12.64676,-2.14856c1.6443,-0.27213 3.26645,-0.78931 4.9329,-0.81639c1.03682,-0.01685 2.26557,1.38311 3.03407,0.68692c0.66173,-0.59946 -1.58805,-0.82578 -2.32617,-1.32821c-1.57874,-1.07464 -3.74293,-1.69673 -4.61431,-3.39614c-0.94055,-1.83429 -0.24017,-4.11645 -0.29446,-6.1771c-0.03733,-1.41697 -0.05116,-10.53636 0.37337,-11.31433c0.82937,-1.51985 2.85329,-2.05138 4.49382,-2.60497c1.24383,-0.41973 2.63839,-0.00903 3.93101,-0.23796c3.2271,-0.57152 6.46826,-1.31617 9.74554,-1.30064c1.74041,-0.73126 6.52105,-2.76401 7.50751,-3.003c0.81743,-0.19805 1.67855,0.17613 2.51906,0.14519c0.50648,-0.01864 1.94045,-0.05673 1.49199,-0.29285c-0.68043,-0.35826 -1.75076,0.40089 -2.30305,-0.13419c-1.79994,-1.74383 -1.56268,-4.76717 -2.16686,-7.19939c-0.25034,-1.00778 -1.08259,-1.78857 -1.43306,-2.76604c-0.8812,-2.4577 -0.9185,-5.14457 -1.55307,-7.67718c-0.90031,-3.59323 -4.08336,-8.10867 1.9762,-10.61014c0.45177,-0.1865 7.34942,4.62163 7.5758,4.73518c4.24729,2.13026 9.35352,3.38545 13.82153,5.01168c0.01071,0.0039 0.53751,0.19543 1.33676,0.48621c-0.3247,-0.32193 -0.57174,-0.69544 -0.69396,-1.15413c-0.53382,-2.00331 4.02832,-8.31671 5.07783,-9.85046c1.09422,-1.5991 1.78806,-3.59498 3.33614,-4.76027c4.66236,-3.5095 8.0729,-1.02039 12.95511,-1.94786c1.16981,-0.22223 1.79032,-0.65535 2.31299,-1.07157c-1.92131,-0.6384 -3.82034,-1.03127 -6.48946,-1.51499c-1.50265,-0.27232 -3.58089,0.4807 -4.52443,-0.72007c-1.18485,-1.50786 -1.07766,-3.88614 -0.54193,-5.72748c0.43123,-1.48216 2.36769,-2.0518 3.18607,-3.36062c3.39017,-5.42184 -1.24432,-15.50728 8.01605,-17.69947c1.35454,-0.32066 2.33726,1.52245 3.57872,2.15204c2.8684,1.45468 5.90922,2.54096 8.8589,3.82284c4.60278,2.00642 9.15684,3.16979 13.94336,4.64459c1.82806,0.56326 3.21102,0.85272 4.48773,1.52578c-0.08165,-0.14072 -0.15549,-0.28549 -0.22,-0.4345c-0.72061,-1.66428 -1.03164,-3.47743 -1.53229,-5.22055c-1.78286,-6.20737 -2.17359,-12.60539 -0.75627,-18.99147c0.47973,-2.16154 0.20098,-4.77372 1.67204,-6.42852c0.49316,-0.55475 6.77014,-0.66011 7.89192,-0.72515c3.75127,-0.21749 7.27031,-0.83331 10.90585,-1.1607c-3.79829,-1.4466 -6.91043,-3.09111 -10.03853,-6.55454c-0.0496,-0.05492 -6.32038,-7.94781 -6.37326,-8.02074c-0.54654,-0.75383 -5.89764,-8.90329 -5.94853,-9.39269c-0.82304,-7.91545 1.4736,-6.45073 5.98188,-8.55045c0.65159,-0.30348 1.30384,-0.61956 1.95905,-0.93411c-0.29726,-0.28885 -0.52294,-0.65098 -0.64788,-1.05723l-1.56291,-4.68873c-3.29081,-6.30934 -3.6022,-14.16482 -7.24967,-20.37329c-1.63802,-2.78812 -3.77398,-5.25205 -5.65321,-7.88363c-1.5066,-2.10977 -3.17638,-4.09832 -4.73644,-6.16888c-0.71007,-0.94242 -0.99969,-2.30758 -2.01333,-2.91164c-2.14512,-1.27836 -5.01665,1.93829 -6.0371,2.68727c-1.3436,0.98616 -2.68862,1.97171 -4.06867,2.90619c-0.55332,0.37468 -1.44461,0.41253 -1.72689,1.01822c-0.99556,2.13618 -0.7569,4.6539 -1.2362,6.96142l-0.22366,0.25917l0.09505,0.04752l-1.47728,2.95456c-0.40086,0.84561 -1.26228,1.43041 -2.26029,1.43041c-1.1246,0 -2.07576,-0.74256 -2.38994,-1.76412l-1.48327,-4.44981l0.09214,-0.03071c-0.10576,-0.69161 -0.09139,-1.57717 -0.47709,-1.27503c-0.83977,0.65783 -0.4518,2.11054 -0.93972,3.05917c-0.76231,1.48211 -1.849,2.7735 -2.7735,4.16025c-1.76347,2.64521 -4.08283,4.98571 -5.32629,7.91158c-1.63796,3.85412 -2.0493,9.08821 -2.88706,13.3345c1.30569,0.41725 2.42816,1.08693 3.20001,2.13748c1.27807,1.73956 0.3813,4.30195 0.46971,6.45873c0.1731,4.22288 1.73846,18.01458 -6.64805,10.11448c-3.37272,-3.17711 -2.83576,-6.23401 -2.85646,-10.1295c-0.00771,-1.45062 0.05297,-2.79469 0.16892,-4.0903c-1.5911,-0.00168 -3.18481,0.08089 -4.77597,0.05652c-4.79763,1.55048 -6.00291,3.1561 -8.04276,7.68761l-0.37897,3.59176c-0.11778,1.27119 -1.18728,2.26642 -2.48923,2.26642c-1.20127,0 -2.20466,-0.84727 -2.44517,-1.97681l-1.13357,-4.81767c-1.28753,-3.07464 -1.52693,-6.48945 -2.29039,-9.73417c-1.13959,-4.84327 -2.21238,-9.47538 -3.91087,-14.15579c-0.56854,-1.5667 -1.22991,-3.10289 -1.70361,-4.70082c-0.25069,-0.84565 0.16061,-1.98088 -0.46226,-2.60538c-0.5022,-0.50351 -1.67664,-0.54213 -2.13344,0.00291c-0.77019,0.91895 -0.45344,2.35967 -0.80692,3.50541c-0.986,3.19599 -2.26243,6.29553 -3.45719,9.41947c-1.63868,4.28465 -4.49985,9.07101 -5.43542,13.55408c-0.65164,3.12255 -0.1708,6.3774 -0.27488,9.56552c-0.04379,1.34148 -0.08758,2.68295 -0.13138,4.02443c1.66582,2.16177 2.54576,4.80967 2.40217,8.45071c-0.07782,1.97321 -0.6521,3.7244 -1.46669,5.36983l-1.35842,4.75448c-0.28053,1.07387 -1.25721,1.86634 -2.41899,1.86634c-1.38071,0 -2.5,-1.11929 -2.5,-2.5v-2.50751c0.00011,-1.68026 0.00022,-3.36053 0.00033,-5.04079c0.09871,-3.03058 0.19757,-6.06116 0.29647,-9.09174c-2.01446,-1.68792 -6.58803,-4.41279 -9.08436,-3.48976c-1.33715,0.49442 -2.32099,1.65644 -3.49796,2.4609c-2.62163,1.79189 -5.65381,3.05479 -7.95156,5.24663c-2.61926,2.49854 -4.05574,7.30284 -5.32722,10.48561l-1.12442,2.81106c-0.35452,0.94948 -1.26971,1.62559 -2.34282,1.62559c-0.99801,0 -1.85943,-0.58479 -2.26029,-1.43041l-1.47728,-2.95456l0.03277,-0.01639c-0.06448,-0.11651 -0.12559,-0.23518 -0.18299,-0.35623c-0.77124,-1.62661 -0.53558,-3.56032 -0.7957,-5.34161c-0.63997,-4.38256 -0.51946,-10.20111 -2.00164,-14.3643c-1.06244,-2.98423 -3.31166,-5.40105 -4.94615,-8.11451c-2.62625,-4.35989 -4.84952,-7.98387 -8.28791,-11.7219c-0.76993,-0.83703 -2.62894,-4.34276 -4.80803,-2.60746c-0.97098,0.77323 -0.86911,2.32863 -1.40135,3.44996c-1.30128,2.74155 -2.41759,5.6292 -2.92645,8.62094c-0.75574,4.44326 -1.48767,8.31409 -1.47802,12.81695v4.5045c0,0 0,2.5 -2.5,2.5c-2.5,0 -2.5,-2.5 -2.5,-2.5v-4.5045c0.00932,-4.77954 0.72181,-8.96544 1.55147,-13.67084c0.31184,-1.76859 0.37257,-3.60265 0.94984,-5.30321c0.32227,-0.94937 5.19962,-9.9182 5.71689,-10.19215c5.80621,-3.07495 7.78629,0.20018 10.99625,3.41655c3.84687,3.85456 6.18005,7.97907 8.9703,12.61124c0.31389,0.5211 5.26384,8.70929 5.37355,9.01745c0.61458,1.72627 0.55903,3.62195 0.82679,5.43469c0.48708,3.29755 0.95391,6.5981 1.41421,9.89949c0.02799,0.20073 0.05922,0.40631 0.09134,0.61525c1.23017,-3.03094 2.70293,-6.12354 4.92547,-8.29073c0.20617,-0.20103 8.21958,-5.54087 8.68945,-5.84737c1.59847,-1.0427 2.98931,-2.55546 4.82254,-3.08611c4.76647,-1.3797 6.14432,0.02653 9.73525,2.18102c0.33396,0.20037 0.65984,0.40148 0.97724,0.60414c0.01779,-0.54552 0.31975,-10.14534 0.37762,-10.42266c0.99191,-4.75306 3.92181,-9.77422 5.65987,-14.31874c0.0165,-0.04314 3.42432,-9.33397 3.43342,-9.35603c0.81921,-1.98671 0.76314,-4.8328 2.63839,-5.88234c2.28818,-1.28066 5.51375,-1.15474 7.86656,0.00291c0.76386,0.37584 3.69092,8.85351 3.99598,9.69637c1.76088,4.86521 2.89326,9.68275 4.07713,14.7142c0.39914,1.69635 1.04198,3.36916 1.54629,5.05535c0.87158,-1.4405 2.04319,-2.69992 4.14743,-4.02013c1.61598,-1.01387 3.61225,-1.2284 5.41838,-1.84259c1.67419,-0.01859 3.98634,-0.25889 6.31631,-0.2451c0.26928,-1.41784 0.58538,-2.87297 0.9301,-4.44611c0.12193,-0.55642 2.16262,-9.93064 2.28173,-10.21093c0.11912,-0.28028 5.45174,-8.25547 5.76771,-8.72942c1.03726,-1.5559 5.91261,-9.26205 7.38078,-9.42159c2.72782,-0.29642 4.13655,0.34792 4.81737,1.41097c0.32295,-1.55168 0.64261,-2.91971 0.8371,-3.28357c0.60336,-1.12878 1.9929,-1.6076 3.01946,-2.37203c2.25185,-1.67686 4.72914,-4.03774 7.46293,-5.46748c-0.23618,-0.38171 -0.3725,-0.83172 -0.3725,-1.31357c0,-0.57191 0.19204,-1.09897 0.51515,-1.5202l2.98485,-3.9798l0.34934,0.26201c0.76637,-1.50681 1.57578,-2.98176 2.42185,-4.44024c-1.91636,1.14942 -3.94456,1.81023 -6.77419,1.66772c-1.49465,-0.07527 -3.36763,0.54591 -4.46478,-0.47189c-0.8287,-0.76877 -2.04435,-4.45808 -2.94783,-7.47044c-0.87568,0.75885 -1.93531,1.35693 -2.81944,2.10833c-2.9032,2.46734 -9.24568,9.99673 -14.05824,5.10177c-0.9908,-1.00776 -0.94624,-2.48519 -0.77461,-4.02026c-0.85117,0.30016 -1.74239,0.53502 -2.54523,0.92876c-5.63082,2.7616 -10.75381,7.03224 -17.03446,8.29596c-0.58553,0.11781 -7.09138,0.00172 -7.36317,-0.15802c-5.0483,-2.96701 -6.16524,-5.45949 -4.38547,-10.69939c0.52486,-1.54527 2.17954,-2.52537 2.73775,-4.05891c0.67752,-1.86131 -0.40718,-4.37055 0.87896,-5.87699c1.03428,-1.21144 3.15232,-0.46062 4.72847,-0.69093h1.5015c0,0 2.5,0 2.5,2.5zM166.71337,19.96596c0.26272,-0.51355 1.42287,-0.61189 1.57231,-1.2379c0.09651,-0.4043 -0.97189,-0.46773 -1.2381,-0.14851c-0.3002,0.35998 -0.29751,0.8856 -0.33421,1.38641zM112.9361,80.69993c-0.13723,0.98366 -0.23887,1.98851 -0.27842,2.97458c0.26763,-0.99817 0.84764,-2.03434 0.35185,-2.86786c-0.02264,-0.03806 -0.04716,-0.07359 -0.07343,-0.10673z" fill="#00e2ff" stroke="none" stroke-width="0.5" stroke-linecap="butt"/><path d="M321.86356,-22.00226c2.23607,1.11803 1.11803,3.3541 1.11803,3.3541l-1.24001,1.77461c1.71098,2.22028 4.96762,3.41904 5.78936,6.09894c0.763,2.48834 0.8582,5.57909 -0.51315,7.7912c-0.84771,1.36743 -3.16581,0.62002 -4.77077,0.73223c-2.46201,0.17213 -4.99135,-0.97942 -6.99935,-2.41436c-2.72381,-2.09349 -5.33585,-4.34965 -7.7494,-6.79436c-0.32189,-0.32604 -3.78173,-4.46064 -5.31556,-4.4951c-0.42254,-0.00949 -0.0226,0.84505 -0.02509,1.26769c-0.00588,1.00098 0.24278,2.03189 0,3.003c-0.27143,1.08574 -1.22562,1.91839 -1.5015,3.003c-0.27836,1.09435 0.37702,2.37309 -0.12342,3.38533c-0.70994,1.436 -2.31013,2.23664 -3.2846,3.50807c-0.86886,1.13364 -1.00061,2.91643 -2.21528,3.66785c-0.50856,0.31461 -1.27628,0.53655 -2.069,0.6241c0.65564,0.60684 1.22255,1.285 1.58296,2.08377c0.72113,1.59821 -0.26182,3.58482 0.27897,5.25271c1.48471,4.57918 6.11259,4.39797 2.52087,10.74664c-0.92432,1.63382 -3.08684,2.47263 -4.95241,2.68088c-1.80756,0.20177 -3.49787,-0.99982 -5.23338,-1.54387c-2.61754,-0.82054 -5.19916,-1.7598 -7.74645,-2.7777c-7.65879,-3.09901 -12.75079,-9.02532 -19.7955,-13.08834c-1.3586,-0.78357 -2.97695,-1.04682 -4.3315,-1.83736c-0.91329,-0.53301 -1.49406,-1.52457 -2.39039,-2.08565c-0.35925,-0.22489 0.52781,0.66921 0.72607,1.04382c0.72502,1.36996 1.59607,2.69385 2.03821,4.17943c1.15409,3.8777 2.54177,11.70101 1.4513,15.69184c-0.46172,1.68976 -1.19227,3.54075 -2.6203,4.55525c-1.17757,0.83657 -2.87472,0.29979 -4.31733,0.37337c-3.97893,0.20295 -8.02722,0 -12.01201,0c0,0 -2.5,0 -2.5,-2.5c0,-2.5 2.5,-2.5 2.5,-2.5c3.003,0 6.00601,0 9.00901,0c1.001,0 2.00516,-0.07941 3.003,0c0.57467,0.04573 1.17723,0.63939 1.68868,0.37337c0.4437,-0.23078 0.35181,-0.95158 0.38271,-1.45076c0.0773,-1.24874 0.04888,-2.50657 -0.06059,-3.7529c-0.27576,-3.1397 -0.41666,-6.34266 -1.31654,-9.36326c-0.50929,-1.70951 -2.12639,-3.09866 -2.19328,-4.88117c-0.07982,-2.12708 -0.12489,-5.18273 1.77998,-6.13263c2.10276,-1.04858 4.57588,1.09877 6.80106,1.85354c9.10377,3.08797 15.11281,11.36525 24.01436,14.87904c2.45568,0.98329 4.98047,1.78431 7.47063,2.67667c1.39949,0.50151 3.94728,2.40839 4.3514,0.97774c0.8029,-2.84236 -2.29665,-4.30941 -3.02613,-6.58287c-0.48288,-1.50492 0.56143,-3.29727 -0.0822,-4.74077c-1.06575,-2.39018 -7.3307,-3.73991 -4.33767,-8.29055c0.9496,-1.44378 3.34972,-0.90849 5.06813,-1.091c0.57326,-0.06089 1.23706,0.73168 1.68868,0.37337c0.64428,-0.51117 0.30472,-1.6725 0.78772,-2.33815c0.72316,-0.99661 2.16411,-1.39993 2.72141,-2.49794c0.39581,-0.77983 -0.33157,-1.77128 -0.12342,-2.62068c0.26637,-1.08699 1.23007,-1.91726 1.5015,-3.003c0.66748,-2.6699 -1.77655,-6.25273 2.97792,-7.74132c2.22096,-0.69537 4.70929,0.61369 6.77554,1.68457c1.64984,0.85507 2.66724,2.58819 3.98897,3.89439c2.28813,2.26126 4.70186,4.40748 7.2567,6.36237c0.58561,0.50482 1.0269,1.25951 1.75682,1.51445c0.69348,0.24221 1.47608,-0.2589 2.1997,-0.13258c0.47152,0.08232 1.02496,1.16222 1.23524,0.73223c0.33207,-0.67903 -0.04663,-1.61407 -0.51315,-2.2088c-0.89369,-1.13931 -2.47556,-1.60245 -3.3698,-2.74134c-1.21803,-1.55126 -1.9019,-3.45583 -2.85286,-5.18375l1.763,-4.23139c0,0 1.11803,-2.23607 3.3541,-1.11803z" fill="#00e2ff" stroke="none" stroke-width="0.5" stroke-linecap="butt"/><path d="M616.15786,101.0885c-2.23607,1.11803 -3.3541,-1.11803 -3.3541,-1.11803l-1.69651,-3.53804c-0.01079,-1.52308 0.32833,-3.08945 -0.03237,-4.56924c-0.77898,-3.19579 -3.38254,-5.69851 -4.43722,-8.81421c-1.22208,-3.61024 -1.66435,-9.83842 -1.60123,-13.58762c0.01938,-1.15095 0.94499,-2.2452 0.72811,-3.3757c-0.09018,-0.47008 -0.76015,0.67392 -1.23524,0.73223c-0.57219,0.07023 -1.24065,-0.73616 -1.68868,-0.37337c-0.67186,0.54404 -0.32011,1.77538 -0.86828,2.44388c-0.83858,1.02263 -2.45509,1.29905 -3.13241,2.43493c-0.83193,1.39514 -0.43652,3.27471 -1.14414,4.73683c-0.49505,1.0229 -1.55083,1.66178 -2.34567,2.47396c-2.87481,2.93752 -5.791,6.56608 -9.13082,8.99283c-1.59956,1.16226 -3.05669,2.79122 -4.98956,3.20771c-2.28899,0.49322 -4.66449,-0.41664 -6.99673,-0.62496c-0.3662,-2.30093 -0.74537,-4.6009 -1.20461,-6.88508c-0.31831,-1.58321 -0.57987,-3.17854 -0.94538,-4.75152c-0.27468,-1.18212 -0.23439,-2.54588 -0.97389,-3.50817c-0.56986,-0.74155 -1.87274,-0.49507 -2.57614,-1.1114c-0.7483,-0.65567 -0.77843,-1.94386 -1.58131,-2.53143c-0.32716,-0.23942 0.0496,0.91882 -0.2519,1.18985c-2.11247,1.89897 -4.9993,2.99638 -6.68892,5.27976c-0.74329,1.0045 -0.87332,2.43034 -1.76184,3.30899c-0.67414,0.66665 -2.23652,0.19207 -2.64414,1.04806c-0.64556,1.35564 0.75242,3.20513 0,4.5045c-0.2979,0.51444 -6.89502,4.06876 -7.74997,4.15922c-4.38915,0.4644 -6.59477,-1.3847 -10.18226,-3.34741c-7.58011,-4.14706 -13.20818,-11.06078 -19.25554,-17.18087c-0.96503,-1.89008 -3.17411,-6.19303 -3.9779,-7.88362c-0.58293,-1.22607 -0.99583,-2.53494 -1.65871,-3.7197c-0.16677,-0.29806 -0.5614,-0.9093 -0.78855,-0.65424c-0.89068,1.00009 -0.89087,2.61689 -1.8191,3.58223c-1.13696,1.18242 -2.87613,1.60883 -4.15736,2.63315c-5.64021,4.50927 -8.75694,10.90697 -16.79634,11.56617c-2.0977,0.172 -4.41217,0.46614 -6.29661,-0.47132c-1.11613,-0.55525 -0.87196,-2.35205 -1.51978,-3.41712c-0.79162,-1.3015 -1.85297,-2.41848 -2.76967,-3.63513c-2.82067,-3.74364 -3.84874,-4.67765 -5.5976,-9.16137c-1.85509,-4.75606 -1.9172,-10.42472 -2.25426,-15.42031c-0.00883,-0.13094 -0.17042,0.20103 -0.23872,0.3131c-0.60079,0.98576 -1.17822,1.98556 -1.76733,2.97834c-2.817,3.97186 -4.98663,9.70632 -8.2568,13.20899c-0.67683,0.72495 -1.94254,0.57418 -2.736,1.16922c-1.95533,1.46637 -3.39733,3.56278 -5.41074,4.94832c-1.73692,1.19527 -3.17953,3.26067 -5.27549,3.4899c-1.86603,0.20408 -3.83085,-0.98529 -5.11615,-2.3534c-1.24044,-1.32035 -1.13152,-3.44997 -1.88415,-5.09787c-1.2023,-2.63246 -3.1402,-4.8723 -4.47284,-7.44124c-1.13565,-2.1892 -1.04555,-5.01349 -2.60309,-6.92564c-0.7175,-0.88086 -2.25968,-0.71586 -3.03951,-1.54205c-1.56392,-1.6569 -1.63645,-4.64413 -3.59008,-5.81653c-1.12713,-0.6764 -2.55897,-0.60528 -3.84818,-0.86194c-0.53414,-0.10634 -1.18803,-0.56045 -1.6181,-0.22632c-1.13113,0.8788 -1.42853,2.56571 -2.54617,3.46161c-0.25567,0.20494 -6.70958,3.41892 -7.92575,4.02701c-0.75855,0.31734 -1.70449,0.36051 -2.27565,0.95201c-0.52586,0.5446 -0.26735,1.54826 -0.72264,2.1531c-1.87585,2.492 -4.73902,4.12958 -6.60215,6.63111c-5.3042,7.12168 -8.9485,19.8412 -19.55337,20.26462c-11.57517,0.46216 -13.6883,-11.64828 -15.79659,-20.08143c-0.80845,-3.23381 -1.63656,-6.46277 -2.42536,-9.70143c-0.35238,-1.4468 -0.37992,-3.00663 -1.02761,-4.3475c-1.15994,-2.40136 -3.31695,-4.18075 -4.84869,-6.36381c-0.64001,0.08225 -1.27515,0.26937 -1.92003,0.24674c-0.57613,-0.02022 -1.23706,-0.73168 -1.68868,-0.37337c-0.64428,0.51117 -0.30834,1.66989 -0.78772,2.33815c-1.65032,2.30053 -4.31513,3.73511 -6.00601,6.00601c-0.66838,0.89765 -0.82656,2.11028 -1.5015,3.003c-2.03197,2.68763 -8.26746,8.62157 -11.67878,8.46198c-1.4979,-0.07008 -1.52414,-2.63611 -2.6276,-3.65149c-0.71858,-0.66121 -1.84792,-0.6822 -2.6643,-1.21798c-2.63461,-1.72907 -4.91276,-4.83017 -8.15432,-5.62417c-2.24479,-0.54985 -4.62198,0.06688 -6.93313,0.06688c-5.00501,0 -10.01001,0 -15.01502,0c-0.65459,0 -6.22129,0.01871 -6.58039,-0.06688c-1.08866,-0.25947 -1.91726,-1.2301 -3.003,-1.5015c-0.97647,-0.24409 -2.05167,0.27222 -3.01956,-0.00397c-1.44183,-0.41143 -2.80898,-1.13045 -4.02583,-2.00648c-0.91191,-0.6565 -1.23003,-2.03752 -2.24907,-2.51093c-0.4693,-0.21802 0.27688,1.03789 0.16653,1.54346c-0.33104,1.5166 -0.93453,2.96173 -1.46808,4.41946c-1.42339,3.88887 -3.41306,11.11965 -7.16948,13.34453c-4.5929,2.72032 -5.89673,-1.13718 -8.64743,-3.17908c-2.02011,-1.49957 -4.43437,-1.38571 -6.312,-3.26334c-2.672,-2.672 -3.66926,-7.24751 -3.73524,-10.77678c0,0 0,-2.5 2.5,-2.5c2.5,0 2.5,2.5 2.5,2.5c-0.0601,2.18237 0.6102,5.58068 2.27077,7.24124c1.49094,1.49094 4.01976,1.46886 5.70001,2.74266c1.16732,0.88495 2.4071,3.93552 3.36459,2.82692c3.59974,-4.16786 3.92543,-10.55096 6.37745,-15.26904c0.84138,-1.61895 1.36636,-4.1842 3.16953,-4.46254c3.17067,-0.48944 5.78976,3.7343 8.74011,4.4916c0.96423,0.2475 2.02069,-0.24543 2.98645,-0.00397c1.08573,0.27146 1.92096,1.21571 3.003,1.5015c1.75064,0.46239 3.62095,-0.06688 5.43162,-0.06688c5.00501,0 10.01001,0 15.01502,0c2.69406,0 5.47032,-0.59466 8.08189,0.06688c3.93291,0.99624 6.68811,4.24063 9.86369,6.38784c1.04615,0.70737 2.49796,0.84539 3.3417,1.78502c0.53099,0.59134 -0.41924,2.34136 0.3754,2.35452c1.01219,0.01676 1.27409,-1.5757 1.96481,-2.31577c1.19564,-1.28106 3.42919,-2.9655 4.37442,-4.23726c0.6676,-0.89823 0.82722,-2.10978 1.5015,-3.003c1.70581,-2.2597 4.26614,-3.77242 6.00601,-6.00601c0.87772,-1.1268 1.00061,-2.91643 2.21528,-3.66785c1.22787,-0.75959 7.07791,-0.20667 8.40331,-0.12663c0.62624,0.72085 6.54077,7.36898 7.16332,8.65121c0.80559,1.65923 0.94064,3.56701 1.39775,5.35393c1.58344,6.18997 2.55959,12.90163 4.71268,18.91228c1.21669,3.39656 4.09889,7.46513 8.36547,7.09185c5.82811,-0.50989 7.00052,-4.84187 9.69982,-9.06286c1.36807,-2.1393 3.15972,-3.98365 4.56575,-6.0982c0.62699,-0.94294 0.84258,-2.13184 1.52468,-3.03571c1.83452,-2.43096 4.65204,-4.00627 6.47492,-6.44596c0.60678,-0.81209 0.4907,-2.07889 1.2153,-2.78785c1.01428,-0.99237 2.4869,-1.36733 3.73036,-2.05099c2.33302,-1.16651 4.98613,-1.82065 7.02453,-3.44813c1.40412,-1.12106 1.94627,-3.21963 3.52458,-4.07826c1.28652,-0.6999 2.93565,-0.41593 4.3879,-0.22632c5.77882,0.75449 6.64673,1.43366 9.98415,6.21622c0.42012,0.60204 0.07789,1.59983 0.59561,2.12034c0.77731,0.7815 2.29268,0.58865 2.9665,1.46095c1.80303,2.33416 2.06368,5.51956 3.40291,8.08937c1.36,2.60965 3.37118,4.87143 4.53617,7.57377c0.53682,1.24523 0.57229,2.67016 1.11885,3.91114c0.14803,0.33609 0.56333,0.81769 0.88985,0.64961c2.92934,-1.50788 5.8893,-5.76104 8.39685,-7.64186c0.62268,-0.46705 1.67466,-0.19894 2.20495,-0.76872c0.94726,-1.01781 1.27315,-2.47268 1.94481,-3.69009c1.64742,-2.98602 3.5317,-5.84199 5.50132,-8.62604c1.74926,-2.23147 4.63495,-8.46036 9.31805,-4.21647c0.92205,0.83558 1.98197,8.50439 2.3446,10.46586c1.14425,6.18913 2.45743,9.80577 6.2771,14.93321c1.08135,1.45158 2.36471,2.77614 3.22574,4.36831c0.26355,0.48735 -0.47311,1.4415 0.03528,1.66176c0.84205,0.36482 1.81499,-0.27951 2.7124,-0.47132c2.70429,-0.578 5.36136,-1.8632 7.42116,-3.70831c0.45564,-0.40815 6.80462,-6.75318 6.8776,-6.8116c1.15395,-0.92375 2.70832,-1.29673 3.78659,-2.30779c1.466,-1.37461 1.81794,-4.11315 3.7279,-4.73827c5.38091,-1.76115 6.94304,3.91438 8.48988,6.88483c1.09107,2.09523 2.47404,4.96104 3.56198,7.19613c5.60482,5.52669 10.69391,11.91827 17.60406,15.72068c1.8148,0.99862 4.55533,3.1187 7.0122,2.79008c0.85822,-0.11479 1.47315,-0.92277 2.26763,-1.26703c0.63525,-0.27526 1.74159,0.06475 1.99441,-0.57976c0.54832,-1.3978 -0.6932,-3.1726 0,-4.5045c0.59847,-1.1499 2.45009,-1.03347 3.36186,-1.95494c0.69607,-0.70347 0.6426,-1.90891 1.24116,-2.69701c2.41352,-3.1778 4.37135,-4.10284 7.63759,-6.27325c1.14447,-0.7605 2.08128,-2.47984 3.43961,-2.27216c1.85375,0.28343 2.87626,2.4167 4.42469,3.47458c1.07806,0.73652 2.65426,0.8413 3.42986,1.8916c2.11089,2.85853 4.54797,11.45769 2.88214,14.88525c4.43952,-1.3788 7.31313,-4.84245 10.51051,-8.04004c1.66728,-1.66739 4.11321,-2.78044 5.06574,-4.93746c0.6904,-1.56343 0.39827,-3.50126 1.28122,-4.9646c0.77393,-1.28266 2.46972,-1.74694 3.45124,-2.87866c0.90696,-1.04576 0.95294,-2.84129 2.13472,-3.56213c0.94526,-0.57657 8.43073,-0.52058 9.0881,0.35886c1.32997,1.77927 0.47963,4.41685 0.72811,6.6243c0.42405,3.76725 0.15301,8.86644 1.40177,12.44842c0.96902,2.77956 3.7887,6.2818 4.50706,9.07434c0.37945,1.4751 0.02158,3.04616 0.03237,4.56924l1.3065,2.46797c0,0 1.11803,2.23607 -1.11803,3.3541z" fill="#00e2ff" stroke="none" stroke-width="0.5" stroke-linecap="butt"/><path d="M222.52356,-13.10243c-1.52778,0.32552 -3.04062,0.73527 -4.5855,0.9664c-0.92902,0.13899 -2.24103,-0.60323 -2.81455,0.14072c-0.49159,0.63768 1.67663,0.02995 2.37763,0.42604c1.45105,0.81989 2.6029,2.08232 3.90434,3.12348c2.62056,2.09645 5.08514,4.08319 7.45066,6.25825l0.11393,-0.18371l2.5767,1.59804c0.73044,0.43643 1.21957,1.23492 1.21957,2.14765c0,1.14481 -0.76949,2.10989 -1.81946,2.40626l-4.7252,1.4526l-0.02407,-0.07828l-0.28937,0.15292c-3.50095,0.14652 -5.91662,-0.07921 -9.1934,1.20725c-0.79705,0.31292 -1.54337,0.82018 -2.3063,1.24866h1.23187v0c1.38071,0 2.5,1.11929 2.5,2.5c0,1.38071 -1.11929,2.5 -2.5,2.5h-2.46098c-1.82678,1.23786 -3.23635,3.06802 -4.95023,4.44675c1.08998,0.43428 2.1698,0.90934 3.32156,1.09595c0.05396,0.00874 0.14667,0.01514 0.27249,0.01956c0.84064,-2.18015 3.10623,-1.42495 3.10623,-1.42495c2.51736,0.85994 5.20387,1.35235 7.86645,1.37321h3.35499c1.38071,0 2.5,1.11929 2.5,2.5c0,1.38071 -1.11929,2.5 -2.5,2.5h-5c-5.11389,1.02278 -10.73763,-0.14236 -15.53359,-1.70667l-4.22514,-1.40604c-1.02217,-0.31381 -1.7653,-1.26527 -1.7653,-2.3903c0,-0.99801 0.58479,-1.85943 1.43041,-2.26029l2.64476,-1.32238c1.22483,-1.11222 2.4464,-2.17808 3.74242,-3.19991c-0.19882,-0.52912 -0.30648,-1.18878 -0.29998,-2.00192c0.01924,-2.40812 3.23642,-3.57384 4.9899,-5.22451c3.31133,-3.11719 7.79962,-3.20926 12.06595,-3.35217c-0.67432,-0.60451 -1.31299,-1.26783 -2.01401,-1.82815c-2.60381,-2.08117 -5.42981,-3.91198 -7.80869,-6.24695c-1.53163,-1.50336 -4.66166,-2.7556 -4.22633,-4.85714c0.50748,-2.44987 3.87691,-3.24317 6.12972,-4.33141c1.59494,-0.77046 3.45982,-0.76121 5.19077,-1.13709c0.2268,-0.04925 0.45337,-0.09895 0.67975,-0.14901c-0.00142,-0.04099 -0.00213,-0.08269 -0.00213,-0.12511c0,-2.5 2.5,-2.5 2.5,-2.5h4.00901c1.66667,0 3.43032,-0.56024 5,0h4.5045c1.38071,0 2.5,1.11929 2.5,2.5c0,1.38071 -1.11929,2.5 -2.5,2.5h-2.87392c-4.31741,0.60295 -8.50099,1.75365 -12.76547,2.66226z" fill="#00e2ff" stroke="none" stroke-width="0.5" stroke-linecap="butt"/><path d="M343.26805,179.9335c0,8.29256 -14.78939,15.01502 -33.03303,15.01502c-18.24364,0 -33.03303,-6.72245 -33.03303,-15.01502c0,-8.29256 14.78939,-15.01502 33.03303,-15.01502c18.24364,0 33.03303,6.72245 33.03303,15.01502z" fill="#000000" stroke="#000000" stroke-width="0.5" stroke-linecap="butt"/></g></g></svg>