<svg version="1.1" xmlns="http://www.w3.org/2000/svg" xmlns:xlink="http://www.w3.org/1999/xlink" width="657.01924" height="211.71753" viewBox="0,0,657.01924,211.71753"><g transform="translate(82.53225,-225.73249)"><g data-paper-data="{&quot;isPaintingLayer&quot;:true}" fill-rule="nonzero" stroke-linecap="butt" stroke-linejoin="miter" stroke-miterlimit="10" stroke-dasharray="" stroke-dashoffset="0" style="mix-blend-mode: normal"><path d="M69.96023,433.16187v-135.2671h306.93975v135.2671z" fill="#ff0000" stroke="none" stroke-width="0"/><path d="M-80.03225,434.95003v-156.16198l190.763,0c-0.0165,0.61512 -0.03831,1.23265 -0.06838,1.85289c-0.14839,3.06092 -0.85031,5.95872 -0.86299,9.08365c-0.03444,8.48342 0.12927,16.97024 0,25.45089c-0.1674,10.98222 -3.42407,21.90479 -3.45197,33.10767c-0.03761,15.09974 0.20231,30.20387 0,45.29966c-0.06727,5.0196 -0.84944,10.89131 -0.86299,16.26191c-0.02111,8.36835 -0.03453,16.73704 -0.00705,25.10533z" fill="#70ff7b" stroke="#00c81b" stroke-width="5"/><path d="M571.98699,278.78805v156.16198l-204.95013,0c0.18022,-5.79602 0.71395,-21.43857 -0.35482,-29.44996c-0.94643,-7.09429 -2.24925,-14.11768 -2.99445,-21.2495c-0.11355,-1.0867 2.0658,-6.57333 2.34338,-7.08491c2.94609,-5.42958 5.75456,-10.88554 6.63795,-17.46876c0.97098,-7.23601 0.25955,-18.28861 0.31193,-23.87333c0.02511,-2.67797 1.15122,-5.74949 1.19901,-8.56145c0.08183,-4.81473 -0.18748,-9.63736 0,-14.44745c0.34728,-8.91017 3.83271,-17.45064 4.67392,-26.3353c0.23115,-2.44135 0.50219,-5.02817 0.74184,-7.69131z" fill="#70ff7b" stroke="#00c81b" stroke-width="5"/><path d="M280.82361,246.25634v-18.02384h96.16841c-0.00832,0.071 -0.01931,0.14227 -0.03447,0.21386c-0.07481,0.35328 -0.42866,0.68774 -0.43505,1.04841c-0.01736,0.97914 0.06517,1.95867 0,2.93748c-0.08439,1.26754 -1.72616,2.5282 -1.74023,3.82121c-0.01896,1.74278 0.10199,3.48606 0,5.22838c-0.03391,0.57935 -0.42822,1.25705 -0.43505,1.87691c-0.01064,0.96585 -0.01741,1.93175 -0.00355,2.8976z" fill="#70ff7b" stroke="#00c81b" stroke-width="5"/></g></g></svg>