<svg version="1.1" xmlns="http://www.w3.org/2000/svg" xmlns:xlink="http://www.w3.org/1999/xlink" width="54.10502" height="86.99014" viewBox="0,0,54.10502,86.99014"><g transform="translate(-352.24884,-212.30642)"><g data-paper-data="{&quot;isPaintingLayer&quot;:true}" fill-rule="nonzero" stroke-linejoin="miter" stroke-miterlimit="10" stroke-dasharray="" stroke-dashoffset="0" style="mix-blend-mode: normal"><g fill="#00a0b4" stroke="none" stroke-width="1" stroke-linecap="butt"><path d="M382.92006,285.35789c-0.37041,3.72288 -1.52238,4.96341 -3.78494,5.50126c-1.15196,0.28961 -2.26256,0.33098 -3.29106,-0.20686c-2.17982,-1.15778 -2.63232,-4.3842 -3.74356,-6.49355c-2.22119,-0.62058 -1.93352,1.73701 -5.1011,1.73701c-5.51225,0 -5.47088,-2.93615 -6.49937,-11.33285c-1.02849,-8.39604 21.63849,-5.79022 21.63849,-5.79022c0,0 1.15131,12.90435 0.78155,16.58522z"/><path d="M381.89157,285.73023c-0.78155,-2.15073 3.7843,-14.80685 3.7843,-14.80685l16.33181,1.90249c0,0 0.57599,5.41851 0.61736,7.11413c0.20557,7.69271 -2.26256,8.72702 -3.94978,8.68565c-2.34466,-0.08275 -4.44237,-0.53784 -6.458,-4.92203c-2.01626,-4.3842 -8.84467,-0.04137 -10.32568,2.02661z"/></g><g stroke="none" stroke-width="1" stroke-linecap="butt"><path d="M370.57877,278.57538c0.90502,6.16256 2.22119,18.40496 2.01561,18.98418c-0.74018,-0.45509 -1.15196,-1.65426 -1.56311,-2.35759c-1.43964,0.37236 0,2.10935 -0.24694,2.97817c-0.69946,-0.62058 -0.82293,-2.15073 -1.60448,-2.56444c-0.78155,0.16549 0.04137,2.1921 -0.0821,2.77067h-0.49388c-1.1927,-1.15778 -4.85416,-13.73116 -3.7843,-22.25132z" fill="#78c8c8"/><path d="M370.08488,290.1558c-1.1927,0.08275 -1.06922,-1.61289 0.04137,-1.65426c0.98712,-0.04137 1.15196,1.57151 -0.04137,1.65426z" fill="#aadcdc"/><path d="M368.15136,291.60385c-0.49324,0.04137 -0.45252,-1.82039 0.04137,-1.86176c0.45252,-0.04137 0.45252,1.82039 -0.04137,1.86176z" fill="#aadcdc"/></g><g stroke="none" stroke-width="1" stroke-linecap="butt"><path d="M387.77422,275.22485l6.74631,-2.97817c0,2.77131 -0.04072,25.23014 -0.61671,26.30518c-0.82293,-0.74405 -0.57599,-1.98523 -1.23406,-2.7293h-0.37041c-0.82293,0.86817 -0.04137,2.44034 -0.57599,3.474c-1.35754,-0.49648 -0.86365,-2.85406 -1.76867,-3.72224c-0.82293,0.49648 -0.16484,1.90249 -0.82293,2.1921c-1.35754,-0.95157 -1.52238,-5.25302 -1.68658,-6.70041c-0.28831,-2.52308 -0.41178,-5.08753 -0.37041,-7.65198c0,-2.56381 0.04137,-5.79022 0.69946,-8.18918z" fill="#78c8c8"/><path d="M391.64126,291.5211c-1.76932,0.08275 -1.64585,-2.48171 0.0821,-2.56444c1.48101,-0.08275 1.68658,2.48171 -0.0821,2.56444z" fill="#aadcdc"/></g><g stroke="none" stroke-width="1" stroke-linecap="butt"><path d="M378.51841,251.02902h-17.81282l1.56311,-13.69043l16.24971,-0.04137v13.7318" fill="#006482"/><path d="M370.70224,237.54546c0,0 0.12347,2.06798 -0.28831,3.01955c-0.41113,0.95157 -1.1927,0.9102 -2.30329,0.45509c-1.11124,-0.45509 -0.74083,-3.72288 -0.74083,-3.72288z" fill="#ffffff"/><path d="M373.91055,246.81032l-0.28766,5.00478l-10.98376,0.49648l0.12347,-5.99772c1.81005,-1.32328 4.2368,-1.40602 6.82905,-0.86817c1.81005,0.41373 3.8664,0.8268 4.3189,1.36465z" fill="#000000"/><path d="M405.99817,273.48785c-0.12347,2.97817 0.04072,7.321 -1.60448,9.92618c-1.64585,2.60583 -4.97763,2.15073 -6.82905,0c-1.52173,-1.73701 -2.17982,-7.48584 -6.74631,-7.11349c-4.56649,0.37171 -0.57599,9.67794 -5.96476,11.82866c-2.63297,1.03431 -6.50002,-0.8268 -8.10449,-3.06027c-0.86365,-1.19981 0,-5.37714 -3.29106,-5.74948c-3.29106,-0.37236 0.28831,9.38898 -6.66421,8.89251c-2.5916,0.45509 -4.93626,-2.27484 -5.96476,-6.74179c-0.98712,-4.2187 -0.74018,-10.13304 -0.82293,-12.61475c-0.24694,-5.41786 -0.61671,-10.58813 -0.20557,-16.00664c0.69946,-9.55382 -0.20557,-19.9351 3.86703,-28.95173c3.70219,-8.18982 14.72733,-13.02847 23.69483,-11.20873c9.29719,1.90249 14.02788,7.48584 16.8257,16.54384c3.16759,10.38128 1.97424,39.9956 1.81005,44.25568zM367.78159,238.74526c-3.08549,-0.24824 -4.97763,2.44034 -4.68996,5.6661c0.28766,3.22641 2.18047,4.79793 4.40165,4.79793c2.22119,0 4.6486,-1.07504 4.73069,-4.8393c0.08275,-3.76361 -1.48101,-5.33512 -4.44237,-5.62473z" fill="#aadcdc"/><path d="M367.32908,224.88934c-2.13973,-1.36465 2.8379,-7.32036 4.89489,-6.03846c1.76932,1.11641 -2.75579,7.40374 -4.89489,6.03846z" fill="#78c8c8"/><path d="M357.41454,241.80554c-0.32904,-0.24759 -0.49324,-0.61995 -0.45252,-0.99229c-0.0821,-0.33098 0.04137,-0.70333 0.32904,-0.9102c0.41178,0.12412 0.53525,0.24824 0.57599,0.70333c0.04137,0.45509 0.0821,0.95157 -0.45252,1.19916z" fill="#000000"/><path d="M380.36918,242.01239c-0.45252,-0.45445 -0.45252,-1.19916 0,-1.65426v0c0.20557,-0.04137 0.32904,0.08275 0.41178,0.24824c0.20557,0.28961 0.24629,0.66196 0.12347,0.99294c-0.12347,0.0821 -0.32969,0.24759 -0.53525,0.41308z" fill="#000000"/><path d="M383.86581,275.63858c2.55088,0.16549 3.20896,10.42264 0.78155,10.29853c-2.09772,-0.08275 -2.6737,-1.2819 -2.79717,-2.68856c-0.24694,-3.30851 -0.53461,-7.77545 2.01561,-7.60996z" fill="#78c8c8"/><path d="M383.3312,266.37371c2.55088,0.12412 3.20896,5.21165 0.78155,5.17027c-2.09772,-0.08275 -2.6737,-0.66196 -2.79717,-1.3653c-0.24694,-1.65426 -0.53461,-3.92909 2.01561,-3.80497z" fill="#78c8c8"/><path d="M388.67925,269.26914c-2.5095,0.20686 -2.34466,-6.65904 0.0821,-6.90728c2.09836,-0.20686 2.42741,6.70041 -0.0821,6.90728z" fill="#78c8c8"/><path d="M372.47091,277.25145c-2.5095,0.12412 -2.34466,-3.43263 0.0821,-3.55675c2.09836,-0.08275 2.42741,3.43263 -0.0821,3.55675z" fill="#00a0b4"/><path d="M362.55701,263.76789c-1.81005,0.08275 -1.64585,-2.48171 0.0821,-2.56381c1.52238,-0.04137 1.72795,2.48106 -0.0821,2.56381z" fill="#00a0b4"/><path d="M378.2301,267.49077c-1.76867,0.08275 -1.6452,-2.48171 0.0821,-2.56444c1.52238,-0.08275 1.68723,2.48171 -0.0821,2.56444z" fill="#78c8c8"/><path d="M402.37808,280.97369c-1.81005,0.08275 -1.64585,-2.48106 0.0821,-2.56381c1.48101,-0.08275 1.72795,2.48171 -0.0821,2.56381z" fill="#006482"/><path d="M365.8888,264.05749c3.94914,0.24824 4.97763,15.38606 1.19334,15.17919c-3.25033,-0.16549 -4.19608,-1.90249 -4.36092,-4.01184c-0.36977,-4.88066 -0.78155,-11.41558 3.16759,-11.16735z" fill="#78c8c8"/></g><path d="M362.49884,236.65191l-10,-3" fill="none" stroke="#000000" stroke-width="0.5" stroke-linecap="round"/><path d="M378.16551,238.98524l8,-4.33333" fill="none" stroke="#000000" stroke-width="0.5" stroke-linecap="round"/></g></g></svg>