<svg version="1.1" xmlns="http://www.w3.org/2000/svg" xmlns:xlink="http://www.w3.org/1999/xlink" width="44.89192" height="111.80522" viewBox="0,0,44.89192,111.80522"><defs><linearGradient x1="240.45" y1="139.53877" x2="240.45" y2="180.53878" gradientUnits="userSpaceOnUse" id="color-1"><stop offset="0" stop-color="#ffffff"/><stop offset="1" stop-color="#ececec"/></linearGradient><linearGradient x1="233.09895" y1="148.85207" x2="233.09895" y2="158.85207" gradientUnits="userSpaceOnUse" id="color-2"><stop offset="0" stop-color="#eeeeee"/><stop offset="1" stop-color="#cdcdcd"/></linearGradient><linearGradient x1="240.7" y1="125.95384" x2="240.7" y2="157.03877" gradientUnits="userSpaceOnUse" id="color-3"><stop offset="0" stop-color="#0cff00"/><stop offset="1" stop-color="#0ad900"/></linearGradient></defs><g transform="translate(-217.41489,-123.49094)"><g data-paper-data="{&quot;isPaintingLayer&quot;:true}" fill-rule="nonzero" stroke-linejoin="miter" stroke-miterlimit="10" stroke-dasharray="" stroke-dashoffset="0" style="mix-blend-mode: normal"><g data-paper-data="{&quot;index&quot;:null}" fill="none" stroke="#000000" stroke-width="0.5" stroke-linecap="round"><path d="M247.19942,234.3795l-6.60046,-15.5941v-37.46667l8.26713,20.3941"/><path d="M234.53275,200.71283l5.66667,-20.33333"/><path d="M240.86609,217.3795l-7.33333,17.66667"/></g><path d="M240.45,180.53878c-11.32184,0 -20.5,-9.17817 -20.5,-20.5c0,-11.32183 9.17816,-20.5 20.5,-20.5c11.32184,0 20.5,9.17817 20.5,20.5c0,11.32183 -9.17816,20.5 -20.5,20.5z" data-paper-data="{&quot;index&quot;:null}" fill="url(#color-1)" stroke="#e8e8e8" stroke-width="1.5" stroke-linecap="butt"/><path d="M245.99896,154.85207l-1.8,3.8l-3.2,-5.4l-2.2,5.6l-4,-7l-1.4,6.2l-5,-4.6l-1.4,4l-3.8,-3l-3,4.4l1,-4.6l17.2,-5.4z" data-paper-data="{&quot;index&quot;:null}" fill="url(#color-2)" stroke="#000000" stroke-width="0.05" stroke-linecap="round"/><path d="M219.45,151.03877c0,0 0.8628,-5.85944 4.8416,-8.41683c3.0041,-1.9309 7.9084,-5.08317 7.9084,-5.08317l6.24552,-12.58495l10.15958,14.45825c0,0 4.12308,1.42389 6.70178,2.31443c3.51992,1.21558 6.24312,9.81227 6.24312,9.81227l-0.73125,12.5c0,0 -15.56346,-12.92297 -22.68114,-13.17736c-6.86259,-0.24527 -19.68761,4.67736 -19.68761,4.67736z" data-paper-data="{&quot;index&quot;:null}" fill="url(#color-3)" stroke="#46d954" stroke-width="1.5" stroke-linecap="round"/><path d="M236.77991,146.25206c-1.62003,0 -2.93333,-1.25361 -2.93333,-2.8c0,-1.5464 1.3133,-2.8 2.93333,-2.8c1.62004,0 2.93333,1.25361 2.93333,2.8c0,1.54639 -1.3133,2.8 -2.93333,2.8z" data-paper-data="{&quot;index&quot;:null}" fill="#000000" stroke="#46d954" stroke-width="0" stroke-linecap="butt"/><path d="M232.59895,160.65207v6.2" data-paper-data="{&quot;index&quot;:null}" fill="none" stroke="#000000" stroke-width="2.5" stroke-linecap="round"/><path d="M224.39895,166.85207v-6.2" data-paper-data="{&quot;index&quot;:null}" fill="none" stroke="#000000" stroke-width="2.5" stroke-linecap="round"/><path d="M222.32314,147.25916c-1.71415,0 -2.92419,0.46912 -2.92419,-1.16711c0,-0.72406 1.34945,-2.28523 1.80138,-2.79986c0.56935,-0.64834 0.88543,-1.24013 1.84103,-1.24013c1.71414,0 2.38551,0.60821 2.38551,2.24444c0,1.63623 -1.38959,2.96266 -3.10373,2.96266z" data-paper-data="{&quot;index&quot;:null}" fill="#000000" stroke="#46d954" stroke-width="0" stroke-linecap="butt"/></g></g></svg>