<svg version="1.1" xmlns="http://www.w3.org/2000/svg" xmlns:xlink="http://www.w3.org/1999/xlink" width="70.75522" height="111.82943" viewBox="0,0,70.75522,111.82943"><defs><linearGradient x1="239.55" y1="139.53877" x2="239.55" y2="180.53878" gradientUnits="userSpaceOnUse" id="color-1"><stop offset="0" stop-color="#ffffff"/><stop offset="1" stop-color="#ececec"/></linearGradient><linearGradient x1="246.90105" y1="148.85207" x2="246.90105" y2="158.85207" gradientUnits="userSpaceOnUse" id="color-2"><stop offset="0" stop-color="#eeeeee"/><stop offset="1" stop-color="#cdcdcd"/></linearGradient><linearGradient x1="239.46945" y1="125.78439" x2="239.46945" y2="156.86933" gradientUnits="userSpaceOnUse" id="color-3"><stop offset="0" stop-color="#0cff00"/><stop offset="1" stop-color="#0ad900"/></linearGradient></defs><g transform="translate(-202.9246,-122.80007)"><g data-paper-data="{&quot;isPaintingLayer&quot;:true}" fill-rule="nonzero" stroke-linejoin="miter" stroke-miterlimit="10" stroke-dasharray="" stroke-dashoffset="0" style="mix-blend-mode: normal"><g fill="none" stroke="#000000" stroke-width="0.5" stroke-linecap="round"><path d="M203.1746,136.47445l36.22644,44.84428v37.46667c0,0 -15.81046,-48.32608 -16.2969,-47.17683c-1.12071,2.64777 9.69644,62.77093 9.69644,62.77093"/><path d="M239.97003,180.21004l26.00071,-27.28221"/><path d="M248.45368,196.36765l7.33333,17.66667"/></g><path d="M219.05,160.03877c0,-11.32183 9.17816,-20.5 20.5,-20.5c11.32184,0 20.5,9.17817 20.5,20.5c0,3.26717 14.14732,2.96683 12.78776,5.70794c-0.83624,1.68599 -13.84014,-0.95426 -16.48067,0.74607c-3.87412,2.49468 5.5017,7.25279 3.09668,10.08414c-1.41274,1.66317 -9.55252,-2.88663 -14.30608,-2.29116c-3.74586,0.46924 -4.2329,6.25302 -5.59768,6.25302c-2.1895,0 -9.92571,1.18655 -12.44901,-0.4301c-2.73384,-1.75154 1.9478,-6.2604 0.46185,-9.31981c-2.19955,-4.52863 -10.04145,-7.89967 -11.49542,-10.84987c-1.34522,-2.72954 2.98258,3.34853 2.98258,0.09978z" fill="url(#color-1)" stroke="#e8e8e8" stroke-width="1.5" stroke-linecap="butt"/><path d="M237.36478,139.02395l21.43626,15.22812l1,4.6l-3,-4.4l-3.8,3l-1.4,-4l-5,4.6l-1.4,-6.2l-4,7l-2.2,-5.6l-3.2,5.4l-1.8,-3.8z" fill="url(#color-2)" stroke="#000000" stroke-width="0.05" stroke-linecap="round"/><path d="M261.71945,155.36933c0,0 -30.74047,-17.23205 -31.9715,-17.66402c-3.86714,-1.35698 17.48941,12.80061 12.28389,12.98666c-7.11768,0.25439 -22.68114,13.17736 -22.68114,13.17736c0,0 17.0212,6.18417 16.89581,4.04074c-0.1179,-2.01534 -17.62706,-16.54074 -17.62706,-16.54074c0,0 2.7232,-8.59669 6.24312,-9.81227c2.5787,-0.89054 6.70178,-2.31443 6.70178,-2.31443c0,0 -2.61407,19.46573 -0.84386,16.94651c1.59884,-2.27533 11.00344,-31.40476 11.00344,-31.40476l6.24552,12.58495c0,0 4.9043,3.15227 7.9084,5.08317c3.9788,2.55739 4.8416,8.41683 4.8416,8.41683z" fill="url(#color-3)" stroke="#46d954" stroke-width="1.5" stroke-linecap="round"/><path d="M240.28676,143.45207c0,-1.54639 1.31329,-2.8 2.93333,-2.8c1.62003,0 2.93333,1.2536 2.93333,2.8c0,1.54639 -1.3133,2.8 -2.93333,2.8c-1.62003,0 -2.93333,-1.25361 -2.93333,-2.8z" fill="#000000" stroke="#46d954" stroke-width="0" stroke-linecap="butt"/><path d="M254.57313,144.2965c0,-1.63623 0.67137,-2.24444 2.38551,-2.24444c0.9556,0 1.27168,0.59179 1.84103,1.24013c0.45193,0.51463 1.80138,2.0758 1.80138,2.79986c0,1.63623 -1.21004,1.16711 -2.92419,1.16711c-1.71414,0 -3.10373,-1.32643 -3.10373,-2.96266z" fill="#000000" stroke="#46d954" stroke-width="0" stroke-linecap="butt"/><path d="M244.8434,167.12892c-0.35356,0.35356 -0.70711,0 -0.70711,0l-0.26311,-0.2994c-0.23834,-0.48824 -0.84753,-0.81949 -0.8976,-1.36049c-0.20688,-2.23521 3.26456,-1.75458 3.98277,-0.46507c1.17248,2.10515 -2.68411,5.21253 -4.51656,2.46385c-1.86163,-1.42684 -0.7981,-6.49447 1.39481,-7.27121c0.77326,-0.27389 2.22161,-0.02206 2.97737,0.16293c0,0 0.48507,0.12126 0.3638,0.60634c-0.12127,0.48507 -0.60634,0.36381 -0.60634,0.36381c-2.17821,-0.55817 -3.47246,0.07714 -3.78819,2.28722c-0.1293,0.90512 -0.53922,2.66829 0.36565,3.14382c1.21066,1.81599 2.34218,0.51433 3.06195,-0.96607c0.28451,-0.58517 -1.31274,-1.12917 -1.69911,-0.92964c-0.90983,0.46983 -0.08346,0.85152 0.25587,1.51731l0.07579,0.0395c0,0 0.35356,0.35356 0,0.70711z" fill="#000000" stroke="none" stroke-width="0.5" stroke-linecap="butt"/><path d="M253.02131,162.49575c0.24672,-0.4349 0.6816,-0.18817 0.6816,-0.18817l0.3333,0.21858c0.35967,0.40721 1.03504,0.5644 1.22728,1.07256c0.79425,2.09955 -2.67992,2.56007 -3.71539,1.50818c-1.69043,-1.71722 1.20018,-5.73886 3.69802,-3.57695c2.17421,0.87998 2.49762,6.0479 0.59048,7.3802c-0.67248,0.46979 -2.13563,0.61248 -2.91336,0.63528c0,0 -0.49984,0.01219 -0.51203,-0.48766c-0.01219,-0.49985 0.48766,-0.51204 0.48766,-0.51204c2.24821,-0.04162 3.32671,-0.99844 3.04292,-3.21285c-0.11622,-0.90689 -0.1903,-2.71557 -1.18909,-2.93314c-1.65027,-1.42833 -2.39459,0.12751 -2.69445,1.74607c-0.11853,0.63978 1.56589,0.7391 1.88523,0.44396c0.75198,-0.69501 -0.14616,-0.84303 -0.65043,-1.39451l-0.08356,-0.0179c0,0 -0.4349,-0.24672 -0.18818,-0.68162z" fill="#000000" stroke="none" stroke-width="0.5" stroke-linecap="butt"/></g></g></svg>