<svg version="1.1" xmlns="http://www.w3.org/2000/svg" xmlns:xlink="http://www.w3.org/1999/xlink" width="892.57208" height="527.31157" viewBox="0,0,892.57208,527.31157"><defs><linearGradient x1="323.95218" y1="-36.28269" x2="323.95218" y2="385.63924" gradientUnits="userSpaceOnUse" id="color-1"><stop offset="0" stop-color="#003fff"/><stop offset="1" stop-color="#00a5ff"/></linearGradient><linearGradient x1="101.78853" y1="242.28091" x2="136.66609" y2="359.18923" gradientUnits="userSpaceOnUse" id="color-2"><stop offset="0" stop-color="#7ef000"/><stop offset="1" stop-color="#00ef1b"/></linearGradient><linearGradient x1="190.88516" y1="188.93545" x2="233.38107" y2="331.38023" gradientUnits="userSpaceOnUse" id="color-3"><stop offset="0" stop-color="#7ef000"/><stop offset="1" stop-color="#00ef1b"/></linearGradient><linearGradient x1="287.43556" y1="205.05103" x2="319.20019" y2="311.52491" gradientUnits="userSpaceOnUse" id="color-4"><stop offset="0" stop-color="#7ef000"/><stop offset="1" stop-color="#00ef1b"/></linearGradient><linearGradient x1="362.85983" y1="121.40723" x2="408.78976" y2="275.36271" gradientUnits="userSpaceOnUse" id="color-5"><stop offset="0" stop-color="#7ef000"/><stop offset="1" stop-color="#00ef1b"/></linearGradient><linearGradient x1="498.69213" y1="139.01548" x2="534.32001" y2="258.43888" gradientUnits="userSpaceOnUse" id="color-6"><stop offset="0" stop-color="#7ef000"/><stop offset="1" stop-color="#00ef1b"/></linearGradient><linearGradient x1="174.21236" y1="156.10733" x2="196.48965" y2="231.05941" gradientUnits="userSpaceOnUse" id="color-7"><stop offset="0" stop-color="#ffffff"/><stop offset="1" stop-color="#ececec"/></linearGradient><linearGradient x1="192.71118" y1="169.13877" x2="198.14466" y2="187.41977" gradientUnits="userSpaceOnUse" id="color-8"><stop offset="0" stop-color="#eeeeee"/><stop offset="1" stop-color="#cdcdcd"/></linearGradient><linearGradient x1="166.37398" y1="131.40854" x2="183.26394" y2="188.23492" gradientUnits="userSpaceOnUse" id="color-9"><stop offset="0" stop-color="#0cff00"/><stop offset="1" stop-color="#0ad900"/></linearGradient></defs><g transform="translate(220.59212,36.53269)"><g data-paper-data="{&quot;isPaintingLayer&quot;:true}" fill-rule="nonzero" stroke-linejoin="miter" stroke-miterlimit="10" stroke-dasharray="" stroke-dashoffset="0" style="mix-blend-mode: normal"><path d="M-23.8256,385.63923v-421.92192h695.55556v421.92193z" fill="url(#color-1)" stroke="#000000" stroke-width="0.5" stroke-linecap="butt"/><path d="M184.86846,281.15216c9.63117,32.28334 -11.94977,67.22172 -48.20237,78.03705c-36.2526,10.81533 -73.44876,-6.58793 -83.07993,-38.87127c-9.63117,-32.28334 11.94976,-67.22172 48.20237,-78.03705c36.25261,-10.81533 73.44876,6.58793 83.07993,38.87127z" fill="url(#color-2)" stroke="#00c81b" stroke-width="5" stroke-linecap="butt"/><path d="M279.75842,239.98302c11.73492,39.33504 -9.02892,80.25497 -46.37735,91.39722c-37.34842,11.14225 -77.13834,-11.71253 -88.87326,-51.04756c-11.73492,-39.33504 9.02892,-80.25498 46.37735,-91.39723c37.34842,-11.14225 77.13834,11.71253 88.87326,51.04757z" fill="url(#color-3)" stroke="#00c81b" stroke-width="5" stroke-linecap="butt"/><path d="M253.67803,273.09713c-8.77156,-29.40195 6.34221,-59.86724 33.75754,-68.04613c27.41533,-8.17888 56.75061,9.02582 65.52216,38.42776c8.77156,29.40195 -6.34221,59.86723 -33.75755,68.04612c-27.41534,8.17889 -56.7506,-9.02581 -65.52216,-38.42775z" fill="url(#color-4)" stroke="#00c81b" stroke-width="5" stroke-linecap="butt"/><path d="M362.85983,121.40723c38.14308,-11.37932 79.34591,13.86002 92.02911,56.37366c12.6832,42.51364 -7.95611,86.2025 -46.09918,97.58182c-38.14308,11.37932 -79.3459,-13.86003 -92.0291,-56.37366c-12.6832,-42.51364 7.95611,-86.2025 46.09918,-97.58182z" fill="url(#color-5)" stroke="#00c81b" stroke-width="5" stroke-linecap="butt"/><path d="M498.69213,139.01548c40.52702,-12.09053 81.35623,4.842 91.1946,37.81987c9.83837,32.97786 -15.03969,69.51301 -55.56671,81.60354c-40.52701,12.09052 -81.35622,-4.84201 -91.19459,-37.81987c-9.83837,-32.97786 15.03968,-69.51301 55.5667,-81.60353z" fill="url(#color-6)" stroke="#00c81b" stroke-width="5" stroke-linecap="butt"/><path d="M78.87284,487.98711l-86.68697,-127.39112c0,0 342.4225,-95.9945 457.89039,-123.15153c78.53359,-18.47041 211.43391,-31.53413 211.43391,-31.53413l-12.41213,161.92566z" fill="#5bf06c" stroke="#00c81b" stroke-width="5" stroke-linecap="butt"/><g fill="none" stroke="#000000" stroke-width="0.5" stroke-linecap="round"><path d="M192.60909,274.34056l4.03203,-41.77438l20.35746,68.49281l-3.59327,32.09392"/><path d="M218.26852,264.72447l-21.40733,-34.09238"/><path d="M215.74635,298.63401l23.00521,28.31188"/></g><path d="M147.87496,204.72202c-6.1517,-20.69743 5.63995,-42.46298 26.3374,-48.61469c20.69745,-6.1517 42.46298,5.63996 48.61468,26.3374c6.1517,20.69743 -5.63995,42.46299 -26.33739,48.61469c-20.69745,6.1517 -42.46299,-5.63997 -48.61469,-26.3374z" fill="url(#color-7)" stroke="#e8e8e8" stroke-width="1.5" stroke-linecap="butt"/><path d="M183.02223,172.01853l34.3774,0.52614l4.3275,7.86591l-7.87503,-6.41359l-5.31673,7.54902l-4.73273,-6.55171l-6.6411,11.126l-5.9281,-10.57353l-3.50896,14.97009l-7.06457,-9.04199l-2.91583,11.61046l-5.35531,-5.96875z" fill="url(#color-8)" stroke="#000000" stroke-width="0.05" stroke-linecap="round"/><path d="M223.12413,173.40326c0,0 -26.12012,-2.0306 -38.53235,2.14656c-12.8736,4.33243 -34.30348,36.41329 -34.30348,36.41329l-8.12866,-22.45392c0,0 0.30728,-17.19525 6.08156,-21.33c4.23024,-3.02913 10.99398,-7.87241 10.99398,-7.87241l10.71685,-31.95131l18.25545,19.61305c0,0 10.67833,3.09792 17.21927,4.99552c8.6632,2.51329 13.4242,12.75613 13.4242,12.75613z" fill="url(#color-9)" stroke="#46d954" stroke-width="1.5" stroke-linecap="round"/><path d="M177.68551,162.8609c-0.84023,-2.82695 0.87945,-5.83226 3.84105,-6.7125c2.96157,-0.88024 6.04356,0.69788 6.88379,3.52486c0.84023,2.82695 -0.87947,5.83226 -3.84104,6.7125c-2.96157,0.88024 -6.04357,-0.6979 -6.8838,-3.52486z" fill="#000000" stroke="#46d954" stroke-width="0" stroke-linecap="butt"/><path d="M203.4055,201.77289l-3.36876,-11.33422" fill="none" stroke="#000000" stroke-width="2.5" stroke-linecap="round"/><path d="M215.02716,185.98322l3.36876,11.33422" fill="none" stroke="#000000" stroke-width="2.5" stroke-linecap="round"/><path d="M204.26124,156.64211c-0.88904,-2.99119 0.00782,-4.46785 3.14144,-5.39923c1.74693,-0.51923 2.6463,0.39088 4.03941,1.26676c1.1058,0.69524 4.42099,2.81599 4.8144,4.13965c0.88905,2.99119 -1.57793,2.79107 -4.71157,3.72245c-3.13362,0.93138 -6.39463,-0.73844 -7.28368,-3.72963z" fill="#000000" stroke="#46d954" stroke-width="0" stroke-linecap="butt"/><g fill="#ff0000" stroke="none" stroke-width="1" stroke-linecap="butt"><path d="M528.84206,98.75782c-1.26574,6.2894 2.35167,10.78203 3.88855,16.53337c1.44697,5.48022 1.08452,12.57879 -1.98923,17.43105c-2.71271,4.58253 -7.05221,7.90635 -12.11661,9.5233c-6.50996,1.97659 -14.64669,2.69586 -21.88013,2.69586v-18.50996c5.69656,-0.0885 13.92462,0.17982 16.81715,-2.06649c3.88855,-3.05409 2.98385,-9.16366 1.17584,-13.11825c-2.26036,-4.94077 -5.51534,-9.43339 -5.33552,-15.09483c0.18122,-5.48022 3.52752,-9.34489 6.60127,-13.6577c7.23344,-10.06275 2.89253,-15.81411 -3.88855,-24.79795c-3.25498,-4.2243 -4.15828,-9.25498 -4.42941,-14.46688c-0.09131,-2.96559 -0.36245,-13.47788 4.3395,-13.38798c1.62679,1.34863 0.27113,6.64903 0.63358,8.3559c0.81339,1.07891 1.98783,1.79817 3.34489,1.97659l0.99461,-0.35823c2.53149,-3.1454 1.44697,-7.63803 3.79724,-10.96184c0.45236,-0.17982 0.99461,0 1.26574,0.35823c0.63358,1.97799 -1.98923,12.04074 3.4362,10.15407l0.63217,-0.62936c0.36245,-1.16741 1.80942,-7.45821 3.79864,-7.09857c1.7167,1.25872 0.27113,5.93117 0.08991,7.63803c-0.45236,3.59354 -0.81339,7.09857 -0.08991,10.69212c1.17443,6.2894 4.70054,9.5247 7.68439,14.82511c3.07516,5.66144 3.61742,12.31047 1.35706,18.33015c-2.26036,5.83986 -8.86163,9.34489 -10.12737,15.63429z"/><path d="M511.75378,140.26897c-5.51534,0.26973 -5.1543,-7.4568 0.18122,-7.72653c4.61063,-0.26973 5.33411,7.4568 -0.18122,7.72653z"/><path d="M516.36439,97.05097c-3.16366,0.08991 -2.89253,-4.2229 0.09131,-4.40272c2.53149,-0.08991 3.07376,4.31281 -0.09131,4.40272z"/><path d="M527.12396,122.38837c-3.16366,0.08991 -2.89253,-4.2229 0.09131,-4.40272c2.53149,-0.08991 3.07376,4.31281 -0.09131,4.40272z"/><path d="M513.65166,49.69856c-3.16366,0.08991 -2.89253,-4.2229 0.09131,-4.40272c2.6214,-0.08991 3.07376,4.31281 -0.09131,4.40272z"/></g><g fill="#ff0000" stroke="none" stroke-width="1" stroke-linecap="butt"><path d="M427.25079,65.32346c5.26185,5.96957 9.53948,12.72654 12.77835,19.94866c1.91898,4.9956 1.58271,10.5941 -0.95117,15.26884c-5.7369,10.21322 -18.13293,10.82252 -26.67575,17.59605c-4.99575,3.99281 -5.60988,8.49447 -7.10173,14.29889c-1.42063,5.61639 -4.80758,9.2337 -10.12355,11.55333c-5.317,2.32057 -10.72195,3.61759 -13.67087,9.16635c-1.02425,1.80483 -2.70993,12.83175 -5.23381,12.08469c-1.98913,-3.08464 -0.39386,-6.52472 -2.06802,-9.53104c-4.88664,-2.38238 -3.03864,7.96892 -6.47227,7.69218c-4.50872,-2.23789 2.25999,-9.34346 -1.0922,-11.7862c-3.00929,-1.40591 -4.24179,6.00363 -5.87338,7.01745c-2.76962,-1.01347 0.31658,-8.53509 0.94943,-10.10122c1.82136,-4.38633 4.58143,-8.28544 8.01587,-11.45345c4.09531,-3.77763 7.93896,-2.52595 13.01859,-3.6452c4.75947,-1.06855 7.61354,-4.0701 9.44002,-8.58349c1.61285,-3.94937 1.64251,-8.15849 3.63328,-11.96336c2.13319,-4.18089 5.38705,-5.95343 9.71275,-7.35961c6.07094,-2.03366 15.51527,-7.29943 16.35136,-14.34517c0.2931,-2.73009 -4.76316,-9.13776 -8.37052,-13.31366z"/><path d="M398.28582,135.83126c2.21207,2.2655 -1.14186,4.99038 -3.29715,2.91905c-1.90954,-1.80492 1.08603,-5.18351 3.29715,-2.91905z"/><path d="M414.79961,110.26648c2.21207,2.2655 -1.14186,4.99038 -3.29715,2.91905c-1.7825,-1.79978 1.08506,-5.18456 3.29715,-2.91905z"/><path d="M407.21481,111.85031c4.73502,4.73541 -2.50152,10.67286 -7.11881,6.1977c-3.99873,-3.93722 2.38379,-10.93312 7.11881,-6.1977z"/></g><g fill="#b50000" stroke="none" stroke-width="1" stroke-linecap="butt"><path d="M452.71184,199.74051c-0.81479,9.71974 -3.34629,12.96022 -8.31936,14.36347c-2.53149,0.7565 -4.97168,0.86458 -7.23344,-0.53867c-4.79186,-3.02433 -5.78647,-11.44889 -8.22665,-16.95719c-4.88317,-1.61939 -4.24959,4.53565 -11.2119,4.53565c-12.11661,0 -12.02529,-7.66806 -14.28565,-29.59319c-2.26036,-21.92344 47.55891,-15.11996 47.55891,-15.11996c0,0 2.53149,33.69655 1.7181,43.30992z"/><path d="M461.0298,194.98871c-1.7181,-5.5083 0.36104,-32.40138 0.36104,-32.40138l35.89606,4.85987c0,0 1.26574,14.14901 1.44697,18.57659c0.45236,20.08791 -4.97308,22.57188 -8.68041,22.67996c-16.63593,0.7565 -12.38634,-18.68466 -16.81715,-21.49285c-7.7757,-4.85987 -8.95154,2.37758 -12.20652,7.77782z"/></g><path d="M503.34447,166.59537c-0.27113,6.46921 0.09131,15.90402 -3.52611,21.56545c-3.61602,5.66004 -10.94077,4.67104 -15.00914,0c-3.34489,-3.77476 -4.79186,-16.26365 -14.82792,-15.45447c-10.03606,0.80778 -1.26574,21.0246 -13.11122,25.69704c-5.78647,2.24631 -14.28565,-1.79677 -17.81176,-6.64903c-1.89933,-2.60595 0,-11.68111 -7.23344,-12.48888c-7.23344,-0.80918 -9.58371,6.2894 -14.64669,7.18708c-11.03208,1.97659 -14.37697,-18.77829 -14.82932,-29.91994c-0.54227,-11.86093 -1.35565,-23.0925 -0.45236,-34.86211c1.53828,-20.75628 -0.45095,-43.30932 8.49918,-62.89678c8.13815,-17.79069 32.36995,-28.30299 52.08104,-24.34981c20.43457,4.13299 30.83167,16.26365 36.98059,35.94102c7.05221,22.46313 2.89253,44.74645 5.06299,67.74763c0.81339,9.25498 -0.72348,19.13932 -1.17584,28.48281z" fill="#dba9a9" stroke="none" stroke-width="1" stroke-linecap="butt"/><path d="M493.12722,160.30597c5.60665,0.35964 7.05362,22.64295 1.7181,22.37323c-4.61063,-0.26973 -5.87638,-2.87568 -6.14751,-5.92977c-0.54367,-7.18848 -1.17584,-16.8031 4.42941,-16.44347z" fill="#78c8c8" stroke="none" stroke-width="1" stroke-linecap="butt"/><path d="M479.02278,157.70002c5.60525,0.26973 7.05221,11.32148 1.7181,11.23157c-4.61204,-0.17982 -5.87778,-1.43713 -6.14892,-2.96418c-0.54227,-3.59495 -1.17443,-8.53712 4.43081,-8.26739z" fill="#78c8c8" stroke="none" stroke-width="1" stroke-linecap="butt"/><path d="M486.25621,157.16198c-5.51534,0.44814 -5.1543,-14.46688 0.18122,-15.00633c4.61063,-0.44814 5.33411,14.55678 -0.18122,15.00633z" fill="#00a0b4" stroke="none" stroke-width="1" stroke-linecap="butt"/><path d="M429.74577,174.68295c-5.51534,0.26973 -5.1543,-7.45821 0.18122,-7.72794c4.61063,-0.17982 5.33411,7.45821 -0.18122,7.72794z" fill="#006482" stroke="none" stroke-width="1" stroke-linecap="butt"/><path d="M496.02114,126.43145c-5.51534,0.26973 -5.1543,-7.4568 0.18122,-7.72653c4.61063,-0.26973 5.33411,7.45821 -0.18122,7.72653z" fill="#78c8c8" stroke="none" stroke-width="1" stroke-linecap="butt"/><path d="M417.08691,60.93013c-4.70195,-2.96559 6.23883,-15.90402 10.75955,-13.11825c3.88855,2.42613 -6.0576,16.08383 -10.75955,13.11825z" fill="#78c8c8" stroke="none" stroke-width="1" stroke-linecap="butt"/><path d="M428.84107,163.09174c-3.97846,0.17982 -3.61602,-5.39172 0.18122,-5.57153c3.25498,-0.17841 3.79724,5.39172 -0.18122,5.57153z" fill="#78c8c8" stroke="none" stroke-width="1" stroke-linecap="butt"/><path d="M452.16957,146.82809c-3.97846,0.17982 -3.61742,-5.39031 0.17982,-5.57013c3.25498,-0.17982 3.79724,5.39031 -0.17982,5.57013z" fill="#78c8c8" stroke="none" stroke-width="1" stroke-linecap="butt"/><path d="M444.9361,189.05852c-3.97846,0.17982 -3.61742,-5.39031 0.17982,-5.57013c3.25498,-0.17982 3.79864,5.39031 -0.17982,5.57013z" fill="#78c8c8" stroke="none" stroke-width="1" stroke-linecap="butt"/><path d="M465.91295,162.01284c-3.97846,0.17982 -3.61742,-5.39031 0.17982,-5.57013c3.25498,-0.17982 3.79724,5.39031 -0.17982,5.57013z" fill="#00a0b4" stroke="none" stroke-width="1" stroke-linecap="butt"/><path d="M415.27889,146.02032c8.68041,0.53805 10.94077,33.42498 2.6214,32.97543c-7.14212,-0.35964 -9.22127,-4.13299 -9.58371,-8.71553c-0.81339,-10.60361 -1.7181,-24.79936 6.9623,-24.2599z" fill="#78c8c8" stroke="none" stroke-width="1" stroke-linecap="butt"/><path d="M479.45579,97.18696c1.89933,0.89909 -0.5638,2.37131 1.42543,2.64104c0.54227,0.08991 -2.00539,0.05482 -1.73426,0.68418l0.47887,1.73464c-0.72348,0.08991 3.01794,-1.625 2.38577,-1.98464c-1.7181,-0.89909 -1.5612,-1.45826 -3.2793,-2.35595c-0.36104,-0.17982 -0.81339,-0.35964 -1.26574,-0.53945l-0.27113,-0.71927l6.8724,-3.68345l1.26574,0.17982l-0.09131,0.62936c-2.89253,1.34723 -4.79186,2.33622 -5.78647,3.41373z" fill="#000000" stroke="none" stroke-width="1" stroke-linecap="butt"/><path d="M412.63176,92.74615c-0.27113,-0.35964 -0.18122,-0.80918 0.18122,-1.0775c0,0 0,0 0.08991,0c0.08991,0 0.27113,0 0.36104,0.0885c0.18122,0.08991 0.27254,0.17982 0.45236,0.35964c1.35706,1.70826 2.98385,3.23531 4.79186,4.49262c0.45236,0.26973 0.99461,0.62936 0.81479,1.43854l-0.81479,0.17982c-0.27113,0 -0.54227,0.08991 -0.81339,0.17841c-1.26574,0.53945 -2.44158,1.16881 -3.70733,1.70826l-1.44556,0.62796c-0.63358,-0.08991 -0.9047,-0.26832 -0.81479,-0.80778c1.23071,-0.57963 -3.94836,-0.15854 -2.77739,-0.73776c0.46374,-0.22939 7.28897,-1.45882 7.75046,-1.68837c0.09131,-0.17982 0.18122,-0.35964 0.36245,-0.53945c0,0 -2.89395,-2.87568 -4.43082,-4.2229z" fill="#000000" stroke="none" stroke-width="1" stroke-linecap="butt"/><path d="M412.80382,94.65273c2.3276,0 4.21447,2.04413 4.21447,4.56568c0,2.52156 -1.88687,4.56568 -4.21447,4.56568c-2.32758,0 -4.21447,-2.04412 -4.21447,-4.56568c0,-2.52156 1.88689,-4.56568 4.21447,-4.56568z" fill="#ff0000" stroke="#000000" stroke-width="0.5" stroke-linecap="butt"/><path d="M478.6727,95.35515c2.52155,0 4.56568,1.88689 4.56568,4.21447c0,2.3276 -2.04413,4.21447 -4.56568,4.21447c-2.52156,0 -4.56568,-1.88687 -4.56568,-4.21447c0,-2.3276 2.04412,-4.21447 4.56568,-4.21447z" fill="#ff0000" stroke="#000000" stroke-width="0.5" stroke-linecap="butt"/><path d="M431.54992,121.3444c0,0 15.16835,-6.32171 23.1796,-6.32171c7.66021,0 23.882,6.32171 23.882,6.32171" fill="none" stroke="#000000" stroke-width="0.5" stroke-linecap="round"/><path d="M374.73124,131.02251c9.31967,0 16.87476,6.88847 16.87476,15.38581c0,8.49736 -7.55509,15.38581 -16.87476,15.38581c-9.31967,0 -16.87476,-6.88847 -16.87476,-15.38581c0,-8.49736 7.55509,-15.38581 16.87476,-15.38581z" fill="#ffde8c" stroke="#bd7575" stroke-width="1.5" stroke-linecap="butt"/><text transform="translate(117.82456,83.9514) scale(1.00429,1.00429)" font-size="40" xml:space="preserve" fill="#ffffff" fill-rule="nonzero" stroke="none" stroke-width="1" stroke-linecap="butt" stroke-linejoin="miter" stroke-miterlimit="10" stroke-dasharray="" stroke-dashoffset="0" font-family="Handwriting" font-weight="normal" text-anchor="start" style="mix-blend-mode: normal"><tspan x="0" dy="0">Happy Land</tspan></text><text transform="translate(325.1198,99.75612) scale(1.97807,1.97807)" font-size="40" xml:space="preserve" fill="#ff0000" fill-rule="nonzero" stroke="none" stroke-width="1" stroke-linecap="butt" stroke-linejoin="miter" stroke-miterlimit="10" stroke-dasharray="" stroke-dashoffset="0" font-family="Handwriting" font-weight="normal" text-anchor="start" style="mix-blend-mode: normal"><tspan x="0" dy="0">2</tspan></text><text transform="translate(-220.34212,223.75054) scale(0.5,0.5)" font-size="40" xml:space="preserve" fill="#000000" fill-rule="nonzero" stroke="none" stroke-width="1" stroke-linecap="butt" stroke-linejoin="miter" stroke-miterlimit="10" stroke-dasharray="" stroke-dashoffset="0" font-family="Sans Serif" font-weight="normal" text-anchor="start" style="mix-blend-mode: normal"><tspan x="0" dy="0"> </tspan></text></g></g></svg>