<svg version="1.1" xmlns="http://www.w3.org/2000/svg" xmlns:xlink="http://www.w3.org/1999/xlink" width="120.69739" height="125.22319" viewBox="0,0,120.69739,125.22319"><g transform="translate(-179.6513,-117.3884)"><g data-paper-data="{&quot;isPaintingLayer&quot;:true}" fill-rule="nonzero" stroke="none" stroke-width="1" stroke-linecap="butt" stroke-linejoin="miter" stroke-miterlimit="10" stroke-dasharray="" stroke-dashoffset="0" style="mix-blend-mode: normal"><g><path d="M292.15346,167.19864c-0.901,4.477 1.674,7.675 2.768,11.769c1.03,3.901 0.772,8.954 -1.416,12.408c-1.931,3.262 -5.02,5.628 -8.625,6.779c-4.634,1.407 -10.426,1.919 -15.575,1.919v-13.176c4.055,-0.063 9.912,0.128 11.971,-1.471c2.768,-2.174 2.124,-6.523 0.837,-9.338c-1.609,-3.517 -3.926,-6.715 -3.798,-10.745c0.129,-3.901 2.511,-6.652 4.699,-9.722c5.149,-7.163 2.059,-11.257 -2.768,-17.652c-2.317,-3.007 -2.96,-6.588 -3.153,-10.298c-0.065,-2.111 -0.258,-9.594 3.089,-9.53c1.158,0.96 0.193,4.733 0.451,5.948c0.579,0.768 1.415,1.28 2.381,1.407l0.708,-0.255c1.802,-2.239 1.03,-5.437 2.703,-7.803c0.322,-0.128 0.708,0 0.901,0.255c0.451,1.408 -1.416,8.571 2.446,7.228l0.45,-0.448c0.258,-0.831 1.288,-5.309 2.704,-5.053c1.222,0.896 0.193,4.222 0.064,5.437c-0.322,2.558 -0.579,5.053 -0.064,7.611c0.836,4.477 3.346,6.78 5.47,10.553c2.189,4.03 2.575,8.763 0.966,13.048c-1.609,4.157 -6.308,6.652 -7.209,11.129zM283.02359,167.28757c0.41421,0 0.75,-0.33579 0.75,-0.75c0,-0.41421 -0.33579,-0.75 -0.75,-0.75c-0.41421,0 -0.75,0.33579 -0.75,0.75c0,0.41421 0.33579,0.75 0.75,0.75zM290.02359,183.78757c0.41421,0 0.75,-0.33579 0.75,-0.75c0,-0.41421 -0.33579,-0.75 -0.75,-0.75c-0.41421,0 -0.75,0.33579 -0.75,0.75c0,0.41421 0.33579,0.75 0.75,0.75zM279.77359,195.53757c0.41421,0 0.75,-0.33579 0.75,-0.75c0,-0.41421 -0.33579,-0.75 -0.75,-0.75c-0.41421,0 -0.75,0.33579 -0.75,0.75c0,0.41421 0.33579,0.75 0.75,0.75z" fill="#78c8c8"/><path d="M279.98946,196.74764c-3.926,0.192 -3.669,-5.308 0.129,-5.5c3.282,-0.192 3.797,5.308 -0.129,5.5zM279.77359,195.53757c0.41421,0 0.75,-0.33579 0.75,-0.75c0,-0.41421 -0.33579,-0.75 -0.75,-0.75c-0.41421,0 -0.75,0.33579 -0.75,0.75c0,0.41421 0.33579,0.75 0.75,0.75z" fill="#aadcdc"/><path d="M283.33646,162.84964c1.73623,-0.06166 2.15794,2.8455 0.17119,3.11503c-0.13063,-0.11049 -0.29957,-0.1771 -0.48406,-0.1771c-0.14632,0 -0.28286,0.0419 -0.39826,0.11436c-1.54144,-0.48457 -1.18291,-2.93815 0.71113,-3.05229z" fill="#aadcdc"/><path d="M290.93046,184.01964c-0.40649,0.01155 -0.73333,-0.07901 -0.98352,-0.23594c0.0252,0.00256 0.05077,0.00387 0.07665,0.00387c0.41421,0 0.75,-0.33579 0.75,-0.75c0,-0.41421 -0.33579,-0.75 -0.75,-0.75c-0.31422,0 -0.58332,0.19324 -0.69492,0.46736c-0.08508,-0.83921 0.499,-1.79892 1.66679,-1.86929c1.802,-0.064 2.188,3.07 -0.065,3.134z" fill="#aadcdc"/><path d="M281.34046,132.27664c-2.252,0.064 -2.059,-3.006 0.065,-3.134c1.866,-0.064 2.188,3.07 -0.065,3.134z" fill="#aadcdc"/></g><g><path d="M207.64646,198.79464c-5.663,-0.128 -11.263,-1.151 -16.605,-2.942c-3.54,-1.407 -6.307,-4.285 -7.53,-7.867c-2.575,-7.931 3.089,-14.711 3.668,-22.45c0.322,-4.541 -1.737,-7.035 -4.054,-10.617c-2.253,-3.454 -2.511,-6.972 -1.159,-10.873c1.352,-3.902 3.282,-7.356 1.802,-11.577c-0.45,-1.407 -5.406,-7.611 -3.797,-8.571c2.574,0.448 3.604,2.943 5.985,3.518c3.605,-1.407 -2.703,-5.436 -0.901,-7.099c3.347,-1.279 3.798,5.692 6.694,5.117c2.188,-0.896 -1.094,-5.117 -0.837,-6.46c1.867,-0.96 4.313,4.285 4.827,5.372c1.416,3.07 2.124,6.396 2.124,9.722c0,3.966 -2.51,5.373 -4.376,8.571c-1.738,3.006 -1.545,5.948 -0.065,9.082c1.288,2.75 3.476,4.797 4.506,7.675c1.158,3.134 0.515,5.692 -0.837,8.634c-1.866,4.158 -3.669,11.641 -0.386,15.479c1.287,1.471 7.08,1.918 11.006,2.046zM193.02359,163.03757c0.41421,0 0.75,-0.33579 0.75,-0.75c0,-0.41421 -0.33579,-0.75 -0.75,-0.75c-0.41421,0 -0.75,0.33579 -0.75,0.75c0,0.41421 0.33579,0.75 0.75,0.75zM190.02359,170.28757c0.41421,0 0.75,-0.33579 0.75,-0.75c0,-0.41421 -0.33579,-0.75 -0.75,-0.75c-0.41421,0 -0.75,0.33579 -0.75,0.75c0,0.41421 0.33579,0.75 0.75,0.75z" fill="#78c8c8"/><path d="M184.73446,149.60964c-2.253,0.064 -2.06,-3.006 0.064,-3.134c1.866,-0.128 2.188,3.07 -0.064,3.134z" fill="#aadcdc"/><path d="M190.14046,170.58864c-2.253,0.064 -2.06,-3.006 0.064,-3.134c1.802,-0.064 2.189,3.07 -0.064,3.134zM190.02359,170.28757c0.41421,0 0.75,-0.33579 0.75,-0.75c0,-0.41421 -0.33579,-0.75 -0.75,-0.75c-0.41421,0 -0.75,0.33579 -0.75,0.75c0,0.41421 0.33579,0.75 0.75,0.75z" fill="#00a0b4"/><path d="M192.97246,165.85564c-4.763,0.192 -4.377,-6.46 0.193,-6.716c3.99,-0.192 4.57,6.524 -0.193,6.716zM193.02359,163.03757c0.41421,0 0.75,-0.33579 0.75,-0.75c0,-0.41421 -0.33579,-0.75 -0.75,-0.75c-0.41421,0 -0.75,0.33579 -0.75,0.75c0,0.41421 0.33579,0.75 0.75,0.75z" fill="#aadcdc"/></g><g fill="#00a0b4"><path d="M237.96146,233.78064c-0.58,5.756 -2.382,7.675 -5.922,8.506c-1.802,0.448 -3.539,0.512 -5.149,-0.319c-3.411,-1.791 -4.119,-6.78 -5.856,-10.042c-3.476,-0.959 -3.025,2.686 -7.981,2.686c-8.625,0 -8.56,-4.541 -10.169,-17.525c-1.609,-12.983 33.854,-8.954 33.854,-8.954c0,0 1.802,19.955 1.223,25.648z"/><path d="M243.88246,230.96664c-1.223,-3.262 0.257,-19.188 0.257,-19.188l25.552,2.878c0,0 0.901,8.379 1.03,11.001c0.322,11.896 -3.54,13.367 -6.179,13.431c-11.842,0.448 -8.817,-11.065 -11.971,-12.728c-5.535,-2.878 -6.372,1.408 -8.689,4.606z"/></g><g><path d="M217.30146,152.04064h43.508v9.7163c-0.03485,-0.03202 -0.07462,-0.06326 -0.11984,-0.09341c-0.62404,-0.41603 -1.04006,0.20801 -1.04006,0.20801c-0.93423,1.40134 -2.65455,2.33973 -3.24384,3.72324l-0.66245,0.66245c-0.13572,0.13572 -0.21967,0.32322 -0.21967,0.53033c0,0.41421 0.33579,0.75 0.75,0.75h0.75v-0.43573c0.40963,-0.0163 0.79003,0.02002 1.06147,0.29416c0.41256,0.41667 0.60203,1.72356 1.23329,2.2376c0.41136,0.33497 0.94626,0.56401 1.49111,0.78602v14.75202h-43.508v-16.86101c0.04787,-0.01488 0.09601,-0.02926 0.14444,-0.04312c0.66748,-0.19103 1.15853,0.56081 1.85802,-0.19961c0.31957,-0.34741 0.24489,-0.92972 0.20999,-1.40047c-0.065,-0.87662 -1.03031,-1.81682 -2.21245,-2.67775zM238.39772,178.2765c5.52285,0 10,-4.47715 10,-10c0,-0.08358 -0.00103,-0.16691 -0.00306,-0.25c0.00204,-0.08309 0.00306,-0.16642 0.00306,-0.25c0,-5.52285 -4.47715,-10 -10,-10c-5.52285,0 -10,4.47715 -10,10c0,0.08358 0.00103,0.16691 0.00306,0.25c-0.00204,0.08309 -0.00306,0.16642 -0.00306,0.25c0,5.52285 4.47715,10 10,10z" fill="#006482"/><path d="M260.22884,168.44154c-0.59765,-0.4643 -0.71221,-1.87462 -1.26671,-2.2624c-0.25365,-0.17739 -0.67778,-0.27456 -1.07036,-0.25826c0.61637,-0.97074 2.19033,-2.10109 2.9177,-3.09155v5.97388c-0.21084,-0.10884 -0.40751,-0.22718 -0.58062,-0.36167z" fill="#006482"/><path d="M217.92756,166.49281c0.05572,0.06153 0.12196,0.19399 0.17941,0.3143c-0.16157,-0.07718 -0.45292,-0.047 -0.80551,0.04411v-0.80899c0.23136,0.1232 0.45222,0.25859 0.6261,0.45058z" fill="#006482"/><path d="M245.74846,156.01764c0,0 0.194,3.197 -0.514,4.669c-0.27958,0.58089 -0.68969,0.92241 -1.19861,1.07967c-1.16852,-0.79913 -2.51527,-1.35677 -3.96835,-1.60103c-0.47158,-1.39361 -0.11104,-3.38064 -0.11104,-3.38064z" fill="#ffffff"/><path d="M256.43346,177.87964v6.524h-33.726v-6.012c2.04226,-1.78361 4.75387,-3.09411 7.89882,-3.84614c1.833,2.27526 4.64222,3.731 7.79144,3.731c3.03571,0 5.75548,-1.35268 7.58945,-3.48818c4.72908,0.77416 8.25391,1.5714 10.44628,3.09133z" fill="#000000"/><path d="M274.00346,215.48764c-0.193,4.605 0.065,11.321 -2.51,15.351c-2.574,4.029 -7.788,3.325 -10.684,0c-2.381,-2.687 -3.411,-11.577 -10.555,-11.001c-7.144,0.575 -0.901,14.966 -9.333,18.292c-4.119,1.599 -10.169,-1.279 -12.679,-4.733c-1.352,-1.855 0,-8.315 -5.149,-8.89c-5.149,-0.576 -6.822,4.477 -10.426,5.116c-7.853,1.407 -10.234,-13.367 -10.556,-21.298c-0.386,-8.443 -0.965,-16.438 -0.322,-24.816c1.095,-14.775 -0.321,-30.829 6.05,-44.772c5.793,-12.664 23.042,-20.147 37.073,-17.333c14.546,2.942 21.947,11.577 26.324,25.584c5.02,15.99 2.059,31.852 3.604,48.225c0.579,6.588 -0.515,13.624 -0.837,20.275zM238.92646,155.68564c-10.426,-0.639 -16.67,5.949 -15.768,13.688c0.901,7.739 7.272,11.512 14.738,11.512c7.466,0 15.512,-2.622 15.833,-11.704c0.322,-9.146 -5.02,-12.92 -14.803,-13.496zM210.55392,170.8179l-0.28033,-0.03033c0.25,0 0.5,0 0.75,0c2.51053,-0.06637 4.14971,-1.86967 6.42231,-2.52006c0.66748,-0.19103 1.15853,0.56081 1.85802,-0.19961c0.31957,-0.34741 0.24489,-0.92972 0.20999,-1.40047c-0.14616,-1.97125 -4.84491,-4.26402 -6.32429,-5.2539c0,0 -0.62404,-0.41603 -1.04006,0.20801c-0.41603,0.62404 0.20801,1.04006 0.20801,1.04006c1.46191,0.97138 2.78115,2.02043 4.25,3c0.43259,0.28849 0.97095,0.4458 1.32,0.83121c0.05572,0.06153 0.12196,0.19399 0.17941,0.3143c-0.65748,-0.31407 -3.46416,1.14969 -3.80072,1.26264c-1.1519,0.38657 -2.03651,1.26906 -3.28266,1.21782c-0.25,0 -0.5,0 -0.75,0l-0.78033,0.46967c0,0 -0.53033,0.53033 0,1.06066c0.53033,0.53033 1.06066,0 1.06066,0zM263.27359,169.78757l-0.08397,0.12596c-0.8811,-0.579 -2.16789,-0.85602 -2.96078,-1.47199c-0.59765,-0.4643 -0.71221,-1.87462 -1.26671,-2.2624c-0.25365,-0.17739 -0.67778,-0.27456 -1.07036,-0.25826c0.64261,-1.01207 2.3261,-2.19763 3.00586,-3.21728c0,0 0.41603,-0.62404 -0.20801,-1.04006c-0.62404,-0.41603 -1.04006,0.20801 -1.04006,0.20801c-0.93423,1.40134 -2.65455,2.33973 -3.24384,3.72324l-0.66245,0.66245c-0.13572,0.13572 -0.21967,0.32322 -0.21967,0.53033c0,0.41421 0.33579,0.75 0.75,0.75h0.75v-0.43573c0.40963,-0.0163 0.79003,0.02002 1.06147,0.29416c0.41256,0.41667 0.60203,1.72356 1.23329,2.2376c0.8219,0.66928 2.13697,0.91566 3.03922,1.52801l0.91603,0.12596c0,0 0.75,0 0.75,-0.75c0,-0.75 -0.75,-0.75 -0.75,-0.75z" fill="#aadcdc"/><path d="M266.73046,211.01064c3.991,0.256 5.021,16.118 1.223,15.926c-3.282,-0.192 -4.183,-2.047 -4.376,-4.221c-0.387,-5.117 -0.837,-11.961 3.153,-11.705z" fill="#78c8c8"/><path d="M256.69046,209.15564c3.99,0.192 5.02,8.059 1.223,7.995c-3.283,-0.128 -4.184,-1.023 -4.377,-2.11c-0.386,-2.559 -0.836,-6.077 3.154,-5.885z" fill="#78c8c8"/><path d="M261.83946,208.77264c-3.926,0.319 -3.669,-10.298 0.129,-10.682c3.282,-0.319 3.797,10.362 -0.129,10.682z" fill="#00a0b4"/><path d="M221.61346,221.24464c-3.926,0.192 -3.669,-5.309 0.129,-5.501c3.282,-0.128 3.797,5.309 -0.129,5.501z" fill="#006482"/><path d="M268.79046,186.89764c-3.926,0.192 -3.669,-5.308 0.129,-5.5c3.282,-0.192 3.797,5.309 -0.129,5.5z" fill="#78c8c8"/><path d="M212.60246,140.27164c-3.347,-2.111 4.441,-11.321 7.659,-9.338c2.768,1.727 -4.312,11.449 -7.659,9.338z" fill="#78c8c8"/><path d="M220.96946,212.99364c-2.832,0.128 -2.574,-3.838 0.129,-3.966c2.317,-0.127 2.703,3.838 -0.129,3.966z" fill="#78c8c8"/><path d="M237.57546,201.41664c-2.832,0.128 -2.575,-3.837 0.128,-3.965c2.317,-0.128 2.703,3.837 -0.128,3.965z" fill="#78c8c8"/><path d="M232.42646,231.47764c-2.832,0.128 -2.575,-3.837 0.128,-3.965c2.317,-0.128 2.704,3.837 -0.128,3.965z" fill="#78c8c8"/><path d="M247.35846,212.22564c-2.832,0.128 -2.575,-3.837 0.128,-3.965c2.317,-0.128 2.703,3.837 -0.128,3.965z" fill="#00a0b4"/><path d="M211.31546,200.84164c6.179,0.383 7.788,23.793 1.866,23.473c-5.084,-0.256 -6.564,-2.942 -6.822,-6.204c-0.579,-7.548 -1.223,-17.653 4.956,-17.269z" fill="#78c8c8"/><path d="M261.83946,167.07064c0.386,0.064 0.708,0.128 0.901,0.576l-0.193,0.256c-0.515,0.064 -0.966,0 -1.416,-0.256c-0.58753,-0.30746 -1.17506,-0.60014 -1.76259,-0.89214c-0.11246,-0.24874 -0.23962,-0.45849 -0.40674,-0.57536c-0.25365,-0.17739 -0.67778,-0.27456 -1.07036,-0.25826c0.10248,-0.1614 0.23143,-0.32721 0.37856,-0.49605c1.22096,0.63105 2.25675,1.46786 3.56914,1.64582z" fill="#000000"/><path d="M261.26046,162.27364l0.901,0.128l-0.065,0.448c-0.97923,0.45608 -1.79854,0.85449 -2.46473,1.22943c0.49902,-0.47115 0.97461,-0.93855 1.2659,-1.37548c0,0 0.08301,-0.12452 0.11925,-0.2994z" fill="#000000"/><path d="M256.36846,164.89564l0.80309,-0.43044c-0.25054,0.27606 -0.47111,0.56153 -0.63836,0.86746z" fill="#000000"/><path d="M215.88546,165.40764c-0.21769,-0.24496 -0.44189,-0.48347 -0.67112,-0.71698c0.45531,0.32761 0.91638,0.65294 1.39322,0.97094c0.27957,0.18644 0.60332,0.3181 0.89159,0.49194c-0.00148,0.00731 -0.00304,0.01468 -0.00469,0.0221l-0.58,0.128c-0.193,0 -0.386,0.064 -0.579,0.127c-0.901,0.384 -1.738,0.832 -2.639,1.216l-1.029,0.447c-0.451,-0.064 -0.644,-0.191 -0.58,-0.575c1.223,-0.576 2.382,-1.151 3.54,-1.727c0.065,-0.128 0.129,-0.256 0.258,-0.384z" fill="#000000"/></g></g></g></svg>