<svg version="1.1" xmlns="http://www.w3.org/2000/svg" xmlns:xlink="http://www.w3.org/1999/xlink" width="900.2599" height="400.02767" viewBox="0,0,900.2599,400.02767"><defs><linearGradient x1="298.49921" y1="-11.56287" x2="298.49921" y2="388.4648" gradientUnits="userSpaceOnUse" id="color-1"><stop offset="0" stop-color="#4262ff"/><stop offset="1" stop-color="#91eeff"/></linearGradient></defs><g transform="translate(151.63074,11.56287)"><g data-paper-data="{&quot;isPaintingLayer&quot;:true}" fill-rule="nonzero" stroke-linejoin="miter" stroke-miterlimit="10" stroke-dasharray="" stroke-dashoffset="0" style="mix-blend-mode: normal"><path d="M-151.63074,388.4648v-400.02767h900.2599v400.02767z" fill="url(#color-1)" stroke="none" stroke-width="0" stroke-linecap="butt"/><g fill="#ff0000" stroke="none" stroke-width="1" stroke-linecap="butt"><path d="M405.84362,147.99573c-1.5276,7.59055 2.83819,13.01262 4.69302,19.95381c1.74632,6.61397 1.30889,15.1811 -2.40076,21.0372c-3.27392,5.53057 -8.51118,9.54202 -14.6233,11.49349c-7.85674,2.38551 -17.67681,3.25358 -26.40671,3.25358v-22.33931c6.87507,-0.10681 16.80535,0.21702 20.29629,-2.49401c4.69302,-3.68592 3.60115,-11.05945 1.4191,-15.83216c-2.72799,-5.96292 -6.65636,-11.38498 -6.43934,-18.21766c0.21871,-6.61397 4.25729,-11.27817 7.96694,-16.48321c8.7299,-12.14454 3.49094,-19.08574 -4.69302,-29.92817c-3.92837,-5.09823 -5.01855,-11.16966 -5.34577,-17.4598c-0.1102,-3.57911 -0.43743,-16.26619 5.23726,-16.15769c1.96334,1.62764 0.32722,8.02459 0.76465,10.08457c0.98167,1.30211 2.39907,2.17018 4.03688,2.38551l1.20038,-0.43234c3.05521,-3.79612 1.74632,-9.21819 4.58281,-13.22963c0.54594,-0.21702 1.20038,0 1.5276,0.43234c0.76465,2.3872 -2.40076,14.53174 4.14708,12.25475l0.76295,-0.75956c0.43743,-1.40892 2.18375,-9.00117 4.58451,-8.56713c2.07185,1.51913 0.32722,7.15821 0.10851,9.21819c-0.54594,4.33697 -0.98167,8.56713 -0.10851,12.90411c1.4174,7.59055 5.67299,11.49518 9.27414,17.89214c3.71135,6.83268 4.3658,14.85727 1.63781,22.1223c-2.72799,7.04801 -10.69493,11.27817 -12.22253,18.86872z"/><path d="M385.22011,198.09473c-6.65636,0.32553 -6.22062,-8.99947 0.21871,-9.325c5.56448,-0.32553 6.43764,8.99947 -0.21871,9.325z"/><path d="M390.78457,145.93575c-3.81816,0.10851 -3.49094,-5.09654 0.1102,-5.31356c3.05521,-0.10851 3.70966,5.20505 -0.1102,5.31356z"/><path d="M403.77008,176.51498c-3.81816,0.10851 -3.49094,-5.09654 0.1102,-5.31356c3.05521,-0.10851 3.70966,5.20505 -0.1102,5.31356z"/><path d="M387.51063,88.78705c-3.81816,0.10851 -3.49094,-5.09654 0.1102,-5.31356c3.16372,-0.10851 3.70966,5.20505 -0.1102,5.31356z"/></g><g fill="#ff0000" stroke="none" stroke-width="1" stroke-linecap="butt"><path d="M283.23509,107.64444c6.35042,7.20456 11.51301,15.35942 15.42194,24.07565c2.31598,6.02909 1.91014,12.78581 -1.14795,18.42767c-6.92375,12.32614 -21.88428,13.06149 -32.19445,21.23633c-6.02928,4.81885 -6.77045,10.25181 -8.57094,17.25705c-1.71453,6.77831 -5.80218,11.14397 -12.21792,13.94349c-6.41699,2.80065 -12.94011,4.366 -16.49911,11.06269c-1.23615,2.17821 -3.27056,15.48639 -6.31658,14.58478c-2.40064,-3.72279 -0.47534,-7.87456 -2.49585,-11.50283c-5.89759,-2.87525 -3.66727,9.61754 -7.81126,9.28354c-5.44149,-2.70087 2.72754,-11.27644 -1.31815,-14.22454c-3.63185,-1.69676 -5.11934,7.24566 -7.08847,8.46922c-3.3426,-1.22314 0.38208,-10.30084 1.14585,-12.19097c2.19817,-5.29378 5.52924,-9.99954 9.6742,-13.82295c4.94255,-4.55915 9.58138,-3.04852 15.71189,-4.39932c5.74411,-1.28961 9.18864,-4.91212 11.39298,-10.35925c1.94652,-4.76642 1.98231,-9.84632 4.38493,-14.43835c2.57451,-5.04584 6.50153,-7.18508 11.72213,-8.88217c7.3269,-2.45439 18.72508,-8.80954 19.73414,-17.31291c0.35374,-3.29489 -5.74857,-11.02818 -10.10222,-16.068z"/><path d="M248.27782,192.73893c2.66971,2.73419 -1.37809,6.02279 -3.97927,3.52294c-2.30459,-2.17832 1.31071,-6.25588 3.97927,-3.52294z"/><path d="M268.208,161.88531c2.66971,2.73419 -1.37809,6.02279 -3.97927,3.52294c-2.15126,-2.17212 1.30954,-6.25714 3.97927,-3.52294z"/><path d="M259.05405,163.7968c5.71461,5.71508 -3.01904,12.88087 -8.59155,7.47988c-4.82599,-4.75175 2.87695,-13.19497 8.59155,-7.47988z"/></g><g fill="#b50000" stroke="none" stroke-width="1" stroke-linecap="butt"><path d="M313.96353,269.86977c-0.98336,11.73057 -4.03857,15.64144 -10.04048,17.33499c-3.05521,0.91301 -6.00022,1.04344 -8.7299,-0.65011c-5.7832,-3.65001 -6.98358,-13.81744 -9.92858,-20.46531c-5.8934,-1.95441 -5.12875,5.47399 -13.53143,5.47399c-14.6233,0 -14.51309,-9.25443 -17.24108,-35.71545c-2.72799,-26.45898 57.39793,-18.24799 57.39793,-18.24799c0,0 3.05521,40.66772 2.07354,52.2699z"/><path d="M324.00232,264.13492c-2.07354,-6.64786 0.43573,-39.1046 0.43573,-39.1046l43.32226,5.86528c0,0 1.5276,17.07617 1.74632,22.41973c0.54594,24.24371 -6.00191,27.24157 -10.47622,27.372c-20.07758,0.91301 -14.94883,-22.55016 -20.29629,-25.9393c-9.38434,-5.86528 -10.80344,2.86946 -14.73181,9.3869z"/></g><path d="M375.07108,229.86756c-0.32722,7.80757 0.1102,19.19425 -4.25559,26.02693c-4.3641,6.83099 -13.2042,5.63739 -18.11424,0c-4.03688,-4.55569 -5.7832,-19.62828 -17.89553,-18.6517c-12.11233,0.97489 -1.5276,25.37418 -15.82368,31.01326c-6.98358,2.71103 -17.24108,-2.16849 -21.49667,-8.02459c-2.29226,-3.14507 0,-14.09771 -8.7299,-15.07259c-8.7299,-0.97658 -11.56639,7.59055 -17.67681,8.67395c-13.31441,2.38551 -17.35129,-22.66315 -17.89722,-36.1098c-0.65445,-14.31473 -1.63611,-27.86989 -0.54594,-42.07441c1.85652,-25.05035 -0.54424,-52.26918 10.2575,-75.90891c9.82177,-21.47124 39.06667,-34.15833 62.8556,-29.38732c24.66209,4.98803 37.21015,19.62828 44.63116,43.37652c8.51118,27.11032 3.49094,54.00363 6.11042,81.76331c0.98167,11.16966 -0.87316,23.09888 -1.4191,34.37535z" fill="#dba9a9" stroke="none" stroke-width="1" stroke-linecap="butt"/><path d="M362.74007,222.277c6.76656,0.43404 8.51288,27.32734 2.07354,27.00182c-5.56448,-0.32553 -7.09209,-3.4706 -7.41931,-7.15652c-0.65614,-8.67564 -1.4191,-20.27934 5.34577,-19.8453z" fill="#78c8c8" stroke="none" stroke-width="1" stroke-linecap="butt"/><path d="M345.7177,219.13193c6.76487,0.32553 8.51118,13.66367 2.07354,13.55516c-5.56618,-0.21702 -7.09378,-1.73445 -7.42101,-3.57741c-0.65445,-4.33867 -1.4174,-10.30328 5.34746,-9.97775z" fill="#78c8c8" stroke="none" stroke-width="1" stroke-linecap="butt"/><path d="M354.44758,218.48258c-6.65636,0.54085 -6.22062,-17.4598 0.21871,-18.11085c5.56448,-0.54085 6.43764,17.5683 -0.21871,18.11085z" fill="#00a0b4" stroke="none" stroke-width="1" stroke-linecap="butt"/><path d="M286.24623,239.62829c-6.65636,0.32553 -6.22062,-9.00117 0.21871,-9.3267c5.56448,-0.21702 6.43764,9.00117 -0.21871,9.3267z" fill="#006482" stroke="none" stroke-width="1" stroke-linecap="butt"/><path d="M366.23269,181.3945c-6.65636,0.32553 -6.22062,-8.99947 0.21871,-9.325c5.56448,-0.32553 6.43764,9.00117 -0.21871,9.325z" fill="#78c8c8" stroke="none" stroke-width="1" stroke-linecap="butt"/><path d="M270.96849,102.34222c-5.67469,-3.57911 7.52952,-19.19425 12.98549,-15.83216c4.69302,2.92805 -7.3108,19.41126 -12.98549,15.83216z" fill="#78c8c8" stroke="none" stroke-width="1" stroke-linecap="butt"/><path d="M285.15436,225.63909c-4.80153,0.21702 -4.3641,-6.50716 0.21871,-6.72417c3.92837,-0.21532 4.58281,6.50716 -0.21871,6.72417z" fill="#78c8c8" stroke="none" stroke-width="1" stroke-linecap="butt"/><path d="M313.30908,206.01081c-4.80153,0.21702 -4.3658,-6.50546 0.21702,-6.72248c3.92837,-0.21702 4.58281,6.50546 -0.21702,6.72248z" fill="#78c8c8" stroke="none" stroke-width="1" stroke-linecap="butt"/><path d="M304.57915,256.97788c-4.80153,0.21702 -4.3658,-6.50546 0.21702,-6.72248c3.92837,-0.21702 4.58451,6.50546 -0.21702,6.72248z" fill="#78c8c8" stroke="none" stroke-width="1" stroke-linecap="butt"/><path d="M329.8957,224.33698c-4.80153,0.21702 -4.3658,-6.50546 0.21702,-6.72248c3.92837,-0.21702 4.58281,6.50546 -0.21702,6.72248z" fill="#00a0b4" stroke="none" stroke-width="1" stroke-linecap="butt"/><path d="M268.78643,205.03592c10.47622,0.64936 13.2042,40.33996 3.16372,39.79741c-8.61969,-0.43404 -11.12897,-4.98803 -11.56639,-10.5186c-0.98167,-12.79729 -2.07354,-29.92987 8.40267,-29.27881z" fill="#78c8c8" stroke="none" stroke-width="1" stroke-linecap="butt"/><path d="M347.89975,144.74215c2.29226,1.08509 4.14708,2.71103 6.54785,3.03656c0.65445,0.10851 1.20038,0.21702 1.5276,0.97658l-0.32722,0.43404c-0.87316,0.10851 -1.63781,0 -2.40076,-0.43404c-2.07354,-1.08509 -4.14708,-2.06167 -6.22062,-3.14507c-0.43573,-0.21702 -0.98167,-0.43404 -1.5276,-0.65105l-0.32722,-0.86807l8.29417,-4.44548l1.5276,0.21702l-0.1102,0.75956c-3.49094,1.62594 -5.7832,2.81954 -6.98358,4.11996z" fill="#000000" stroke="none" stroke-width="1" stroke-linecap="butt"/><path d="M276.53466,144.95917c-1.63781,-1.84296 -3.49264,-3.4706 -5.34746,-5.09654c-0.32722,-0.43404 -0.21871,-0.97658 0.21871,-1.30041c0,0 0,0 0.10851,0c0.10851,0 0.32722,0 0.43573,0.10681c0.21871,0.10851 0.32892,0.21702 0.54594,0.43404c1.63781,2.06167 3.60115,3.90463 5.7832,5.42206c0.54594,0.32553 1.20038,0.75956 0.98336,1.73615l-0.98336,0.21702c-0.32722,0 -0.65445,0.10851 -0.98167,0.21532c-1.5276,0.65105 -2.9467,1.41062 -4.47431,2.06167l-1.74462,0.75787c-0.76465,-0.10851 -1.09187,-0.32383 -0.98336,-0.97489c2.07354,-0.97658 4.03857,-1.95147 6.00191,-2.92805c0.1102,-0.21702 0.21871,-0.43404 0.43743,-0.65105z" fill="#000000" stroke="none" stroke-width="1" stroke-linecap="butt"/><path d="M274.85998,143.04137c2.80913,0 5.08636,2.46702 5.08636,5.51023c0,3.04322 -2.27723,5.51023 -5.08636,5.51023c-2.80911,0 -5.08636,-2.46701 -5.08636,-5.51023c0,-3.04322 2.27725,-5.51023 5.08636,-5.51023z" fill="#ff0000" stroke="#000000" stroke-width="0.5" stroke-linecap="butt"/><path d="M350.73159,143.8891c3.04321,0 5.51023,2.27725 5.51023,5.08636c0,2.80913 -2.46702,5.08636 -5.51023,5.08636c-3.04322,0 -5.51023,-2.27723 -5.51023,-5.08636c0,-2.80913 2.46701,-5.08636 5.51023,-5.08636z" fill="#ff0000" stroke="#000000" stroke-width="0.5" stroke-linecap="butt"/><path d="M288.42362,175.25502c0,0 18.30639,-7.62955 27.97501,-7.62955c9.24496,0 28.82273,7.62955 28.82273,7.62955" fill="none" stroke="#000000" stroke-width="0.5" stroke-linecap="round"/><path d="M219.85026,186.93535c11.24773,0 20.36582,8.31356 20.36582,18.56884c0,10.2553 -9.11809,18.56884 -20.36582,18.56884c-11.24773,0 -20.36582,-8.31356 -20.36582,-18.56884c0,-10.2553 9.11809,-18.56884 20.36582,-18.56884z" fill="#ffde8c" stroke="#bd7575" stroke-width="1.5" stroke-linecap="butt"/></g></g></svg>