<svg version="1.1" xmlns="http://www.w3.org/2000/svg" xmlns:xlink="http://www.w3.org/1999/xlink" width="122.10848" height="110.16683" viewBox="0,0,122.10848,110.16683"><defs><radialGradient cx="356.06565" cy="211.60892" r="51.46148" gradientUnits="userSpaceOnUse" id="color-1"><stop offset="0" stop-color="#c21128" stop-opacity="0"/><stop offset="1" stop-color="#c21128"/></radialGradient></defs><g transform="translate(-289.89706,-152.55898)"><g data-paper-data="{&quot;isPaintingLayer&quot;:true}" stroke="none" stroke-linecap="butt" stroke-linejoin="miter" stroke-miterlimit="10" stroke-dasharray="" stroke-dashoffset="0" style="mix-blend-mode: normal"><path d="M412.00553,208.98409c0,23.81363 -20.46305,43.1184 -45.7055,43.1184c-14.86977,0 -21.85507,-14.8434 -34.02936,-28.08753c-5.07325,-5.51906 -21.56882,-8.06265 -23.12556,-13.44274c-1.04918,-3.62597 11.44943,2.35167 11.44943,-1.58813c0,-23.81363 20.46305,-43.1184 45.7055,-43.1184c25.24245,0 45.7055,19.30476 45.7055,43.1184z" fill="url(#color-1)" fill-rule="nonzero" stroke-width="0"/><g data-paper-data="{&quot;index&quot;:null}" fill-rule="evenodd" stroke-width="1"><path d="M364.40299,180.67843c0.34867,-1.44821 5.81766,-1.37508 12.21512,0.16323c6.39877,1.53832 11.30362,3.96071 10.95496,5.40892c-0.34736,1.44821 -5.81766,1.37508 -12.21512,-0.16323c-6.39877,-1.53832 -11.30362,-3.96071 -10.95496,-5.40892" fill="#3d79cc"/><path d="M364.51529,179.67813l17.18788,-26.43475c0.77569,-1.1792 2.59085,-0.74173 2.74102,0.64771l3.42791,31.35136c0.05876,0.59809 -0.3552,1.45213 -0.8227,1.49914c-0.09141,0.00784 -0.18413,-0.00914 -0.26901,-0.06529c-0.85535,-1.08387 -1.82169,-1.97187 -2.87945,-2.70707c-0.94415,-0.66861 -1.94183,-1.19879 -2.9813,-1.62189c-7.23975,-3.01134 -16.51666,-1.6689 -16.51666,-1.6689z" fill="#4c97ff"/><path d="M367.09635,180.44129c12.2112,-4.07562 15.26041,2.38191 16.06744,-4.71289c0.87624,-7.69289 -0.66599,-23.09695 -0.66599,-23.09695c0.83053,-0.27162 1.83736,0.23636 1.94314,1.25494l3.43314,31.35658c0.01698,0.15148 0.01436,0.31341 -0.02742,0.45053c-0.42571,1.40773 -1.06559,0.98071 -1.06559,0.98071c-5.89732,-7.65763 -19.79701,-6.10103 -19.68471,-6.23292" fill="#4280d7"/><path d="M385.89763,167.21477l-0.08749,0.03134l-0.45444,1.34244c-0.14365,0.43486 -0.72476,0.5119 -0.97026,0.13059l-0.79528,-1.16875l-1.40642,-0.01306c-0.45575,-0.00131 -0.70648,-0.53018 -0.43486,-0.88146l0.87102,-1.12174l-0.42049,-1.33591c-0.13712,-0.43486 0.28207,-0.8449 0.71562,-0.68819l1.32024,0.4884l1.14917,-0.82662c0.03134,-0.01959 0.04701,-0.02873 0.07574,-0.03526z" fill="#e6ac00"/><path d="M372.13871,167.92764l1.06298,1.33982l2.06067,-0.13973c0.66861,-0.04179 1.09432,0.70386 0.72084,1.25886l-1.14656,1.71461l0.76524,1.9131c0.24159,0.62159 -0.32516,1.25233 -0.96634,1.07212l-1.98623,-0.56675l-1.59055,1.32546c-0.51451,0.41396 -1.29151,0.06921 -1.32154,-0.59678l-0.07443,-2.05805l-0.66208,-0.42571z" fill="#ffbf00"/><path d="M380.56249,180.72949c-0.18935,-0.32255 0.07182,-0.74173 0.45575,-0.70125l1.16875,0.1332l0.77569,-0.90236c0.24812,-0.28729 0.73129,-0.16454 0.80833,0.20894l0.2455,1.1557l1.09563,0.46881c0.34344,0.15018 0.3774,0.63204 0.04309,0.8227l-1.03164,0.58764l-0.09272,1.19095c-0.00131,0.11753 -0.05746,0.21547 -0.12928,0.27423c-0.94545,-0.6673 -1.94314,-1.19879 -2.98261,-1.62059l0.26901,-0.60462l-0.62551,-1.01336" fill="#e6ac00"/><path d="M380.13208,173.70207c0.13712,-0.5772 0.71692,-0.9337 1.29412,-0.79528c0.5772,0.13712 0.9337,0.71562 0.79528,1.29281c-0.13712,0.5772 -0.71692,0.9337 -1.29412,0.79658c-0.5772,-0.13842 -0.93239,-0.71692 -0.79528,-1.29412" fill="#ffbf00"/><path d="M379.9695,155.92172c0.30427,0.24681 0.45053,0.6451 0.35389,1.05123c-0.1332,0.55891 -0.69603,0.89452 -1.25494,0.76132c-0.07705,-0.01828 -0.15018,-0.04832 -0.21939,-0.09272z" fill="#ffbf00"/><path d="M382.18909,167.5381c-0.45705,0 -0.70517,-0.53541 -0.444,-0.88799l0.87493,-1.10999l-0.41788,-1.34505c-0.14365,-0.43094 0.27423,-0.83576 0.71823,-0.67905l0.36564,0.13059c0.06529,1.27975 0.10447,2.59868 0.13059,3.90456l-1.22752,-0.01306" fill="#ffbf00"/></g><g data-paper-data="{&quot;index&quot;:null}" fill-rule="evenodd" stroke-width="1"><path d="M311.29202,207.28177c4.3825,9.54331 4.65804,12.35485 3.83926,12.73225c-0.81878,0.37609 -2.42239,-1.82691 -6.8049,-11.36892c-4.38381,-9.542 -9.88806,-22.81096 -9.06797,-23.18705c0.81878,-0.37609 7.6511,12.28172 12.0336,21.82372" fill="#b27b00"/><path d="M297.90932,177.05163l3.56503,3.00089l4.4935,-1.23535c1.45213,-0.3996 2.73319,1.03947 2.16644,2.43545l-1.75248,4.31852l2.56343,3.8915c0.82923,1.25755 -0.14365,2.91993 -1.6467,2.81285l-4.6489,-0.333l-2.90948,3.64208c-0.93892,1.17659 -2.82068,0.76393 -3.18241,-0.69734l-1.12174,-4.52484l-4.36161,-1.64017c-1.40904,-0.53149 -1.59969,-2.44851 -0.31994,-3.24378l3.95548,-2.46418l0.21286,-4.65543c0.07052,-1.50436 1.83344,-2.27744 2.98653,-1.30718" fill="#ffbf00"/></g><path d="M361.64068,220.48322c6.50193,0 7.44086,5.8947 7.44086,9.45973c0,3.61988 -2.74755,5.7158 -2.61435,9.87892c0.1345,4.16051 1.60883,4.22188 1.67543,8.32362c0.0666,4.07824 -5.89732,10.27982 -1.12958,9.81493c4.76904,-0.46228 6.61293,-0.1332 8.77154,1.74203c2.15861,1.87784 14.86604,-0.3343 7.33247,2.15861c-8.0076,2.64961 -8.9413,-1.75509 -14.1896,-0.48187c-4.2036,1.02119 -6.83362,1.02772 -9.73919,-0.4009c-2.15077,-1.06037 -4.11088,-2.45896 -4.11088,-5.13991c0.00131,-2.32576 0.97157,-4.57447 1.21577,-7.5832c0.2455,-3.02048 -2.15991,-4.19185 -2.15599,-8.72061c0.00131,-2.17558 1.68327,-4.27673 0.36956,-9.09801c-0.88799,-3.25684 -0.37217,-9.95335 7.13398,-9.95335" data-paper-data="{&quot;index&quot;:null}" fill="#ffffff" fill-rule="evenodd" stroke-width="1"/><path d="M354.20465,227.09929c0.03787,-0.47011 0.11753,-0.94153 0.222,-1.41034c0.63988,-2.70315 2.6248,-5.21043 7.22016,-5.21043c4.17879,0 6.06055,2.44198 6.85582,5.14513c0.1567,0.46881 0.26117,0.96504 0.34083,1.44821c-0.68036,-0.1567 -1.4234,-0.35128 -2.19517,-0.61245c-2.63655,-0.88799 -4.28195,-2.26046 -5.03936,-3.56633c-0.75741,1.30587 -2.4028,2.67834 -5.04066,3.56633c-0.83576,0.28599 -1.63234,0.49623 -2.36363,0.63988" data-paper-data="{&quot;index&quot;:null}" fill="#e6e6e6" fill-rule="evenodd" stroke-width="1"/><path d="M356.56776,225.10104c-6.39746,2.15469 -9.97686,-0.06529 -6.4497,-1.13611c3.52455,-1.05776 4.8043,-5.98089 9.54461,-6.00701c0.90236,0 1.56705,0.25987 1.94575,0.70517c0.3787,-0.4453 1.0447,-0.70517 1.94705,-0.70517c4.73901,0.02612 6.01876,4.94925 9.54461,6.00701c3.52585,1.07081 -0.05223,3.2908 -6.451,1.13611c-2.63786,-0.88799 -4.28326,-2.25916 -5.04066,-3.57809c-0.75741,1.31893 -2.4015,2.6901 -5.04066,3.57809" data-paper-data="{&quot;index&quot;:null}" fill="#ffffff" fill-rule="evenodd" stroke-width="1"/><path d="M355.07946,255.83486c0,-0.26117 0.01306,-0.50929 0.03787,-0.77046c0.23636,2.33751 2.06328,3.61857 4.07432,4.59797c2.90034,1.43515 5.5382,1.4234 9.73005,0.40351c5.2496,-1.26539 6.18983,3.1354 14.19482,0.48317c2.48116,0 3.74785,0.06529 0,1.30587c-8.00499,2.65222 -8.94522,-1.74856 -14.19482,-0.47011c-4.19185,1.01858 -6.82971,1.01858 -9.73005,-0.40482c-2.15338,-1.05776 -4.11219,-2.45373 -4.11219,-5.14513" data-paper-data="{&quot;index&quot;:null}" fill="#e6e6e6" fill-rule="evenodd" stroke-width="1"/><path d="M339.20434,202.16736c3.69622,0 6.69259,3.21562 6.69259,7.18229c0,3.96667 -2.99637,7.18229 -6.69259,7.18229c-3.69622,0 -6.69259,-3.21562 -6.69259,-7.18229c0,-3.96667 2.99637,-7.18229 6.69259,-7.18229z" fill="#ffffff" fill-rule="nonzero" stroke-width="0"/><path d="M359.77181,202.8203c4.05683,0 7.34553,2.99637 7.34553,6.69259c0,3.69622 -3.2887,6.69259 -7.34553,6.69259c-4.05683,0 -7.34553,-2.99637 -7.34553,-6.69259c0,-3.69622 3.2887,-6.69259 7.34553,-6.69259z" fill="#ffffff" fill-rule="nonzero" stroke-width="0"/><path d="M331.35751,195.13671c1.15423,-1.15423 2.30847,0 2.30847,0l0.89842,0.96734c1.01181,1.94963 3.21831,2.38119 5.15879,3.27444c1.70477,0.78475 2.38852,1.86198 4.20859,2.16764c0,0 1.60064,0.32013 1.28051,1.92077c-0.32013,1.60064 -1.92077,1.28051 -1.92077,1.28051c-2.14611,-0.47396 -3.01266,-1.54235 -4.9325,-2.40291c-1.50515,-0.67468 -4.01781,-1.40424 -5.27329,-2.52553c-0.6032,-0.53873 -0.88051,-1.35683 -1.32076,-2.03525l-0.40745,-0.33853c0,0 -1.15423,-1.15423 0,-2.30847z" fill="#ffffff" fill-rule="nonzero" stroke-width="0.5"/><path d="M370.1833,196.97147c0.15324,-0.34352 0.72634,-1.35471 2.02078,-0.92323c1.54857,0.51619 1.03238,2.06477 1.03238,2.06477l-1.87504,2.09555c-3.29701,0 -6.57329,0.72706 -9.85215,1.28366c0,0 -1.61013,0.26836 -1.87848,-1.34178c-0.26836,-1.61013 1.34178,-1.87848 1.34178,-1.87848c3.07164,-0.50366 6.12278,-1.15918 9.21074,-1.30048z" fill="#ffffff" fill-rule="nonzero" stroke-width="0.5"/></g></g></svg>