<svg version="1.1" xmlns="http://www.w3.org/2000/svg" xmlns:xlink="http://www.w3.org/1999/xlink" width="411.89844" height="255.72529" viewBox="0,0,411.89844,255.72529"><g transform="translate(-18.24466,-30.72357)"><g data-paper-data="{&quot;isPaintingLayer&quot;:true}" fill-rule="nonzero" stroke="none" stroke-linecap="butt" stroke-linejoin="miter" stroke-miterlimit="10" stroke-dasharray="" stroke-dashoffset="0" style="mix-blend-mode: normal"><text transform="translate(18.49466,52.50482) scale(0.5,0.5)" font-size="40" xml:space="preserve" fill="#ffffff" fill-rule="nonzero" stroke="none" stroke-width="1" stroke-linecap="butt" stroke-linejoin="miter" stroke-miterlimit="10" stroke-dasharray="" stroke-dashoffset="0" font-family="Sans Serif" font-weight="normal" text-anchor="start" style="mix-blend-mode: normal"><tspan x="0" dy="0">Okay this is pretty self-explanatory...</tspan><tspan x="0" dy="48px">Use the arrow keys, avoid spikes and stuff..</tspan></text><path d="M70.0356,146.8275c2.7693,-25.9013 23.7021,-38.1189 45.2866,-38.1189c23.3763,0 40.9696,17.9191 42.5172,38.8519c0.8145,10.7515 1.5475,46.5898 -2.4435,62.717c-3.9911,16.1272 -17.349,34.2093 -41.0512,35.1052c-38.5261,1.4662 -44.5534,-28.5891 -45.7752,-41.6212c-0.4887,-5.05 -1.1403,-32.6617 1.4661,-56.934z" fill="#00a3a6" stroke-width="0.81451"/><path d="M147.0879,201.8067c-0.2444,0 -0.4887,-0.0815 -0.6516,-0.3258c-0.3258,-0.3258 -0.2444,-0.896 0.0814,-1.1404c0.0815,-0.0814 11.566,-9.8555 17.9192,-19.4666c0.2443,-0.4073 0.733,-0.4888 1.1403,-0.2444c0.4072,0.2444 0.4887,0.7331 0.2443,1.1403c-6.4346,9.7741 -18.082,19.7111 -18.1634,19.7925c-0.163,0.1629 -0.4073,0.2444 -0.5702,0.2444z" fill="#597933" stroke-width="0.81451"/><path d="M118.4173,123.3697c-0.3258,0 -0.6516,-0.1629 -0.7331,-0.4887c-4.4798,-10.5071 -5.3757,-22.3175 -5.3757,-22.3989c0,-0.4887 0.3258,-0.8145 0.733,-0.896c0.4887,0 0.8145,0.3258 0.896,0.7331c0,0.0814 0.896,11.6474 5.2943,21.9102c0.1629,0.4073 0,0.896 -0.4073,1.0589c-0.2443,0 -0.3258,0.0814 -0.4072,0.0814z" fill="#597933" stroke-width="0.81451"/><g stroke-width="0.81451"><path d="M156.6991,202.7026c-0.4073,2.8508 -0.8145,5.4572 -1.3847,7.6564c-3.9911,16.1272 -17.349,34.2092 -41.0511,35.1052c-37.8745,1.3847 -44.3091,-27.6932 -45.6938,-41.0511c10.67,11.7289 26.0642,19.1409 43.3317,19.1409c18.0821,0 34.2093,-8.1451 44.7979,-20.8514z" fill="#008994"/><path d="M115.0778,108.7901c0.7331,3.9096 2.0363,8.7966 3.9911,13.4393c0.1629,0.4073 0,0.896 -0.4073,1.0589c-0.0814,0.0814 -0.2443,0.0814 -0.3258,0.0814c-0.3258,0 -0.5701,-0.1629 -0.733,-0.4887c-2.0363,-4.887 -3.3395,-9.937 -4.154,-14.0909c0.5701,-0.0815 1.1403,-0.0815 1.629,0z" fill="#658542"/><path d="M147.5766,201.6438c-0.0815,0.0814 -0.3258,0.1629 -0.4887,0.1629c-0.2444,0 -0.4887,-0.1629 -0.6516,-0.3258c-0.3258,-0.3258 -0.2444,-0.8145 0.0814,-1.1404c0.0815,-0.0814 5.8645,-4.9684 11.4031,-11.1587c-0.0814,0.896 -0.0814,1.7919 -0.1629,2.6064c-5.1314,5.6201 -10.0998,9.7741 -10.1813,9.8556z" fill="#658542"/><path d="M149.7758,175.661c-0.0815,0.0815 -0.1629,0.0815 -0.2444,0.0815c-0.1629,0 -0.2443,-0.0815 -0.3258,-0.1629c-0.1629,-0.1629 -0.0814,-0.4073 0.0815,-0.5702c0,-0.0814 4.5612,-3.5838 9.1224,-8.3894c0,0.3258 0,0.733 0,1.1403c-4.3983,4.5612 -8.5523,7.8193 -8.6337,7.9007z" fill="#658542"/></g><path d="M100.9054,200.2591l9.041,-1.5476c0,0 -1.7104,19.7111 -0.0814,34.1278c7.0047,-10.9958 18.978,-14.9054 23.6206,-37.793l7.2491,0.4887c-0.8145,19.9554 -16.453,30.2996 -22.8876,43.9833c-6.4346,13.6837 -3.7467,45.8567 -3.7467,45.8567c0,0 -3.6653,1.2218 -9.6926,1.0589c-5.1314,-25.4126 -6.5161,-66.0565 -3.5024,-86.1748z" fill="#668543" stroke-width="0.81451"/><path d="M95.8555,155.5427c-0.0815,0 -0.0815,0 -0.1629,0c-7.9008,-3.7467 -15.3128,-12.9506 -15.3942,-13.0321c-0.1629,-0.1629 -0.0815,-0.4072 0.0814,-0.5701c0.1629,-0.1629 0.4073,-0.0815 0.5702,0.0814c0.0814,0.0815 7.412,9.2039 15.1498,12.8692c0.1629,0.0815 0.3258,0.3258 0.1629,0.5702c-0.0814,-0.0815 -0.2443,0.0814 -0.4072,0.0814z" fill="#658542" stroke-width="0.81451"/><path d="M120.3721,146.5017c-0.1629,0 -0.4073,-0.0815 -0.5702,-0.2444c-0.3258,-0.3258 -0.3258,-0.8145 -0.0814,-1.1403c6.2717,-6.9233 10.8329,-19.1409 10.8329,-19.2223c0.1629,-0.4073 0.6516,-0.6516 1.0589,-0.4887c0.4072,0.1629 0.6516,0.6516 0.4887,1.0588c-0.1629,0.4887 -4.7242,12.5434 -11.1588,19.7111c-0.1629,0.1629 -0.4072,0.3258 -0.5701,0.3258z" fill="#658542" stroke-width="0.81451"/><path d="M86.5701,155.7056c0.7412,0 1.4132,0.3014 1.9002,0.7876c0.4863,0.4871 0.7877,1.1591 0.7877,1.9003c0,0.7412 -0.3014,1.4131 -0.7877,1.9002c-0.487,0.4863 -1.159,0.7876 -1.9002,0.7876c-0.7412,0 -1.4132,-0.3013 -1.9003,-0.7876c-0.4862,-0.4871 -0.7876,-1.159 -0.7876,-1.9002c0,-0.7412 0.3014,-1.4132 0.7876,-1.9003c0.4871,-0.4862 1.1591,-0.7876 1.9003,-0.7876z" fill="#00d9f9" stroke-width="0.81451"/><path d="M82.4161,161.733c0.6744,0 1.2853,0.2736 1.7276,0.7159c0.4422,0.4423 0.7159,1.0532 0.7159,1.7276c0,0.6744 -0.2737,1.2853 -0.7159,1.7275c-0.4423,0.4423 -1.0532,0.716 -1.7276,0.716c-0.6744,0 -1.2853,-0.2737 -1.7276,-0.716c-0.4422,-0.4422 -0.7159,-1.0531 -0.7159,-1.7275c0,-0.6744 0.2737,-1.2853 0.7159,-1.7276c0.4423,-0.4423 1.0532,-0.7159 1.7276,-0.7159z" fill="#00d9f9" stroke-width="0.81451"/><path d="M88.7693,162.7918c0.6744,0 1.2852,0.2737 1.7275,0.716c0.4423,0.4422 0.716,1.0531 0.716,1.7275c0,0.6744 -0.2737,1.2853 -0.716,1.7276c-0.4423,0.4423 -1.0531,0.716 -1.7275,0.716c-0.6745,0 -1.2853,-0.2737 -1.7276,-0.716c-0.4423,-0.4423 -0.716,-1.0532 -0.716,-1.7276c0,-0.6744 0.2737,-1.2853 0.716,-1.7275c0.4423,-0.4423 1.0531,-0.716 1.7276,-0.716z" fill="#00d9f9" stroke-width="0.81451"/><path d="M130.3091,143.4066c0.6744,0 1.2853,0.2736 1.7275,0.7159c0.4423,0.4423 0.716,1.0532 0.716,1.7276c0,0.6744 -0.2737,1.2853 -0.716,1.7276c-0.4422,0.4422 -1.0531,0.7159 -1.7275,0.7159c-0.6744,0 -1.2853,-0.2737 -1.7276,-0.7159c-0.4423,-0.4423 -0.7159,-1.0532 -0.7159,-1.7276c0,-0.6744 0.2736,-1.2853 0.7159,-1.7276c0.4423,-0.4423 1.0532,-0.7159 1.7276,-0.7159z" fill="#00d9f9" stroke-width="0.81451"/><path d="M137.884,145.3614c0.6744,0 1.2853,0.2737 1.7275,0.7159c0.4423,0.4423 0.716,1.0532 0.716,1.7276c0,0.6744 -0.2737,1.2853 -0.716,1.7276c-0.4422,0.4422 -1.0531,0.7159 -1.7275,0.7159c-0.6744,0 -1.2853,-0.2737 -1.7276,-0.7159c-0.4423,-0.4423 -0.7159,-1.0532 -0.7159,-1.7276c0,-0.6744 0.2736,-1.2853 0.7159,-1.7276c0.4423,-0.4422 1.0532,-0.7159 1.7276,-0.7159z" fill="#00d9f9" stroke-width="0.81451"/><path d="M131.6123,151.2258c0.6288,0 1.1989,0.2558 1.6119,0.6687c0.4129,0.413 0.6687,0.9831 0.6687,1.6119c0,0.6288 -0.2558,1.199 -0.6687,1.6119c-0.413,0.413 -0.9831,0.6688 -1.6119,0.6688c-0.6288,0 -1.199,-0.2558 -1.6119,-0.6688c-0.413,-0.4129 -0.6687,-0.9831 -0.6687,-1.6119c0,-0.6288 0.2557,-1.1989 0.6687,-1.6119c0.4129,-0.4129 0.9831,-0.6687 1.6119,-0.6687z" fill="#00d9f9" stroke-width="0.81451"/><path d="M90.9684,108.7086c0.6288,0 1.199,0.2558 1.6119,0.6687c0.413,0.413 0.6687,0.9831 0.6687,1.6119c0,0.6288 -0.2557,1.199 -0.6687,1.6119c-0.4129,0.413 -0.9831,0.6687 -1.6119,0.6687c-0.6288,0 -1.1989,-0.2557 -1.6119,-0.6687c-0.4129,-0.4129 -0.6687,-0.9831 -0.6687,-1.6119c0,-0.6288 0.2558,-1.1989 0.6687,-1.6119c0.413,-0.4129 0.9831,-0.6687 1.6119,-0.6687z" fill="#00d9f9" stroke-width="0.81451"/><path d="M97.6474,109.7675c0.6744,0 1.2853,0.2736 1.7275,0.7159c0.4423,0.4423 0.716,1.0532 0.716,1.7276c0,0.6744 -0.2737,1.2853 -0.716,1.7275c-0.4422,0.4423 -1.0531,0.716 -1.7275,0.716c-0.6744,0 -1.2853,-0.2737 -1.7276,-0.716c-0.4423,-0.4422 -0.7159,-1.0531 -0.7159,-1.7275c0,-0.6744 0.2736,-1.2853 0.7159,-1.7276c0.4423,-0.4423 1.0532,-0.7159 1.7276,-0.7159z" fill="#00d9f9" stroke-width="0.81451"/><path d="M93.4934,116.2021c0.6516,0 1.2421,0.2647 1.6697,0.6923c0.4276,0.4276 0.6924,1.0181 0.6924,1.6697c0,0.6516 -0.2648,1.2421 -0.6924,1.6698c-0.4276,0.4276 -1.0181,0.6923 -1.6697,0.6923c-0.6516,0 -1.2421,-0.2647 -1.6697,-0.6923c-0.4277,-0.4277 -0.6924,-1.0182 -0.6924,-1.6698c0,-0.6516 0.2647,-1.2421 0.6924,-1.6697c0.4276,-0.4276 1.0181,-0.6923 1.6697,-0.6923z" fill="#00d9f9" stroke-width="0.81451"/><path d="M132.9155,184.6206c-0.1629,0 -0.3258,-0.0815 -0.4887,-0.1629c-7.9007,-5.7016 -15.3127,-20.5256 -15.6385,-21.0957c-0.1629,-0.4073 0,-0.896 0.4072,-1.0589c0.4073,-0.1629 0.896,0 1.0589,0.4073c0.0814,0.1629 7.4934,14.9869 15.1498,20.5255c0.3258,0.2444 0.4072,0.7331 0.1629,1.1403c-0.1629,0.0815 -0.4073,0.2444 -0.6516,0.2444z" fill="#658542" stroke-width="0.81451"/><path d="M149.5314,175.7425c-0.0814,0 -0.2443,-0.0815 -0.3258,-0.1629c-0.1629,-0.1629 -0.0814,-0.4073 0.0815,-0.5702c0.0814,-0.0814 9.2039,-7.1676 14.6611,-15.0684c0.1629,-0.1629 0.4072,-0.2443 0.5701,-0.0814c0.1629,0.1629 0.2444,0.4072 0.0815,0.5701c-5.5387,7.9822 -14.7426,15.1499 -14.824,15.2313c-0.0815,0 -0.1629,0.0815 -0.2444,0.0815z" fill="#597933" stroke-width="0.81451"/><path d="M94.3893,203.2728c-0.1629,0 -0.2443,0 -0.3258,-0.0815c-8.0636,-4.0725 -18.2449,-19.2223 -18.7336,-19.8739c-0.2444,-0.4073 -0.1629,-0.896 0.2444,-1.1403c0.4072,-0.2444 0.8959,-0.1629 1.1403,0.2443c0.0814,0.1629 10.3442,15.4756 18.082,19.3038c0.4073,0.1629 0.5702,0.6516 0.3258,1.0589c-0.0814,0.3258 -0.4073,0.4887 -0.7331,0.4887z" fill="#658542" stroke-width="0.81451"/><path d="M85.3483,195.2092c-0.2443,0 -0.4072,-0.1629 -0.4072,-0.4073c-0.4887,-6.2717 -3.0952,-12.3805 -3.0952,-12.4619c-0.0814,-0.2444 0,-0.4073 0.2444,-0.5702c0.2444,-0.1629 0.4073,0 0.5702,0.2444c0,0.0814 2.6878,6.2717 3.1765,12.7063c-0.0814,0.2443 -0.2443,0.4887 -0.4887,0.4887z" fill="#658542" stroke-width="0.81451"/><path d="M90.8055,214.4315c-0.0814,0 -0.0814,0 -0.1629,0c-7.8192,-3.0951 -15.9643,-8.7967 -16.0458,-8.8781c-0.1629,-0.1629 -0.2443,-0.4073 -0.0814,-0.5702c0.1629,-0.1629 0.4072,-0.2443 0.5701,-0.0814c0.0815,0.0814 8.1451,5.7015 15.8829,8.7967c0.2444,0.0814 0.3258,0.3258 0.2444,0.4887c-0.0815,0.1629 -0.2444,0.2443 -0.4073,0.2443z" fill="#658542" stroke-width="0.81451"/><path d="M104.815,276.9041c-0.1629,0 -0.2443,-0.0814 -0.3258,-0.2443c-1.4661,-9.937 -2.4435,-27.7747 -2.4435,-27.9376c0,-0.1629 0.0815,-0.3258 0.3258,-0.3258c0.1629,0 0.3258,0.0815 0.3258,0.3258c0,0.1629 0.9774,18.0006 2.4435,27.9376c0,0.0814 -0.0814,0.2443 -0.3258,0.2443z" fill="#6f7138" stroke-width="0.81451"/><path d="M108.8876,286.3524c-0.2444,0.0815 -0.4073,0.0815 -0.6516,0.0815c-1.0589,-6.2717 -2.0363,-20.1998 -2.0363,-20.3627c-0.0815,-0.1629 0.0814,-0.3258 0.2443,-0.3258c0.1629,-0.0815 0.3258,0.0814 0.3258,0.2443c0,0.163 0.9774,14.1725 2.1178,20.3627z" fill="#6f7138" stroke-width="0.81451"/><path d="M130.7978,209.9517c0,-0.0814 3.9911,-7.2491 4.5612,-14.824h0.5702c-0.5702,7.7378 -4.5613,14.9869 -4.6427,15.0684c0,0.0814 -0.1629,0.1629 -0.2444,0.1629c-0.0814,0 -0.0814,0 -0.1629,0c-0.1629,-0.0815 -0.2443,-0.2444 -0.0814,-0.4073z" fill="#6f7138" stroke-width="0.81451"/><path d="M109.9464,241.5546h-0.0814c-0.1629,-0.0815 -0.2444,-0.2444 -0.1629,-0.4073c4.7241,-11.4031 12.9506,-17.2675 13.0321,-17.349c0.1629,-0.0814 0.3258,-0.0814 0.4072,0.0815c0.0815,0.1629 0.0815,0.3258 -0.0814,0.4072c-0.0815,0.0815 -8.1451,5.8645 -12.8692,17.1047c0,0.0814 -0.0815,0.1629 -0.2444,0.1629z" fill="#6f7138" stroke-width="0.81451"/><path d="M120.8608,229.9071c-0.0815,0 -0.1629,0 -0.2444,-0.0814c-0.0814,-0.0815 -0.1629,-0.3258 0,-0.4073c14.1725,-14.7425 15.6386,-25.4126 15.72,-25.494c0,-0.1629 0.1629,-0.3258 0.3258,-0.2444c0.1629,0 0.3258,0.1629 0.2444,0.3258c0,0.0815 -1.5476,10.9959 -15.8829,25.9013c0,-0.0814 -0.0815,0 -0.1629,0z" fill="#6f7138" stroke-width="0.81451"/><path d="M104.5707,199.6075c-0.8145,7.412 -0.8145,17.4304 -0.8145,17.5119c0,0.1629 -0.1629,0.3258 -0.3258,0.3258c-0.1629,0 -0.3258,-0.1629 -0.3258,-0.3258c0,-0.1629 0,-10.0184 0.8145,-17.4305z" fill="#6f7138" stroke-width="0.81451"/><path d="M105.711,210.359c0,-0.0815 0.3258,-6.1088 0.8145,-11.1588l0.6516,-0.0814c-0.4887,5.0499 -0.8145,11.1587 -0.8145,11.2402c0,0.1629 -0.1629,0.3258 -0.3258,0.3258c0.0814,0 0,0 0,0c-0.1629,0 -0.2444,-0.0815 -0.3258,-0.3258z" fill="#6f7138" stroke-width="0.81451"/><path d="M106.2811,257.4374c-0.1629,0 -0.3258,-0.1629 -0.3258,-0.3258c-0.0814,-5.0499 -0.8145,-9.9369 -1.7104,-15.1498c-1.0589,-6.3531 -2.1177,-12.9506 -1.9548,-20.4441c0,-0.1629 0.1629,-0.3258 0.3258,-0.3258c0.1629,0 0.3258,0.1629 0.3258,0.3258c-0.1629,7.4935 0.8959,14.0095 1.9548,20.3627c0.8145,5.2128 1.629,10.1813 1.7104,15.2312c0,0.1629 -0.1629,0.3258 -0.3258,0.3258z" fill="#6f7138" stroke-width="0.81451"/><path d="M110.8424,268.8405c-0.1629,0 -0.3258,-0.0814 -0.3258,-0.2443c-2.1177,-19.5482 2.6064,-28.8336 2.6878,-28.915c0.0815,-0.1629 0.2444,-0.2444 0.4073,-0.1629c0.1629,0.0814 0.2443,0.2443 0.1629,0.4073c-0.0815,0.0814 -4.7241,9.2039 -2.6064,28.5077c0,0.2443 -0.0815,0.4072 -0.3258,0.4072z" fill="#6f7138" stroke-width="0.81451"/><path d="M162.92885,218.52366c1.16874,-10.93127 10.00313,-16.08754 19.11256,-16.08754c9.86563,0 17.29063,7.5625 17.94378,16.39689c0.34375,4.53752 0.6531,19.66256 -1.03124,26.46881c-1.68439,6.80625 -7.3219,14.43755 -17.32507,14.81565c-16.25939,0.61879 -18.80313,-12.06562 -19.31877,-17.56563c-0.20625,-2.13128 -0.48125,-13.7844 0.61875,-24.02818z" fill="#00a3a6" stroke-width="0.81451"/><path d="M195.44767,241.72684c-0.10315,0 -0.20625,-0.0344 -0.275,-0.1375c-0.1375,-0.1375 -0.10315,-0.37814 0.03435,-0.48129c0.0344,-0.03435 4.88126,-4.15937 7.56254,-8.2156c0.1031,-0.1719 0.30935,-0.20629 0.48125,-0.10315c0.17185,0.10315 0.20625,0.30939 0.1031,0.48125c-2.71563,4.12502 -7.63125,8.31879 -7.6656,8.35314c-0.06879,0.06875 -0.1719,0.10315 -0.24064,0.10315z" fill="#597933" stroke-width="0.81451"/><path d="M183.34766,208.62363c-0.1375,0 -0.275,-0.06875 -0.30939,-0.20625c-1.89064,-4.43437 -2.26874,-9.41878 -2.26874,-9.45314c0,-0.20625 0.1375,-0.34375 0.30935,-0.37814c0.20625,0 0.34375,0.1375 0.37814,0.30939c0,0.03435 0.37814,4.91562 2.23438,9.24689c0.06875,0.1719 0,0.37814 -0.1719,0.44689c-0.1031,0 -0.1375,0.03435 -0.17185,0.03435z" fill="#597933" stroke-width="0.81451"/><g stroke-width="0.81451"><path d="M199.50394,242.10494c-0.1719,1.20314 -0.34375,2.30313 -0.58439,3.23127c-1.68439,6.80625 -7.3219,14.4375 -17.32503,14.81565c-15.98439,0.58439 -18.70002,-11.68752 -19.28441,-17.32503c4.50312,4.95001 11.00002,8.07814 18.28752,8.07814c7.63129,0 14.43755,-3.43752 18.90631,-8.80004z" fill="#008994"/><path d="M181.93827,202.47052c0.30939,1.64999 0.85939,3.71248 1.68439,5.67186c0.06875,0.1719 0,0.37814 -0.1719,0.44689c-0.03435,0.03435 -0.1031,0.03435 -0.1375,0.03435c-0.1375,0 -0.2406,-0.06875 -0.30935,-0.20625c-0.85939,-2.06249 -1.40939,-4.19377 -1.75314,-5.94686c0.2406,-0.0344 0.48125,-0.0344 0.6875,0z" fill="#658542"/><path d="M195.65392,241.65809c-0.0344,0.03435 -0.1375,0.06875 -0.20625,0.06875c-0.10315,0 -0.20625,-0.06875 -0.275,-0.1375c-0.1375,-0.1375 -0.10315,-0.34375 0.03435,-0.48129c0.0344,-0.03435 2.47503,-2.09684 4.81252,-4.70937c-0.03435,0.37814 -0.03435,0.75625 -0.06875,1.09999c-2.16563,2.37188 -4.26248,4.12502 -4.29687,4.15942z" fill="#658542"/><path d="M196.58206,230.69242c-0.0344,0.0344 -0.06875,0.0344 -0.10315,0.0344c-0.06875,0 -0.1031,-0.0344 -0.1375,-0.06875c-0.06875,-0.06875 -0.03435,-0.1719 0.0344,-0.24064c0,-0.03435 1.92499,-1.51249 3.84998,-3.54063c0,0.1375 0,0.30935 0,0.48125c-1.85624,1.92499 -3.60938,3.30002 -3.64373,3.33438z" fill="#658542"/></g><path d="M175.95701,241.0737l3.81562,-0.65314c0,0 -0.72185,8.31879 -0.03435,14.40315c2.95623,-4.64062 8.00939,-6.29061 9.96874,-15.95l3.05938,0.20625c-0.34375,8.42189 -6.94375,12.78751 -9.65938,18.56252c-2.71563,5.77501 -1.58124,19.35316 -1.58124,19.35316c0,0 -1.54689,0.51564 -4.09062,0.44689c-2.16563,-10.72502 -2.75003,-27.8782 -1.47814,-36.36884z" fill="#668543" stroke-width="0.81451"/><path d="M173.82577,222.20178c-0.0344,0 -0.0344,0 -0.06875,0c-3.33442,-1.58124 -6.46255,-5.46562 -6.4969,-5.50001c-0.06875,-0.06875 -0.0344,-0.17185 0.03435,-0.2406c0.06875,-0.06875 0.1719,-0.0344 0.24064,0.03435c0.03435,0.0344 3.12813,3.88437 6.39376,5.43126c0.06875,0.0344 0.1375,0.1375 0.06875,0.24064c-0.03435,-0.0344 -0.1031,0.03435 -0.17185,0.03435z" fill="#658542" stroke-width="0.81451"/><path d="M184.17265,218.38616c-0.06875,0 -0.1719,-0.0344 -0.24064,-0.10315c-0.1375,-0.1375 -0.1375,-0.34375 -0.03435,-0.48125c2.64688,-2.92188 4.57187,-8.07814 4.57187,-8.1125c0.06875,-0.1719 0.275,-0.275 0.44689,-0.20625c0.17185,0.06875 0.275,0.275 0.20625,0.44685c-0.06875,0.20625 -1.99378,5.29376 -4.70941,8.31879c-0.06875,0.06875 -0.17185,0.1375 -0.2406,0.1375z" fill="#658542" stroke-width="0.81451"/><path d="M169.907,222.27053c0.31281,0 0.59642,0.1272 0.80195,0.3324c0.20524,0.20557 0.33244,0.48918 0.33244,0.80199c0,0.31281 -0.1272,0.59638 -0.33244,0.80195c-0.20553,0.20524 -0.48914,0.3324 -0.80195,0.3324c-0.31281,0 -0.59642,-0.12716 -0.80199,-0.3324c-0.20519,-0.20557 -0.3324,-0.48914 -0.3324,-0.80195c0,-0.31281 0.1272,-0.59642 0.3324,-0.80199c0.20557,-0.20519 0.48918,-0.3324 0.80199,-0.3324z" fill="#00d9f9" stroke-width="0.81451"/><path d="M168.15387,224.81431c0.28462,0 0.54244,0.11547 0.72911,0.30214c0.18662,0.18667 0.30214,0.44449 0.30214,0.72911c0,0.28462 -0.11551,0.54244 -0.30214,0.72907c-0.18667,0.18667 -0.44449,0.30218 -0.72911,0.30218c-0.28462,0 -0.54244,-0.11551 -0.72911,-0.30218c-0.18662,-0.18662 -0.30214,-0.44445 -0.30214,-0.72907c0,-0.28462 0.11551,-0.54244 0.30214,-0.72911c0.18667,-0.18667 0.44449,-0.30214 0.72911,-0.30214z" fill="#00d9f9" stroke-width="0.81451"/><path d="M170.83514,225.26116c0.28462,0 0.5424,0.11551 0.72907,0.30218c0.18667,0.18662 0.30218,0.44445 0.30218,0.72907c0,0.28462 -0.11551,0.54244 -0.30218,0.72911c-0.18667,0.18667 -0.44445,0.30218 -0.72907,0.30218c-0.28466,0 -0.54244,-0.11551 -0.72911,-0.30218c-0.18667,-0.18667 -0.30218,-0.44449 -0.30218,-0.72911c0,-0.28462 0.11551,-0.54244 0.30218,-0.72907c0.18667,-0.18667 0.44445,-0.30218 0.72911,-0.30218z" fill="#00d9f9" stroke-width="0.81451"/><path d="M188.36642,217.07992c0.28462,0 0.54244,0.11547 0.72907,0.30214c0.18667,0.18667 0.30218,0.44449 0.30218,0.72911c0,0.28462 -0.11551,0.54244 -0.30218,0.72911c-0.18662,0.18662 -0.44445,0.30214 -0.72907,0.30214c-0.28462,0 -0.54244,-0.11551 -0.72911,-0.30214c-0.18667,-0.18667 -0.30214,-0.44449 -0.30214,-0.72911c0,-0.28462 0.11547,-0.54244 0.30214,-0.72911c0.18667,-0.18667 0.44449,-0.30214 0.72911,-0.30214z" fill="#00d9f9" stroke-width="0.81451"/><path d="M191.5633,217.90491c0.28462,0 0.54244,0.11551 0.72907,0.30214c0.18667,0.18667 0.30218,0.44449 0.30218,0.72911c0,0.28462 -0.11551,0.54244 -0.30218,0.72911c-0.18662,0.18662 -0.44445,0.30214 -0.72907,0.30214c-0.28462,0 -0.54244,-0.11551 -0.72911,-0.30214c-0.18667,-0.18667 -0.30214,-0.44449 -0.30214,-0.72911c0,-0.28462 0.11547,-0.54244 0.30214,-0.72911c0.18667,-0.18662 0.44449,-0.30214 0.72911,-0.30214z" fill="#00d9f9" stroke-width="0.81451"/><path d="M188.91642,220.3799c0.26538,0 0.50598,0.10796 0.68028,0.28222c0.17426,0.1743 0.28222,0.4149 0.28222,0.68028c0,0.26538 -0.10796,0.50602 -0.28222,0.68028c-0.1743,0.1743 -0.4149,0.28226 -0.68028,0.28226c-0.26538,0 -0.50602,-0.10796 -0.68028,-0.28226c-0.1743,-0.17426 -0.28222,-0.4149 -0.28222,-0.68028c0,-0.26538 0.10791,-0.50598 0.28222,-0.68028c0.17426,-0.17426 0.4149,-0.28222 0.68028,-0.28222z" fill="#00d9f9" stroke-width="0.81451"/><path d="M171.76324,202.43612c0.26538,0 0.50602,0.10796 0.68028,0.28222c0.1743,0.1743 0.28222,0.4149 0.28222,0.68028c0,0.26538 -0.10791,0.50602 -0.28222,0.68028c-0.17426,0.1743 -0.4149,0.28222 -0.68028,0.28222c-0.26538,0 -0.50598,-0.10791 -0.68028,-0.28222c-0.17426,-0.17426 -0.28222,-0.4149 -0.28222,-0.68028c0,-0.26538 0.10796,-0.50598 0.28222,-0.68028c0.1743,-0.17426 0.4149,-0.28222 0.68028,-0.28222z" fill="#00d9f9" stroke-width="0.81451"/><path d="M174.58202,202.88301c0.28462,0 0.54244,0.11547 0.72907,0.30214c0.18667,0.18667 0.30218,0.44449 0.30218,0.72911c0,0.28462 -0.11551,0.54244 -0.30218,0.72907c-0.18662,0.18667 -0.44445,0.30218 -0.72907,0.30218c-0.28462,0 -0.54244,-0.11551 -0.72911,-0.30218c-0.18667,-0.18662 -0.30214,-0.44445 -0.30214,-0.72907c0,-0.28462 0.11547,-0.54244 0.30214,-0.72911c0.18667,-0.18667 0.44449,-0.30214 0.72911,-0.30214z" fill="#00d9f9" stroke-width="0.81451"/><path d="M172.82888,205.59865c0.275,0 0.52421,0.11171 0.70467,0.29218c0.18046,0.18046 0.29222,0.42967 0.29222,0.70467c0,0.275 -0.11176,0.52421 -0.29222,0.70472c-0.18046,0.18046 -0.42967,0.29218 -0.70467,0.29218c-0.275,0 -0.52421,-0.11171 -0.70467,-0.29218c-0.1805,-0.1805 -0.29222,-0.42972 -0.29222,-0.70472c0,-0.275 0.11171,-0.52421 0.29222,-0.70467c0.18046,-0.18046 0.42967,-0.29218 0.70467,-0.29218z" fill="#00d9f9" stroke-width="0.81451"/><path d="M189.46642,234.47369c-0.06875,0 -0.1375,-0.0344 -0.20625,-0.06875c-3.33438,-2.40628 -6.46251,-8.66254 -6.60001,-8.90314c-0.06875,-0.1719 0,-0.37814 0.17185,-0.44689c0.1719,-0.06875 0.37814,0 0.44689,0.1719c0.03435,0.06875 3.16248,6.32501 6.39376,8.66249c0.1375,0.10315 0.17185,0.30939 0.06875,0.48125c-0.06875,0.0344 -0.1719,0.10315 -0.275,0.10315z" fill="#658542" stroke-width="0.81451"/><path d="M196.47892,230.72682c-0.03435,0 -0.1031,-0.0344 -0.1375,-0.06875c-0.06875,-0.06875 -0.03435,-0.1719 0.0344,-0.24064c0.03435,-0.03435 3.88437,-3.02498 6.18751,-6.3594c0.06875,-0.06875 0.17185,-0.1031 0.2406,-0.03435c0.06875,0.06875 0.10315,0.17185 0.0344,0.2406c-2.33753,3.36877 -6.2219,6.3938 -6.25626,6.42815c-0.0344,0 -0.06875,0.0344 -0.10315,0.0344z" fill="#597933" stroke-width="0.81451"/><path d="M173.20698,242.34559c-0.06875,0 -0.1031,0 -0.1375,-0.0344c-3.40313,-1.71874 -7.7,-8.1125 -7.90625,-8.3875c-0.10315,-0.1719 -0.06875,-0.37814 0.10315,-0.48125c0.17185,-0.10315 0.3781,-0.06875 0.48125,0.1031c0.03435,0.06875 4.36562,6.53126 7.63125,8.14689c0.1719,0.06875 0.24064,0.275 0.1375,0.44689c-0.03435,0.1375 -0.1719,0.20625 -0.30939,0.20625z" fill="#658542" stroke-width="0.81451"/><path d="M169.39136,238.94246c-0.1031,0 -0.17185,-0.06875 -0.17185,-0.1719c-0.20625,-2.64688 -1.30628,-5.22501 -1.30628,-5.25937c-0.03435,-0.10315 0,-0.1719 0.10315,-0.24064c0.10315,-0.06875 0.1719,0 0.24064,0.10315c0,0.03435 1.13435,2.64688 1.3406,5.36251c-0.03435,0.1031 -0.1031,0.20625 -0.20625,0.20625z" fill="#658542" stroke-width="0.81451"/><path d="M171.69449,247.05496c-0.03435,0 -0.03435,0 -0.06875,0c-3.29998,-1.30624 -6.7375,-3.71252 -6.7719,-3.74688c-0.06875,-0.06875 -0.1031,-0.1719 -0.03435,-0.24064c0.06875,-0.06875 0.17185,-0.1031 0.2406,-0.03435c0.0344,0.03435 3.43752,2.40624 6.70315,3.71252c0.10315,0.03435 0.1375,0.1375 0.10315,0.20625c-0.0344,0.06875 -0.10315,0.1031 -0.1719,0.1031z" fill="#658542" stroke-width="0.81451"/><path d="M177.607,273.42063c-0.06875,0 -0.1031,-0.03435 -0.1375,-0.1031c-0.61875,-4.19377 -1.03124,-11.72192 -1.03124,-11.79066c0,-0.06875 0.0344,-0.1375 0.1375,-0.1375c0.06875,0 0.1375,0.0344 0.1375,0.1375c0,0.06875 0.4125,7.5969 1.03124,11.79066c0,0.03435 -0.03435,0.1031 -0.1375,0.1031z" fill="#6f7138" stroke-width="0.81451"/><path d="M179.32578,277.40815c-0.10315,0.0344 -0.1719,0.0344 -0.275,0.0344c-0.44689,-2.64688 -0.85939,-8.52504 -0.85939,-8.59379c-0.0344,-0.06875 0.03435,-0.1375 0.1031,-0.1375c0.06875,-0.0344 0.1375,0.03435 0.1375,0.1031c0,0.06879 0.4125,5.9813 0.89379,8.59379z" fill="#6f7138" stroke-width="0.81451"/><path d="M188.57267,245.16432c0,-0.03435 1.68439,-3.05938 1.92499,-6.25626h0.24064c-0.24064,3.26563 -1.92503,6.32501 -1.95939,6.3594c0,0.03435 -0.06875,0.06875 -0.10315,0.06875c-0.03435,0 -0.03435,0 -0.06875,0c-0.06875,-0.0344 -0.1031,-0.10315 -0.03435,-0.1719z" fill="#6f7138" stroke-width="0.81451"/><path d="M179.77264,258.50188h-0.03435c-0.06875,-0.0344 -0.10315,-0.10315 -0.06875,-0.1719c1.99374,-4.81252 5.46562,-7.2875 5.50001,-7.3219c0.06875,-0.03435 0.1375,-0.03435 0.17185,0.0344c0.0344,0.06875 0.0344,0.1375 -0.03435,0.17185c-0.0344,0.0344 -3.43752,2.47503 -5.43126,7.21879c0,0.03435 -0.0344,0.06875 -0.10315,0.06875z" fill="#6f7138" stroke-width="0.81451"/><path d="M184.3789,253.58621c-0.0344,0 -0.06875,0 -0.10315,-0.03435c-0.03435,-0.0344 -0.06875,-0.1375 0,-0.1719c5.9813,-6.22186 6.60005,-10.72502 6.6344,-10.75938c0,-0.06875 0.06875,-0.1375 0.1375,-0.10315c0.06875,0 0.1375,0.06875 0.10315,0.1375c0,0.0344 -0.65314,4.64066 -6.70315,10.93127c0,-0.03435 -0.0344,0 -0.06875,0z" fill="#6f7138" stroke-width="0.81451"/><path d="M177.5039,240.7987c-0.34375,3.12813 -0.34375,7.35625 -0.34375,7.39065c0,0.06875 -0.06875,0.1375 -0.1375,0.1375c-0.06875,0 -0.1375,-0.06875 -0.1375,-0.1375c0,-0.06875 0,-4.22812 0.34375,-7.35629z" fill="#6f7138" stroke-width="0.81451"/><path d="M177.98515,245.33622c0,-0.0344 0.1375,-2.57813 0.34375,-4.70941l0.275,-0.03435c-0.20625,2.13124 -0.34375,4.70937 -0.34375,4.74377c0,0.06875 -0.06875,0.1375 -0.1375,0.1375c0.03435,0 0,0 0,0c-0.06875,0 -0.10315,-0.0344 -0.1375,-0.1375z" fill="#6f7138" stroke-width="0.81451"/><path d="M178.22575,265.20498c-0.06875,0 -0.1375,-0.06875 -0.1375,-0.1375c-0.03435,-2.13124 -0.34375,-4.19373 -0.72185,-6.39376c-0.44689,-2.68124 -0.89375,-5.46562 -0.825,-8.62814c0,-0.06875 0.06875,-0.1375 0.1375,-0.1375c0.06875,0 0.1375,0.06875 0.1375,0.1375c-0.06875,3.16252 0.3781,5.91251 0.825,8.59379c0.34375,2.19999 0.6875,4.29687 0.72185,6.42811c0,0.06875 -0.06875,0.1375 -0.1375,0.1375z" fill="#6f7138" stroke-width="0.81451"/><path d="M180.15078,270.0175c-0.06875,0 -0.1375,-0.03435 -0.1375,-0.1031c-0.89375,-8.25004 1.09999,-12.16881 1.13435,-12.20316c0.0344,-0.06875 0.10315,-0.10315 0.1719,-0.06875c0.06875,0.03435 0.1031,0.1031 0.06875,0.1719c-0.0344,0.03435 -1.99374,3.88437 -1.09999,12.03127c0,0.1031 -0.0344,0.17185 -0.1375,0.17185z" fill="#6f7138" stroke-width="0.81451"/></g></g></svg>