<svg version="1.1" xmlns="http://www.w3.org/2000/svg" xmlns:xlink="http://www.w3.org/1999/xlink" width="639.34492" height="614.74699" viewBox="0,0,639.34492,614.74699"><g transform="translate(84.10588,72.12171)"><g data-paper-data="{&quot;isPaintingLayer&quot;:true}" fill-rule="nonzero" stroke-linejoin="miter" stroke-miterlimit="10" stroke-dasharray="" stroke-dashoffset="0" style="mix-blend-mode: normal"><path d="M237.76598,360.91757c0,73.26348 -71.88558,132.65526 -160.56093,132.65526c-88.67535,0 -160.56093,-59.39178 -160.56093,-132.65526c0,-73.26348 71.88558,-132.65526 160.56093,-132.65526c88.67535,0 160.56093,59.39178 160.56093,132.65526z" fill="none" stroke="#ffffff" stroke-width="1.5" stroke-linecap="butt"/><path d="M381.22004,276.8397c95.69383,0 173.269,59.33023 173.269,132.51779c0,73.18755 -77.57517,132.51779 -173.269,132.51779c-95.69383,0 -173.269,-59.33023 -173.269,-132.51779c0,-73.18755 77.57517,-132.51779 173.269,-132.51779z" fill="none" stroke="#ffffff" stroke-width="1.5" stroke-linecap="butt"/><path d="M88.77951,228.07015l-12.5,8l-8.5,-9" fill="none" stroke="#ffffff" stroke-width="1.5" stroke-linecap="round"/><path d="M76.27951,236.57015l2,-39" fill="none" stroke="#ffffff" stroke-width="1.5" stroke-linecap="round"/><path d="M70.77951,218.07015l7.5,-18.5l6.5,19" fill="none" stroke="#ffffff" stroke-width="1.5" stroke-linecap="round"/><path d="M78.02951,182.57015c5.93706,0 10.75,4.70101 10.75,10.5c0,5.79899 -4.81294,10.5 -10.75,10.5c-5.93706,0 -10.75,-4.70101 -10.75,-10.5c0,-5.79899 4.81294,-10.5 10.75,-10.5z" fill="#480bb3" stroke="#ffffff" stroke-width="1.5" stroke-linecap="butt"/><path d="M75.27951,184.07015l3.5,-9.5l0.5,9" fill="none" stroke="#ffffff" stroke-width="1.5" stroke-linecap="round"/><path d="M88.77951,192.07015c0,0 -7.27507,4.95871 -10.47936,5.23734c-4.19318,0.36462 -12.52064,-3.23734 -12.52064,-3.23734" fill="none" stroke="#ffffff" stroke-width="1.5" stroke-linecap="round"/><path d="M83.56485,197.24213c0,-0.69036 0.55964,-1.25 1.25,-1.25c0.69036,0 1.25,0.55964 1.25,1.25c0,0.69036 -0.55964,1.25 -1.25,1.25c-0.69036,0 -1.25,-0.55964 -1.25,-1.25z" fill="#ffffff" stroke="none" stroke-width="0.5" stroke-linecap="butt"/><path d="M439.76557,111.81147c-46.85298,0 -84.83483,-41.00695 -84.83483,-91.59159c0,-50.58464 37.98184,-91.59159 84.83483,-91.59159c46.85298,0 84.83483,41.00695 84.83483,91.59159c0,50.58464 -37.98184,91.59159 -84.83483,91.59159z" fill="none" stroke="#ffffff" stroke-width="1.5" stroke-linecap="butt"/><text transform="translate(145.62966,184.90816) scale(0.77243,0.77243)" font-size="40" xml:space="preserve" fill="#ffffff" fill-rule="nonzero" stroke="none" stroke-width="1" stroke-linecap="butt" stroke-linejoin="miter" stroke-miterlimit="10" stroke-dasharray="" stroke-dashoffset="0" font-family="Sans Serif" font-weight="normal" text-anchor="start" style="mix-blend-mode: normal"><tspan x="0" dy="0">Thanks for playing!</tspan></text></g></g></svg>