<svg version="1.1" xmlns="http://www.w3.org/2000/svg" xmlns:xlink="http://www.w3.org/1999/xlink" width="401.89844" height="278.33076" viewBox="0,0,401.89844,278.33076"><g transform="translate(-18.24467,-30.72356)"><g data-paper-data="{&quot;isPaintingLayer&quot;:true}" fill-rule="nonzero" stroke="none" stroke-linecap="butt" stroke-linejoin="miter" stroke-miterlimit="10" stroke-dasharray="" stroke-dashoffset="0" style="mix-blend-mode: normal"><text transform="translate(18.49467,52.50482) scale(0.5,0.5)" font-size="40" xml:space="preserve" fill="#ffffff" fill-rule="nonzero" stroke="none" stroke-width="1" stroke-linecap="butt" stroke-linejoin="miter" stroke-miterlimit="10" stroke-dasharray="" stroke-dashoffset="0" font-family="Sans Serif" font-weight="normal" text-anchor="start" style="mix-blend-mode: normal"><tspan x="0" dy="0">Avoid pits...</tspan><tspan x="0" dy="48px"> </tspan><tspan x="0" dy="48px">Not enough jump power? Jump,</tspan><tspan x="0" dy="48px">Then quickly press down, and jump again.</tspan></text><path d="M133.92743,292.45114c-0.25956,-0.41449 -0.62072,-0.83925 -0.62072,-1.31181c0,-1.66359 0,-3.32718 0,-4.99077c0.07712,-0.07246 -0.04291,-0.18867 -0.08957,-0.27616c-0.21142,-0.39648 -0.19454,-0.66944 -0.19454,-1.08495c0,-0.77085 0.34566,-1.35542 0.56822,-2.04168c0.11019,-0.33975 -0.05595,-0.73309 0.05249,-1.08496c0.05346,-0.17347 0.23163,-0.32437 0.23163,-0.50302c0.04505,-0.3471 0.20154,-0.42595 0.28411,-0.68056c0.29554,-0.91125 0,-2.24195 0,-3.17595c0,-0.27161 -0.1559,-1.17632 0.19455,-1.31181l0.13724,-0.21916c0.07972,-0.13428 0.25105,-0.22715 0.44953,-0.22715c0.19848,0 0.3698,0.09286 0.44952,0.22715l0.2793,0.44602l-0.05782,0.02308c0.03035,0.16071 0.0093,0.28101 0.05782,0.43062c0.22715,0.70039 0.96918,1.27927 1.18895,1.99237c0.06368,0.20664 -0.10546,0.56657 -0.05249,0.72987c0.09896,0.30513 0.3366,0.52229 0.3366,0.8581c-0.119,0.11179 0.28412,0.68547 0.28412,0.90741c0,0.65688 0.36811,0.93866 0.56822,1.58797c0.15335,0.49757 0.35568,1.14374 0.51574,1.63729c0.09446,0.29123 0.31525,0.50233 0.33516,0.81295c0.00164,-0.00291 0.00332,-0.00581 0.00501,-0.00871c0.19436,-0.33216 0.87778,-0.74699 1.18537,-1.03109c0.17666,-0.16317 0.35943,-0.3298 0.58677,-0.4463c0.23353,-0.11968 0.29534,-0.08776 0.28699,-0.01615c0.03727,-0.01557 0.06446,-0.02918 0.06815,-0.04056c0.0877,-0.27042 0.08587,-0.5737 0.27484,-0.80879c0.37612,-0.4679 0.27922,0.10562 0.29338,0.12823c0.04235,0.06763 0,-0.15123 0,-0.22685c0.04505,-0.3471 0.20154,-0.42596 0.28411,-0.68057c0.14962,-0.46134 0.03808,-0.76812 0.42974,-1.18813c0.07998,-0.08578 0.16493,-0.17806 0.28411,-0.22685c0.04569,-0.01871 0.11083,0.0884 0.13849,0.05386c0.14225,-0.17768 -0.01062,-0.42647 0.05249,-0.63124c0.03315,-0.10758 0.19684,-0.16891 0.23163,-0.27616c0.1669,-0.5146 -0.12769,-1.02408 0.19455,-1.53866c0.09471,-0.15123 0.09351,-0.38002 0.28411,-0.45371l0.13724,-0.21916c0.07972,-0.13428 0.25105,-0.22715 0.44953,-0.22715c0.19848,0 0.3698,0.09286 0.44952,0.22715l0.13724,0.21916c0.00445,0.00709 0.00888,0.01418 0.0133,0.02125l0.12875,0.2056l-0.00051,0.0002c0.35911,0.58178 0.62123,1.07609 0.62123,1.76531c0,0.50803 -0.19106,1.33192 -0.06741,1.81261c0.02604,-0.05275 0.06385,-0.1085 0.1199,-0.17533c0.35834,-0.42725 -0.07129,-0.99273 0.51931,-1.46429c0.62124,-0.40231 0.96863,-1.36552 1.32744,-1.9385c0.12486,-0.19939 0.45486,-0.54217 0.51573,-0.72987c0.10625,-0.32761 -0.1775,-0.83057 0,-1.13427c0.41758,-0.71447 0.96957,-0.86482 1.70112,-0.28071c0.76537,0.90398 0.42974,2.37237 0.42974,3.45666c0,0.24025 -0.11712,0.75747 -0.05249,0.95673c0.01937,0.05975 0.11325,0.11363 0.14276,0.16721c0.54497,-0.85057 1.26198,-1.56226 1.80896,-2.43575c0.12486,-0.19939 0.45486,-0.54217 0.51574,-0.72987c0.11019,-0.33975 -0.05595,-0.73308 0.05249,-1.08495c0.06814,-0.22111 0.29825,-0.47627 0.42618,-0.68056c0.33284,-0.53152 0.66078,-1.41282 1.15499,-1.80743c0.27712,-0.22127 0.78831,0.17572 1.06543,0.39699c0.14998,0.11975 -0.00529,0.35154 0.08956,0.50302c0.52367,0.83627 0.47866,1.53247 0.47866,2.44607c0,0.51952 0.12301,0.61154 0.28412,1.13426c0.10976,0.35613 -0.15417,0.87007 -0.05249,1.18358c0.18014,0.55543 0.45128,0.98888 0.62071,1.53866c0.10869,0.35266 -0.10829,0.64076 0.08957,0.95673c0.32822,0.68225 -0.06328,1.40857 0.14205,2.04168c0.12311,0.37959 0.50029,0.69417 0.62072,1.08495c0.02786,0.09041 -0.08172,0.18603 -0.05249,0.27617c0.00889,0.02741 0.03347,0.05359 0.06031,0.07907c0.63647,-0.91915 1.60031,-1.46342 2.55277,-2.22393c0.18941,-0.15123 0.32986,-0.35613 0.56822,-0.45371c0.04569,-0.01871 0.11084,0.0884 0.13849,0.05386c0.14225,-0.17768 -0.01062,-0.42647 0.05249,-0.63124c0.25385,-0.82365 0.62127,-1.97163 1.27852,-2.72224c0.54569,-0.62321 0.99123,-0.70475 1.9363,-0.27616c0.05204,0.0236 0,0.61631 0,0.68056c-0.0762,0.07158 0.28412,0.88496 0.28412,1.13426c0,0.51607 0.40587,0.83434 0.56822,1.36111c0.22516,0.73057 0,1.73954 0,2.49539c0,0.55806 0.11522,1.22136 -0.05249,1.76551c-0.07717,0.25038 -0.44537,0.51289 -0.51574,0.72987c-0.11042,0.34049 0.02931,0.78176 0,1.13426c-0.03113,0.37431 -0.19698,0.41188 -0.28412,0.68056c-0.09601,0.29604 -0.01017,0.56366 -0.19454,0.8581c-0.22627,0.12458 -0.07651,0.92158 -0.14206,1.13427c-0.03315,0.10758 -0.19684,0.16891 -0.23163,0.27616c-0.21069,0.64963 -0.13685,1.34422 -0.3366,1.99237c-0.07717,0.25038 -0.44537,0.5129 -0.51574,0.72987c-0.06441,0.19861 -0.00125,0.49496 -0.00851,0.70165c-0.09753,0.47465 -0.3565,0.53023 -0.55971,0.88632c-0.09706,0.17009 0.03699,0.49398 0,0.68056c-0.034,0.17143 -0.05361,0.35031 -0.14562,0.50757c-0.05669,0.09688 -0.16493,0.17807 -0.28412,0.22686c-0.04569,0.01871 -0.11083,-0.08841 -0.13849,-0.05386c-0.16718,0.20884 -0.01423,0.50986 -0.14562,0.73442c-0.09127,0.15598 -0.34478,0.21337 -0.47509,0.35053c-0.32554,0.34264 -0.38911,0.76439 -0.79058,1.08495c-0.07487,0.05978 -0.19123,0.15402 -0.28411,0.11343c-0.00413,-0.0018 -0.0078,-0.00381 -0.01104,-0.006c-0.05418,0.26415 -0.1913,0.53665 -0.42797,0.72562c-0.27292,0.14731 -0.75467,0.56654 -0.90801,0.36132c-0.23716,0.38039 -0.42348,0.76369 -0.9259,0.96073c-0.17606,0.06905 -0.5831,0.23894 -0.77541,0.24839c-0.05833,0.00287 -0.08924,-0.11052 -0.13869,-0.08565c-0.31432,0.15809 -0.4162,0.51295 -0.72882,0.67316c-0.0797,0.04084 -0.20551,0.04218 -0.28411,0c-0.0444,-0.02383 0.11253,-0.13928 0.06746,-0.11628c-0.87474,0.44645 -1.57913,0.84256 -2.60931,1.11674c-0.39004,0.09927 -0.75513,0.28275 -1.15163,0.36065c-0.09196,0.01807 -0.20551,0.04218 -0.28411,0c-0.0444,-0.02383 0.11254,-0.13928 0.06746,-0.11627c-0.32701,0.1669 -0.56818,0.43881 -0.9198,0.56998c-0.2478,0.09244 -0.85802,0 -1.13646,0c-1.04175,0 -2.0835,0 -3.12525,0c-0.96543,0 -1.69755,-0.276 -2.55703,-0.45371c-0.3005,-0.06214 -0.63856,-0.01136 -0.9198,-0.11627c-0.19536,-0.07288 -0.26722,-0.27528 -0.43901,-0.37934c-0.53272,-0.32268 -0.98115,-0.27631 -1.41085,-0.79187c-0.05406,-0.06486 -0.08211,-0.17893 -0.01248,-0.2335c0.02675,-0.02096 0.09062,0.00682 0.14246,0.0363c-0.39486,-0.25236 -0.83064,-0.39048 -1.07234,-0.77645c0.59485,-0.01454 -0.35336,-0.0775 -0.76277,-0.40439c-0.1341,-0.10708 -0.13839,-0.17089 -0.08775,-0.20275c-0.07205,-0.0493 -0.14387,-0.09807 -0.20563,-0.12273c-0.40671,-0.16237 -0.51469,-0.17343 -0.84307,-0.58193c-0.03111,-0.0387 -0.05906,-0.11028 -0.05508,-0.16285c-0.18671,-0.0799 -0.36491,-0.17251 -0.51314,-0.29086c-0.06697,-0.05347 -0.05283,-0.16409 0,-0.22686c0.02984,-0.03545 0.17444,0.08986 0.14562,0.05386c-0.20902,-0.2611 -0.54958,-0.45367 -0.71385,-0.73442c-0.04009,-0.06851 -0.05179,-0.16354 0,-0.22686c0.02866,-0.03503 0.17154,0.08704 0.14316,0.05187c-0.25029,-0.31009 -0.6562,-0.54615 -0.92031,-0.86246c-0.35189,-0.53917 -0.40465,-1.01239 -0.69869,-1.57818c-0.4728,-0.90973 -1.11358,-1.86535 -1.36529,-2.82885c-0.0662,-0.2534 -0.0837,-0.53192 -0.07937,-0.81789zM157.10125,285.52471c-0.08429,0.03366 0.00908,0.03381 0.14753,0.02548l-0.01719,-0.02354c-0.04717,-0.00924 -0.09454,-0.01623 -0.13034,-0.00194zM140.74717,284.50306c-0.09329,-0.00793 -0.17615,-0.01979 -0.12453,0.00081c0.03432,0.01371 0.0793,0.00784 0.12453,-0.00081zM149.77895,280.5263c-0.02363,-0.00152 -0.04576,0.00009 -0.06466,0.00763c-0.03643,0.01454 0.00384,0.00383 0.06466,-0.00763zM145.23191,281.88735c-0.02317,-0.00139 -0.04487,0.00029 -0.06345,0.00772c-0.03465,0.01383 0.00435,0.00383 0.06345,-0.00772zM138.6973,285.517c-0.02317,-0.00139 -0.04487,0.00029 -0.06345,0.00771c-0.03465,0.01383 0.00435,0.00383 0.06345,-0.00771zM141.95705,302.0771c-0.01494,0.06579 -0.04807,0.13634 0.01469,0.16111c0.06032,0.02381 -0.00441,-0.08547 -0.01469,-0.16111zM139.13412,299.90157c-0.01113,0.06781 -0.02698,0.12321 -0.00307,0.08503c0.01487,-0.02376 0.01134,-0.0539 0.00307,-0.08503zM159.58318,299.18852c0.01233,-0.03938 0.02279,-0.07942 0.00406,-0.10933c-0.02704,-0.04317 -0.01352,0.03077 -0.00406,0.10933z" fill="#ffa200" stroke-width="0.5"/><path d="M139.35531,294.27534c-0.17093,-0.27296 -0.40877,-0.55268 -0.40877,-0.86389c0,-1.09555 0,-2.19111 0,-3.28667c0.05079,-0.04771 -0.02826,-0.12425 -0.05899,-0.18187c-0.13924,-0.2611 -0.12812,-0.44086 -0.12812,-0.71449c0,-0.50765 0.22764,-0.89261 0.37421,-1.34454c0.07256,-0.22374 -0.03686,-0.48277 0.03456,-0.71449c0.0352,-0.11424 0.15254,-0.21362 0.15254,-0.33126c0.02967,-0.22859 0.13272,-0.28052 0.18711,-0.44819c0.19463,-0.6001 0,-1.47643 0,-2.09152c0,-0.17886 -0.10268,-0.77466 0.12812,-0.86388l0.09038,-0.14433c0.0525,-0.08843 0.16532,-0.14959 0.29603,-0.14959c0.13071,0 0.24353,0.06115 0.29603,0.14959l0.18394,0.29372l-0.03808,0.0152c0.01998,0.10583 0.00613,0.18507 0.03808,0.28359c0.14959,0.46125 0.63825,0.84246 0.78298,1.31206c0.04194,0.13608 -0.06945,0.37311 -0.03457,0.48066c0.06517,0.20094 0.22167,0.34395 0.22167,0.56511c-0.07836,0.07362 0.18711,0.45141 0.18711,0.59758c0,0.43259 0.24242,0.61816 0.3742,1.04576c0.10099,0.32767 0.23423,0.75321 0.33964,1.07823c0.0622,0.1918 0.20761,0.3308 0.22072,0.53537c0.00108,-0.00192 0.00218,-0.00383 0.0033,-0.00574c0.12799,-0.21874 0.57807,-0.49192 0.78063,-0.67902c0.11634,-0.10746 0.2367,-0.2172 0.38641,-0.29392c0.15379,-0.07882 0.1945,-0.0578 0.189,-0.01064c0.02454,-0.01025 0.04245,-0.01921 0.04488,-0.02671c0.05776,-0.17809 0.05655,-0.37781 0.181,-0.53262c0.24769,-0.30814 0.18388,0.06956 0.19321,0.08445c0.02789,0.04454 0,-0.0996 0,-0.1494c0.02967,-0.22859 0.13272,-0.28051 0.18711,-0.44818c0.09853,-0.30381 0.02508,-0.50585 0.28301,-0.78244c0.05267,-0.05649 0.10862,-0.11727 0.18711,-0.1494c0.03009,-0.01232 0.07299,0.05822 0.0912,0.03547c0.09367,-0.11701 -0.00699,-0.28086 0.03457,-0.41571c0.02184,-0.07085 0.12963,-0.11124 0.15254,-0.18187c0.10991,-0.33889 -0.08409,-0.6744 0.12812,-1.01328c0.06237,-0.0996 0.06159,-0.25026 0.18711,-0.29879l0.09037,-0.14433c0.0525,-0.08843 0.16532,-0.14959 0.29603,-0.14959c0.13071,0 0.24354,0.06115 0.29604,0.14959l0.09037,0.14433c0.00293,0.00468 0.00585,0.00934 0.00876,0.01399l0.08479,0.1354l-0.00034,0.00014c0.23649,0.38313 0.40911,0.70866 0.40911,1.16255c0,0.33456 -0.12581,0.87713 -0.04439,1.19369c0.01714,-0.03474 0.04204,-0.07145 0.07895,-0.11546c0.23598,-0.28136 -0.04694,-0.65376 0.342,-0.96431c0.40912,-0.26495 0.63788,-0.89927 0.87417,-1.2766c0.08222,-0.13131 0.29955,-0.35705 0.33964,-0.48066c0.06997,-0.21574 -0.11689,-0.54697 0,-0.74697c0.275,-0.47052 0.63851,-0.56953 1.12027,-0.18487c0.50403,0.59531 0.283,1.56232 0.283,2.27638c0,0.15821 -0.07712,0.49883 -0.03456,0.63005c0.01276,0.03935 0.07458,0.07483 0.09401,0.11012c0.35889,-0.56014 0.83107,-1.02883 1.19129,-1.60406c0.08222,-0.13131 0.29955,-0.35705 0.33964,-0.48066c0.07256,-0.22374 -0.03686,-0.48277 0.03456,-0.71449c0.04487,-0.1456 0.19641,-0.31365 0.28065,-0.44818c0.21919,-0.35003 0.43516,-0.93041 0.76062,-1.19027c0.1825,-0.14571 0.51914,0.11572 0.70164,0.26144c0.09877,0.07887 -0.00348,0.2315 0.05899,0.33126c0.34486,0.55072 0.31522,1.00921 0.31522,1.61086c0,0.34213 0.08101,0.40273 0.1871,0.74697c0.07228,0.23453 -0.10152,0.57298 -0.03457,0.77944c0.11863,0.36577 0.29719,0.65123 0.40877,1.01328c0.07157,0.23224 -0.07132,0.42197 0.05899,0.63005c0.21615,0.44929 -0.04167,0.92762 0.09355,1.34455c0.08107,0.24998 0.32946,0.45715 0.40878,0.71449c0.01835,0.05954 -0.05382,0.12251 -0.03457,0.18187c0.00585,0.01806 0.02203,0.0353 0.03972,0.05208c0.41915,-0.6053 1.05389,-0.96373 1.68113,-1.46456c0.12473,-0.0996 0.21724,-0.23453 0.37421,-0.29879c0.03009,-0.01232 0.07299,0.05822 0.0912,0.03547c0.09367,-0.11701 -0.00699,-0.28086 0.03457,-0.41571c0.16717,-0.54242 0.40913,-1.29841 0.84196,-1.79273c0.35936,-0.41042 0.65278,-0.46411 1.27516,-0.18186c0.03428,0.01554 0,0.40587 0,0.44818c-0.05017,0.04714 0.1871,0.58279 0.1871,0.74697c0,0.33986 0.2673,0.54946 0.37421,0.89637c0.14828,0.48111 0,1.14557 0,1.64333c0,0.36751 0.07587,0.80433 -0.03457,1.16268c-0.05082,0.16489 -0.2933,0.33776 -0.33964,0.48066c-0.07272,0.22422 0.01931,0.51482 0,0.74697c-0.0205,0.2465 -0.12971,0.27125 -0.1871,0.44819c-0.06323,0.19495 -0.0067,0.3712 -0.12812,0.5651c-0.14901,0.08204 -0.05038,0.6069 -0.09355,0.74697c-0.02184,0.07085 -0.12963,0.11124 -0.15254,0.18187c-0.13875,0.42781 -0.09012,0.88523 -0.22167,1.31206c-0.05082,0.16489 -0.2933,0.33777 -0.33964,0.48066c-0.04242,0.13079 -0.00082,0.32596 -0.00561,0.46207c-0.06423,0.31258 -0.23477,0.34918 -0.3686,0.58369c-0.06393,0.11201 0.02436,0.3253 0,0.44818c-0.02239,0.1129 -0.03531,0.2307 -0.09591,0.33426c-0.03734,0.06381 -0.10861,0.11726 -0.1871,0.14939c-0.03009,0.01232 -0.07299,-0.05822 -0.0912,-0.03547c-0.1101,0.13753 -0.00937,0.33577 -0.0959,0.48365c-0.0601,0.10272 -0.22705,0.14051 -0.31287,0.23084c-0.21438,0.22564 -0.25625,0.50338 -0.52064,0.71449c-0.04931,0.03937 -0.12594,0.10143 -0.1871,0.07469c-0.00272,-0.00119 -0.00513,-0.00251 -0.00727,-0.00395c-0.03568,0.17395 -0.12599,0.35341 -0.28184,0.47786c-0.17973,0.09701 -0.49698,0.3731 -0.59796,0.23795c-0.15618,0.2505 -0.27888,0.50293 -0.60975,0.63269c-0.11595,0.04547 -0.384,0.15735 -0.51065,0.16358c-0.03841,0.00189 -0.05876,-0.07279 -0.09133,-0.05641c-0.207,0.10411 -0.27409,0.3378 -0.47997,0.44331c-0.05248,0.0269 -0.13533,0.02778 -0.1871,0c-0.02924,-0.01569 0.07411,-0.09172 0.04442,-0.07657c-0.57606,0.29401 -1.03994,0.55487 -1.71836,0.73543c-0.25687,0.06537 -0.49728,0.1862 -0.7584,0.23751c-0.06056,0.0119 -0.13534,0.02778 -0.18711,0c-0.02924,-0.01569 0.07411,-0.09172 0.04443,-0.07657c-0.21535,0.10991 -0.37418,0.28898 -0.60574,0.37536c-0.16319,0.06088 -0.56504,0 -0.74841,0c-0.68605,0 -1.37209,0 -2.05813,0c-0.63578,0 -1.11792,-0.18176 -1.68392,-0.29879c-0.1979,-0.04092 -0.42052,-0.00748 -0.60573,-0.07657c-0.12865,-0.048 -0.17598,-0.18129 -0.28911,-0.24982c-0.35082,-0.2125 -0.64614,-0.18196 -0.92911,-0.52148c-0.0356,-0.04271 -0.05407,-0.11783 -0.00822,-0.15377c0.01762,-0.0138 0.05968,0.00449 0.09382,0.0239c-0.26003,-0.16619 -0.54702,-0.25715 -0.70619,-0.51133c0.39174,-0.00958 -0.23271,-0.05104 -0.50233,-0.26631c-0.08831,-0.07052 -0.09114,-0.11254 -0.05779,-0.13352c-0.04745,-0.03247 -0.09475,-0.06458 -0.13542,-0.08082c-0.26784,-0.10693 -0.33895,-0.11421 -0.55521,-0.38323c-0.02049,-0.02549 -0.03889,-0.07263 -0.03628,-0.10724c-0.12296,-0.05262 -0.24031,-0.11361 -0.33793,-0.19155c-0.0441,-0.03521 -0.0348,-0.10807 0,-0.1494c0.01965,-0.02335 0.11488,0.05918 0.0959,0.03547c-0.13765,-0.17195 -0.36191,-0.29876 -0.4701,-0.48365c-0.0264,-0.04512 -0.03411,-0.10771 0,-0.1494c0.01888,-0.02307 0.11297,0.05733 0.09427,0.03417c-0.16484,-0.20421 -0.43214,-0.35967 -0.60607,-0.56797c-0.23173,-0.35507 -0.26648,-0.6667 -0.46013,-1.03931c-0.31136,-0.59911 -0.73334,-1.22843 -0.89911,-1.86294c-0.0436,-0.16687 -0.05512,-0.3503 -0.05227,-0.53861zM154.61641,289.71395c-0.05552,0.02216 0.00598,0.02227 0.09715,0.01678l-0.01132,-0.01551c-0.03106,-0.00608 -0.06226,-0.01069 -0.08584,-0.00128zM143.84644,289.04114c-0.06143,-0.00522 -0.116,-0.01303 -0.082,0.00054c0.0226,0.00903 0.05222,0.00516 0.082,-0.00054zM149.79432,286.42226c-0.01556,-0.001 -0.03014,0.00005 -0.04259,0.00502c-0.02399,0.00957 0.00253,0.00252 0.04259,-0.00502zM146.79987,287.31856c-0.01525,-0.00092 -0.02955,0.0002 -0.04179,0.00508c-0.02282,0.00911 0.00286,0.00251 0.04179,-0.00508zM142.49651,289.70887c-0.01525,-0.00092 -0.02955,0.0002 -0.04179,0.00508c-0.02282,0.00911 0.00286,0.00251 0.04179,-0.00508zM144.64321,300.61451c-0.00984,0.04332 -0.03166,0.08978 0.00967,0.10609c0.03973,0.01568 -0.0029,-0.05628 -0.00967,-0.10609zM142.78418,299.18181c-0.00734,0.04465 -0.01778,0.08114 -0.00203,0.056c0.00979,-0.01565 0.00747,-0.0355 0.00203,-0.056zM156.25089,298.71223c0.00812,-0.02593 0.01501,-0.05229 0.00267,-0.07199c-0.01781,-0.02843 -0.0089,0.02026 -0.00267,0.07199z" fill="#ffbe4d" stroke-width="0.5"/><path d="M145.45258,293.20655c-0.4972,0 -0.4972,-0.4972 -0.4972,-0.4972c0,-0.75764 0,-1.79938 0,-2.55702c0,0 0,-0.4972 0.4972,-0.4972c0.4972,0 0.4972,0.4972 0.4972,0.4972c0,0.75764 0,1.51527 0,2.27291v0.28411c0,0 0,0.4972 -0.4972,0.4972z" fill="#010100" stroke-width="0.5"/><path d="M151.9872,293.20655c-0.4972,0 -0.4972,-0.4972 -0.4972,-0.4972c0,-0.56823 0,-1.42057 0,-1.9888c0,0 0,-0.4972 0.4972,-0.4972c0.4972,0 0.4972,0.4972 0.4972,0.4972c0,0.56823 0,1.13645 0,1.70468v0.28411c0,0 0,0.4972 -0.4972,0.4972z" fill="#010100" stroke-width="0.5"/><path d="M174.14623,288.67948c-0.45577,-0.72783 -1.08997,-1.47369 -1.08997,-2.3035c0,-2.92122 0,-5.84242 0,-8.76364c0.13543,-0.12724 -0.07535,-0.3313 -0.15727,-0.48493c-0.37124,-0.69621 -0.34161,-1.17552 -0.34161,-1.90515c0,-1.35359 0.60697,-2.38008 0.99778,-3.58513c0.19349,-0.59659 -0.09825,-1.28727 0.09217,-1.90515c0.09389,-0.30461 0.40672,-0.56959 0.40672,-0.88328c0.07912,-0.60951 0.35389,-0.74796 0.4989,-1.19504c0.51896,-1.60014 0,-3.9368 0,-5.57686c0,-0.47693 -0.27376,-2.06558 0.34161,-2.30349l0.24099,-0.38484c0.13998,-0.23579 0.44083,-0.39886 0.78936,-0.39886c0.34852,0 0.64937,0.16306 0.78935,0.39886l0.49044,0.78319l-0.10153,0.04054c0.05329,0.2822 0.01633,0.49345 0.10153,0.75615c0.39887,1.22987 1.70184,2.24637 2.08775,3.49854c0.11183,0.36284 -0.18518,0.99487 -0.09217,1.28163c0.17377,0.5358 0.59107,0.91713 0.59107,1.5068c-0.20896,0.19631 0.4989,1.20367 0.4989,1.59339c0,1.15346 0.64639,1.64827 0.99778,2.78843c0.26928,0.87372 0.62456,2.00837 0.90563,2.87503c0.16586,0.5114 0.55357,0.88207 0.58853,1.42751c0.00289,-0.00511 0.00583,-0.01021 0.0088,-0.01529c0.34129,-0.58326 1.54136,-1.31169 2.08149,-1.81056c0.31021,-0.28652 0.63115,-0.57912 1.03034,-0.7837c0.41007,-0.21015 0.51861,-0.1541 0.50395,-0.02836c0.06545,-0.02734 0.11318,-0.05123 0.11967,-0.07122c0.15401,-0.47486 0.15078,-1.00741 0.48262,-1.42021c0.66046,-0.82162 0.4903,0.18546 0.51516,0.22517c0.07438,0.11876 0,-0.26556 0,-0.39834c0.07912,-0.60951 0.35389,-0.74797 0.4989,-1.19505c0.26273,-0.81009 0.06686,-1.34881 0.75461,-2.08632c0.14045,-0.15062 0.28961,-0.31267 0.4989,-0.39834c0.08024,-0.03285 0.19461,0.15524 0.24318,0.09458c0.24978,-0.312 -0.01864,-0.74887 0.09217,-1.10845c0.05822,-0.1889 0.34564,-0.29661 0.40672,-0.48494c0.29307,-0.90362 -0.22422,-1.79825 0.34161,-2.70184c0.1663,-0.26556 0.16421,-0.6673 0.4989,-0.79669l0.24099,-0.38484c0.13998,-0.23579 0.44083,-0.39886 0.78935,-0.39886c0.34852,0 0.64937,0.16306 0.78936,0.39886l0.24099,0.38484c0.0078,0.01246 0.01559,0.0249 0.02336,0.03731l0.22609,0.36104l-0.00091,0.00036c0.63058,1.02159 1.09087,1.88958 1.09087,3.09983c0,0.89209 -0.33549,2.33881 -0.11837,3.18288c0.04572,-0.09262 0.11211,-0.19052 0.21054,-0.30786c0.62923,-0.75024 -0.12518,-1.7432 0.91189,-2.57125c1.09088,-0.70646 1.70088,-2.39781 2.33093,-3.40395c0.21925,-0.35012 0.79872,-0.95204 0.90562,-1.28163c0.18657,-0.57527 -0.31169,-1.45844 0,-1.99174c0.73326,-1.25459 1.70253,-1.51861 2.98711,-0.49293c1.34396,1.58736 0.75461,4.16582 0.75461,6.06979c0,0.42187 -0.20566,1.33008 -0.09217,1.67998c0.03402,0.10491 0.19887,0.19952 0.25069,0.29363c0.95696,-1.49356 2.21599,-2.74329 3.17648,-4.27711c0.21925,-0.35012 0.79872,-0.95204 0.90562,-1.28163c0.19349,-0.59659 -0.09826,-1.28727 0.09217,-1.90515c0.11965,-0.38826 0.52372,-0.83632 0.74835,-1.19504c0.58445,-0.93333 1.1603,-2.48087 2.02812,-3.17378c0.48662,-0.38854 1.38425,0.30856 1.87087,0.6971c0.26337,0.21028 -0.00929,0.6173 0.15727,0.88329c0.91956,1.46846 0.84051,2.69096 0.84051,4.29522c0,0.91226 0.216,1.07384 0.4989,1.99173c0.19273,0.62536 -0.27071,1.52783 -0.09217,2.07834c0.31631,0.97532 0.79244,1.73645 1.08996,2.70184c0.19085,0.61925 -0.19017,1.12514 0.15728,1.67998c0.57634,1.198 -0.11111,2.47341 0.24945,3.58513c0.21617,0.66655 0.87849,1.21895 1.08997,1.90514c0.04893,0.15875 -0.1435,0.32666 -0.09217,0.48494c0.01561,0.04813 0.05876,0.09411 0.1059,0.13885c1.11763,-1.61399 2.81009,-2.56973 4.4826,-3.90516c0.3326,-0.26556 0.57923,-0.62535 0.99779,-0.79669c0.08024,-0.03285 0.19462,0.15524 0.24318,0.09458c0.24978,-0.312 -0.01864,-0.74887 0.09217,-1.10845c0.44574,-1.44632 1.09092,-3.46211 2.24503,-4.78016c0.95822,-1.09434 1.74057,-1.23753 3.40009,-0.48494c0.09139,0.04145 0,1.08222 0,1.19504c-0.13379,0.12569 0.4989,1.55397 0.4989,1.99174c0,0.9062 0.71271,1.46507 0.99779,2.39007c0.39538,1.28286 0,3.05458 0,4.38183c0,0.97994 0.20231,2.14468 -0.09217,3.10018c-0.1355,0.43966 -0.78204,0.90062 -0.90561,1.28163c-0.19391,0.59788 0.05147,1.37275 0,1.99174c-0.05465,0.65728 -0.34588,0.72324 -0.4989,1.19504c-0.1686,0.51984 -0.01786,0.98978 -0.34162,1.5068c-0.39732,0.21876 -0.13435,1.61826 -0.24945,1.99174c-0.05822,0.1889 -0.34564,0.29661 -0.40672,0.48494c-0.36996,1.14072 -0.24031,2.36041 -0.59106,3.49853c-0.1355,0.43966 -0.78206,0.90063 -0.90563,1.28164c-0.11311,0.34875 -0.00219,0.86914 -0.01494,1.23208c-0.17127,0.83347 -0.62601,0.93106 -0.98284,1.55635c-0.17045,0.29868 0.06496,0.86741 0,1.19504c-0.0597,0.30104 -0.09413,0.61514 -0.25571,0.89128c-0.09955,0.17012 -0.28962,0.31268 -0.4989,0.39835c-0.08024,0.03285 -0.19462,-0.15524 -0.24318,-0.09458c-0.29357,0.36671 -0.02498,0.89531 -0.25571,1.28963c-0.16027,0.27389 -0.60542,0.37466 -0.83425,0.61552c-0.57164,0.60167 -0.68326,1.34224 -1.38825,1.90515c-0.13147,0.10497 -0.33579,0.27046 -0.49889,0.19917c-0.00725,-0.00317 -0.0137,-0.00669 -0.0194,-0.01054c-0.09514,0.46384 -0.33592,0.94235 -0.75149,1.27418c-0.47924,0.25868 -1.32517,0.99483 -1.59443,0.63447c-0.41645,0.66796 -0.74361,1.34102 -1.62585,1.68702c-0.30917,0.12125 -1.02391,0.41956 -1.3616,0.43617c-0.10244,0.00504 -0.1567,-0.19407 -0.24354,-0.1504c-0.55193,0.27759 -0.73083,0.90072 -1.27979,1.18204c-0.13995,0.07173 -0.36087,0.07407 -0.4989,0c-0.07797,-0.04185 0.1976,-0.24457 0.11845,-0.20417c-1.53601,0.78395 -2.77289,1.47951 -4.58186,1.96097c-0.6849,0.17431 -1.32598,0.4965 -2.02223,0.6333c-0.16148,0.03173 -0.36087,0.07407 -0.49889,0c-0.07797,-0.04185 0.1976,-0.24457 0.11845,-0.20418c-0.57421,0.29307 -0.9977,0.77053 -1.61514,1.00087c-0.43514,0.16233 -1.50665,0 -1.99558,0c-1.82928,0 -3.65857,0 -5.48785,0c-1.69526,0 -2.98085,-0.48463 -4.49006,-0.79669c-0.52768,-0.1091 -1.12129,-0.01995 -1.61514,-0.20418c-0.34303,-0.12797 -0.46924,-0.48339 -0.77089,-0.66611c-0.93544,-0.56662 -1.72288,-0.48519 -2.47741,-1.39049c-0.09492,-0.11388 -0.14418,-0.31419 -0.02191,-0.41001c0.04697,-0.03681 0.15914,0.01198 0.25016,0.06374c-0.69335,-0.44313 -1.45858,-0.68567 -1.883,-1.36343c1.04454,-0.02554 -0.62049,-0.13608 -1.3394,-0.7101c-0.23548,-0.18802 -0.24301,-0.30008 -0.15409,-0.35602c-0.12651,-0.08657 -0.25263,-0.17221 -0.36108,-0.21551c-0.71418,-0.28512 -0.90379,-0.30453 -1.48041,-1.02186c-0.05463,-0.06797 -0.1037,-0.19366 -0.09673,-0.28595c-0.32785,-0.14029 -0.64077,-0.30291 -0.90105,-0.51074c-0.11759,-0.09389 -0.09277,-0.28814 0,-0.39835c0.0524,-0.06225 0.30631,0.15778 0.25571,0.09458c-0.36704,-0.45848 -0.96504,-0.79663 -1.2535,-1.28963c-0.07039,-0.1203 -0.09095,-0.28718 0,-0.39835c0.05032,-0.06151 0.30122,0.15285 0.25137,0.09109c-0.43951,-0.54451 -1.15227,-0.95901 -1.61603,-1.51445c-0.6179,-0.94675 -0.71055,-1.77773 -1.22688,-2.77124c-0.83022,-1.59746 -1.95541,-3.27549 -2.39741,-4.96737c-0.11624,-0.44495 -0.14697,-0.93404 -0.13938,-1.43619zM214.83875,276.51689c-0.14802,0.0591 0.01595,0.05938 0.25906,0.04475l-0.03018,-0.04134c-0.08282,-0.01623 -0.16602,-0.02851 -0.22888,-0.00342zM186.12149,274.72289c-0.16381,-0.01392 -0.3093,-0.03475 -0.21866,0.00143c0.06027,0.02407 0.13924,0.01376 0.21866,-0.00143zM201.98101,267.73984c-0.04148,-0.00267 -0.08034,0.00015 -0.11354,0.0134c-0.06396,0.02554 0.00673,0.00672 0.11354,-0.0134zM193.99657,270.12979c-0.04068,-0.00244 -0.0788,0.00051 -0.11142,0.01354c-0.06085,0.02429 0.00764,0.00672 0.11142,-0.01354zM182.52197,276.50335c-0.04068,-0.00244 -0.0788,0.0005 -0.11142,0.01353c-0.06085,0.02429 0.00764,0.00673 0.11142,-0.01353zM188.24599,305.58238c-0.02623,0.11552 -0.08442,0.23941 0.02578,0.2829c0.10592,0.04181 -0.00774,-0.15008 -0.02578,-0.2829zM183.28902,301.76223c-0.01954,0.11907 -0.04738,0.21635 -0.0054,0.1493c0.02612,-0.04172 0.0199,-0.09464 0.0054,-0.1493zM219.19695,300.51012c0.02165,-0.06914 0.04002,-0.13945 0.00713,-0.19197c-0.04747,-0.07581 -0.02374,0.05403 -0.00713,0.19197z" fill="#ffa200" stroke-width="0.5"/><path d="M183.67743,291.88272c-0.30015,-0.47931 -0.71779,-0.9705 -0.71779,-1.51697c0,-1.92376 0,-3.84752 0,-5.77128c0.08918,-0.08378 -0.04962,-0.21818 -0.10357,-0.31936c-0.24449,-0.45849 -0.22498,-0.77413 -0.22498,-1.25463c0,-0.89141 0.39973,-1.56741 0.6571,-2.36098c0.12742,-0.39288 -0.06471,-0.84773 0.0607,-1.25463c0.06182,-0.2006 0.26785,-0.37511 0.26785,-0.58168c0.0521,-0.40139 0.23306,-0.49258 0.32855,-0.787c0.34176,-1.05376 0,-2.59257 0,-3.67264c0,-0.31408 -0.1803,-1.36028 0.22496,-1.51695l0.1587,-0.25344c0.09219,-0.15528 0.2903,-0.26267 0.51982,-0.26267c0.22952,0 0.42764,0.10739 0.51983,0.26267l0.32298,0.51577l-0.06686,0.02669c0.0351,0.18583 0.01075,0.32498 0.06686,0.49798c0.26268,0.80993 1.12075,1.47933 1.37489,2.30394c0.07364,0.23895 -0.12196,0.65517 -0.06071,0.84402c0.11443,0.35285 0.38924,0.60397 0.38924,0.9923c-0.13761,0.12928 0.32855,0.79267 0.32855,1.04933c0,0.75961 0.42568,1.08547 0.65709,1.83632c0.17733,0.57538 0.4113,1.3226 0.5964,1.89333c0.10922,0.33679 0.36456,0.58089 0.38758,0.94009c0.0019,-0.00337 0.00383,-0.00672 0.00579,-0.01007c0.22475,-0.3841 1.01506,-0.8638 1.37076,-1.19234c0.20429,-0.18869 0.41564,-0.38139 0.67853,-0.51611c0.27005,-0.1384 0.34154,-0.10149 0.33189,-0.01868c0.0431,-0.01801 0.07453,-0.03374 0.0788,-0.04691c0.10143,-0.31272 0.0993,-0.66342 0.31783,-0.93527c0.43494,-0.54109 0.32289,0.12214 0.33926,0.14828c0.04898,0.07821 0,-0.17488 0,-0.26233c0.0521,-0.40139 0.23306,-0.49258 0.32855,-0.787c0.17302,-0.53348 0.04404,-0.88826 0.49695,-1.37394c0.0925,-0.0992 0.19073,-0.20591 0.32855,-0.26233c0.05283,-0.02164 0.12817,0.10223 0.16014,0.06228c0.16449,-0.20547 -0.01228,-0.49317 0.0607,-0.72996c0.03834,-0.1244 0.22762,-0.19533 0.26784,-0.31936c0.193,-0.59508 -0.14765,-1.18423 0.22498,-1.77929c0.10952,-0.17489 0.10814,-0.43945 0.32855,-0.52466l0.15869,-0.25344c0.09219,-0.15528 0.29031,-0.26267 0.51983,-0.26267c0.22952,0 0.42764,0.10739 0.51984,0.26267l0.15869,0.25344c0.00513,0.00821 0.01027,0.0164 0.01538,0.02456l0.14889,0.23776l-0.00059,0.00024c0.41527,0.67277 0.71839,1.24438 0.71839,2.04139c0,0.58749 -0.22092,1.54021 -0.07794,2.09609c0.0301,-0.061 0.07382,-0.12547 0.13864,-0.20274c0.41438,-0.49407 -0.08243,-1.14799 0.60054,-1.6933c0.71839,-0.46524 1.1201,-1.57908 1.53502,-2.24167c0.14438,-0.23057 0.526,-0.62697 0.5964,-0.84402c0.12286,-0.37883 -0.20526,-0.96046 0,-1.31165c0.48289,-0.82622 1.1212,-1.00008 1.96716,-0.32462c0.88506,1.04534 0.49694,2.74338 0.49694,3.99725c0,0.27782 -0.13542,0.87592 -0.06069,1.10635c0.0224,0.06909 0.13096,0.1314 0.16508,0.19338c0.63021,-0.98358 1.45935,-1.8066 2.09187,-2.81669c0.14438,-0.23057 0.526,-0.62697 0.5964,-0.84402c0.12742,-0.39288 -0.06471,-0.84773 0.0607,-1.25463c0.0788,-0.25568 0.34489,-0.55077 0.49282,-0.78699c0.38489,-0.61464 0.76412,-1.63376 1.33563,-2.09009c0.32047,-0.25587 0.91159,0.20321 1.23205,0.45908c0.17344,0.13849 -0.00611,0.40651 0.10358,0.58169c0.60557,0.96705 0.55352,1.77213 0.55352,2.82862c0,0.60076 0.14224,0.70718 0.32854,1.31165c0.12692,0.41183 -0.17826,1.00615 -0.06069,1.36868c0.20831,0.64229 0.52186,1.14353 0.7178,1.77929c0.12569,0.4078 -0.12524,0.74097 0.10358,1.10635c0.37956,0.78894 -0.07317,1.62887 0.16427,2.36098c0.14237,0.43896 0.57852,0.80275 0.71779,1.25464c0.03222,0.10455 -0.09451,0.21512 -0.06071,0.31935c0.01028,0.0317 0.03869,0.06198 0.06974,0.09145c0.73603,-1.0629 1.85059,-1.6923 2.95202,-2.57174c0.21903,-0.17489 0.38145,-0.41182 0.6571,-0.52466c0.05283,-0.02164 0.12817,0.10224 0.16014,0.0623c0.16449,-0.20547 -0.01228,-0.49318 0.0607,-0.72998c0.29354,-0.95247 0.71843,-2.27997 1.47847,-3.14797c0.63103,-0.72068 1.14626,-0.81496 2.23914,-0.31935c0.06018,0.02729 0,0.71269 0,0.78699c-0.08811,0.08278 0.32854,1.02336 0.32854,1.31165c0,0.59677 0.46936,0.96482 0.6571,1.57399c0.26038,0.84483 0,2.01159 0,2.88564c0,0.64533 0.13323,1.41238 -0.0607,2.04163c-0.08923,0.28954 -0.51503,0.59311 -0.5964,0.84402c-0.12769,0.39373 0.0339,0.90401 0,1.31165c-0.03599,0.43284 -0.22778,0.4763 -0.32854,0.787c-0.11103,0.34233 -0.01176,0.65181 -0.22498,0.9923c-0.26165,0.14406 -0.08847,1.06569 -0.16428,1.31165c-0.03834,0.1244 -0.22762,0.19533 -0.26784,0.31936c-0.24363,0.75122 -0.15825,1.55444 -0.38925,2.30394c-0.08923,0.28954 -0.51503,0.59312 -0.5964,0.84402c-0.07449,0.22967 -0.00144,0.57236 -0.00984,0.81138c-0.11279,0.54888 -0.41226,0.61316 -0.64725,1.02495c-0.11225,0.19669 0.04279,0.57123 0,0.78699c-0.03931,0.19825 -0.06199,0.4051 -0.16841,0.58695c-0.06556,0.11204 -0.19072,0.20591 -0.32854,0.26233c-0.05283,0.02164 -0.12817,-0.10224 -0.16014,-0.06229c-0.19333,0.2415 -0.01645,0.5896 -0.16841,0.84928c-0.10555,0.18038 -0.39869,0.24674 -0.54939,0.40536c-0.37645,0.39623 -0.44995,0.88393 -0.91422,1.25463c-0.08658,0.06914 -0.22115,0.17811 -0.32856,0.13116c-0.00477,-0.00209 -0.00902,-0.00441 -0.01277,-0.00694c-0.06266,0.30546 -0.22123,0.62059 -0.4949,0.83911c-0.31561,0.17035 -0.87268,0.65515 -1.05001,0.41784c-0.27426,0.43988 -0.4897,0.88312 -1.0707,1.11098c-0.2036,0.07984 -0.6743,0.27631 -0.89668,0.28724c-0.06745,0.00332 -0.10319,-0.12782 -0.16038,-0.09905c-0.36347,0.1828 -0.48129,0.59317 -0.8428,0.77844c-0.09216,0.04723 -0.23764,0.04878 -0.32854,0c-0.05134,-0.02755 0.13012,-0.16107 0.078,-0.13447c-1.01155,0.51628 -1.8261,0.97433 -3.01739,1.2914c-0.45104,0.11479 -0.87321,0.32696 -1.33173,0.41706c-0.10634,0.02089 -0.23765,0.04878 -0.32855,0c-0.05134,-0.02755 0.13013,-0.16107 0.07801,-0.13446c-0.37815,0.193 -0.65704,0.50745 -1.06365,0.65913c-0.28655,0.1069 -0.9922,0 -1.31419,0c-1.20468,0 -2.40935,0 -3.61402,0c-1.11641,0 -1.96303,-0.31917 -2.95692,-0.52467c-0.34751,-0.07186 -0.73842,-0.01314 -1.06365,-0.13446c-0.22591,-0.08428 -0.30901,-0.31833 -0.50767,-0.43867c-0.61604,-0.37315 -1.13461,-0.31953 -1.6315,-0.91571c-0.0625,-0.075 -0.09495,-0.20691 -0.01443,-0.27001c0.03094,-0.02424 0.10479,0.00788 0.16474,0.04197c-0.4566,-0.29183 -0.96054,-0.45154 -1.24005,-0.89788c0.68788,-0.01682 -0.40864,-0.08963 -0.88207,-0.46764c-0.15508,-0.12382 -0.16003,-0.19762 -0.10147,-0.23446c-0.08331,-0.05701 -0.16637,-0.11341 -0.23779,-0.14192c-0.47033,-0.18777 -0.59519,-0.20054 -0.97492,-0.67294c-0.03598,-0.04476 -0.0683,-0.12755 -0.0637,-0.18832c-0.21591,-0.09239 -0.42198,-0.19948 -0.59339,-0.33634c-0.07744,-0.06183 -0.0611,-0.18976 0,-0.26234c0.0345,-0.041 0.20172,0.10391 0.1684,0.06229c-0.24172,-0.30194 -0.63551,-0.52462 -0.82549,-0.84928c-0.04636,-0.07922 -0.0599,-0.18912 0,-0.26234c0.03314,-0.04051 0.19836,0.10066 0.16554,0.05999c-0.28945,-0.35859 -0.75883,-0.63156 -1.06423,-0.99734c-0.40691,-0.62349 -0.46793,-1.17071 -0.80796,-1.825c-0.54674,-1.05201 -1.28772,-2.15709 -1.57881,-3.27127c-0.07655,-0.29302 -0.0968,-0.6151 -0.09179,-0.94579zM210.47545,283.87306c-0.09749,0.03892 0.01051,0.03911 0.1706,0.02947l-0.01989,-0.02722c-0.05454,-0.01069 -0.10933,-0.01878 -0.15072,-0.00225zM191.56372,282.69162c-0.10788,-0.00916 -0.20369,-0.02288 -0.144,0.00095c0.03969,0.01585 0.0917,0.00905 0.144,-0.00095zM202.008,278.09295c-0.02732,-0.00176 -0.05292,0.00009 -0.07478,0.00882c-0.04212,0.01682 0.00445,0.00443 0.07478,-0.00882zM196.74985,279.66684c-0.02678,-0.0016 -0.05189,0.00034 -0.07337,0.00892c-0.04006,0.01599 0.00502,0.00441 0.07337,-0.00892zM189.19327,283.86413c-0.02678,-0.0016 -0.05188,0.00034 -0.07337,0.00892c-0.04006,0.01599 0.00502,0.00441 0.07337,-0.00892zM192.96282,303.01412c-0.01727,0.07608 -0.0556,0.15765 0.01698,0.1863c0.06975,0.02754 -0.0051,-0.09883 -0.01698,-0.1863zM189.69841,300.49835c-0.01288,0.07842 -0.03122,0.14248 -0.00357,0.09832c0.0172,-0.02747 0.01311,-0.06233 0.00357,-0.09832zM213.34554,299.67377c0.01426,-0.04553 0.02635,-0.09182 0.00469,-0.12642c-0.03126,-0.04992 -0.01564,0.03557 -0.00469,0.12642z" fill="#ffbe4d" stroke-width="0.5"/><path d="M194.38405,290.00595c-0.87307,0 -0.87307,-0.87306 -0.87307,-0.87306c0,-1.3304 0,-3.15966 0,-4.49006c0,0 0,-0.87307 0.87307,-0.87307c0.87307,0 0.87307,0.87307 0.87307,0.87307c0,1.3304 0,2.66077 0,3.99116v0.4989c0,0 0,0.87306 -0.87307,0.87306z" fill="#010100" stroke-width="0.5"/><path d="M205.85863,290.00595c-0.87307,0 -0.87307,-0.87306 -0.87307,-0.87306c0,-0.99779 0,-2.49448 0,-3.49227c0,0 0,-0.87307 0.87307,-0.87307c0.87307,0 0.87306,0.87307 0.87306,0.87307c0,0.99779 0,1.99558 0,2.99338v0.4989c0,0 0.00001,0.87306 -0.87306,0.87306z" fill="#010100" stroke-width="0.5"/></g></g></svg>