<svg version="1.1" xmlns="http://www.w3.org/2000/svg" xmlns:xlink="http://www.w3.org/1999/xlink" width="16.13644" height="32.13431" viewBox="0,0,16.13644,32.13431"><defs><linearGradient x1="239.83777" y1="165.41371" x2="239.83777" y2="180.19423" gradientUnits="userSpaceOnUse" id="color-1"><stop offset="0" stop-color="#ffffff"/><stop offset="1" stop-color="#ececec"/></linearGradient><linearGradient x1="240.98783" y1="168.60449" x2="240.98783" y2="172.2095" gradientUnits="userSpaceOnUse" id="color-2"><stop offset="0" stop-color="#eeeeee"/><stop offset="1" stop-color="#cdcdcd"/></linearGradient><linearGradient x1="239.74765" y1="160.51633" x2="239.74765" y2="171.72247" gradientUnits="userSpaceOnUse" id="color-3"><stop offset="0" stop-color="#0cff00"/><stop offset="1" stop-color="#0ad900"/></linearGradient></defs><g transform="translate(-231.97739,-159.6682)"><g data-paper-data="{&quot;isPaintingLayer&quot;:true}" fill-rule="nonzero" stroke-linejoin="miter" stroke-miterlimit="10" stroke-dasharray="" stroke-dashoffset="0" style="mix-blend-mode: normal"><g fill="none" stroke="#000000" stroke-width="0.25" stroke-linecap="round"><path d="M236.80377,184.6405l2.9803,-4.3054v7.9096l-2.37947,3.29207"/><path d="M241.97095,184.42939l-2.04284,-4.29258"/><path d="M239.68777,187.94789l2.64367,3.72962"/></g><path d="M232.44751,172.80397c0,-4.08153 3.30873,-7.39026 7.39026,-7.39026c4.08153,0 7.39026,3.30874 7.39026,7.39026c0,4.08153 -3.30873,7.39026 -7.39026,7.39026c-4.08153,0 -7.39026,-3.30874 -7.39026,-7.39026z" fill="url(#color-1)" stroke="#e8e8e8" stroke-width="0.5" stroke-linecap="butt"/><path d="M239.07718,168.60449l6.20061,1.9467l0.3605,1.6583l-1.0815,-1.5862l-1.3699,1.0815l-0.5047,-1.442l-1.8025,1.6583l-0.5047,-2.2351l-1.442,2.5235l-0.7931,-2.0188l-1.1536,1.9467l-0.6489,-1.3699z" fill="url(#color-2)" stroke="#000000" stroke-width="0.05" stroke-linecap="round"/><path d="M247.76879,171.18172c0,0 -4.62343,-1.77461 -7.09739,-1.68619c-2.56593,0.09171 -8.17656,2.91712 -8.17656,2.91712l-0.26362,-2.67293c0,0 0.98172,-3.09911 2.25065,-3.53733c0.92962,-0.32104 2.416,-0.83435 2.416,-0.83435l3.66253,-5.21221l2.25151,4.53688c0,0 1.768,1.1364 2.85098,1.83249c1.43436,0.92194 1.7454,3.03427 1.7454,3.03427z" fill="url(#color-3)" stroke="#46d954" stroke-width="0.5" stroke-linecap="round"/><path d="M236.27005,166.82445c0,-0.55747 0.47344,-1.0094 1.05747,-1.0094c0.58402,0 1.05747,0.45192 1.05747,1.0094c0,0.55747 -0.47345,1.0094 -1.05747,1.0094c-0.58402,0 -1.05747,-0.45193 -1.05747,-1.0094z" fill="#000000" stroke="#46d954" stroke-width="0.5" stroke-linecap="butt"/><path d="M239.33475,175.26016v-2.2351" fill="none" stroke="#000000" stroke-width="1" stroke-linecap="round"/><path d="M242.95753,175.26016v-2.2351" fill="none" stroke="#000000" stroke-width="1" stroke-linecap="round"/><path d="M242.75362,167.12887c0,-0.58986 0.24203,-0.80912 0.85998,-0.80912c0.34449,0 0.45844,0.21334 0.66369,0.44707c0.16292,0.18552 0.6494,0.74833 0.6494,1.00935c0,0.58986 -0.43622,0.42074 -1.05417,0.42074c-0.61795,0 -1.1189,-0.47818 -1.1189,-1.06804z" fill="#000000" stroke="#46d954" stroke-width="0.5" stroke-linecap="butt"/></g></g></svg>