<svg version="1.1" xmlns="http://www.w3.org/2000/svg" xmlns:xlink="http://www.w3.org/1999/xlink" width="534.90793" height="189.68468" viewBox="0,0,534.90793,189.68468"><defs><linearGradient x1="48.99652" y1="179.5263" x2="48.99652" y2="301.5263" gradientUnits="userSpaceOnUse" id="color-1"><stop offset="0" stop-color="#7ef000"/><stop offset="1" stop-color="#00ef1b"/></linearGradient><linearGradient x1="147.04109" y1="157.411" x2="147.04109" y2="306.05965" gradientUnits="userSpaceOnUse" id="color-2"><stop offset="0" stop-color="#7ef000"/><stop offset="1" stop-color="#00ef1b"/></linearGradient><linearGradient x1="239.38343" y1="212.96656" x2="239.38343" y2="324.07767" gradientUnits="userSpaceOnUse" id="color-3"><stop offset="0" stop-color="#7ef000"/><stop offset="1" stop-color="#00ef1b"/></linearGradient><linearGradient x1="328.72277" y1="152.9065" x2="328.72277" y2="313.56716" gradientUnits="userSpaceOnUse" id="color-4"><stop offset="0" stop-color="#7ef000"/><stop offset="1" stop-color="#00ef1b"/></linearGradient><linearGradient x1="433.82787" y1="212.96656" x2="433.82787" y2="337.59118" gradientUnits="userSpaceOnUse" id="color-5"><stop offset="0" stop-color="#7ef000"/><stop offset="1" stop-color="#00ef1b"/></linearGradient></defs><g transform="translate(22.00348,-150.40649)"><g data-paper-data="{&quot;isPaintingLayer&quot;:true}" fill-rule="nonzero" stroke="#00c81b" stroke-width="5" stroke-linecap="butt" stroke-linejoin="miter" stroke-miterlimit="10" stroke-dasharray="" stroke-dashoffset="0" style="mix-blend-mode: normal"><path d="M117.49652,240.5263c0,33.68937 -30.6685,61 -68.5,61c-37.8315,0 -68.5,-27.31063 -68.5,-61c0,-33.68937 30.66849,-61 68.5,-61c37.83151,0 68.5,27.31063 68.5,61z" fill="url(#color-1)"/><path d="M217.61166,231.73533c0,41.04819 -31.59552,74.32432 -70.57057,74.32432c-38.97505,0 -70.57057,-33.27614 -70.57057,-74.32432c0,-41.04819 31.59552,-74.32433 70.57057,-74.32433c38.97505,0 70.57057,33.27614 70.57057,74.32433z" fill="url(#color-2)"/><path d="M187.58164,268.52211c0,-30.68249 23.19246,-55.55556 51.8018,-55.55556c28.60934,0 51.8018,24.87308 51.8018,55.55556c0,30.68248 -23.19246,55.55555 -51.80181,55.55555c-28.60935,0 -51.8018,-24.87307 -51.8018,-55.55555z" fill="url(#color-3)"/><path d="M328.72277,152.9065c39.80431,0 72.07208,35.96511 72.07208,80.33033c0,44.36522 -32.26777,80.33033 -72.07208,80.33033c-39.80431,0 -72.07207,-35.96511 -72.07207,-80.33033c0,-44.36522 32.26777,-80.33033 72.07207,-80.33033z" fill="url(#color-4)"/><path d="M433.82787,212.96656c42.29208,0 76.57658,27.89817 76.57658,62.31231c0,34.41414 -34.2845,62.31231 -76.57658,62.31231c-42.29207,0 -76.57657,-27.89817 -76.57657,-62.31231c0,-34.41414 34.28449,-62.31231 76.57657,-62.31231z" fill="url(#color-5)"/></g></g></svg>