<svg version="1.1" xmlns="http://www.w3.org/2000/svg" xmlns:xlink="http://www.w3.org/1999/xlink" width="16.28631" height="15.0677" viewBox="0,0,16.28631,15.0677"><g transform="translate(-231.85685,-172.46615)"><g data-paper-data="{&quot;isPaintingLayer&quot;:true}" fill="#ff2929" fill-rule="nonzero" stroke="none" stroke-width="0" stroke-linecap="butt" stroke-linejoin="miter" stroke-miterlimit="10" stroke-dasharray="" stroke-dashoffset="0" style="mix-blend-mode: normal"><g><path d="M241.07561,176.68816c0,2.33175 -2.0084,4.22201 -4.48588,4.22201c-2.47748,0 -4.48589,-1.89026 -4.48589,-4.22201c0,-2.33175 2.0084,-4.22201 4.48589,-4.22201c2.47748,0 4.48588,1.89026 4.48588,4.22201z"/><path d="M239.62429,177.28188c0,2.51392 1.89026,4.55185 4.22201,4.55185c2.33175,0 4.22201,-2.03793 4.22201,-4.55185c0,-2.51392 -1.89026,-4.55185 -4.22201,-4.55185c-2.33175,0 -4.22201,2.03793 -4.22201,4.55185z"/><path d="M240.21269,187.53385c0,0 -5.41849,-3.55421 -7.36922,-7.01156c-1.95073,-3.45735 -0.5523,-4.65819 0.30985,-5.50002c1.26762,-1.23774 5.03986,0.83741 7.05936,0.83741c3.21365,0 6.97235,-1.73034 7.75987,0.93474c0.04504,0.15243 0.13491,0.75516 0.16834,1.47972c0.04789,1.0377 -0.67965,2.32529 -1.16066,2.89791c-0.81686,0.97245 -6.76756,6.36179 -6.76756,6.36179z"/></g></g></g></svg>