<svg version="1.1" xmlns="http://www.w3.org/2000/svg" xmlns:xlink="http://www.w3.org/1999/xlink" width="684.61862" height="453.45345" viewBox="0,0,684.61862,453.45345"><defs><linearGradient x1="329.74252" y1="-58.80523" x2="329.74252" y2="394.64823" gradientUnits="userSpaceOnUse" id="color-1"><stop offset="0" stop-color="#66c3ff"/><stop offset="1" stop-color="#bdfaff"/></linearGradient><linearGradient x1="425.85063" y1="82.33591" x2="425.85063" y2="128.88246" gradientUnits="userSpaceOnUse" id="color-2"><stop offset="0" stop-color="#f5f300"/><stop offset="1" stop-color="#f5f5f5"/></linearGradient><linearGradient x1="415.83561" y1="187.93651" x2="415.83561" y2="141.38997" gradientUnits="userSpaceOnUse" id="color-3"><stop offset="0" stop-color="#f5f300"/><stop offset="1" stop-color="#f5f5f5"/></linearGradient><linearGradient x1="376.67883" y1="25.40239" x2="376.67883" y2="63.31338" gradientUnits="userSpaceOnUse" id="color-4"><stop offset="0" stop-color="#00b725"/><stop offset="1" stop-color="#b7b700"/></linearGradient><linearGradient x1="295.63804" y1="20.28113" x2="295.63804" y2="53.15218" gradientUnits="userSpaceOnUse" id="color-5"><stop offset="0" stop-color="#00b725"/><stop offset="1" stop-color="#b7b700"/></linearGradient><linearGradient x1="252.61825" y1="30.99073" x2="252.61825" y2="61.31936" gradientUnits="userSpaceOnUse" id="color-6"><stop offset="0" stop-color="#00b725"/><stop offset="1" stop-color="#b7b700"/></linearGradient></defs><g transform="translate(12.56679,58.80522)"><g data-paper-data="{&quot;isPaintingLayer&quot;:true}" fill-rule="nonzero" stroke-linejoin="miter" stroke-miterlimit="10" stroke-dasharray="" stroke-dashoffset="0" style="mix-blend-mode: normal"><path d="" fill="none" stroke="#000000" stroke-width="1.5" stroke-linecap="round"/><path d="M-12.56679,394.64823v-453.45345h684.61862v453.45345z" fill="url(#color-1)" stroke="none" stroke-width="NaN" stroke-linecap="butt"/><path d="M466.39117,82.33592l-3.003,30.03003l-18.01802,-22.52252l4.5045,31.53153l-31.53153,-25.52553l-10.51051,33.03303l-22.52252,-18.01802z" fill="url(#color-2)" stroke="#000000" stroke-width="2.5" stroke-linecap="round"/><path d="M375.29507,159.40798l22.52252,-18.01802l10.51051,33.03303l31.53153,-25.52553l-4.5045,31.53154l18.01802,-22.52252l3.003,30.03003z" data-paper-data="{&quot;index&quot;:null}" fill="url(#color-3)" stroke="#000000" stroke-width="2.5" stroke-linecap="round"/><path d="M382.30709,136.38997c0,37.32571 88.99216,39.54012 84.78228,54.66627c-1.49545,5.37315 -121.14013,30.91932 -145.59309,30.91932c-93.29134,0 -171.92192,-36.50245 -171.92192,-87.08709c0,-50.58464 75.62758,-91.59159 168.91892,-91.59159c34.81559,0 162.02567,32.31992 155.35283,41.58434c-11.20761,15.56037 -91.53901,19.8019 -91.53901,51.50876z" fill="#00f52f" stroke="#000000" stroke-width="2.5" stroke-linecap="butt"/><text transform="translate(166.09087,143.14673) scale(0.69521,0.69521)" font-size="40" xml:space="preserve" fill="#000000" fill-rule="nonzero" stroke="none" stroke-width="1" stroke-linecap="butt" stroke-linejoin="miter" stroke-miterlimit="10" stroke-dasharray="" stroke-dashoffset="0" font-family="Handwriting" font-weight="normal" text-anchor="start" style="mix-blend-mode: normal"><tspan x="0" dy="0">The DINO</tspan></text><path d="M214.13892,154.40799l70.57057,-3.003" fill="none" stroke="#000000" stroke-width="0.5" stroke-linecap="round"/><path d="M470.64418,85.33892c0,1.25 -1.25,1.25 -1.25,1.25h-0.11973c-5.83333,0 -11.66667,0 -17.5,0c-5.00206,0 -10.00453,0.01816 -15.00653,-0.00804c-0.49336,-0.00258 -5.08119,-0.01778 -5.38058,-0.11167c-0.79404,-0.24901 -1.24455,-1.18564 -2.0348,-1.44642c-1.57139,-0.51855 -3.36197,0.0262 -4.9425,-0.46378c-1.60238,-0.49675 -2.74198,-2.00666 -4.31434,-2.59152c-0.741,-0.27563 -1.60599,0.1267 -2.37065,-0.07417c-3.13255,-0.82288 -5.78215,-3.65778 -8.95344,-4.3416c-2.11617,-0.4563 -5.0337,0.03269 -7.20349,0.04144c-0.48472,0.02276 -4.10597,0.15556 -4.66804,0.3219c-0.81895,0.24235 -1.46562,0.94206 -2.29807,1.13299c-3.80078,0.87177 -8.88675,0.05669 -12.79642,0.02673c-2.30505,-0.01767 -5.7859,0.41156 -7.95416,-0.46717c-0.83796,-0.3396 -1.37541,-1.18334 -2.13742,-1.67c-1.3549,-0.86532 -3.05618,-1.02225 -4.51099,-1.70641c-1.41921,-0.66741 -2.59809,-1.91587 -4.12928,-2.25507c-3.94199,-0.87328 -7.98143,-1.40223 -12.01201,-1.40223c-9.70739,0 -20.19996,-1.127 -29.8168,0.21822c-1.63807,0.22914 -3.16421,1.00532 -4.79713,1.26867c-3.25241,0.52454 -6.7061,-0.27235 -9.99048,0.26048c-2.4092,0.39084 -4.56194,1.73606 -6.73074,2.76954c-1.67877,0.32848 -3.23879,1.13992 -4.91813,1.4655c-3.98883,0.77331 -8.35945,-0.85856 -12.29826,0.48026c-2.34687,0.79771 -4.46794,2.01708 -6.71347,2.97966c-2.34633,1.00579 -5.00014,1.05322 -7.37951,1.83088c-2.00352,0.65482 -2.44151,1.66207 -4.57572,2.21001c-1.61902,0.41567 -3.37779,-0.09147 -5.0065,0.28441c-1.55019,0.35776 -2.47046,2.10217 -3.95726,2.66831c-0.21275,0.08101 -4.97456,0.11794 -5.43781,0.12322c-3.67662,0.04306 -5.6644,1.87839 -8.94277,2.99737c-2.24369,0.76582 -4.81323,0.97137 -7.03082,1.85561c-0.72859,0.29052 -1.19408,1.03579 -1.88219,1.41231c-2.96223,1.62086 -6.45633,2.2534 -9.58066,3.40636c-0.81631,0.30124 -3.88744,2.07861 -4.60531,2.26115c-1.65355,0.42046 -3.41124,-0.10896 -5.07282,0.20447c-3.75822,0.70892 -8.02725,2.64705 -11.44844,4.31735c-14.52337,4.84376 -28.25251,10.52981 -43.79504,10.52981c0,0 -1.25,0 -1.25,-1.25c0,-1.25 1.25,-1.25 1.25,-1.25c15.22035,0 28.61717,-5.63272 42.85007,-10.34433c3.56415,-1.74212 8.01213,-3.72046 11.93,-4.4595c1.61259,-0.30419 3.32972,0.23372 4.92014,-0.17069c1.57314,-0.40002 2.83156,-1.61715 4.35309,-2.18262c3.00444,-1.11658 6.3987,-1.69305 9.24819,-3.25474c0.7738,-0.42409 1.33447,-1.21063 2.15302,-1.54016c2.2581,-0.90907 4.87217,-1.13256 7.15777,-1.90253c3.52127,-1.18624 5.74025,-3.03 9.70785,-3.12955c1.5206,-0.0173 3.15439,0.62539 4.56183,0.04953c1.57261,-0.64344 2.63209,-2.35217 4.27902,-2.7702c1.61073,-0.40884 3.36782,0.13492 4.97772,-0.27721c1.58823,-0.40658 2.85981,-1.65045 4.41687,-2.16362c2.29906,-0.75773 4.90885,-0.77042 7.16939,-1.75127c2.29927,-0.99766 4.49668,-2.26618 6.91368,-3.05599c4.13303,-1.35057 8.4844,0.26881 12.60385,-0.56093c1.57477,-0.31719 3.0381,-1.08265 4.61562,-1.38584c2.32107,-1.12971 4.52204,-2.42756 7.10914,-2.86296c3.2836,-0.55262 6.75564,0.27472 9.99593,-0.26137c1.64995,-0.27298 3.19595,-1.04325 4.85191,-1.27699c9.73087,-1.37353 20.34151,-0.24255 30.16476,-0.24255c4.17755,0 8.49958,0.50425 12.57127,1.46558c1.69766,0.40082 3.05675,1.6863 4.63471,2.42976c1.54919,0.7299 3.34353,0.94161 4.78919,1.85965c0.6439,0.40889 1.05259,1.16946 1.75364,1.47001c1.77417,0.7606 5.1265,0.26153 7.01417,0.27594c3.6592,0.02794 8.66875,0.89965 12.20357,0.03992c0.78961,-0.19205 1.39368,-0.87818 2.17525,-1.10072c0.93892,-0.26735 4.28588,-0.37227 5.30066,-0.42007c2.3642,-0.01007 5.493,-0.48603 7.79646,0.01436c3.23798,0.7034 5.88429,3.56012 9.05008,4.36454c0.84923,0.21579 1.80473,-0.15612 2.62412,0.15429c1.52252,0.57677 2.61312,2.06764 4.17047,2.54241c1.59345,0.48578 3.38672,-0.02829 4.97503,0.47403c0.79566,0.25164 1.25182,1.17967 2.04177,1.44868c1.45745,0.49631 3.07927,-0.01945 4.61888,-0.01138c4.99764,0.02617 9.99574,0.00801 14.99344,0.00801c5.83333,0 11.66667,0 17.5,0h0.11973c0,0 1.25,0 1.25,1.25z" fill="#00b725" stroke="none" stroke-width="0.5" stroke-linecap="butt"/><path d="M416.84162,80.08366c0,6.21942 -6.05021,11.26126 -13.51351,11.26126c-7.46331,0 -13.51351,-5.04184 -13.51351,-11.26126c0,-6.21942 6.05021,-11.26126 13.51351,-11.26126c7.46331,0 13.51351,5.04184 13.51351,11.26126z" fill="#000000" stroke="#000000" stroke-width="2.5" stroke-linecap="butt"/><path d="M164.84087,169.42336c-0.00036,-1.25 1.24964,-1.25035 1.24964,-1.25035l2.34414,-0.00067c4.00937,-0.00317 8.29709,0.41595 12.25728,-0.31006c2.43803,-0.44695 4.65272,-1.56358 7.04492,-2.20821c2.37894,-0.63817 4.96545,-1.65341 7.40432,-1.97518c3.25578,-0.42956 6.72415,0.46767 9.96602,-0.05022c1.64037,-0.26205 3.11208,-1.22672 4.74852,-1.51229c1.45516,-0.25394 3.39127,0.08838 4.85639,-0.33441c0.82226,-0.23728 1.4904,-0.90308 2.32642,-1.08608c2.29649,-0.5027 5.41399,-0.03038 7.77395,-0.03039c4.9999,-0.00002 9.99981,0.00008 14.99971,-0.00111c4.74743,-0.00113 10.12327,0.70068 14.80877,-0.02538c3.25598,-0.50454 6.29144,-2.46757 9.55509,-2.96304c4.88183,-0.74114 10.05262,0.22795 14.986,-0.51561c4.06436,-0.61258 8.14042,-1.77023 12.19974,-2.51384c4.08571,-0.74683 8.08466,-2.45186 12.18097,-3.01676c3.26284,-0.44996 6.60797,0.15598 9.8741,-0.56594c9.63718,-2.13011 18.97635,-6.05481 28.50084,-8.66065c3.28809,-1.73661 6.32734,-0.72518 9.73183,-1.86375c1.62216,-0.5425 2.8281,-1.94252 4.51197,-2.36306c3.88763,-0.97092 8.43784,0.37164 12.3868,-0.83794c2.48216,-0.76029 4.17869,-2.4705 6.8024,-3.14449c3.24153,-0.83271 6.42702,-0.39542 9.40036,-1.92501c0,0 1.11803,-0.55902 1.67705,0.55902c0.55902,1.11803 -0.55902,1.67705 -0.55902,1.67705c-3.26303,1.59346 -6.42958,1.23426 -9.90083,2.11146c-2.58577,0.65344 -4.18619,2.33467 -6.68227,3.11066c-3.99952,1.24338 -8.61027,-0.10137 -12.51874,0.87475c-1.58685,0.39631 -2.77622,1.79622 -4.32905,2.30989c-3.35765,1.11072 -6.46145,0.07047 -9.5854,1.80993c-9.63077,2.70119 -19.13253,6.63763 -28.89798,8.78355c-3.34153,0.73429 -6.74047,0.14184 -10.07055,0.60107c-4.05301,0.55893 -8.02685,2.25672 -12.07203,2.99928c-4.08526,0.74836 -8.18639,1.9102 -12.27762,2.52684c-4.93152,0.74328 -10.11071,-0.22306 -14.9837,0.51526c-3.25394,0.49302 -6.28835,2.45684 -9.54716,2.96182c-4.81967,0.74685 -10.31058,0.0537 -15.191,0.05486c-5.0001,0.00119 -10.00019,0.00108 -15.00029,0.00111c-2.14685,0.00001 -5.14036,-0.51268 -7.22605,-0.03039c-3.92157,0.90682 -8.03245,2.31489 -12.08487,2.96227c-3.27453,0.5231 -6.7553,-0.37204 -10.03353,0.06006c-2.33082,0.30722 -4.81082,1.30162 -7.08344,1.91127c-2.4676,0.65875 -4.71969,1.7863 -7.23989,2.25224c-4.11321,0.76046 -8.54282,0.34811 -12.70808,0.3514l-2.3454,0.00067c0,0 -1.25,0.00036 -1.25035,-1.24964z" fill="#00b725" stroke="none" stroke-width="0.5" stroke-linecap="butt"/><path d="M434.60137,176.80063c0.12988,1.24323 -1.11335,1.37311 -1.11335,1.37311l-1.15981,0.12116c-1.52995,0.13988 -2.91154,0.98192 -4.36681,1.47438c-1.40335,0.4749 -3.12589,0.34889 -4.24365,1.32127c-0.65175,0.56698 -0.97437,1.47827 -1.68574,1.96838c-2.46067,1.69531 -4.9246,0.72508 -7.52709,1.73961c-2.47466,0.96469 -3.91603,3.21378 -6.5817,3.86365c-1.64659,0.40142 -3.408,-0.07026 -5.08031,0.20503c-6.44943,1.06168 -13.15513,2.49171 -19.42961,4.31916c-2.80222,0.02021 -4.5411,1.02535 -7.23593,1.50824c-0.83981,0.15049 -3.91537,0.08006 -4.85715,0.35624c-0.81821,0.23995 -1.47172,0.92226 -2.30242,1.11459c-3.19268,0.73922 -6.76019,-0.35926 -9.99538,0.38906c-2.41894,0.55952 -4.63965,2.18641 -7.08758,2.62734c-3.24655,0.58478 -6.81676,-0.26718 -10.10492,0.02412c-1.58676,0.14057 -2.99781,1.09844 -4.54576,1.47452c-1.59592,0.38774 -3.27845,0.21151 -4.91312,0.37021c-0.74547,0.39575 -1.4231,0.96173 -2.23642,1.18725c-1.45341,0.403 -3.35112,-0.50698 -4.50027,0.46988c-0.66357,0.56408 -0.47381,1.86833 -1.22604,2.30725c-0.59206,0.34547 -4.63011,0.19006 -5.53294,0.28343c-1.61669,0.1672 -3.0769,1.08742 -4.67412,1.38827c-4.04917,0.76269 -8.39216,-0.43547 -12.49589,0.31454c-3.26502,0.59672 -6.41557,2.21573 -9.6692,2.69509c-3.30035,0.48624 -7.26156,0.04682 -10.49719,-0.58226c-1.42958,-0.60721 -3.02033,-0.77585 -4.56588,-0.92978c-1.69411,-0.16872 -3.21831,-1.13848 -4.88131,-1.50304c-1.54286,-0.33822 -3.1589,0.02768 -4.7384,0.02768c-5.77924,-0.00001 -11.88277,0.54901 -17.62924,-0.07003c-5.47663,-0.58998 -8.87529,-4.57153 -13.75389,-6.41784c-1.46691,-0.55515 -3.05982,-0.69116 -4.58775,-1.04538c-0.91171,-0.03924 -1.86737,0.16469 -2.73512,-0.11773c-0.79238,-0.25788 -1.25666,-1.16768 -2.0449,-1.43796c-1.49607,-0.51298 -3.17113,0.0455 -4.74293,-0.13c-2.46414,-0.27513 -4.88751,-1.08082 -7.35634,-1.2963c-8.97242,-0.78312 -18.37943,0.00473 -27.39131,0.00473c0,0 -1.25,0 -1.25,-1.25c0,-1.25 1.25,-1.25 1.25,-1.25c9.08578,0 18.5619,-0.78488 27.60869,0.00473c2.49149,0.21746 4.93168,1.02384 7.41685,1.30233c0.30378,0.03404 5.20989,0.22811 5.24953,0.24079c0.79376,0.25388 1.25527,1.17237 2.04517,1.43805c0.71506,0.2405 1.50881,0.00735 2.26322,0.01102c0.19303,0.04374 4.99875,1.12663 5.15976,1.18756c4.61846,1.74786 7.98038,5.75393 13.12813,6.26946c5.67671,0.56851 11.66507,0.05656 17.37013,0.05657c0.32202,0 5.08968,-0.00835 5.2616,0.02768c1.57321,0.32972 2.99545,1.31255 4.59615,1.45903c1.71047,0.15653 3.45996,0.37508 5.0499,1.02496c2.87897,0.55605 6.48437,0.93355 9.41074,0.50241c3.21795,-0.4741 6.3501,-2.09804 9.58723,-2.68161c4.08834,-0.73703 8.46564,0.47233 12.47187,-0.31006c1.66233,-0.32464 3.19547,-1.23412 4.87911,-1.4188c1.47979,-0.16231 3.24651,0.94261 4.46514,0.08759c0.6518,-0.45731 0.37562,-1.6905 1.01806,-2.16086c1.98385,-1.45244 5.2723,-0.85747 7.54201,-2.07793c1.67846,-0.19378 3.41274,-0.00061 5.05233,-0.40872c1.66381,-0.41414 3.20271,-1.36837 4.90908,-1.53585c3.21072,-0.31514 6.7312,0.57445 9.89505,0.00457c2.38853,-0.43023 4.59668,-2.0609 6.97084,-2.60343c3.22328,-0.73656 6.83965,0.37918 9.97852,-0.38512c0.7909,-0.19258 1.40464,-0.86323 2.18797,-1.08458c1.6443,-0.46464 3.42688,-0.11611 5.10925,-0.41483c2.64907,-0.47037 4.53302,-1.49672 7.3067,-1.51982c6.21697,-1.8773 12.97936,-3.26332 19.39302,-4.31343c1.61665,-0.2647 3.31346,0.18888 4.91155,-0.17132c2.38787,-0.53822 3.962,-2.87488 6.25042,-3.76082c2.15618,-0.83474 5.10806,-0.02827 6.974,-1.43992c0.64027,-0.48439 0.91453,-1.34774 1.53795,-1.85364c1.3849,-1.12385 3.35876,-1.20165 5.04818,-1.77334c1.62936,-0.55137 3.19955,-1.39621 4.90841,-1.59277l1.15981,-0.12116c0,0 1.24323,-0.12988 1.37311,1.11335z" fill="#00b725" stroke="none" stroke-width="0.5" stroke-linecap="butt"/><path d="M240.45637,269.48924c-0.96714,0.79192 -1.75906,-0.17521 -1.75906,-0.17521l-0.18511,-0.22606c-1.79197,-2.21199 -2.17054,-4.36472 -3.57167,-6.71992c-1.78694,-3.00371 -4.49533,-5.09029 -5.50138,-8.65375c-0.43891,-1.55464 0.18598,-3.3389 -0.4457,-4.82569c-0.6211,-1.46191 -2.22987,-2.28606 -3.12041,-3.60131c-1.85215,-2.73546 -3.64077,-5.82613 -5.08523,-8.79805c-2.91997,-6.02308 -4.66209,-12.56252 -7.39828,-18.57354c-3.4258,-7.52599 -7.61747,-14.79207 -10.91006,-22.47477c0,0 -0.4924,-1.14893 0.65653,-1.64133c1.14893,-0.4924 1.64133,0.65653 1.64133,0.65653c3.28554,7.66626 7.47068,14.90974 10.88776,22.4243c2.72813,5.99949 4.46061,12.51224 7.37229,18.51822c1.38873,2.87237 3.12579,5.84645 4.90714,8.48902c0.46651,0.69205 3.09116,3.41443 3.34987,4.02335c0.55986,1.31776 0.15432,3.71746 0.55085,5.12453c0.93274,3.30981 3.57679,5.25215 5.24382,8.0543c1.362,2.28941 1.61467,4.31218 3.35741,6.41426l0.18511,0.22606c0,0 0.79192,0.96714 -0.17521,1.75906z" fill="#b87400" stroke="none" stroke-width="0.5" stroke-linecap="butt"/><path d="M278.72573,226.00102c0,8.00917 -6.88754,14.50189 -15.38376,14.50189c-8.49622,0 -15.38376,-6.49272 -15.38376,-14.50189c0,-8.00917 6.88755,-14.50189 15.38376,-14.50189c8.49622,0 15.38376,6.49272 15.38376,14.50189z" fill="#ffffff" stroke="#000000" stroke-width="0.5" stroke-linecap="butt"/><path d="M274.61032,227.5688l-0.19597,-5.4872l-2.93957,5.29123l-0.97986,-6.27109l-3.52749,6.07512l-1.95972,-7.05497l-2.7436,6.859l-2.35166,-7.25095l-2.15569,8.42677l-3.91943,-6.46706l-1.56777,7.44692l-4.31137,-5.29123c0,0 9.24366,-4.55656 15.28551,-4.71349c5.73613,-0.14899 14.8941,3.92961 14.8941,3.92961z" fill="none" stroke="#000000" stroke-width="0.5" stroke-linecap="round"/><path d="M263.048,240.50291l0.11489,34.90297l-8.91438,11.92668" fill="none" stroke="#000000" stroke-width="0.5" stroke-linecap="round"/><path d="M254.4253,258.14036l2.35166,-3.91943l6.07512,-9.99455l8.42677,12.73815" fill="none" stroke="#000000" stroke-width="0.5" stroke-linecap="round"/><path d="M260.76121,217.25224c-0.00677,0.03987 -0.0144,0.07952 -0.02318,0.11885c0.11577,-0.0389 0.2316,-0.07765 0.34748,-0.11633c-0.10755,-0.00313 -0.21578,-0.00364 -0.32429,-0.00252zM261.68989,219.63455c-0.63636,0.01085 -1.29149,0.04985 -1.92232,0.00021c-0.50977,0.08229 -1.00835,0.21215 -1.46392,0.36401c-0.44347,0.14782 -0.9837,0.24135 -1.35295,0.53077c-0.86951,0.57967 -2.12967,0.54102 -2.93957,1.17583l-0.29396,0.19597c0,0 0.00867,-0.1628 0.02819,-0.32832c-0.23004,0.02103 -0.47529,-0.06055 -0.6919,0.01866c-0.04988,0.01824 0.16003,0.00023 0.15046,0.05247c-0.01665,0.09087 -0.11693,0.14815 -0.19597,0.19597c-0.59276,0.35866 -1.32543,0.43541 -1.95524,0.70627c-0.5609,0.24122 -1.08327,0.49174 -1.66576,0.6859c-0.11208,0.03736 -0.19283,0.06171 -0.24148,0.07683c-0.01469,0.00752 -0.03034,0.01477 -0.04683,0.02142c0.02235,-0.00002 0.09067,-0.00749 0.20623,-0.01616l-0.09798,0.29396c0,0 -0.70965,0.49323 -0.9113,0.04672c-0.20165,-0.4465 -0.01828,-0.35658 -0.01828,-0.35658l0.06162,-0.18486c-0.16702,-0.07806 -0.28274,-0.24756 -0.28274,-0.44409c0,-0.27058 0.21935,-0.48993 0.48993,-0.48993c0.00804,0 0.01604,0.00019 0.02398,0.00058c-0.03204,-0.01969 -0.06429,-0.03894 -0.09683,-0.05752l0.09798,-0.29396c0.21461,-0.617 0.59704,-1.09917 0.88187,-1.66576c0.12582,-0.25029 0.1693,-0.53974 0.31433,-0.77942c0.0205,-0.03388 0.04328,-0.06751 0.068,-0.10088c-0.00995,-0.04169 -0.01552,-0.08836 -0.01552,-0.1406c0,-0.48993 0.48993,-0.48993 0.48993,-0.48993c0.05596,0 0.11191,-0.00056 0.16785,-0.00164c0.03872,-0.0338 0.07674,-0.0672 0.11349,-0.10018c-0.07758,-0.05139 -0.15557,-0.10176 -0.23583,-0.14662l0.19597,-0.19597c-0.02469,-0.08902 0.14553,-0.11858 0.19597,-0.19597c0.18868,-0.28951 0.30241,-0.63831 0.4878,-0.94185c-0.03383,-0.1002 -0.04308,-0.20674 -0.01824,-0.32053c0.15232,-0.69794 0.59152,-1.01237 1.13883,-1.14498c0.09845,-0.13193 0.21011,-0.25079 0.35133,-0.33624c0.23968,-0.14502 0.52913,-0.1885 0.77942,-0.31433c0.25583,-0.12861 0.49541,-0.25078 0.73257,-0.35945c0.00061,-0.14387 0.0152,-0.28654 0.05131,-0.42443c0.12152,-0.4639 0.26193,0.00152 0.39641,-0.07762c0.07962,-0.04685 0.12644,-0.13515 0.19597,-0.19597c0.62312,-0.545 1.76035,-0.86247 2.57643,-1.11167c0.29918,-0.27068 1.04049,-0.39958 1.28825,-0.49237c0.49595,-0.18575 0.86551,-0.21647 1.38104,-0.3032c0.54006,-0.09086 1.05872,-0.4716 1.60882,-0.56277c0.43751,-0.07252 0.89841,0.0476 1.33076,-0.02514c0.3198,-0.0538 0.52197,-0.17581 0.88187,-0.19597c0.41693,0 1.07632,-0.12735 1.46979,0c0.31136,0.10078 0.55172,0.36348 0.85968,0.47422c0.10247,0.03685 0.21255,-0.11582 0.31615,-0.08228c0.31136,0.10078 0.55844,0.34632 0.85968,0.47422c0.53146,0.22566 1.1442,0.21953 1.68795,0.30966c0.00307,0.00051 0.66477,0.17388 0.74284,0.22111c0.14184,0.08582 0.48402,0.53007 0.6859,0.48993c0.70081,0.2336 1.28584,0.93707 1.85726,1.39217c0.70755,0.56352 1.57031,0.93937 2.27699,1.50656c0.5208,0.418 0.97434,0.96088 1.44647,1.43301c0.29595,0.29595 0.76416,0.62338 0.97986,0.97986c0.49528,0.81855 0.79624,1.83322 1.09821,2.73913c0.09798,0.29396 0.19597,0.58792 0.29396,0.88187c0.03266,0.09798 0.14418,0.20157 0.09798,0.29396c-0.53739,1.07477 -1.18953,0.82173 -2.0895,0.52173c-0.37118,-0.12373 -0.64631,-0.42035 -0.9987,-0.54707c-0.10247,-0.03685 -0.20872,0.10009 -0.31615,0.08228c-0.45896,-0.07607 -0.87671,-0.3407 -1.33076,-0.41708c-0.14257,-0.02398 -0.29903,0.07951 -0.43298,0.02514c-0.28171,-0.11434 -0.45284,-0.43102 -0.73837,-0.53544c-0.04783,-0.01749 0.09626,0.11748 0.05247,0.1435c-0.08424,0.05006 -0.20073,0.03017 -0.29396,0c-0.31136,-0.10078 -0.56728,-0.32723 -0.85968,-0.47422c-0.40332,-0.20275 -0.91876,-0.11772 -1.35295,-0.23682c-0.46987,-0.15662 -0.98221,-0.4079 -1.46979,-0.48993c-0.31864,-0.05361 -0.59317,-0.00568 -0.94375,-0.08747c-0.33608,-0.07841 -0.67867,-0.24773 -1.01596,-0.30447c-1.00856,-0.16968 -2.23951,0.02514 -3.27457,0.02514c-0.57356,0 -1.05827,-0.23848 -1.58874,-0.36868c-0.05928,0.04353 -0.17463,-0.00326 -0.2593,-0.02067zM254.89436,218.63746c-0.04724,-0.01273 -0.09445,-0.02466 -0.14156,-0.03626c0.00504,0.01694 0.01003,0.0339 0.01499,0.05089c0.06143,0 0.12197,0 0.18132,0c-0.01824,-0.00483 -0.0365,-0.00971 -0.05475,-0.01463zM261.87221,212.96892h-0.29396c-0.00938,-0.0024 -0.01903,-0.00448 -0.02892,-0.00625c-0.00349,0.00592 -0.00702,0.0118 -0.01062,0.01765c0.31165,0.01589 0.71778,0.01486 0.83988,0.20697c0.01337,-0.01152 0.02797,-0.02215 0.04314,-0.03185c-0.04916,-0.12992 -0.09679,-0.26095 -0.15757,-0.3825h0.24966c0.022,-0.09042 0.04987,-0.17896 0.08745,-0.26438c0.02728,-0.06201 0.07568,-0.0987 0.13673,-0.11954c-0.24163,-0.01739 -0.49157,-0.07006 -0.71086,-0.03317c-0.08144,0.0137 -0.16205,0.03177 -0.24206,0.05311c0.02625,0.12256 0.0516,0.24552 0.08713,0.36397h-0.11364c0.03555,0.06753 0.07257,0.13368 0.11364,0.19597zM263.23681,212.38122c-0.00247,-0.01543 -0.00505,-0.03081 -0.00776,-0.04614c-0.04514,0.01448 -0.09014,0.02734 -0.13495,0.03706c0.04855,0.00347 0.09675,0.00721 0.1427,0.00907zM263.83191,212.18504c0.08496,0.01909 0.1698,0.04311 0.25438,0.07074c0.0101,-0.02981 0.02579,-0.05589 0.04616,-0.07874c-0.07275,0.00485 -0.14098,0.008 -0.20256,0.008c-0.04394,-0.00795 -0.08799,-0.0102 -0.13209,-0.00814c0.01166,0.0029 0.02305,0.00565 0.03411,0.00814zM269.54809,213.66619c0.1062,0.04297 0.21093,0.08236 0.31204,0.1159c-0.18931,-0.14297 -0.37096,-0.29661 -0.57622,-0.37631c0.08791,0.08721 0.17569,0.17446 0.26418,0.26041zM273.95659,216.6678c0.00102,-0.00066 0.00204,-0.0013 0.00307,-0.00194c-0.00231,-0.0017 -0.00461,-0.00341 -0.00692,-0.00511c0.00129,0.00235 0.00258,0.00469 0.00385,0.00705zM276.35321,219.2723c0.03973,0.0508 0.08313,0.10643 0.12573,0.16163c-0.0239,-0.11188 -0.00152,-0.23918 -0.05933,-0.33744c-0.06298,-0.10702 -0.1503,-0.21187 -0.24961,-0.31415c0.06904,0.16558 0.13007,0.3305 0.18322,0.48995zM264.91467,213.67202l-0.13839,-0.05931c-0.00708,0.00574 -0.01424,0.01138 -0.02148,0.01695c-0.04821,0.03705 -0.10711,0.00634 -0.16768,-0.03097c0.00227,0.04013 0.00456,0.08026 0.0072,0.1203c0.00874,-0.0052 0.01755,-0.0103 0.02643,-0.0153c0.0792,-0.04461 0.18063,-0.05078 0.29392,-0.03167zM272.08316,216.92519c0.04305,0.03285 0.08661,0.06505 0.13079,0.09645c-0.03403,-0.02847 -0.06913,-0.05557 -0.1057,-0.08081c-0.00783,-0.0054 -0.01621,-0.01061 -0.02509,-0.01563zM269.05701,218.86376c0.25295,0.06319 0.50578,0.1272 0.75807,0.19333c-0.10408,-0.05658 -0.20749,-0.11529 -0.31056,-0.17516c-0.12,0.00919 -0.25854,-0.04809 -0.38139,-0.03386c-0.02263,0.00262 -0.04461,0.00816 -0.06613,0.01569zM252.93336,218.36481c0.0081,-0.0014 0.0162,-0.0028 0.0243,-0.00419c-0.0007,-0.00084 -0.00143,-0.00167 -0.00219,-0.00249c-0.012,-0.01303 -0.01838,-0.00825 -0.02211,0.00669zM276.68881,221.25753c-0.10727,0.12907 -0.21149,0.22055 -0.31349,0.27872c0.05111,0.0278 0.10233,0.05473 0.15371,0.08055c0.13863,0.06969 0.27998,0.14509 0.43298,0.17083c0.01927,0.00324 0.04179,0.00137 0.06563,-0.00295c-0.02892,-0.04371 -0.06058,-0.08609 -0.08133,-0.11723c-0.09164,-0.13745 -0.17296,-0.2767 -0.2575,-0.40993zM272.76779,220.07449c0.00974,-0.04513 0.01939,-0.0903 0.02935,-0.13535c-0.35343,-0.09966 -0.69541,-0.25516 -1.05024,-0.29669c0.19136,0.08054 0.444,0.20764 0.46623,0.32898c0.00957,0.05224 -0.20035,0.03423 -0.15046,0.05247c0.22071,0.08071 0.47145,0.0254 0.70511,0.05059zM266.33416,213.08561c0.00193,-0.00624 0.00387,-0.01248 0.00582,-0.0187c-0.00959,-0.0306 -0.01886,-0.06138 -0.02802,-0.09223c-0.0725,-0.00263 -0.14511,-0.0042 -0.21769,-0.00511c0.01591,0.00815 0.032,0.01632 0.04826,0.02449c0.06329,0.03181 0.12719,0.06226 0.19162,0.09155zM265.01184,213.6936c0.13236,0.03576 0.27581,0.09824 0.41615,0.16943c0.02713,0.00403 0.05427,0.00808 0.08142,0.01216c-0.1448,-0.14526 -0.29264,-0.28503 -0.47511,-0.39794c-0.00958,0.07228 -0.01793,0.14447 -0.02246,0.21634zM273.25734,218.17901c-0.0425,-0.07043 -0.08363,-0.14116 -0.12376,-0.2121c-0.02213,0.02755 -0.04415,0.05524 -0.06621,0.08287c0.06325,0.04322 0.12657,0.0863 0.18997,0.12923zM267.48636,218.43849c0.13144,0.04736 0.26867,0.09028 0.40316,0.12882c0.02531,-0.07285 0.04967,-0.14625 0.07487,-0.21916c-0.15753,0.03131 -0.31544,0.06512 -0.47803,0.09034zM266.26815,217.6754c-0.00779,0.03879 -0.01622,0.0773 -0.02564,0.11543c0.00061,0.00134 0.00122,0.00267 0.00182,0.00401c0.04332,-0.04771 0.09429,-0.08654 0.15223,-0.11865c-0.04279,-0.00081 -0.0856,-0.00105 -0.12841,-0.00078zM270.74343,218.46119c0.2258,0.11455 0.45365,0.19653 0.666,0.20257c-0.2012,-0.09756 -0.41933,-0.17031 -0.666,-0.20257zM251.95475,219.64658c0.03254,-0.00664 0.34914,-0.05974 0.61935,-0.10484c-0.04248,-0.03017 -0.07995,-0.06695 -0.1109,-0.10883c-0.17398,0.02729 -0.3481,0.05307 -0.52234,0.07647c-0.02736,0.04735 -0.05361,0.09641 -0.07899,0.14686c0.03257,-0.00139 0.06418,-0.0038 0.09288,-0.00966zM255.27513,215.39274c0.01337,0.0089 0.02673,0.01781 0.04011,0.02668c0.04578,-0.02078 0.0835,-0.03752 0.10899,-0.04892c-0.05093,0.01066 -0.10079,0.01834 -0.1491,0.02224zM264.78589,218.47358c0.09285,0.01161 0.18614,0.0246 0.27971,0.03819c-0.037,-0.01721 -0.07483,-0.03547 -0.11328,-0.05438c-0.09244,0.00056 -0.1849,0.00121 -0.27737,0.00189c0.03695,0.00491 0.07393,0.00968 0.11094,0.0143zM252.62541,216.95738c0.08753,-0.10833 0.17959,-0.21436 0.27758,-0.31747c0.05411,-0.05411 0.10446,-0.11353 0.15265,-0.17595c-0.06521,-0.00406 -0.12815,-0.00458 -0.18541,0.00051c-0.13844,0.17344 -0.26864,0.36141 -0.39007,0.53146c0.01388,0.00958 0.02793,0.01933 0.04213,0.02923c0.03472,-0.02087 0.06908,-0.04355 0.10312,-0.06779z" fill="#00ff40" stroke="none" stroke-width="0.5" stroke-linecap="butt"/><path d="M260.10843,211.89108l2.35166,-8.81872l3.33152,7.83886" fill="none" stroke="#32ff00" stroke-width="0.5" stroke-linecap="round"/><path d="M264.22384,206.99177l0.19597,-2.35166l3.13554,6.859" fill="none" stroke="#21a700" stroke-width="0.5" stroke-linecap="round"/><path d="M265.10573,208.75554c0,-0.27058 0.21935,-0.48993 0.48993,-0.48993c0.27058,0 0.48993,0.21935 0.48993,0.48993c0,0.27058 -0.21935,0.48993 -0.48993,0.48993c-0.27058,0 -0.48993,-0.21935 -0.48993,-0.48993z" fill="#00a92a" stroke="none" stroke-width="0.5" stroke-linecap="butt"/><path d="M265.08308,209.5591c-0.16543,-0.08138 -0.11701,-0.27506 -0.11701,-0.27506l0.12502,-0.01871c-0.15548,-0.75276 -0.69902,-1.39546 -0.94007,-2.11861l-0.16418,-0.12167c0,0 -0.22923,-0.43299 0.20376,-0.66223c0.05207,-0.02756 0.10119,-0.04555 0.14731,-0.05587c0.0134,-0.25062 0.03292,-0.48895 0.03292,-0.68696v-0.19597c0,-0.13529 0.10967,-0.24496 0.24496,-0.24496c0.09779,0 0.1822,0.0573 0.22148,0.14016l0.09561,0.19123c0.12264,0.05247 0.12129,0.45194 0.12385,0.5015c0.00871,0.16901 0.12954,0.31406 0.17011,0.47836c0.04013,0.16251 -0.0511,0.35285 0.02586,0.50149c0.06106,0.11792 0.51895,0.32617 0.62112,0.51965c0.05664,0.10727 0.07424,0.2292 0.09429,0.35053c0.06265,0.07816 0.09234,0.15072 0.09234,0.15072l0.09798,0.29396c0.0139,0.04473 0.02911,0.08872 0.04537,0.13212c0.21509,0.32919 0.51638,0.64625 0.6888,0.99111c0.15019,0.30039 0.40971,0.65502 0.48993,0.97986c0.04013,0.16251 -0.01556,0.33931 0.02586,0.50149c0.02832,0.1109 0.42684,0.56886 0.36608,0.67434c-0.09082,0.15767 -0.25769,0.2632 -0.41508,0.35451c-0.07884,0.04574 -0.16612,0.05419 -0.25706,0.0358c-0.18033,0.06173 -0.3254,-0.00495 -0.42,-0.07827c-0.05014,-0.03594 -0.09321,-0.08111 -0.12674,-0.13302l-0.38773,-0.58159l0.00405,-0.0027c-0.0333,-0.04771 -0.06034,-0.08994 -0.07971,-0.12365c-0.06076,-0.10572 -0.08723,-0.32346 -0.1137,-0.47884c-0.18954,-0.04644 -0.42567,-0.02892 -0.53778,-0.18164c-0.15682,-0.21361 -0.22978,-0.47687 -0.28113,-0.74303c-0.027,-0.03166 -0.05477,-0.06213 -0.08359,-0.09095z" fill="#00a92a" stroke="none" stroke-width="0.5" stroke-linecap="butt"/><path d="M262.3721,203.02947c0.6308,-0.08802 0.71881,0.54278 0.71881,0.54278l0.20208,0.28399c0,0.20234 0,0.40467 0,0.607c0.12984,0.27913 0.18616,0.62815 0.19597,0.66681c0.0241,0.09498 -0.03475,0.20234 0,0.29396c0.01264,0.03334 0.06148,-0.082 0.089,-0.05933c0.09091,0.07485 0.14349,0.18853 0.19597,0.29396c0.26205,0.52645 0.35422,1.11363 0.62764,1.63623c0.58195,1.1639 1.19431,2.17901 1.51801,3.46188c0.00452,0.01791 0.29318,0.91827 0.28029,0.93292c-0.30349,0.34496 -0.68805,0.6234 -1.09415,0.83832c-0.3366,0.17813 -0.61941,0.09398 -0.84686,-0.11161c-0.0613,0.28774 -0.31691,0.50356 -0.62292,0.50356c-0.03314,0 -0.06569,-0.00253 -0.09746,-0.00741c0.29391,0.28334 0.58442,0.59732 0.93976,0.87986c0.52373,0.41642 1.26782,0.79658 1.86265,1.09625c0.13476,0.06789 0.30698,0.04348 0.43603,0.12169c0.38945,0.23603 0.60892,0.52855 1.00815,0.74398c0.63933,0.3836 1.27907,0.69505 1.93142,1.01976c0.47218,0.23503 0.8597,0.62239 1.32771,0.85817c0.39279,0.19789 0.80793,0.29239 1.17583,0.58792c0.46464,0.37324 0.76088,0.87094 1.13609,1.32362c0.31812,0.3838 0.68764,0.67247 0.98279,1.08216c0.05515,-0.03578 0.19119,0.02159 0.27143,0.03488c0.16848,0.02789 0.33134,0.08315 0.49536,0.13067c0.07484,0.02168 0.14922,0.03839 0.2235,0.05182c-0.01025,-0.28732 0.02637,-0.66344 0.02637,-0.66344l0.29396,0.19597c0.24761,0.16587 0.67684,0.18704 0.75828,0.47372l0.47992,0.28795c0.1908,0.11001 0.31923,0.31608 0.31923,0.55215c0,0.35176 -0.28515,0.63691 -0.63691,0.63691c-0.05827,0 -0.11471,-0.00782 -0.16833,-0.02248l-0.69609,-0.17402c-0.83072,-0.15403 -1.91435,-0.03086 -2.40912,-0.77301c-0.24356,-0.412 -0.65401,-0.68402 -0.95945,-1.04899c-0.27399,-0.32739 -0.4841,-0.75807 -0.82363,-1.02803c-0.38455,-0.30575 -0.74028,-0.37111 -1.17583,-0.58792c-0.36661,-0.18248 -0.66438,-0.52846 -1.02394,-0.7096c-0.73882,-0.37222 -1.46261,-0.7031 -2.18398,-1.13592c-0.2042,-0.12991 -0.4166,-0.24776 -0.6126,-0.38974c-0.07497,-0.05431 -0.06296,-0.19156 -0.14299,-0.23808c-0.22697,-0.13195 -0.50477,-0.15327 -0.7398,-0.27026c-0.68701,-0.34197 -1.4568,-0.77346 -2.05678,-1.25541c-0.44666,-0.35879 -1.01965,-0.86338 -1.37272,-1.29222c-0.02266,-0.02753 0.09267,-0.07636 0.05933,-0.089h-0.16331l-0.18998,0.28497l-0.53122,-0.35414c-0.16617,-0.07581 -0.34031,-0.2347 -0.34031,-0.56774c0,-0.37922 0.22579,-0.53265 0.4085,-0.59473c0.0709,-0.02725 0.14791,-0.04218 0.22841,-0.04218h0.14529l-0.12705,-0.25409c-0.13871,-0.04331 -0.14507,-0.25284 -0.19519,-0.38983l-0.16008,0.10249c0,0 -0.17647,0.07563 -0.37715,0.04695c-0.00378,0.00465 -0.00754,0.00931 -0.01129,0.01397c-0.05786,0.07202 -0.10711,0.22125 -0.19597,0.19597c-0.00964,-0.00274 -0.01706,-0.00957 -0.02265,-0.01934c-0.03418,0.76619 0.01322,1.54782 0.01322,2.31258c0,0 0,0.63691 -0.63691,0.63691c-0.63691,0 -0.63691,-0.63691 -0.63691,-0.63691c0,-0.58792 0,-1.17583 0,-1.76374c0,-0.26129 -0.09033,-0.5387 0,-0.78388c0.19694,-0.53457 0.69625,-0.82015 0.89085,-1.33315c0.01446,-0.03812 -0.09005,0.09644 -0.10697,0.05933c-0.04065,-0.08916 -0.03002,-0.20068 0,-0.29396c0.10879,-0.33801 0.37297,-0.6092 0.49891,-0.94121c0.01446,-0.03812 -0.09005,0.09644 -0.10697,0.05933c-0.11886,-0.2607 0,-0.88445 0,-1.17583c0,-0.24141 -0.07347,-0.6536 0,-0.88187c0.22134,-0.6877 0.61416,-1.25572 0.81657,-1.96515c0.00915,-0.03208 0.17748,-0.73493 0.1823,-0.73695c0.12001,-0.05031 0.24502,-0.08705 0.37293,-0.11369c0,-0.10658 0,-0.21316 0,-0.31975l-0.18986,-0.10795c0,0 -0.08802,-0.6308 0.54278,-0.71881zM263.62293,210.40927c0.02323,0.06275 0.04684,0.12539 0.07067,0.18798c0.06297,-0.06516 0.14963,-0.14801 0.24842,-0.22369c-0.13078,0.02905 -0.24553,0.00702 -0.34039,-0.03524c0.00722,0.02361 0.01433,0.04725 0.02129,0.07095zM262.87613,212.37331c0.02034,0.01264 0.04048,0.02556 0.06044,0.03875l-0.04169,-0.05559c-0.00614,0.00574 -0.01238,0.01135 -0.01875,0.01684zM264.4126,210.16548c-0.0109,-0.02818 -0.02195,-0.05622 -0.03315,-0.08415c-0.0248,0.03542 -0.05517,0.07033 -0.09199,0.10423c0.04195,-0.01192 0.08387,-0.01906 0.12515,-0.02008z" fill="#00ff40" stroke="none" stroke-width="0.5" stroke-linecap="butt"/><path d="M263.82903,229.99611c0,1.08232 -0.74579,1.95972 -1.66576,1.95972c-0.91997,0 -1.66576,-0.87739 -1.66576,-1.95972c0,-1.08232 0.74579,-1.95972 1.66576,-1.95972c0.91997,0 1.66576,0.87739 1.66576,1.95972z" fill="#000000" stroke="#000000" stroke-width="0.5" stroke-linecap="butt"/><path d="M367.99079,250.93837c0,6.48935 -6.82766,11.75 -15.25,11.75c-8.42234,0 -15.25,-5.26065 -15.25,-11.75c0,-6.48935 6.82766,-11.75 15.25,-11.75c8.42234,0 15.25,5.26065 15.25,11.75z" fill="#00f52f" stroke="#000000" stroke-width="1" stroke-linecap="butt"/><path d="M273.62766,229.89814c0,1.13644 -0.74579,2.0577 -1.66576,2.0577c-0.91997,0 -1.66576,-0.92126 -1.66576,-2.0577c0,-1.13644 0.74579,-2.0577 1.66576,-2.0577c0.91997,0 1.66576,0.92126 1.66576,2.0577z" fill="#000000" stroke="#000000" stroke-width="0.5" stroke-linecap="butt"/><path d="M252.30924,218.7989c-0.2835,-0.38982 0.10631,-0.67332 0.10631,-0.67332l0.09098,-0.09933c0.18377,-0.18377 0.38396,-0.36874 0.5972,-0.53832c-0.01438,-0.03723 -0.0287,-0.07735 -0.04306,-0.12052l-0.0676,-0.06921c0,0 0.0091,-0.02274 0.02831,-0.05592c-0.02284,-0.07671 -0.04601,-0.16125 -0.06992,-0.25421c-0.02124,-0.08255 0.4702,-0.44078 0.53302,-0.51978c0.29429,-0.37013 0.45373,-0.77489 0.84187,-1.07976c0.06776,-0.05322 0.18203,0.01144 0.25652,-0.03187c0.41676,-0.24229 0.56748,-0.50087 1.08238,-0.58611c0.47563,-0.07874 1.37187,-0.07071 1.37187,0.55616c-0.03834,0.58104 -0.26781,1.47733 -0.63773,1.94286c-0.31697,0.39889 -0.80139,0.43659 -1.20832,0.60869c-0.20317,0.08593 -0.3624,0.25454 -0.55988,0.35284c-0.40538,0.20178 -0.90459,0.30153 -1.33479,0.44493c0,0 -0.03816,0.01272 -0.09612,0.01979c-0.00403,0.00402 -0.00806,0.00805 -0.01209,0.01208l-0.20564,0.1973c0,0 -0.38982,0.2835 -0.67332,-0.10631z" fill="#000000" stroke="none" stroke-width="0.5" stroke-linecap="butt"/><path d="M270.94484,213.87006c0.08197,0.01621 0.17701,0.02194 0.23779,0.07926c0.17431,0.16438 0.29887,0.37442 0.44671,0.5631c0.23709,-0.00058 0.5219,0.13971 0.70585,0.19548c0.3687,0.11179 0.36631,0.66243 0.47294,1.0431c0.08608,0.05656 0.16915,0.11268 0.23466,0.15641c0.00232,0.0015 0.00464,0.00302 0.00693,0.00456l0.33032,0.16776c0,0 0.20747,0.14819 0.22627,0.38203c0.26102,0.02521 0.46507,0.24518 0.46507,0.51281c0,0.23177 -0.15303,0.42779 -0.36356,0.49254l-0.46431,0.15477l-0.00841,-0.02525c-0.28898,0.05052 -0.553,0.05168 -0.86789,0.05168c-0.01763,0 -0.03517,-0.00016 -0.05261,-0.00046c-0.27881,0.04838 -0.56309,0.06994 -0.8193,0.00046c-0.18138,-0.04918 -0.34164,-0.1085 -0.48425,-0.17742c-0.20024,-0.01404 -0.4043,-0.00652 -0.59418,-0.06764c-0.45974,-0.14797 -0.59572,-0.57569 -0.77701,-0.93554c-0.2462,-0.48868 -0.53896,-0.76963 -0.54674,-1.36193c-0.00419,-0.31908 0.14315,-0.64637 0.14315,-0.98474c0,0 0,-0.51522 0.51522,-0.51522c0.24743,0 0.37603,0.11882 0.44288,0.24235c0.19537,-0.06526 0.42938,-0.04163 0.75049,0.02188z" fill="#000000" stroke="none" stroke-width="0.5" stroke-linecap="butt"/><path d="M262.83731,275.14199l8.31176,12.46764" fill="none" stroke="#000000" stroke-width="0.5" stroke-linecap="round"/><path d="M375.63868,269.58216c-1.06006,-0.66241 -0.39765,-1.72246 -0.39765,-1.72246l0.3317,-0.53082c0.84519,-1.31557 0.95531,-2.98251 1.56739,-4.4214c0.62651,-1.4728 2.18486,-2.499 2.57876,-4.05029c0.63933,-2.51787 0.06935,-5.39726 1.73249,-7.70657c0.77362,-1.07419 3.1206,-2.16158 4.05426,-3.17155c0.56672,-0.61305 0.8123,-1.4795 1.38554,-2.08646c1.13826,-1.20525 2.83673,-1.78852 3.96258,-3.00536c1.03027,-1.11353 0.89511,-2.90853 1.531,-4.28586c0.93237,-2.01952 2.91104,-4.242 4.0847,-6.21932c0.27035,-0.89933 0.24183,-1.95107 0.81104,-2.69798c0.5247,-0.68852 1.65774,-0.67124 2.24279,-1.30927c0.53361,-0.58194 0.47803,-1.53628 0.94813,-2.17063c1.52353,-2.05585 4.14613,-3.06711 5.85633,-4.90683c2.62889,-2.82799 4.91784,-6.81642 6.98005,-10.06275c1.94699,-3.06496 2.68939,-6.40845 6.12296,-8.42088c2.24203,-1.31406 5.41647,-1.59529 7.9214,-1.60766c0,0 1.25,0 1.25,1.25c0,1.25 -1.25,1.25 -1.25,1.25c-2.04931,-0.0117 -4.81695,0.18588 -6.65726,1.2645c-2.99856,1.75747 -3.57802,4.90602 -5.27404,7.60009c-2.12704,3.37872 -4.53168,7.49169 -7.26205,10.42885c-1.61273,1.73486 -4.26853,2.74596 -5.6709,4.68248c-0.51455,0.71053 -0.52881,1.73384 -1.12085,2.38122c-0.54069,0.59123 -1.61348,0.52249 -2.1098,1.15143c-0.45135,0.57195 -0.32092,1.4214 -0.48138,2.1321c-1.16287,2.00039 -3.19455,4.25912 -4.11802,6.2954c-0.72775,1.60472 -0.78146,3.59158 -1.94409,4.9156c-1.10557,1.25904 -2.85743,1.81895 -3.9992,3.04526c-0.56681,0.60878 -0.81039,1.4727 -1.37916,2.07964c-1.1061,1.18033 -2.90239,1.63621 -3.86211,2.93837c-1.39255,1.88944 -0.77099,4.81148 -1.33796,6.87719c-0.4537,1.65303 -2.03022,2.80032 -2.69199,4.38158c-0.65434,1.56352 -0.86693,3.32755 -1.75048,4.77396l-0.3317,0.53082c0,0 -0.66241,1.06006 -1.72246,0.39765z" fill="#b87400" stroke="none" stroke-width="0.5" stroke-linecap="butt"/><path d="M229.15394,316.57015l-15.01502,-55.55556h189.18919l-18.01802,54.05405z" fill="#b87400" stroke="#8f5b00" stroke-width="5" stroke-linecap="butt"/><path d="M327.89795,44.58516c1.7685,-1.59346 0.69943,-4.52932 1.47033,-6.2572c0.53576,-1.20083 1.95622,-2.01604 2.78434,-3.10309c3.99579,-5.24519 10.45589,-7.52239 17.90952,-7.69506c4.14639,-1.31727 8.20135,-0.37779 12.31432,-1.26114c0.5975,-0.12833 0.95236,-1.01159 1.53547,-0.8456c0.51397,0.1463 0.05433,0.95828 0.177,1.38728c0.58737,2.05412 1.66282,3.95994 2.97476,5.75973c2.07027,2.84011 4.66114,5.6043 6.37036,8.50277c0.77848,1.32013 0.60597,3.07619 1.97254,4.03493c0.82821,0.58104 2.05804,0.41635 3.14718,0.52124c2.45138,0.23608 5.11206,0.0861 7.58006,0.08699c1.0273,-0.03847 2.17114,0.27325 3.08151,-0.11328c0.28767,-0.12214 3.02545,-3.29441 3.31913,-3.68063c1.28411,-1.68869 2.16193,-3.63611 3.55644,-5.26479c0.94744,-1.10654 2.32181,-1.9451 3.26387,-3.05463c0.41265,-0.48601 0.53433,-1.22608 1.07999,-1.61722c2.23947,-1.60533 6.75048,-0.36863 9.3075,-0.86105c2.48137,-0.47785 6.17938,-2.12635 8.96354,-1.25185c0.63671,0.19999 0.96145,0.78676 1.45798,1.16584c1.78517,1.36293 3.6387,2.68005 5.45941,4.01193c0.90316,1.00556 2.10375,1.87182 2.73733,3.0039c0.68667,1.22694 0.25563,2.56697 0.64916,3.82903c0.63239,2.02811 1.32065,3.53377 1.53264,5.69884c0.11916,1.21702 0.61872,2.49772 0.16904,3.66322c-0.61125,1.58426 -3.05367,3.34784 -4.11977,4.78174c-1.33782,1.79936 -2.86519,3.09778 -4.35381,4.78653c-0.42478,0.48189 -0.43856,1.19663 -0.98898,1.58679c-2.18483,1.5487 -8.52942,0.86143 -10.70098,-0.10774c-2.62976,-1.04322 -13.63762,0.49907 -15.84022,-0.93392c-0.62396,-0.40594 8.95066,-3.43582 8.36443,-3.87696c-1.75007,-1.31696 -19.07498,5.07116 -21.42134,4.1064c-1.96542,-0.80813 10.71771,-9.35463 8.55426,-9.3653c-4.16891,-0.02057 -8.3742,0.01355 -12.54319,0.01354c-0.37757,0 -5.13981,-0.01298 -5.34087,0.0294c-1.03543,0.21823 -3.41631,1.66124 -4.50298,2.00313c-1.64362,0.51711 -2.77318,0.3772 -4.50308,0.37941c-2.4914,0.00104 -5.13856,-0.18508 -7.61796,-0.00054c-4.65982,0.34683 -9.75145,2.04194 -14.50087,1.22386c-4.71216,-0.81166 -10.89653,-4.46919 -14.6704,-6.81693c-1.49522,-0.93018 -2.6812,-2.25025 -4.06362,-3.32172c1.83102,0.06281 4.05327,0.09798 5.43597,-1.14786z" data-paper-data="{&quot;noHover&quot;:false,&quot;origItem&quot;:[&quot;Path&quot;,{&quot;applyMatrix&quot;:true,&quot;segments&quot;:[[[145.68457,236.26065],[3.66205,0.15547],[2.76486,2.65219]],[[153.8112,244.47443],[-2.99044,-2.30246],[7.54774,5.81131]],[[183.14547,261.32244],[-9.42433,-2.00908],[9.49884,2.02497]],[[212.13991,258.27843],[-9.31963,0.8585],[4.95881,-0.45679]],[[227.36276,258.26266],[-4.9828,0.00258],[3.45979,-0.00546]],[[236.35508,257.31145],[-3.28725,1.28],[2.17334,-0.84626]],[[245.34316,252.34286],[-2.07086,0.54017],[0.40214,-0.1049]],[[255.97416,252.26193],[-0.75515,0],[8.33797,0.00001]],[[280.98938,252.26953],[-8.33783,-0.05091],[4.3269,0.02642]],[[297.08548,253.25259],[-3.93085,-2.00033],[4.69272,2.38803]],[[306.8899,265.3975],[-3.50013,-3.25983],[1.17245,1.09195]],[[311.18237,267.56026],[-1.24792,-1.00482],[4.4052,3.54705]],[[321.67264,277.19855],[-5.25951,-2.58225],[4.34312,2.39896]],[[343.06884,277.47526],[-4.36966,3.83346],[1.10084,-0.96575]],[[345.0449,273.5515],[-0.84956,1.1928],[2.97724,-4.18012]],[[353.74776,261.71655],[-2.67564,4.45391],[2.1322,-3.54929]],[[361.98459,249.89265],[-1.2225,3.92149],[0.89936,-2.88494]],[[361.64557,240.83338],[0.23833,3.01246],[-0.42398,-5.35913]],[[358.58019,226.74044],[1.26478,5.02011],[-0.78705,-3.12394]],[[357.28283,217.27162],[1.37335,3.03702],[-1.26717,-2.8022]],[[351.80971,209.84414],[1.80632,2.48903],[-3.64142,-3.29677]],[[340.89472,199.92606],[3.57034,3.37361],[-0.99305,-0.93834]],[[337.9803,197.04407],[1.27341,0.49503],[-5.56831,-2.16462]],[[320.0556,200.1479],[4.96275,-1.18281],[-5.11404,1.21887]],[[301.44616,202.28902],[4.47895,-3.97363],[-1.09131,0.96818]],[[299.45644,206.18722],[0.8253,-1.203],[-1.88413,2.7464]],[[292.93223,213.75481],[1.89488,-2.73899],[-2.78902,4.03143]],[[285.82782,226.81196],[2.56821,-4.17997],[-0.58737,0.95599]],[[279.19059,235.95337],[0.57534,-0.30233],[-1.82073,0.95676]],[[273.02679,236.23906],[2.0546,-0.09523],[-4.93601,-0.00221]],[[257.845,236.07038],[4.90276,0.58435],[-2.17827,-0.25962]],[[251.39275,234.77465],[1.65642,1.43824],[-2.73315,-2.37314]],[[247.46646,224.65035],[1.55696,3.26769],[-3.41844,-7.17452]],[[234.73302,203.59839],[4.14055,7.03004],[-2.62389,-4.45497]],[[228.78836,189.33849],[1.17475,5.0845],[-0.24534,-1.06189]],[[228.53233,186.07895],[1.02794,0.36214],[-1.16623,-0.41086]],[[225.46738,188.16851],[1.195,-0.31764],[-8.22594,2.18653]],[[200.86366,191.26752],[8.29279,-3.2606],[-14.90725,0.42739]],[[165.0628,210.27786],[7.99159,-12.98327],[-1.65623,2.69074]],[[159.49599,217.94983],[1.07151,-2.97238],[-1.5418,4.27697]],[[156.55655,233.42194],[3.53701,-3.94424],[-2.7654,3.0838]]],&quot;closed&quot;:true}]}" fill="url(#color-4)" stroke="none" stroke-width="0.5" stroke-linecap="butt"/><path d="M276.87378,49.20541c0.14802,-0.82184 1.48543,-3.66585 1.78895,-4.34806c0.65519,-1.47266 1.95297,-2.58747 2.71011,-4.01041c0.26204,-0.49247 0.93891,-4.02992 1.10124,-4.83363c0.63569,-0.51412 3.40326,-2.72811 3.74097,-3.18839c0.47877,-0.65253 0.40973,-1.62935 0.91521,-2.26142c1.02482,-1.28144 2.9968,-1.54084 4.12047,-2.73654c1.14355,-1.21685 1.75137,-2.88144 2.86567,-4.12513c0.99315,-1.10847 2.74452,-4.07584 4.64346,-3.28993c2.28402,0.94529 3.92747,5.55578 5.09975,7.53446c1.27305,2.14876 3.26796,3.92426 4.49116,6.01059c1.71633,2.92744 2.69268,5.71032 5.19238,8.23115c0.01433,1.28132 0.3057,2.94495 0.91758,4.42039c-4.38832,-0.08031 -8.79898,-0.0137 -13.18793,-0.0137c-2.3331,0 -5.56071,-0.49281 -7.82156,0.03857c-3.04537,0.71577 -6.30478,2.93376 -9.31506,4.01542c-2.40788,0.8652 -4.83528,1.68967 -7.2629,2.5034c0.07997,-1.33388 -0.16417,-3.03248 0.00051,-3.94678z" data-paper-data="{&quot;noHover&quot;:false,&quot;origItem&quot;:[&quot;Path&quot;,{&quot;applyMatrix&quot;:true,&quot;segments&quot;:[[[54.48246,241.37363],[0.15993,-2.66777],[4.85525,-1.62745]],[[68.9967,236.3556],[-4.81576,1.7304],[6.02055,-2.16331]],[[87.58466,228.30421],[-6.09074,1.43154],[4.52171,-1.06276]],[[103.15667,228.23789],[-4.66621,0],[8.7779,0]],[[129.49358,228.30564],[-8.77664,-0.16062],[-1.22375,-2.95089]],[[127.65132,219.48216],[0.02866,2.56264],[-4.9994,-5.04166]],[[117.26449,203.07031],[3.43266,5.85489],[-2.44639,-4.17266]],[[108.31153,191.10084],[2.54611,4.29753],[-2.34457,-3.95736]],[[98.16158,176.05715],[4.56804,1.89057],[-3.79789,-1.57183]],[[88.90506,182.63812],[1.98629,-2.21693],[-2.2286,2.48738]],[[83.20633,190.87876],[2.2871,-2.4337],[-2.24735,2.3914]],[[75.00216,196.3208],[2.04963,-2.56288],[-1.01097,1.26412]],[[73.18315,200.82321],[0.95753,-1.30507],[-0.67543,0.92058]],[[65.70867,207.16715],[1.27139,-1.02824],[-0.32466,1.60742]],[[63.5024,216.80124],[0.52408,-0.98495],[-1.51427,2.84588]],[[58.0763,224.80661],[1.31038,-2.94533],[-0.60703,1.36442]],[[54.49149,233.49056],[0.29604,-1.64367],[-0.32934,1.82859]]],&quot;closed&quot;:true}]}" fill="url(#color-5)" stroke="none" stroke-width="0.5" stroke-linecap="butt"/><path d="M236.39549,45.06652c-0.01617,-1.49683 -0.68559,-3.1102 -0.1333,-4.50151c0.4442,-1.11901 2.85789,-1.66877 3.58088,-2.04616c2.88094,-1.5038 5.99122,-3.63809 8.56749,-5.61948c0.55845,-0.4295 1.98627,-2.34458 3.20612,-1.81766c1.36257,0.58858 1.94832,2.25279 2.98356,3.31642c1.10184,1.10755 2.57192,1.94729 3.35334,3.30011c0.8129,1.40732 0.60572,3.24585 1.26747,4.73025c0.90341,2.02647 2.07527,5.02185 3.20771,6.92192c0.90336,1.51571 2.7266,2.24489 4.04637,3.41606c0.61802,0.54843 0.78895,1.49584 1.41024,2.04058c0.38335,0.33612 0.82592,0.64164 1.30693,0.90219c-1.30424,0.42916 -2.6132,0.86692 -3.91497,1.30104c-1.52197,0.50734 -2.99144,1.27023 -4.57209,1.54471c-3.22147,0.55942 -6.99266,-0.742 -10.14403,0.09998c-2.46044,0.65738 -3.65287,2.08274 -5.99171,2.66438c-0.4559,-0.89675 -1.47371,-1.57607 -2.34902,-2.09262c-1.11067,-0.65544 -3.03639,-0.75423 -4.84038,-0.72356c-1.62099,-3.95727 -0.9391,-9.22343 -0.98461,-13.43665z" data-paper-data="{&quot;noHover&quot;:false,&quot;origItem&quot;:[&quot;Path&quot;,{&quot;applyMatrix&quot;:true,&quot;segments&quot;:[[[-24.50144,252.07855],[-3.24197,-7.91455],[3.60798,-0.06133]],[[-14.83611,253.51037],[-2.22134,-1.31088],[1.75061,1.03309]],[[-10.15344,257.68553],[-0.9118,-1.7935],[4.67767,-1.16326]],[[1.79933,252.34643],[-4.92088,1.31476],[6.30272,-1.68396]],[[22.0165,252.16137],[-6.44295,1.11883],[3.1613,-0.54897]],[[31.13938,249.09063],[-3.04394,1.01469],[2.60354,-0.86823]],[[38.95859,246.5037],[-2.60847,0.85831],[-0.96201,-0.52111]],[[36.34437,244.69995],[0.7667,0.67224],[-1.24257,-1.08948]],[[33.52064,240.62503],[1.23605,1.09687],[-2.63954,-2.34233]],[[25.42308,233.80501],[1.80672,3.03141],[-2.26488,-3.80014]],[[19.01569,220.04131],[1.80683,4.05293],[-1.32351,-2.96879]],[[16.51449,210.61622],[1.6258,2.81463],[-1.56284,-2.70563]],[[9.84454,204.03001],[2.20369,2.2151],[-2.07048,-2.12725]],[[3.90066,197.39835],[2.72514,1.17715],[-2.43969,-1.05385]],[[-2.48796,201.02919],[1.1169,-0.859],[-5.15254,3.9628]],[[-19.56737,212.22416],[5.76187,-3.0076],[-1.44597,0.75477]],[[-26.72033,216.29751],[0.8884,-2.23803],[-1.10458,2.78261]],[[-26.44859,225.2749],[-0.03234,-2.99366],[0.09102,8.42645]]],&quot;closed&quot;:true}]}" fill="url(#color-6)" stroke="none" stroke-width="0.5" stroke-linecap="butt"/><path d="M271.24826,235.65404c0,0 -3.35555,1.81489 -5.06757,1.67793c-1.75893,-0.14071 -5.3491,-2.51126 -5.3491,-2.51126" fill="none" stroke="#000000" stroke-width="0.5" stroke-linecap="round"/><path d="M348.99079,237.93837c0,4.69442 -4.02944,8.5 -9,8.5c-4.97056,0 -9,-3.80558 -9,-8.5c0,-4.69442 4.02944,-8.5 9,-8.5c4.97056,0 9,3.80558 9,8.5z" fill="#00f52f" stroke="#000000" stroke-width="1" stroke-linecap="butt"/><path d="M369.87275,258.24739c-0.05405,-0.10809 -0.09242,-0.21096 -0.11764,-0.30861c-0.63519,0.14649 -1.14821,-0.36653 -1.14821,-0.36653l-1.20387,-1.26801c-0.18109,-0.6959 -0.41784,-1.26771 -0.65976,-1.77883c-0.3592,-0.26907 -0.72485,-0.52226 -1.14778,-0.65119c0,0 -1.18585,-0.39528 -0.79057,-1.58114c0.17353,-0.52058 0.49941,-0.73645 0.81044,-0.81482c-0.03203,-0.48614 0.01886,-1.03242 0.18956,-1.68518c0,0 0.39528,-1.18585 1.58114,-0.79057c1.18585,0.39528 0.79057,1.58114 0.79057,1.58114c-0.37632,0.75306 -0.10009,1.46434 0.31192,2.21446c0.1548,0.08966 0.31412,0.16995 0.48058,0.2354c1.22451,0.48143 2.85577,0.49665 3.62374,1.56503c0.22877,0.31827 -0.28667,0.77468 -0.22872,1.15782c0.07366,-0.02335 0.14735,-0.04663 0.22106,-0.06985c0.07983,-0.09818 0.17044,-0.21012 0.25283,-0.23878c0.64905,-0.22574 1.31972,-0.40282 2,-0.5c0.13646,-0.0195 0.26974,-0.03869 0.4004,-0.05784c0.90725,-0.2571 1.821,-0.49842 2.74398,-0.71821l-0.05067,-0.10135l2,-1l0.30693,0.61387c0.41968,-0.08096 0.84164,-0.1567 1.26614,-0.22672l-0.57038,1.17456l0.44021,0.44021l-1,1l-0.09396,-0.09396l-0.13276,0.27339c-1.36609,0.48269 -4.31697,1.60363 -6.7016,1.82352c-0.36482,0.08526 -0.72092,0.18147 -1.06028,0.29902l-0.83627,0.43218c0,0 -1.11803,0.55902 -1.67705,-0.55902zM370.38869,255.77819c-0.05828,-0.13031 -0.18808,-0.22381 -0.35853,-0.29045l0.3445,0.31675c0,0 0.01602,0.01602 0.04158,0.04589c-0.00791,-0.02461 -0.01705,-0.04869 -0.02756,-0.07219z" fill="#00f52f" stroke="none" stroke-width="0.5" stroke-linecap="butt"/><path d="M347.74079,242.18837c0,-0.69036 0.55964,-1.25 1.25,-1.25c0.69036,0 1.25,0.55964 1.25,1.25c0,0.69036 -0.55964,1.25 -1.25,1.25c-0.69036,0 -1.25,-0.55964 -1.25,-1.25z" fill="#00f52f" stroke="none" stroke-width="0.5" stroke-linecap="butt"/><path d="M368.74079,244.43837c0,1.25 -1.25,1.25 -1.25,1.25h-0.5c-1.32293,-0.06363 -3.10803,0.2555 -3.62875,-1.56336c-0.18589,0.04891 -0.37574,0.06932 -0.57148,0.04722c-1.26866,-0.14325 -1.35627,-2.19572 -2.27813,-3.07901c-0.19764,-0.18937 -0.3753,0.42197 -0.62636,0.531c-1.3891,0.60329 -3.16774,1.11197 -4.40934,-0.45497c-0.0904,-0.11409 -0.16379,-0.2495 -0.22127,-0.40193c-0.96315,0.13456 -1.83181,-0.21641 -2.31164,-1.5184c-0.18972,0.19111 -0.37944,0.38222 -0.56916,0.57333c0,0 -0.88388,0.88388 -1.76777,0c-0.88388,-0.88388 0,-1.76777 0,-1.76777c0.54577,-0.54127 1.09154,-1.08255 1.6373,-1.62382l0.66014,-1.11091c0.21521,-0.37714 0.62113,-0.63138 1.08644,-0.63138c0.69036,0 1.25,0.55964 1.25,1.25v1.93582c0.03864,0.0532 0.07927,0.09725 0.12251,0.13196c0.39765,-1.32777 1.19659,-2.55684 2.14913,-2.72263c0.1598,-0.02781 0.31923,-0.03679 0.47835,-0.03121v-0.06394h1.5c0.69036,0 1.25,0.55964 1.25,1.25c0,0.34518 -0.13991,0.65768 -0.36612,0.88388l-1,1c-0.41938,0.40417 -1.07737,0.97003 -1.82271,1.45838c0.28635,0.33183 1.04058,-0.39728 1.54355,-0.52812c0.78053,-0.20305 1.6523,-0.82972 2.37364,-0.469c1.01089,0.50552 0.63517,3.23168 1.72187,2.92099c0.25553,-0.07306 0.48219,-0.20953 0.69911,-0.36738c0.11136,-0.15145 0.23513,-0.29045 0.36977,-0.41281c0.07413,-0.06737 0.14636,-0.07537 0.21728,-0.04296c0.07428,-0.05581 0.14949,-0.10957 0.22642,-0.15955l0.28719,0.11504v-0.14847h1.5c0.69036,0 1.25,0.55964 1.25,1.25c0,0.69036 -0.55964,1.25 -1.25,1.25h-0.64916c0.1449,0.05613 0.50437,0.06005 1.14916,0h0.5c0,0 1.25,0 1.25,1.25z" fill="#00f52f" stroke="none" stroke-width="0.5" stroke-linecap="butt"/><path d="M345.22445,233.11376c-0.05302,0.34413 -0.2781,1.07461 -1.23366,1.07461c-0.2755,0 -0.49028,-0.06072 -0.65772,-0.1554c-0.65954,0.31188 -1.34504,0.37328 -1.99617,-0.07193c-0.8818,-0.60293 -0.58019,-2.06246 -1.00095,-3.04432c-0.11265,-0.26288 -0.29769,-0.48313 -0.5073,-0.68847c0.03502,0.6278 -0.01862,1.2097 -0.45397,1.594c-1.23914,1.09383 -3.16211,0.66902 -4.1246,-0.37362c0.04554,2.7564 -0.06343,4.04617 -2.864,5.17559c0,0 -1.18585,0.39528 -1.58114,-0.79057c-0.39528,-1.18585 0.79057,-1.58114 0.79057,-1.58114c3.15082,-0.61692 -1.19148,-8.03059 3.51846,-7.55806c1.42903,0.14337 3.0671,5.89446 2.12683,1.74392v-1.5c0,-0.69036 0.55964,-1.25 1.25,-1.25c0.34518,0 0.65768,0.13991 0.88388,0.36612l1,1l-0.10789,0.10789c1.41186,1.07129 2.00755,2.24695 2.35849,4.65622c0.02433,0.16704 0.12149,-0.32034 0.22502,-0.45366c0.26661,-0.34333 1.53063,-1.58446 1.75662,-1.81045l1.5,-1.5c0.22621,-0.22621 0.53871,-0.36612 0.88388,-0.36612c0.69036,0 1.25,0.55964 1.25,1.25c0,0.14845 -0.02588,0.29086 -0.07337,0.42297l-0.49077,1.47232l-0.27515,-0.09172c-0.25766,0.96339 -0.82396,1.44976 -2.17704,2.37183z" fill="#00f52f" stroke="none" stroke-width="0.5" stroke-linecap="butt"/><path d="M332.24079,236.43837c0,-0.69036 0.55964,-1.25 1.25,-1.25c0.69036,0 1.25,0.55964 1.25,1.25c0,0.69036 -0.55964,1.25 -1.25,1.25c-0.69036,0 -1.25,-0.55964 -1.25,-1.25z" fill="#000000" stroke="none" stroke-width="0.5" stroke-linecap="butt"/><path d="M340.49079,239.43837c0,0 -0.27863,2.2967 -1.57847,2.90328c-1.19056,0.55559 -5.92153,0.59672 -5.92153,0.59672" fill="none" stroke="#000000" stroke-width="1" stroke-linecap="round"/></g></g></svg>