<svg version="1.1" xmlns="http://www.w3.org/2000/svg" xmlns:xlink="http://www.w3.org/1999/xlink" width="16.08229" height="32.13431" viewBox="0,0,16.08229,32.13431"><defs><linearGradient x1="239.83778" y1="165.41372" x2="239.83778" y2="180.19424" gradientUnits="userSpaceOnUse" id="color-1"><stop offset="0" stop-color="#ffffff"/><stop offset="1" stop-color="#ececec"/></linearGradient><linearGradient x1="239.74766" y1="160.51634" x2="239.74766" y2="171.72248" gradientUnits="userSpaceOnUse" id="color-2"><stop offset="0" stop-color="#0cff00"/><stop offset="1" stop-color="#0ad900"/></linearGradient></defs><g transform="translate(-231.97739,-159.66821)"><g data-paper-data="{&quot;isPaintingLayer&quot;:true}" fill-rule="nonzero" stroke-linejoin="miter" stroke-miterlimit="10" stroke-dasharray="" stroke-dashoffset="0" style="mix-blend-mode: normal"><g fill="none" stroke="#000000" stroke-width="0.25" stroke-linecap="round"><path d="M236.80378,184.64051l2.9803,-4.3054v7.9096l-2.37947,3.29207"/><path d="M241.97096,184.4294l-2.04284,-4.29258"/><path d="M239.68778,187.9479l2.64367,3.72962"/></g><path d="M232.44752,172.80398c0,-4.08153 3.30873,-7.39026 7.39026,-7.39026c4.08153,0 7.39026,3.30874 7.39026,7.39026c0,4.08153 -3.30873,7.39026 -7.39026,7.39026c-4.08153,0 -7.39026,-3.30874 -7.39026,-7.39026z" fill="url(#color-1)" stroke="#e8e8e8" stroke-width="0.5" stroke-linecap="butt"/><path d="M247.7688,171.18173c0,0 -4.95676,1.89206 -7.43072,1.98048c-2.56593,0.09171 -7.84323,-0.74955 -7.84323,-0.74955l-0.26362,-2.67293c0,0 0.98172,-3.09911 2.25065,-3.53733c0.92962,-0.32104 2.416,-0.83435 2.416,-0.83435l3.66253,-5.21221l2.25151,4.53688c0,0 1.768,1.1364 2.85098,1.83249c1.43436,0.92194 1.7454,3.03427 1.7454,3.03427z" fill="url(#color-2)" stroke="#46d954" stroke-width="0.5" stroke-linecap="round"/></g></g></svg>