<svg version="1.1" xmlns="http://www.w3.org/2000/svg" xmlns:xlink="http://www.w3.org/1999/xlink" width="107.37138" height="211.71753" viewBox="0,0,107.37138,211.71753"><g transform="translate(-278.32361,-225.7325)"><g data-paper-data="{&quot;isPaintingLayer&quot;:true}" fill="#70ff7b" fill-rule="nonzero" stroke="#00c81b" stroke-width="5" stroke-linecap="butt" stroke-linejoin="miter" stroke-miterlimit="10" stroke-dasharray="" stroke-dashoffset="0" style="mix-blend-mode: normal"><path d="M383.19499,278.78806v156.16198h-9.24706c0.00813,-5.79602 0.03221,-21.43857 -0.01601,-29.44996c-0.0427,-7.09429 -0.10148,-14.11768 -0.13511,-21.2495c-0.00512,-1.0867 0.09321,-6.57333 0.10573,-7.08491c0.13292,-5.42958 0.25964,-10.88554 0.29949,-17.46876c0.04381,-7.23601 0.01171,-18.28861 0.01407,-23.87333c0.00113,-2.67797 0.05194,-5.74949 0.0541,-8.56145c0.00369,-4.81473 -0.00846,-9.63736 0,-14.44745c0.01567,-8.91017 0.17293,-17.45064 0.21088,-26.3353c0.01043,-2.44135 0.02266,-5.02817 0.03347,-7.69131z"/><path d="M280.82361,246.25635v-18.02384h4.57682c-0.0004,0.071 -0.00092,0.14227 -0.00164,0.21386c-0.00356,0.35328 -0.0204,0.68774 -0.0207,1.04841c-0.00083,0.97914 0.0031,1.95867 0,2.93748c-0.00402,1.26754 -0.08215,2.5282 -0.08282,3.82121c-0.0009,1.74278 0.00485,3.48606 0,5.22838c-0.00161,0.57935 -0.02038,1.25705 -0.0207,1.87691c-0.00051,0.96585 -0.00083,1.93175 -0.00017,2.8976z"/></g></g></svg>