<svg version="1.1" xmlns="http://www.w3.org/2000/svg" xmlns:xlink="http://www.w3.org/1999/xlink" width="743.2599" height="449.01855" viewBox="0,0,743.2599,449.01855"><defs><linearGradient x1="322.99935" y1="388.46484" x2="322.99935" y2="-11.56283" gradientUnits="userSpaceOnUse" id="color-1"><stop offset="0" stop-color="#ba0000"/><stop offset="1" stop-color="#c23232"/></linearGradient></defs><g transform="translate(48.6307,60.55371)"><g data-paper-data="{&quot;isPaintingLayer&quot;:true}" fill-rule="nonzero" stroke-linejoin="miter" stroke-miterlimit="10" stroke-dasharray="" stroke-dashoffset="0" style="mix-blend-mode: normal"><path d="" fill="none" stroke="#000000" stroke-width="1.5" stroke-linecap="round"/><path d="M694.62921,-11.56283v400.02767h-743.2599v-400.02767z" data-paper-data="{&quot;index&quot;:null}" fill="url(#color-1)" stroke="none" stroke-width="0" stroke-linecap="butt"/><path d="M86.68786,-24.88915c2.12,-1.325 3.44499,0.795 3.44499,0.795l2.20752,3.53203c3.10303,4.96485 6.17564,9.93859 9.18778,14.95883c7.82756,13.04594 15.56349,26.10465 22.99744,39.37956c3.88582,6.93896 7.24786,15.18459 12.02714,21.52529c2.7882,3.69913 7.00725,6.9739 10.28496,10.25161c0,0 1.76777,1.76777 0,3.53553c-1.76777,1.76777 -3.53553,0 -3.53553,0c-3.44147,-3.44147 -7.80863,-6.88773 -10.73606,-10.76941c-4.9244,-6.52959 -8.4027,-14.95656 -12.40303,-22.10001c-7.4096,-13.23143 -15.12044,-26.24688 -22.92237,-39.2501c-2.99657,-4.99428 -6.05332,-9.94213 -9.1403,-14.88131l-2.20752,-3.53203c0,0 -1.325,-2.12 0.795,-3.44499z" fill="#620000" stroke="none" stroke-width="0.5" stroke-linecap="butt"/><path d="M190.61799,58.31193c0,-1.38071 1.11929,-2.5 2.5,-2.5c0.00054,0 0.00109,0 0.00163,0c0.43162,-1.53662 0.90736,-3.04842 1.46808,-4.50256c3.4536,-8.95638 8.98944,-16.74622 14.51397,-24.48056c0,0 1.4531,-2.03433 3.48743,-0.58124c2.03433,1.4531 0.58124,3.48743 0.58124,3.48743c-5.28011,7.39215 -10.61564,14.81052 -13.91745,23.37327c-1.63508,4.24033 -2.50259,9.00063 -3.72709,13.38382l-2.14154,2.59662c0,0 -1.76777,1.76777 -3.53553,0c-1.76777,-1.76777 0,-3.53553 0,-3.53553l0.86146,-0.40639c0.42409,-1.51807 0.8091,-3.07836 1.1971,-4.64705c-0.76886,-0.42639 -1.28929,-1.24632 -1.28929,-2.1878z" fill="#620000" stroke="none" stroke-width="0.5" stroke-linecap="butt"/><path d="M152.89946,115.57765c-1.71017,1.82354 -3.53372,0.11337 -3.53372,0.11337l-1.68935,-1.59602c-2.32592,-1.54793 -5.01609,-2.5509 -7.19456,-4.30025c-2.09264,-1.68042 -2.99477,-4.51624 -4.96582,-6.33774c-2.27499,-2.10237 -5.03258,-3.65534 -7.22888,-5.83978c0,0 -1.76777,-1.76777 0,-3.53553c1.76777,-1.76777 3.53553,0 3.53553,0c2.14103,2.1541 4.87864,3.63953 7.09763,5.71323c1.88655,1.76303 2.69388,4.54752 4.73169,6.13328c2.18402,1.69953 4.83042,2.7131 7.13194,4.24975l2.00216,1.86598c0,0 1.82354,1.71017 0.11337,3.53372z" fill="#620000" stroke="none" stroke-width="0.5" stroke-linecap="butt"/><path d="M119.5444,182.43355c-2.5,0 -2.5,-2.5 -2.5,-2.5v-1.00601c0.01504,-1.82426 -0.22668,-3.66881 0.04511,-5.47277c0.40804,-2.70833 2.27047,-5.00597 3.03152,-7.63701c0.36824,-1.27303 -0.15677,-2.86024 0.63209,-3.92509c1.20357,-1.62466 3.27469,-2.37251 4.91204,-3.55877c0,0 2.08013,-1.38675 3.46688,0.69338c1.38675,2.08013 -0.69338,3.46688 -0.69338,3.46688c-1.13616,0.66274 -2.60915,0.94364 -3.40847,1.98823c-0.51462,0.67254 0.16344,1.72211 -0.05642,2.53992c-0.68842,2.56075 -2.60828,4.75174 -2.97448,7.378c-0.20842,1.49469 0.03007,3.01815 0.04511,4.52723v1.00601c0,0 0,2.5 -2.5,2.5z" fill="#620000" stroke="none" stroke-width="0.5" stroke-linecap="butt"/><path d="M162.58491,191.94556c0,2.5 -2.5,2.5 -2.5,2.5h-4.5045c0,0 -2.5,0 -2.5,-2.5c0,-2.5 2.5,-2.5 2.5,-2.5h4.5045c0,0 2.5,0 2.5,2.5z" fill="#620000" stroke="none" stroke-width="0.5" stroke-linecap="butt"/><path d="M211.39046,189.22053c-1.77947,1.75599 -3.53546,-0.02348 -3.53546,-0.02348l-3.13907,-3.18107c-6.58215,-6.75111 -12.57448,-13.92851 -18.83487,-20.97145c-0.69299,-0.77961 -6.88353,-7.67447 -7.11192,-8.24655c-0.66682,-1.67029 -0.1088,-3.5953 -0.1632,-5.39296c0,0 0,-2.5 2.5,-2.5c2.5,0 2.5,2.5 2.5,2.5c-0.0544,1.20535 -0.61979,2.49921 -0.1632,3.61605c0.51904,1.26959 1.92409,1.95593 2.85354,2.96459c1.1294,1.22565 2.21455,2.49136 3.32182,3.73705c6.20611,6.98187 12.14274,14.0999 18.66734,20.79204l3.1285,3.17032c0,0 1.75599,1.77947 -0.02348,3.53546z" fill="#620000" stroke="none" stroke-width="0.5" stroke-linecap="butt"/><path d="M255.67805,98.85246c0,2.5 -2.5,2.5 -2.5,2.5l-3.04157,-0.0003c-9.04241,-0.27945 -18.03889,-2.22755 -26.97199,-3.71623c-4.03417,-0.67229 -11.03997,-0.79755 -14.67394,-2.56656c-1.50191,-0.73113 -2.41788,-2.30544 -3.62682,-3.45816c0,0 -1.76777,-1.76777 0,-3.53553c1.76777,-1.76777 3.53553,0 3.53553,0c0.79306,0.84928 1.32972,2.04901 2.37919,2.54785c2.52018,1.1979 5.52362,0.7997 8.27605,1.25844c10.27998,1.71333 20.76338,4.15038 31.1591,4.47079l2.96444,-0.0003c0,0 2.5,0 2.5,2.5z" fill="#620000" stroke="none" stroke-width="0.5" stroke-linecap="butt"/><path d="M291.09906,54.54199c-2.23607,-1.11803 -1.11803,-3.3541 -1.11803,-3.3541l1.5211,-3.04137c1.52611,-2.80658 3.52271,-5.39958 4.60418,-8.40563c1.10222,-3.06371 1.03365,-6.43879 1.84522,-9.59197c2.0782,-8.07439 4.8368,-16.56165 8.54601,-24.00607c0,0 1.11803,-2.23607 3.3541,-1.11803c2.23607,1.11803 1.11803,3.3541 1.11803,3.3541c-3.57029,7.11374 -6.18788,15.29203 -8.17596,23.01629c-0.24238,0.94171 -1.74126,9.36743 -1.98262,10.0383c-0.08549,0.23762 -4.61532,8.54652 -4.87603,9.02581l-1.4819,2.96464c0,0 -1.11803,2.23607 -3.3541,1.11803z" fill="#620000" stroke="none" stroke-width="0.5" stroke-linecap="butt"/><path d="M312.47118,93.9645c-1.11803,2.23607 -3.3541,1.11803 -3.3541,1.11803l-3.65274,-1.9698c-2.15912,-4.05515 -4.65356,-5.68958 -7.6731,-9.1918c-2.78496,-3.23015 -4.93798,-7.38504 -7.30029,-10.9285c-4.6225,-6.93375 -9.245,-13.8675 -13.8675,-20.80126c0,0 -1.38675,-2.08013 0.69338,-3.46688c2.08013,-1.38675 3.46688,0.69338 3.46688,0.69338c4.6225,6.93375 9.245,13.8675 13.8675,20.80126c2.26491,3.39737 4.32753,7.44532 7.00675,10.53205c2.75541,3.17451 5.56924,4.97423 7.34192,8.82621l2.35327,1.0332c0,0 2.23607,1.11803 1.11803,3.3541z" fill="#620000" stroke="none" stroke-width="0.5" stroke-linecap="butt"/><path d="M340.16256,79.74904c-1.91759,-1.60401 -0.31357,-3.5216 -0.31357,-3.5216l2.14877,-2.56006c1.76238,-2.79572 2.81127,-6.01577 4.6871,-8.73667c0.97323,-1.41167 2.54032,-2.32218 3.62172,-3.6528c1.77638,-2.18577 2.88217,-4.84002 4.33129,-7.25522c0,0 1.28624,-2.14373 3.42997,-0.85749c2.14373,1.28624 0.85749,3.42997 0.85749,3.42997c-1.55389,2.58982 -2.78226,5.40843 -4.67772,7.7598c-1.0159,1.26025 -2.5275,2.08768 -3.44935,3.41827c-1.90544,2.75029 -2.97501,6.00712 -4.75885,8.83779l-2.35524,2.82444c0,0 -1.60401,1.91759 -3.5216,0.31357z" fill="#620000" stroke="none" stroke-width="0.5" stroke-linecap="butt"/><path d="M357.18827,44.91209c-1.61517,1.9082 -3.52337,0.29302 -3.52337,0.29302l-1.13394,-0.95981c-6.46718,-5.49142 -13.79459,-7.95141 -21.24326,-11.78174c-2.84681,-1.46392 -5.31005,-3.69992 -8.31347,-4.80759c-3.63535,-1.34073 -9.17093,-0.96671 -13.01528,-1.39386c0,0 -2.48471,-0.27608 -2.20863,-2.76079c0.27608,-2.48471 2.76079,-2.20863 2.76079,-2.20863c4.22697,0.46966 9.9947,0.16521 14.01174,1.60914c0.65677,0.23608 8.16187,4.65777 9.0514,5.11519c7.80591,4.01404 15.38301,6.66951 22.18706,12.41189l1.13394,0.95981c0,0 1.9082,1.61517 0.29302,3.52337z" fill="#620000" stroke="none" stroke-width="0.5" stroke-linecap="butt"/><path d="M406.28364,123.87454c-2.49955,-0.04748 -2.45207,-2.54703 -2.45207,-2.54703l0.0035,-0.18421c0.09859,-4.94373 0.1499,-10.82956 1.64444,-15.59604c1.35318,-4.31565 4.31462,-8.911 6.69747,-12.75576c0.99995,-1.61343 1.63924,-3.53181 3.03482,-4.81845c3.95503,-3.64632 10.06992,-5.06729 15.14335,-5.13409c0,0 2.5,0 2.5,2.5c0,2.5 -2.5,2.5 -2.5,2.5c-1.31004,-0.02229 -2.6593,-0.38579 -3.93012,-0.06688c-1.431,0.35911 -2.60651,1.38394 -3.92848,2.03901c-1.28652,0.63751 -2.83996,0.86481 -3.89559,1.83804c-1.96592,1.81247 -2.79617,4.56137 -4.07496,6.90968c-1.51457,2.78128 -3.328,5.46253 -4.27551,8.4844c-1.35076,4.30793 -1.33603,9.73204 -1.41631,14.19505l-0.0035,0.18421c0,0 -0.04748,2.49955 -2.54703,2.45207z" fill="#620000" stroke="none" stroke-width="0.5" stroke-linecap="butt"/><path d="M483.9063,134.88851c0,2.5 -2.5,2.5 -2.5,2.5l-2.41435,-0.17262c-3.95809,-1.62909 -6.35577,-4.68516 -10.06085,-6.86153c-8.6171,-5.06171 -17.24067,-9.78095 -26.18037,-14.25081c0,0 -2.23607,-1.11803 -1.11803,-3.3541c1.11803,-2.23607 3.3541,-1.11803 3.3541,-1.11803c9.04038,4.52019 17.79218,9.26029 26.48625,14.41731c3.35564,1.99045 5.79373,5.21959 9.3446,6.5124l0.58865,-0.17262c0,0 2.5,0 2.5,2.5z" fill="#620000" stroke="none" stroke-width="0.5" stroke-linecap="butt"/><path d="M485.64453,90.10973c-1.76777,-1.76777 0,-3.53553 0,-3.53553l1.0332,-0.85177c3.63591,-7.27181 9.13632,-12.98595 13.66946,-19.78824c0,0 1.38675,-2.08013 3.46688,-0.69338c2.08013,1.38675 0.69338,3.46688 0.69338,3.46688c-4.41082,6.61379 -9.83379,12.20325 -13.35757,19.2508l-1.9698,2.15123c0,0 -1.76777,1.76777 -3.53553,0z" fill="#620000" stroke="none" stroke-width="0.5" stroke-linecap="butt"/><path d="M522.34547,125.12008c-2.24359,-1.10287 -1.14072,-3.34646 -1.14072,-3.34646l1.4733,-2.98173c1.99103,-6.26252 3.42756,-12.2611 4.29528,-18.74546c1.07221,-8.01252 -1.11032,-16.49564 0.13499,-24.50453c0.03638,-0.23398 2.88931,-9.47854 3.02173,-9.9089c1.91821,-6.23418 3.89899,-12.43433 5.9616,-18.62215c0,0 0.79057,-2.37171 3.16228,-1.58114c2.37171,0.79057 1.58114,3.16228 1.58114,3.16228c-2.05036,6.15109 -4.0193,12.31427 -5.92612,18.51144c-0.94506,3.07145 -2.36625,6.03128 -2.85999,9.20668c-1.23475,7.94101 0.91712,16.38168 -0.11359,24.35139c-0.89332,6.90738 -2.48102,13.33532 -4.61967,19.99917l-1.62376,3.31868c0,0 -1.10287,2.24359 -3.34646,1.14072z" fill="#620000" stroke="none" stroke-width="0.5" stroke-linecap="butt"/><path d="M516.30784,180.09296c-1.66091,1.86852 -3.52943,0.20761 -3.52943,0.20761l-2.30237,-2.04655c-7.43833,-6.61185 -14.59523,-12.47873 -23.28598,-17.42146c-2.86962,-1.63205 -5.89252,-2.98072 -8.79179,-4.55951c-1.76573,-0.96152 -4.00227,-1.39445 -5.24856,-2.97214c-1.24629,-1.57769 -1.11752,-3.86271 -1.67628,-5.79406c0,0 -0.60634,-2.42536 1.81902,-3.0317c2.42536,-0.60634 3.0317,1.81902 3.0317,1.81902c0.24969,1.30246 -0.07298,2.86672 0.74908,3.90737c0.82206,1.04065 2.43595,1.05173 3.62779,1.63333c0.06919,0.03376 8.94902,4.64467 8.96092,4.65143c8.98577,5.11052 16.44455,11.19388 24.13594,18.03066l2.30237,2.04655c0,0 1.86852,1.66091 0.20761,3.52943z" fill="#620000" stroke="none" stroke-width="0.5" stroke-linecap="butt"/><path d="M401.9414,194.02569c-2.08013,-1.38675 -0.69338,-3.46688 -0.69338,-3.46688l0.2295,-0.34425c3.80778,-5.68307 9.24664,-9.40969 13.33603,-14.74579c0.70832,-0.92427 0.81925,-2.23603 1.58544,-3.11292c0.52906,-0.6055 8.23246,-6.62359 8.62416,-6.79338c1.1723,-0.50818 2.55368,-0.09395 3.83052,-0.14093c0,0 2.5,0 2.5,2.5c0,2.5 -2.5,2.5 -2.5,2.5c-3.11,-0.20147 -6.52651,2.70503 -8.56635,5.0777c-0.7001,0.81433 -0.76018,2.0439 -1.41756,2.89308c-4.09147,5.28528 -9.49367,8.95704 -13.23199,14.59574l-0.2295,0.34425c0,0 -1.38675,2.08013 -3.46688,0.69338z" fill="#620000" stroke="none" stroke-width="0.5" stroke-linecap="butt"/><path d="M320.68196,205.90701c-1.94943,-1.56516 -0.38427,-3.51459 -0.38427,-3.51459l2.16793,-2.68901c0.75289,-1.28269 1.70733,-2.46671 2.25867,-3.84808c0.62234,-1.55927 0.56592,-3.34162 1.22687,-4.88492c1.29066,-3.01365 4.22027,-5.02867 6.10379,-7.71199c1.39113,-1.98185 0.60831,-4.83137 1.34101,-7.1392c2.74338,-8.64106 8.56495,-17.27337 15.99295,-22.28981c0,0 2.08013,-1.38675 3.46688,0.69338c1.38675,2.08013 -0.69338,3.46688 -0.69338,3.46688c-6.52211,4.28221 -11.68736,12.24756 -14.03708,19.75224c-0.8017,2.56052 -0.22929,5.60726 -1.662,7.87581c-1.672,2.64745 -4.73272,4.40082 -5.90822,7.30302c-0.62111,1.53345 -0.56729,3.28718 -1.19848,4.8165c-0.70428,1.7064 -1.84597,3.19745 -2.76896,4.79617l-2.3911,2.98934c0,0 -1.56516,1.94943 -3.51459,0.38427z" fill="#620000" stroke="none" stroke-width="0.5" stroke-linecap="butt"/><path d="M293.2156,200.95457c0,2.5 -2.5,2.5 -2.5,2.5l-3.67434,-1.26356c-0.6444,-1.13242 -4.64754,-8.11012 -4.74229,-8.57906c-0.94422,-4.67356 1.86572,-11.29606 2.98826,-15.78625c0,0 0.60634,-2.42536 3.0317,-1.81902c2.42536,0.60634 1.81902,3.0317 1.81902,3.0317c-0.79465,3.1786 -1.75094,6.3208 -2.38961,9.53437c-0.26391,1.32788 -0.83841,2.7001 -0.55358,4.02366c0.57953,2.693 2.82978,4.72755 4.19217,7.12171l-0.67133,-1.26356c0,0 2.5,0 2.5,2.5z" fill="#620000" stroke="none" stroke-width="0.5" stroke-linecap="butt"/><path d="M172.14535,314.10002c-2.03433,-1.4531 -0.58124,-3.48743 -0.58124,-3.48743l1.69513,-2.37318c4.82947,-6.76126 9.3569,-13.65656 13.84971,-20.64537c0.22527,-0.35042 5.45546,-8.49825 5.59857,-8.67061c0.1317,-0.15862 7.14425,-6.57697 7.18335,-6.61281c3.70743,-3.39848 7.31619,-7.20538 11.27036,-10.31057c4.5085,-3.5405 10.30708,-5.8713 15.10453,-9.07155c0,0 2.08013,-1.38675 3.46688,0.69338c1.38675,2.08013 -0.69338,3.46688 -0.69338,3.46688c-4.71624,3.1423 -10.52013,5.44831 -14.9255,8.94647c-3.79823,3.01605 -7.2679,6.68284 -10.84426,9.96117c-2.24137,2.05458 -4.7982,3.80712 -6.73806,6.14848c-2.05838,2.48442 -3.47192,5.43903 -5.21658,8.15296c-4.53676,7.05718 -9.11014,14.02027 -13.98693,20.84777l-1.69513,2.37318c0,0 -1.4531,2.03433 -3.48743,0.58124z" fill="#620000" stroke="none" stroke-width="0.5" stroke-linecap="butt"/><path d="M128.1037,289.60461c-1.56295,-1.9512 0.38825,-3.51415 0.38825,-3.51415l3.71824,-2.97839c13.9705,-11.18836 27.79797,-23.76979 38.57505,-38.14343c2.95098,-3.93579 5.51147,-8.2741 8.24059,-12.36779c0,0 1.38675,-2.08013 3.46688,-0.69338c2.08013,1.38675 0.69338,3.46688 0.69338,3.46688c-2.78035,4.17052 -5.39414,8.58419 -8.40042,12.59372c-11.03064,14.71182 -25.15179,27.59126 -39.44957,39.04639l-3.71824,2.97839c0,0 -1.9512,1.56295 -3.51415,-0.38825z" fill="#620000" stroke="none" stroke-width="0.5" stroke-linecap="butt"/><path d="M287.13774,332.40558c-2.32192,0.92666 -3.24858,-1.39526 -3.24858,-1.39526l-0.72945,-1.82777c-2.45357,-6.16528 -5.89391,-11.68875 -8.97082,-17.55415c-3.75497,-7.15797 -7.24573,-14.46347 -10.93733,-21.65591c-2.26922,-4.42118 -5.15909,-8.95247 -6.95587,-13.58188c-1.80422,-4.64857 -2.52425,-9.84058 -3.99506,-14.6074c-1.24109,-4.02231 -2.98879,-7.96248 -4.46642,-11.90283c0,0 -0.87781,-2.34082 1.46301,-3.21863c2.34082,-0.87781 3.21863,1.46301 3.21863,1.46301c1.50514,4.01371 3.27523,8.02477 4.54259,12.1212c1.44408,4.66762 2.13179,9.78368 3.89846,14.33552c1.73423,4.46825 4.55315,8.84146 6.74293,13.10787c3.6848,7.1792 7.16874,14.47154 10.91678,21.61631c3.15907,6.02202 6.65518,11.6967 9.18691,18.02356l0.72945,1.82777c0,0 0.92666,2.32192 -1.39526,3.24858z" fill="#620000" stroke="none" stroke-width="0.5" stroke-linecap="butt"/><path d="M427.85073,277.52964c-1.5,2 -3.5,0.5 -3.5,0.5l-2.00601,-1.5045c-9.00543,-6.7639 -19.23664,-11.13056 -29.18329,-16.29776c-7.9487,-4.12928 -15.46685,-8.57542 -23.79473,-11.90658c0,0 -2.32119,-0.92848 -1.39272,-3.24967c0.92848,-2.32119 3.24967,-1.39272 3.24967,-1.39272c8.48665,3.39466 16.15485,7.91087 24.25331,12.11745c10.1963,5.29625 20.62685,9.80816 29.86776,16.72927l2.00601,1.5045c0,0 2,1.5 0.5,3.5z" fill="#620000" stroke="none" stroke-width="0.5" stroke-linecap="butt"/><path d="M494.65355,252.27189c-1.76777,-1.76777 0,-3.53553 0,-3.53553l0.76927,0.26627c0,-6.66345 -0.14921,-12.51053 -1.45295,-19.02923c0,0 -0.49029,-2.45145 1.96116,-2.94174c2.45145,-0.49029 2.94174,1.96116 2.94174,1.96116c1.36586,6.82929 1.55005,13.03705 1.55005,20.00981l-2.23373,3.26927c0,0 -1.76777,1.76777 -3.53553,0z" fill="#620000" stroke="none" stroke-width="0.5" stroke-linecap="butt"/><path d="M472.49843,302.12465c-2.07099,-1.40036 -0.67063,-3.47135 -0.67063,-3.47135l1.95651,-2.74769c3.30448,-1.70616 6.47268,-3.68875 10.22454,-4.32568c3.66882,-0.62283 8.67303,-0.03228 12.41247,-0.03228c0,0 2.5,0 2.5,2.5c0,2.5 -2.5,2.5 -2.5,2.5c-3.48347,0 -8.1638,-0.5937 -11.61156,-0.03228c-2.30043,0.37459 -5.67742,2.16952 -7.72874,3.14946l-1.11123,1.78919c0,0 -1.40036,2.07099 -3.47135,0.67063z" fill="#620000" stroke="none" stroke-width="0.5" stroke-linecap="butt"/><path d="M550.47538,314.56568c-2.5,0 -2.5,-2.5 -2.5,-2.5l0.12829,-0.71093c-3.33575,-10.01029 -7.59945,-19.70863 -10.8554,-29.74293c-2.61034,-8.04463 -4.08597,-16.33697 -5.74086,-24.61141c0,0 -0.49029,-2.45145 1.96116,-2.94174c2.45145,-0.49029 2.94174,1.96116 2.94174,1.96116c1.6166,8.08298 3.04394,16.19039 5.59385,24.04878c3.2517,10.02119 7.50961,19.70804 10.84292,29.70499l0.12829,2.29207c0,0 0,2.5 -2.5,2.5z" fill="#620000" stroke="none" stroke-width="0.5" stroke-linecap="butt"/><path d="M460.38523,370.6242l-81.08108,-57.05706" fill="none" stroke="#000000" stroke-width="3" stroke-linecap="round"/><path d="M326.96445,176.01588c2.07764,-0.2283 2.36753,1.4078 2.36753,1.4078l0.66558,0.73658c0,0.52481 0,1.04958 0,1.57437c0.42765,0.72397 0.61315,1.62923 0.64546,1.7295c0.07938,0.24635 -0.11446,0.52481 0,0.76243c0.04163,0.08647 0.20249,-0.21268 0.29314,-0.15388c0.29943,0.19414 0.47261,0.48898 0.64546,0.76243c0.86311,1.36545 1.16668,2.88841 2.06724,4.24387c1.91675,3.0188 3.93367,5.65167 4.99982,8.97904c0.01489,0.04645 0.96564,2.38171 0.92318,2.4197c-0.99959,0.89472 -2.2662,1.61691 -3.60376,2.17434c-1.10865,0.46201 -2.04013,0.24376 -2.78928,-0.28948c-0.2019,0.74631 -1.0438,1.30608 -2.05169,1.30608c-0.10915,0 -0.21636,-0.00657 -0.321,-0.01922c0.96804,0.7349 1.92488,1.54927 3.09526,2.28208c1.725,1.08006 4.17578,2.06608 6.13495,2.84333c0.44385,0.17608 1.01109,0.11277 1.43614,0.31563c1.28272,0.61218 2.00558,1.37089 3.32052,1.92965c2.10574,0.99494 4.21284,1.80274 6.36146,2.64494c1.55521,0.60959 2.83157,1.61429 4.37304,2.22583c1.29372,0.51326 2.66106,0.75837 3.87279,1.52489c1.53037,0.96807 2.50608,2.25895 3.7419,3.43306c1.04778,0.99546 2.26486,1.74417 3.23699,2.80679c0.18165,-0.0928 0.62972,0.056 0.894,0.09047c0.55492,0.07234 1.09132,0.21567 1.63155,0.33892c0.2465,0.05623 0.49148,0.09957 0.73613,0.1344c-0.03376,-0.74522 0.08686,-1.72075 0.08686,-1.72075l0.96821,0.50828c0.81555,0.43021 2.22929,0.48512 2.49752,1.22868l1.5807,0.74686c0.62843,0.28533 1.05144,0.81981 1.05144,1.43211c0,0.91235 -0.93919,1.65194 -2.09777,1.65194c-0.19192,0 -0.37782,-0.02029 -0.55442,-0.0583l-2.29269,-0.45135c-2.73612,-0.39951 -6.30524,-0.08004 -7.93484,-2.00495c-0.8022,-1.0686 -2.15409,-1.77414 -3.16011,-2.72076c-0.90243,-0.84915 -1.59447,-1.9662 -2.71277,-2.66639c-1.26658,-0.79302 -2.43823,-0.96255 -3.87279,-1.52489c-1.20749,-0.4733 -2.18825,-1.37066 -3.37252,-1.84048c-2.43343,-0.96542 -4.81736,-1.82362 -7.19331,-2.94623c-0.67256,-0.33695 -1.37214,-0.64261 -2.0177,-1.01087c-0.24693,-0.14086 -0.20737,-0.49684 -0.47096,-0.6175c-0.74757,-0.34224 -1.66255,-0.39754 -2.43665,-0.70097c-2.26279,-0.88697 -4.79822,-2.00611 -6.77436,-3.25614c-1.47115,-0.93059 -3.35839,-2.23933 -4.52129,-3.35162c-0.07463,-0.07141 0.30523,-0.19806 0.19542,-0.23084h-0.53789l-0.62573,0.73913l-1.74966,-0.91853c-0.54731,-0.19663 -1.12087,-0.60874 -1.12087,-1.47254c0,-0.98357 0.74368,-1.38153 1.34546,-1.54254c0.23352,-0.07068 0.48717,-0.1094 0.75231,-0.1094h0.47853l-0.41846,-0.65903c-0.45686,-0.11233 -0.47781,-0.65579 -0.64289,-1.0111l-0.52725,0.26583c0,0 -0.58123,0.19616 -1.2422,0.12178c-0.01245,0.01206 -0.02483,0.02414 -0.03719,0.03623c-0.19057,0.1868 -0.35279,0.57386 -0.64546,0.50828c-0.03175,-0.00711 -0.05619,-0.02482 -0.0746,-0.05016c-0.11258,1.98725 0.04354,4.01456 0.04354,5.99811c0,0 0,1.65194 -2.09778,1.65194c-2.09777,0 -2.09777,-1.65194 -2.09777,-1.65194c0,-1.52489 0,-3.04974 0,-4.57459c0,-0.6777 -0.29751,-1.39722 0,-2.03314c0.64866,-1.3865 2.29322,-2.12721 2.93417,-3.45777c0.04762,-0.09887 -0.29659,0.25013 -0.35232,0.15388c-0.13389,-0.23126 -0.09888,-0.5205 0,-0.76244c0.35832,-0.87669 1.22844,-1.58008 1.64324,-2.4412c0.04762,-0.09887 -0.2966,0.25013 -0.35233,0.15388c-0.39148,-0.67617 0,-2.29398 0,-3.04973c0,-0.62615 -0.24198,-1.69523 0,-2.2873c0.72902,-1.78367 2.02284,-3.25694 2.68951,-5.09698c0.03013,-0.0832 0.58456,-1.90618 0.60044,-1.91142c0.39527,-0.13049 0.80701,-0.22578 1.2283,-0.29487c0,-0.27644 0,-0.55288 0,-0.82934l-0.62533,-0.27999c0,0 -0.2899,-1.6361 1.78774,-1.86437zM331.08425,195.15678c0.07651,0.16276 0.15427,0.32522 0.23276,0.48756c0.2074,-0.16901 0.49284,-0.38389 0.81822,-0.58018c-0.43075,0.07535 -0.80869,0.01821 -1.12113,-0.09139c0.02378,0.06123 0.0472,0.12255 0.07012,0.18403zM328.6245,200.25089c0.067,0.03278 0.13333,0.0663 0.19907,0.10051l-0.13731,-0.14419c-0.02022,0.01488 -0.04078,0.02944 -0.06176,0.04367zM333.68513,194.52447c-0.0359,-0.07309 -0.0723,-0.14582 -0.10919,-0.21826c-0.08168,0.09187 -0.18171,0.18241 -0.30299,0.27033c0.13817,-0.03092 0.27623,-0.04943 0.4122,-0.05208z" fill="#00ff40" stroke="none" stroke-width="0.5" stroke-linecap="butt"/><path d="M296.82372,212.94606c-0.93376,-1.28394 0.35015,-2.21769 0.35015,-2.21769l0.29966,-0.32716c0.60528,-0.60528 1.26464,-1.21451 1.96698,-1.77305c-0.04737,-0.12263 -0.09453,-0.25476 -0.14182,-0.39695l-0.22266,-0.22796c0,0 0.02998,-0.0749 0.09325,-0.18419c-0.07522,-0.25266 -0.15154,-0.5311 -0.23029,-0.83729c-0.06996,-0.27189 1.54868,-1.45178 1.75559,-1.71198c0.96929,-1.21908 1.49444,-2.55223 2.77284,-3.55637c0.22318,-0.17529 0.59955,0.03768 0.8449,-0.10497c1.37267,-0.79802 1.86909,-1.6497 3.565,-1.93045c1.56657,-0.25934 4.51849,-0.2329 4.51849,1.8318c-0.12628,1.91376 -0.88208,4.86584 -2.10048,6.39914c-1.04399,1.31381 -2.63951,1.43798 -3.9798,2.00482c-0.66917,0.28303 -1.19362,0.83837 -1.84406,1.16214c-1.33519,0.66459 -2.97942,0.99314 -4.39636,1.46545c0,0 -0.12569,0.0419 -0.31659,0.06518c-0.01328,0.01324 -0.02654,0.02651 -0.03982,0.03978l-0.67731,0.64984c0,0 -1.28394,0.93375 -2.21769,-0.35015z" fill="#000000" stroke="none" stroke-width="0.5" stroke-linecap="butt"/><path d="M352.19716,199.7151c0.26998,0.05339 0.58301,0.07226 0.7832,0.26105c0.57412,0.54141 0.98438,1.23321 1.47132,1.85467c0.78089,-0.00191 1.71897,0.46016 2.32484,0.64385c1.21438,0.3682 1.2065,2.18182 1.55771,3.43562c0.28352,0.18629 0.55712,0.37114 0.77289,0.51517c0.00764,0.00494 0.01528,0.00995 0.02283,0.01502l1.08796,0.55255c0,0 0.68334,0.48809 0.74526,1.25828c0.85972,0.08303 1.53179,0.80755 1.53179,1.68903c0,0.76337 -0.50403,1.409 -1.19745,1.62226l-1.52928,0.50977l-0.0277,-0.08317c-0.95181,0.16639 -1.8214,0.17021 -2.85855,0.17021c-0.05807,0 -0.11584,-0.00052 -0.17328,-0.00151c-0.91831,0.15935 -1.85463,0.23036 -2.6985,0.00151c-0.5974,-0.16198 -1.12525,-0.35736 -1.59496,-0.58436c-0.65953,-0.04624 -1.33163,-0.02147 -1.95703,-0.22278c-1.51423,-0.48737 -1.9621,-1.89614 -2.55921,-3.08136c-0.8109,-1.60955 -1.77516,-2.53491 -1.80078,-4.48575c-0.0138,-1.05095 0.47149,-2.12893 0.47149,-3.24341c0,0 0,-1.69696 1.69696,-1.69696c0.81496,0 1.23852,0.39135 1.45871,0.79822c0.64349,-0.21495 1.41423,-0.13711 2.47186,0.07207z" fill="#000000" stroke="none" stroke-width="0.5" stroke-linecap="butt"/><path d="M361.28609,36.54013c0,51.82852 -14.11715,93.84384 -31.53153,93.84384c-17.41438,0 -31.53153,-42.01532 -31.53153,-93.84384c0,-51.82852 14.11715,-93.84384 31.53153,-93.84384c17.41438,0 31.53153,42.01532 31.53153,93.84384z" fill="#ffffff" stroke="#00f1ff" stroke-width="6.5" stroke-linecap="butt"/><path d="M385.3101,166.42l-325.82583,-6.00601" fill="none" stroke="#000000" stroke-width="0.5" stroke-linecap="round"/><path d="M256.18097,185.93951l-198.1982,6.00601" fill="none" stroke="#000000" stroke-width="0.5" stroke-linecap="round"/><path d="M76.00078,241.49507l321.32132,-3.003" fill="none" stroke="#000000" stroke-width="0.5" stroke-linecap="round"/><path d="M565.49029,201.70527c0,35.2434 -121.86241,62.31231 -190.69069,62.31231c-28.74707,0 25.55909,-28.85789 -17.39076,-39.96344c-39.48779,-10.21036 -111.1476,-0.66116 -119.0007,-12.84728c-4.05623,-6.29429 77.83291,-2.51143 77.83291,-9.50159c0,-3.54931 30.32178,-25.18722 16.38588,-28.77142c-31.98835,-8.22714 -124.10221,1.7518 -116.62989,-4.81386c21.59692,-18.97641 178.88265,-30.22853 224.86863,-30.22853c68.82828,0 124.62462,28.57042 124.62462,63.81381z" fill="#00ff40" stroke="#000000" stroke-width="5" stroke-linecap="butt"/></g></g></svg>