<svg version="1.1" xmlns="http://www.w3.org/2000/svg" xmlns:xlink="http://www.w3.org/1999/xlink" width="45.04687" height="101.20472" viewBox="0,0,45.04687,101.20472"><defs><linearGradient x1="238.40658" y1="141.53564" x2="239.81015" y2="182.51162" gradientUnits="userSpaceOnUse" id="color-1"><stop offset="0" stop-color="#ffffff"/><stop offset="1" stop-color="#ececec"/></linearGradient><linearGradient x1="246.07215" y1="150.59183" x2="246.41448" y2="160.58597" gradientUnits="userSpaceOnUse" id="color-2"><stop offset="0" stop-color="#eeeeee"/><stop offset="1" stop-color="#cdcdcd"/></linearGradient><linearGradient x1="237.69167" y1="127.96723" x2="238.75581" y2="159.03394" gradientUnits="userSpaceOnUse" id="color-3"><stop offset="0" stop-color="#0cff00"/><stop offset="1" stop-color="#0ad900"/></linearGradient></defs><g transform="translate(-216.97015,-125.42479)"><g data-paper-data="{&quot;isPaintingLayer&quot;:true}" fill-rule="nonzero" stroke-linejoin="miter" stroke-miterlimit="10" stroke-dasharray="" stroke-dashoffset="0" style="mix-blend-mode: normal"><g fill="none" stroke="#000000" stroke-width="0.5" stroke-linecap="round"><path d="M221.13391,200.71283c0,0 8.23606,-4.36627 10.80917,-8.47763c2.51458,-4.01785 7.45796,-10.91647 7.45796,-10.91647v37.46667l-17.60046,7.5941"/><path d="M257.46725,196.71283c0,0 -5.73418,-4.11902 -8.08647,-6.29378c-3.24464,-2.99976 -9.5802,-10.03955 -9.5802,-10.03955"/><path d="M239.13391,217.3795l15.33333,7.66667"/></g><path d="M218.62038,162.72541c-0.38759,-11.31519 8.47099,-20.80218 19.7862,-21.18977c11.3152,-0.38759 20.80218,8.471 21.18977,19.7862c0.38759,11.31519 -8.47099,20.80218 -19.7862,21.18977c-11.3152,0.38759 -20.80218,-8.471 -21.18977,-19.7862z" fill="url(#color-1)" stroke="#e8e8e8" stroke-width="1.5" stroke-linecap="butt"/><path d="M240.77524,150.77327l17.37478,4.80802l1.15689,4.56307l-3.14887,-4.29472l-3.69507,3.12833l-1.53611,-3.94973l-4.8396,4.76847l-1.61143,-6.14844l-3.75802,7.13283l-2.39042,-5.5214l-3.01326,5.50638l-1.92903,-3.73615z" fill="url(#color-2)" stroke="#000000" stroke-width="0.05" stroke-linecap="round"/><path d="M260.94142,156.77313c0,0 -12.98602,-4.4807 -19.83619,-4.00064c-7.1048,0.4979 -22.21674,13.94609 -22.21674,13.94609l-1.15874,-12.46764c0,0 2.42731,-8.68488 5.90355,-10.02024c2.5467,-0.9783 6.61862,-2.5425 6.61862,-2.5425l9.65867,-14.79757l6.67269,12.36377c0,0 5.00934,2.98253 8.07778,4.80946c4.06402,2.41968 5.1269,8.24615 5.1269,8.24615z" fill="url(#color-3)" stroke="#46d954" stroke-width="1.5" stroke-linecap="round"/><path d="M239.27687,145.42142c-0.05294,-1.54548 1.21667,-2.84332 2.83576,-2.89878c1.61908,-0.05546 2.97453,1.15245 3.02746,2.69794c0.05294,1.54548 -1.21668,2.84332 -2.83576,2.89878c-1.61908,0.05546 -2.97453,-1.15246 -3.02746,-2.69794z" fill="#000000" stroke="#46d954" stroke-width="0" stroke-linecap="butt"/><path d="M246.87311,159.36955l0.21225,6.19637" fill="none" stroke="#000000" stroke-width="2.5" stroke-linecap="round"/><path d="M255.03407,158.08943l0.21225,6.19637" fill="none" stroke="#000000" stroke-width="2.5" stroke-linecap="round"/><path d="M253.58378,145.77629c-0.05601,-1.63527 0.59414,-2.26611 2.30728,-2.32479c0.95504,-0.03271 1.29119,0.54791 1.8824,1.17638c0.46928,0.49886 1.87139,2.01292 1.89617,2.73655c0.05601,1.63527 -1.16938,1.20785 -2.88252,1.26653c-1.71314,0.05868 -3.14732,-1.2194 -3.20333,-2.85467z" fill="#000000" stroke="#46d954" stroke-width="0" stroke-linecap="butt"/></g></g></svg>