<svg version="1.1" xmlns="http://www.w3.org/2000/svg" xmlns:xlink="http://www.w3.org/1999/xlink" width="44.89192" height="111.80521" viewBox="0,0,44.89192,111.80521"><defs><linearGradient x1="239.55" y1="139.53878" x2="239.55" y2="180.53878" gradientUnits="userSpaceOnUse" id="color-1"><stop offset="0" stop-color="#ffffff"/><stop offset="1" stop-color="#ececec"/></linearGradient><linearGradient x1="246.90105" y1="148.85207" x2="246.90105" y2="158.85207" gradientUnits="userSpaceOnUse" id="color-2"><stop offset="0" stop-color="#eeeeee"/><stop offset="1" stop-color="#cdcdcd"/></linearGradient><linearGradient x1="239.3" y1="125.95384" x2="239.3" y2="157.03878" gradientUnits="userSpaceOnUse" id="color-3"><stop offset="0" stop-color="#0cff00"/><stop offset="1" stop-color="#0ad900"/></linearGradient></defs><g transform="translate(-217.69319,-123.49096)"><g data-paper-data="{&quot;isPaintingLayer&quot;:true}" fill-rule="nonzero" stroke-linejoin="miter" stroke-miterlimit="10" stroke-dasharray="" stroke-dashoffset="0" style="mix-blend-mode: normal"><g fill="none" stroke="#000000" stroke-width="0.5" stroke-linecap="round"><path d="M231.13391,201.71283l8.26713,-20.3941v37.46667l-6.60046,15.5941"/><path d="M239.80058,180.3795l5.66667,20.33333"/><path d="M239.13391,217.3795l7.33333,17.66667"/></g><path d="M219.05,160.03878c0,-11.32183 9.17816,-20.5 20.5,-20.5c11.32184,0 20.5,9.17817 20.5,20.5c0,11.32183 -9.17816,20.5 -20.5,20.5c-11.32184,0 -20.5,-9.17817 -20.5,-20.5z" fill="url(#color-1)" stroke="#e8e8e8" stroke-width="1.5" stroke-linecap="butt"/><path d="M234.00104,154.85207l1.8,3.8l3.2,-5.4l2.2,5.6l4,-7l1.4,6.2l5,-4.6l1.4,4l3.8,-3l3,4.4l-1,-4.6l-17.2,-5.4z" fill="url(#color-2)" stroke="#000000" stroke-width="0.05" stroke-linecap="round"/><path d="M260.55,151.03878c0,0 -0.8628,-5.85944 -4.8416,-8.41683c-3.0041,-1.9309 -7.9084,-5.08317 -7.9084,-5.08317l-6.24552,-12.58495l-10.15958,14.45825c0,0 -4.12308,1.42389 -6.70178,2.31443c-3.51992,1.21558 -6.24312,9.81227 -6.24312,9.81227l0.73125,12.5c0,0 15.56346,-12.92297 22.68114,-13.17736c6.86259,-0.24527 19.68761,4.67736 19.68761,4.67736z" fill="url(#color-3)" stroke="#46d954" stroke-width="1.5" stroke-linecap="round"/><path d="M240.28676,143.45207c0,-1.54639 1.31329,-2.8 2.93333,-2.8c1.62003,0 2.93333,1.2536 2.93333,2.8c0,1.54639 -1.3133,2.8 -2.93333,2.8c-1.62003,0 -2.93333,-1.25361 -2.93333,-2.8z" fill="#000000" stroke="#46d954" stroke-width="0" stroke-linecap="butt"/><path d="M247.40105,160.65207v6.2" fill="none" stroke="#000000" stroke-width="2.5" stroke-linecap="round"/><path d="M255.60105,160.65207v6.2" fill="none" stroke="#000000" stroke-width="2.5" stroke-linecap="round"/><path d="M254.57313,144.2965c0,-1.63623 0.67137,-2.24444 2.38551,-2.24444c0.9556,0 1.27168,0.59179 1.84103,1.24013c0.45193,0.51463 1.80138,2.0758 1.80138,2.79986c0,1.63623 -1.21004,1.16711 -2.92419,1.16711c-1.71414,0 -3.10373,-1.32643 -3.10373,-2.96266z" fill="#000000" stroke="#46d954" stroke-width="0" stroke-linecap="butt"/></g></g></svg>