<svg version="1.1" xmlns="http://www.w3.org/2000/svg" xmlns:xlink="http://www.w3.org/1999/xlink" width="108.84732" height="175.41348" viewBox="0,0,108.84732,175.41348"><g transform="translate(-297.50654,-123.88307)"><g data-paper-data="{&quot;isPaintingLayer&quot;:true}" fill-rule="nonzero" stroke-linejoin="miter" stroke-miterlimit="10" stroke-dasharray="" stroke-dashoffset="0" style="mix-blend-mode: normal"><g fill="#00a0b4" stroke="none" stroke-width="1" stroke-linecap="butt"><path d="M359.10018,271.18957c-0.74692,7.5071 -3.06984,10.00859 -7.63224,11.09316c-2.3229,0.58399 -4.5624,0.66741 -6.63634,-0.41713c-4.39555,-2.33463 -5.30801,-8.84063 -7.5488,-13.09408c-4.47898,-1.25138 -3.8989,3.50264 -10.28624,3.50264c-11.11532,0 -11.0319,-5.92067 -13.10582,-22.85241c-2.07392,-16.93041 43.63348,-11.67584 43.63348,-11.67584c0,0 2.32159,26.0213 1.57598,33.44369z"/><path d="M357.02625,271.94039c-1.57598,-4.33689 7.63095,-29.85765 7.63095,-29.85765l32.93269,3.83632c0,0 1.16147,10.92629 1.24489,14.34547c0.41453,15.51216 -4.5624,17.59782 -7.96463,17.5144c-4.72795,-0.16686 -8.95793,-1.08454 -13.0224,-9.92515c-4.06574,-8.84063 -17.83506,-0.08342 -20.82148,4.08661z"/></g><g stroke="none" stroke-width="1" stroke-linecap="butt"><path d="M334.21427,257.51281c1.82495,12.42665 4.47898,37.11315 4.06443,38.28113c-1.49255,-0.91768 -2.3229,-3.33577 -3.15197,-4.75402c-2.903,0.75085 0,4.25345 -0.49795,6.00541c-1.41044,-1.25138 -1.65942,-4.33689 -3.23539,-5.17113c-1.57598,0.33371 0.08342,4.42032 -0.16555,5.58699h-0.9959c-2.40505,-2.33463 -9.78829,-27.68855 -7.63095,-44.86924z" fill="#ff6666"/><path d="M333.21835,280.86444c-2.40505,0.16686 -2.15606,-3.25235 0.08342,-3.33577c1.9905,-0.08342 2.3229,3.16891 -0.08342,3.33577z" fill="#aadcdc"/><path d="M329.31946,283.7844c-0.99461,0.08342 -0.9125,-3.67077 0.08342,-3.75419c0.9125,-0.08342 0.9125,3.67077 -0.08342,3.75419z" fill="#aadcdc"/></g><g stroke="none" stroke-width="1" stroke-linecap="butt"><path d="M368.88847,250.75655l13.60377,-6.00541c0,5.58828 -0.08211,50.87596 -1.24358,53.04375c-1.65942,-1.50036 -1.16147,-4.00317 -2.48845,-5.50357h-0.74692c-1.65942,1.75064 -0.08342,4.92089 -1.16147,7.00524c-2.73745,-1.00114 -1.74153,-5.75514 -3.56648,-7.50581c-1.65942,1.00114 -0.3324,3.83632 -1.65942,4.42032c-2.73745,-1.91882 -3.06984,-10.59259 -3.40095,-13.51121c-0.58137,-5.08773 -0.83034,-10.25888 -0.74692,-15.43003c0,-5.16986 0.08342,-11.67584 1.41044,-16.51328z" fill="#ff6666"/><path d="M376.68627,283.61753c-3.56779,0.16686 -3.31882,-5.00431 0.16555,-5.17113c2.98642,-0.16686 3.40095,5.00431 -0.16555,5.17113z" fill="#aadcdc"/></g><g stroke="none" stroke-width="1" stroke-linecap="butt"><path d="M350.22436,201.96625h-35.91911l3.15197,-27.60642l32.76714,-0.08342v27.68984" fill="#006482"/><path d="M334.46325,174.77698c0,0 0.24897,4.17003 -0.58137,6.08885c-0.82903,1.91882 -2.40505,1.8354 -4.64453,0.91768c-2.24079,-0.91768 -1.49387,-7.5071 -1.49387,-7.5071z" fill="#ffffff"/><path d="M340.93272,193.45934l-0.58006,10.09202l-22.14848,1.00114l0.24897,-12.09425c3.64992,-2.66836 8.5434,-2.8352 13.77061,-1.75064c3.64992,0.83428 7.7965,1.66722 8.70896,2.75178z" fill="#000000"/><path d="M405.63662,247.25393c-0.24897,6.00541 0.08211,14.76262 -3.23539,20.0159c-3.31882,5.25459 -10.03727,4.33689 -13.77061,0c-3.06853,-3.50264 -4.39555,-15.09501 -13.60377,-14.34418c-9.20821,0.74954 -1.16147,19.51533 -12.02779,23.8522c-5.30932,2.08566 -13.10713,-1.66722 -16.3425,-6.17096c-1.74153,-2.41939 0,-10.84287 -6.63634,-11.59369c-6.63634,-0.75085 0.58137,18.93265 -13.43822,17.93153c-5.2259,0.91768 -9.95385,-4.58716 -12.02779,-13.59465c-1.9905,-8.5069 -1.49255,-20.43303 -1.65942,-25.43733c-0.49795,-10.92498 -1.24358,-21.3507 -0.41453,-32.277c1.41044,-19.26504 -0.41453,-40.19864 7.79777,-58.38045c7.46538,-16.51457 29.6973,-26.27159 47.78004,-22.60213c18.74756,3.83632 28.28688,15.09501 33.92861,33.36025c6.38737,20.9336 3.98101,80.65014 3.64992,89.24049zM328.57383,177.19635c-6.22181,-0.50057 -10.03727,4.92089 -9.45719,11.42555c0.58006,6.50598 4.39686,9.67491 8.87582,9.67491c4.47898,0 9.37379,-2.16779 9.53932,-9.75833c0.16686,-7.58923 -2.98642,-10.75814 -8.95793,-11.34213z" fill="#ff6666"/><path d="M327.66135,149.25623c-4.31471,-2.75178 5.72256,-14.76133 9.87043,-12.17641c3.56779,2.25121 -5.55698,14.92946 -9.87043,12.17641z" fill="#78c8c8"/><path d="M307.66893,183.36733c-0.6635,-0.49926 -0.99461,-1.25011 -0.9125,-2.00093c-0.16555,-0.66741 0.08342,-1.41825 0.6635,-1.8354c0.83034,0.25028 1.07932,0.50057 1.16147,1.41825c0.08342,0.91768 0.16555,1.91882 -0.9125,2.41808z" fill="#000000"/><path d="M353.95639,183.78444c-0.9125,-0.91639 -0.9125,-2.41808 0,-3.33577v0c0.41453,-0.08342 0.6635,0.16686 0.83034,0.50057c0.41453,0.58399 0.49664,1.33483 0.24897,2.00224c-0.24897,0.16555 -0.66481,0.49926 -1.07932,0.83297z" fill="#000000"/><path d="M361.00726,251.59082c5.14379,0.33371 6.47079,21.017 1.57598,20.76673c-4.23,-0.16686 -5.39145,-2.58492 -5.64042,-5.42142c-0.49795,-6.67153 -1.07803,-15.679 4.06443,-15.3453z" fill="#78c8c8"/><path d="M359.92923,232.90844c5.14379,0.25028 6.47079,10.50916 1.57598,10.42572c-4.23,-0.16686 -5.39145,-1.33483 -5.64042,-2.75309c-0.49795,-3.33577 -1.07803,-7.92291 4.06443,-7.67263z" fill="#78c8c8"/><path d="M370.71344,238.747c-5.06035,0.41713 -4.72795,-13.42779 0.16555,-13.92836c4.23129,-0.41713 4.89481,13.51121 -0.16555,13.92836z" fill="#78c8c8"/><path d="M338.02973,254.84313c-5.06035,0.25028 -4.72795,-6.92181 0.16555,-7.1721c4.23129,-0.16686 4.89481,6.92181 -0.16555,7.1721z" fill="#00a0b4"/><path d="M318.03859,227.65387c-3.64992,0.16686 -3.31882,-5.00431 0.16555,-5.16986c3.06984,-0.08342 3.48437,5.003 -0.16555,5.16986z" fill="#00a0b4"/><path d="M349.64299,235.16096c-3.56648,0.16686 -3.31751,-5.00431 0.16555,-5.17113c3.06984,-0.16686 3.40226,5.00431 -0.16555,5.17113z" fill="#78c8c8"/><path d="M398.3368,262.34894c-3.64992,0.16686 -3.31882,-5.003 0.16555,-5.16986c2.98642,-0.16686 3.48437,5.00431 -0.16555,5.16986z" fill="#006482"/><path d="M324.75706,228.23784c7.96334,0.50057 10.03727,31.02561 2.40634,30.60846c-6.55421,-0.33371 -8.46129,-3.83632 -8.79369,-8.08978c-0.74563,-9.84173 -1.57598,-23.01924 6.38737,-22.51869z" fill="#78c8c8"/></g><path d="M317.92129,172.97516l-20.16475,-6.04943" fill="none" stroke="#000000" stroke-width="0.5" stroke-linecap="round"/><path d="M365.64455,168.94221l-16.1318,8.73805" fill="none" stroke="#000000" stroke-width="0.5" stroke-linecap="round"/><path d="M314.74826,184.47786c0,3.58985 -2.57436,6.5 -5.75,6.5c-3.17564,0 -5.75,-2.91015 -5.75,-6.5c0,-3.58985 2.57436,-6.5 5.75,-6.5c3.17564,0 5.75,2.91015 5.75,6.5z" fill="#ff0000" stroke="none" stroke-width="none" stroke-linecap="butt"/><path d="M345.24826,185.47786c0,3.86599 2.68629,7 6,7c3.31371,0 6,-3.13401 6,-7c0,-3.86599 -2.68629,-7 -6,-7c-3.31371,0 -6,3.13401 -6,7z" fill="#ff0000" stroke="none" stroke-width="0" stroke-linecap="butt"/></g></g></svg>