<svg version="1.1" xmlns="http://www.w3.org/2000/svg" xmlns:xlink="http://www.w3.org/1999/xlink" width="938.79079" height="763.23397" viewBox="0,0,938.79079,763.23397"><defs><linearGradient x1="247.50228" y1="538.35548" x2="247.50228" y2="-95.27815" gradientUnits="userSpaceOnUse" id="color-1"><stop offset="0" stop-color="#ffde8c"/><stop offset="1" stop-color="#ff8cc4"/></linearGradient><linearGradient x1="163.35215" y1="190.07949" x2="163.35215" y2="649.9393" gradientUnits="userSpaceOnUse" id="color-2"><stop offset="0" stop-color="#c56c6c"/><stop offset="1" stop-color="#271010"/></linearGradient></defs><g transform="translate(300.89887,112.54467)"><g data-paper-data="{&quot;isPaintingLayer&quot;:true}" fill-rule="nonzero" stroke-linejoin="miter" stroke-miterlimit="10" stroke-dasharray="" stroke-dashoffset="0" style="mix-blend-mode: normal"><path d="M611.6164,-95.27815v633.63363h-728.22823v-633.63363z" data-paper-data="{&quot;index&quot;:null}" fill="url(#color-1)" stroke="#bd7575" stroke-width="1.5" stroke-linecap="butt"/><path d="M626.85319,419.38461c0,126.64171 -166.26019,229.30512 -371.35252,229.30512c-205.09234,0 -555.64954,20.6549 -555.64954,-105.98681c0,-126.64171 350.5572,-352.62342 555.64955,-352.62342c89.96486,0 106.39163,129.36395 170.65682,162.23119c82.23977,42.06 200.69571,-4.01571 200.69571,67.07393z" fill="url(#color-2)" stroke="#76bc74" stroke-width="1.5" stroke-linecap="butt"/><path d="" fill="none" stroke="#000000" stroke-width="1.5" stroke-linecap="round"/><path d="M125.15213,173.44845c0,8.00917 -6.88754,14.50189 -15.38376,14.50189c-8.49622,0 -15.38376,-6.49272 -15.38376,-14.50189c0,-8.00917 6.88755,-14.50189 15.38376,-14.50189c8.49622,0 15.38376,6.49272 15.38376,14.50189z" fill="#ffffff" stroke="#000000" stroke-width="0.5" stroke-linecap="butt"/><path d="M121.03673,175.01622l-0.19597,-5.4872l-2.93957,5.29123l-0.97986,-6.27109l-3.52749,6.07512l-1.95972,-7.05497l-2.7436,6.859l-2.35166,-7.25095l-2.15569,8.42677l-3.91943,-6.46706l-1.56777,7.44692l-4.31137,-5.29123c0,0 9.24366,-4.55656 15.28551,-4.71349c5.73613,-0.14899 14.8941,3.92961 14.8941,3.92961z" fill="none" stroke="#000000" stroke-width="0.5" stroke-linecap="round"/><path d="M109.47441,187.95034l0.11489,34.90297l-8.91438,11.92668" fill="none" stroke="#000000" stroke-width="0.5" stroke-linecap="round"/><path d="M100.85167,205.58778l2.35166,-3.91943l6.07512,-9.99455l8.42677,12.73815" fill="none" stroke="#000000" stroke-width="0.5" stroke-linecap="round"/><path d="M107.18762,164.69966c-0.00677,0.03987 -0.0144,0.07952 -0.02318,0.11885c0.11577,-0.0389 0.2316,-0.07765 0.34748,-0.11633c-0.10755,-0.00313 -0.21578,-0.00364 -0.32429,-0.00252zM108.1163,167.08197c-0.63636,0.01085 -1.29149,0.04985 -1.92232,0.00021c-0.50977,0.08229 -1.00835,0.21215 -1.46392,0.36401c-0.44347,0.14782 -0.9837,0.24135 -1.35295,0.53077c-0.86951,0.57967 -2.12967,0.54102 -2.93957,1.17583l-0.29396,0.19597c0,0 0.00867,-0.1628 0.02819,-0.32832c-0.23004,0.02103 -0.47529,-0.06055 -0.6919,0.01866c-0.04988,0.01824 0.16003,0.00023 0.15046,0.05247c-0.01665,0.09087 -0.11693,0.14815 -0.19597,0.19597c-0.59276,0.35866 -1.32543,0.43541 -1.95524,0.70627c-0.5609,0.24122 -1.08327,0.49174 -1.66576,0.6859c-0.11208,0.03736 -0.19283,0.06171 -0.24148,0.07683c-0.01469,0.00752 -0.03034,0.01477 -0.04683,0.02142c0.02235,-0.00002 0.09067,-0.00749 0.20623,-0.01616l-0.09798,0.29396c0,0 -0.70965,0.49323 -0.9113,0.04672c-0.20165,-0.4465 -0.01828,-0.35658 -0.01828,-0.35658l0.06162,-0.18486c-0.16702,-0.07806 -0.28274,-0.24756 -0.28274,-0.44409c0,-0.27058 0.21935,-0.48993 0.48993,-0.48993c0.00804,0 0.01604,0.00019 0.02398,0.00058c-0.03204,-0.01969 -0.06429,-0.03894 -0.09683,-0.05752l0.09798,-0.29396c0.21461,-0.617 0.59704,-1.09917 0.88187,-1.66576c0.12582,-0.25029 0.1693,-0.53974 0.31433,-0.77942c0.0205,-0.03388 0.04328,-0.06751 0.068,-0.10088c-0.00995,-0.04169 -0.01552,-0.08836 -0.01552,-0.1406c0,-0.48993 0.48993,-0.48993 0.48993,-0.48993c0.05596,0 0.11191,-0.00056 0.16785,-0.00164c0.03872,-0.0338 0.07674,-0.0672 0.11349,-0.10018c-0.07758,-0.05139 -0.15557,-0.10176 -0.23583,-0.14662l0.19597,-0.19597c-0.02469,-0.08902 0.14553,-0.11858 0.19597,-0.19597c0.18868,-0.28951 0.30241,-0.63831 0.4878,-0.94185c-0.03383,-0.1002 -0.04308,-0.20674 -0.01824,-0.32053c0.15232,-0.69794 0.59152,-1.01237 1.13883,-1.14498c0.09845,-0.13193 0.21011,-0.25079 0.35133,-0.33624c0.23968,-0.14502 0.52913,-0.1885 0.77942,-0.31433c0.25583,-0.12861 0.49541,-0.25078 0.73257,-0.35945c0.00061,-0.14387 0.0152,-0.28654 0.05131,-0.42443c0.12152,-0.4639 0.26193,0.00152 0.39641,-0.07762c0.07962,-0.04685 0.12644,-0.13515 0.19597,-0.19597c0.62312,-0.545 1.76035,-0.86247 2.57643,-1.11167c0.29918,-0.27068 1.04049,-0.39958 1.28825,-0.49237c0.49595,-0.18575 0.86551,-0.21647 1.38104,-0.3032c0.54006,-0.09086 1.05872,-0.4716 1.60882,-0.56277c0.43751,-0.07252 0.89841,0.0476 1.33076,-0.02514c0.3198,-0.0538 0.52197,-0.17581 0.88187,-0.19597c0.41693,0 1.07632,-0.12735 1.46979,0c0.31136,0.10078 0.55172,0.36348 0.85968,0.47422c0.10247,0.03685 0.21255,-0.11582 0.31615,-0.08228c0.31136,0.10078 0.55844,0.34632 0.85968,0.47422c0.53146,0.22566 1.1442,0.21953 1.68795,0.30966c0.00307,0.00051 0.66477,0.17388 0.74284,0.22111c0.14184,0.08582 0.48402,0.53007 0.6859,0.48993c0.70081,0.2336 1.28584,0.93707 1.85726,1.39217c0.70755,0.56352 1.57031,0.93937 2.27699,1.50656c0.5208,0.418 0.97434,0.96088 1.44647,1.43301c0.29595,0.29595 0.76416,0.62338 0.97986,0.97986c0.49528,0.81855 0.79624,1.83322 1.09821,2.73913c0.09798,0.29396 0.19597,0.58792 0.29396,0.88187c0.03266,0.09798 0.14418,0.20157 0.09798,0.29396c-0.53739,1.07477 -1.18953,0.82173 -2.0895,0.52173c-0.37118,-0.12373 -0.64631,-0.42035 -0.9987,-0.54707c-0.10247,-0.03685 -0.20872,0.10009 -0.31615,0.08228c-0.45896,-0.07607 -0.87671,-0.3407 -1.33076,-0.41708c-0.14257,-0.02398 -0.29903,0.07951 -0.43298,0.02514c-0.28171,-0.11434 -0.45284,-0.43102 -0.73837,-0.53544c-0.04783,-0.01749 0.09626,0.11748 0.05247,0.1435c-0.08424,0.05006 -0.20073,0.03017 -0.29396,0c-0.31136,-0.10078 -0.56728,-0.32723 -0.85968,-0.47422c-0.40332,-0.20275 -0.91876,-0.11772 -1.35295,-0.23682c-0.46987,-0.15662 -0.98221,-0.4079 -1.46979,-0.48993c-0.31864,-0.05361 -0.59317,-0.00568 -0.94375,-0.08747c-0.33608,-0.07841 -0.67867,-0.24773 -1.01596,-0.30447c-1.00856,-0.16968 -2.23951,0.02514 -3.27457,0.02514c-0.57356,0 -1.05827,-0.23848 -1.58874,-0.36868c-0.05928,0.04353 -0.17463,-0.00326 -0.2593,-0.02067zM101.32076,166.08489c-0.04724,-0.01273 -0.09445,-0.02466 -0.14156,-0.03626c0.00504,0.01694 0.01003,0.0339 0.01499,0.05089c0.06143,0 0.12197,0 0.18132,0c-0.01824,-0.00483 -0.0365,-0.00971 -0.05475,-0.01463zM108.29858,160.41634h-0.29396c-0.00938,-0.0024 -0.01903,-0.00448 -0.02892,-0.00625c-0.00349,0.00592 -0.00702,0.0118 -0.01062,0.01765c0.31165,0.01589 0.71778,0.01486 0.83988,0.20697c0.01337,-0.01152 0.02797,-0.02215 0.04314,-0.03185c-0.04916,-0.12992 -0.09679,-0.26095 -0.15757,-0.3825h0.24966c0.022,-0.09042 0.04987,-0.17896 0.08745,-0.26438c0.02728,-0.06201 0.07568,-0.0987 0.13673,-0.11954c-0.24163,-0.01739 -0.49157,-0.07006 -0.71086,-0.03317c-0.08144,0.0137 -0.16205,0.03177 -0.24206,0.05311c0.02625,0.12256 0.0516,0.24552 0.08713,0.36397h-0.11364c0.03555,0.06753 0.07257,0.13368 0.11364,0.19597zM109.66323,159.82864c-0.00247,-0.01543 -0.00505,-0.03081 -0.00776,-0.04614c-0.04514,0.01448 -0.09014,0.02734 -0.13495,0.03706c0.04855,0.00347 0.09675,0.00721 0.1427,0.00907zM110.2583,159.63246c0.08496,0.01909 0.1698,0.04311 0.25438,0.07074c0.0101,-0.02981 0.02579,-0.05589 0.04616,-0.07874c-0.07275,0.00485 -0.14098,0.008 -0.20256,0.008c-0.04394,-0.00795 -0.08799,-0.0102 -0.13209,-0.00814c0.01166,0.0029 0.02305,0.00565 0.03411,0.00814zM115.97449,161.11361c0.1062,0.04297 0.21093,0.08236 0.31204,0.1159c-0.18931,-0.14297 -0.37096,-0.29661 -0.57622,-0.37631c0.08791,0.08721 0.17569,0.17446 0.26418,0.26041zM120.383,164.11522c0.00102,-0.00066 0.00204,-0.0013 0.00307,-0.00194c-0.00231,-0.0017 -0.00461,-0.00341 -0.00692,-0.00511c0.00129,0.00235 0.00258,0.00469 0.00385,0.00705zM122.7796,166.71973c0.03973,0.0508 0.08313,0.10643 0.12573,0.16163c-0.0239,-0.11188 -0.00152,-0.23918 -0.05933,-0.33744c-0.06298,-0.10702 -0.1503,-0.21187 -0.24961,-0.31415c0.06904,0.16558 0.13007,0.3305 0.18322,0.48995zM111.34109,161.11945l-0.13839,-0.05931c-0.00708,0.00574 -0.01424,0.01138 -0.02148,0.01695c-0.04821,0.03705 -0.10711,0.00634 -0.16768,-0.03097c0.00227,0.04013 0.00456,0.08026 0.0072,0.1203c0.00874,-0.0052 0.01755,-0.0103 0.02643,-0.0153c0.0792,-0.04461 0.18063,-0.05078 0.29392,-0.03167zM118.50953,164.37261c0.04305,0.03285 0.08661,0.06505 0.13079,0.09645c-0.03403,-0.02847 -0.06913,-0.05557 -0.1057,-0.08081c-0.00783,-0.0054 -0.01621,-0.01061 -0.02509,-0.01563zM115.48341,166.31118c0.25295,0.06319 0.50578,0.1272 0.75807,0.19333c-0.10408,-0.05658 -0.20749,-0.11529 -0.31056,-0.17516c-0.12,0.00919 -0.25854,-0.04809 -0.38139,-0.03386c-0.02263,0.00262 -0.04461,0.00816 -0.06613,0.01569zM99.35977,165.81224c0.0081,-0.0014 0.0162,-0.0028 0.0243,-0.00419c-0.0007,-0.00084 -0.00143,-0.00167 -0.00219,-0.00249c-0.012,-0.01303 -0.01838,-0.00825 -0.02211,0.00669zM123.11519,168.70495c-0.10727,0.12907 -0.21149,0.22055 -0.31349,0.27872c0.05111,0.0278 0.10233,0.05473 0.15371,0.08055c0.13863,0.06969 0.27998,0.14509 0.43298,0.17083c0.01927,0.00324 0.04179,0.00137 0.06563,-0.00295c-0.02892,-0.04371 -0.06058,-0.08609 -0.08133,-0.11723c-0.09164,-0.13745 -0.17296,-0.2767 -0.2575,-0.40993zM119.19421,167.52191c0.00974,-0.04513 0.01939,-0.0903 0.02935,-0.13535c-0.35343,-0.09966 -0.69541,-0.25516 -1.05024,-0.29669c0.19136,0.08054 0.444,0.20764 0.46623,0.32898c0.00957,0.05224 -0.20035,0.03423 -0.15046,0.05247c0.22071,0.08071 0.47145,0.0254 0.70511,0.05059zM112.76054,160.53304c0.00193,-0.00624 0.00387,-0.01248 0.00582,-0.0187c-0.00959,-0.0306 -0.01886,-0.06138 -0.02802,-0.09223c-0.0725,-0.00263 -0.14511,-0.0042 -0.21769,-0.00511c0.01591,0.00815 0.032,0.01632 0.04826,0.02449c0.06329,0.03181 0.12719,0.06226 0.19162,0.09155zM111.43825,161.14103c0.13236,0.03576 0.27581,0.09824 0.41615,0.16943c0.02713,0.00403 0.05427,0.00808 0.08142,0.01216c-0.1448,-0.14526 -0.29264,-0.28503 -0.47511,-0.39794c-0.00958,0.07228 -0.01793,0.14447 -0.02246,0.21634zM119.68376,165.62644c-0.0425,-0.07043 -0.08363,-0.14116 -0.12376,-0.2121c-0.02213,0.02755 -0.04415,0.05524 -0.06621,0.08287c0.06325,0.04322 0.12657,0.0863 0.18997,0.12923zM113.91277,165.88591c0.13144,0.04736 0.26867,0.09028 0.40316,0.12882c0.02531,-0.07285 0.04967,-0.14625 0.07487,-0.21916c-0.15753,0.03131 -0.31544,0.06512 -0.47803,0.09034zM112.69457,165.12282c-0.00779,0.03879 -0.01622,0.0773 -0.02564,0.11543c0.00061,0.00134 0.00122,0.00267 0.00182,0.00401c0.04332,-0.04771 0.09429,-0.08654 0.15223,-0.11865c-0.04279,-0.00081 -0.0856,-0.00105 -0.12841,-0.00078zM117.16983,165.90861c0.2258,0.11455 0.45365,0.19653 0.666,0.20257c-0.2012,-0.09756 -0.41933,-0.17031 -0.666,-0.20257zM98.38117,167.094c0.03254,-0.00664 0.34914,-0.05974 0.61935,-0.10484c-0.04248,-0.03017 -0.07995,-0.06695 -0.1109,-0.10883c-0.17398,0.02729 -0.3481,0.05307 -0.52234,0.07647c-0.02736,0.04735 -0.05361,0.09641 -0.07899,0.14686c0.03257,-0.00139 0.06418,-0.0038 0.09288,-0.00966zM101.70153,162.84016c0.01337,0.0089 0.02673,0.01781 0.04011,0.02668c0.04578,-0.02078 0.0835,-0.03752 0.10899,-0.04892c-0.05093,0.01066 -0.10079,0.01834 -0.1491,0.02224zM111.21229,165.921c0.09285,0.01161 0.18614,0.0246 0.27971,0.03819c-0.037,-0.01721 -0.07483,-0.03547 -0.11328,-0.05438c-0.09244,0.00056 -0.1849,0.00121 -0.27737,0.00189c0.03695,0.00491 0.07393,0.00968 0.11094,0.0143zM99.05183,164.4048c0.08753,-0.10833 0.17959,-0.21436 0.27758,-0.31747c0.05411,-0.05411 0.10446,-0.11353 0.15265,-0.17595c-0.06521,-0.00406 -0.12815,-0.00458 -0.18541,0.00051c-0.13844,0.17344 -0.26864,0.36141 -0.39007,0.53146c0.01388,0.00958 0.02793,0.01933 0.04213,0.02923c0.03472,-0.02087 0.06908,-0.04355 0.10312,-0.06779z" fill="#00ff40" stroke="none" stroke-width="0.5" stroke-linecap="butt"/><path d="M106.53484,159.3385l2.35166,-8.81872l3.33152,7.83886" fill="none" stroke="#32ff00" stroke-width="0.5" stroke-linecap="round"/><path d="M110.65024,154.4392l0.19597,-2.35166l3.13554,6.859" fill="none" stroke="#21a700" stroke-width="0.5" stroke-linecap="round"/><path d="M111.53212,156.20296c0,-0.27058 0.21935,-0.48993 0.48993,-0.48993c0.27058,0 0.48993,0.21935 0.48993,0.48993c0,0.27058 -0.21935,0.48993 -0.48993,0.48993c-0.27058,0 -0.48993,-0.21935 -0.48993,-0.48993z" fill="#00a92a" stroke="none" stroke-width="0.5" stroke-linecap="butt"/><path d="M111.50946,157.00652c-0.16543,-0.08138 -0.11701,-0.27506 -0.11701,-0.27506l0.12502,-0.01871c-0.15548,-0.75276 -0.69902,-1.39546 -0.94007,-2.11861l-0.16418,-0.12167c0,0 -0.22923,-0.43299 0.20376,-0.66223c0.05207,-0.02756 0.10119,-0.04555 0.14731,-0.05587c0.0134,-0.25062 0.03292,-0.48895 0.03292,-0.68696v-0.19597c0,-0.13529 0.10967,-0.24496 0.24496,-0.24496c0.09779,0 0.1822,0.0573 0.22148,0.14016l0.09561,0.19123c0.12264,0.05247 0.12129,0.45194 0.12385,0.5015c0.00871,0.16901 0.12954,0.31406 0.17011,0.47836c0.04013,0.16251 -0.0511,0.35285 0.02586,0.50149c0.06106,0.11792 0.51895,0.32617 0.62112,0.51965c0.05664,0.10727 0.07424,0.2292 0.09429,0.35053c0.06265,0.07816 0.09234,0.15072 0.09234,0.15072l0.09798,0.29396c0.0139,0.04473 0.02911,0.08872 0.04537,0.13212c0.21509,0.32919 0.51638,0.64625 0.6888,0.99111c0.15019,0.30039 0.40971,0.65502 0.48993,0.97986c0.04013,0.16251 -0.01556,0.33931 0.02586,0.50149c0.02832,0.1109 0.42684,0.56886 0.36608,0.67434c-0.09082,0.15767 -0.25769,0.2632 -0.41508,0.35451c-0.07884,0.04574 -0.16612,0.05419 -0.25706,0.0358c-0.18033,0.06173 -0.3254,-0.00495 -0.42,-0.07827c-0.05014,-0.03594 -0.09321,-0.08111 -0.12674,-0.13302l-0.38773,-0.58159l0.00405,-0.0027c-0.0333,-0.04771 -0.06034,-0.08994 -0.07971,-0.12365c-0.06076,-0.10572 -0.08723,-0.32346 -0.1137,-0.47884c-0.18954,-0.04644 -0.42567,-0.02892 -0.53778,-0.18164c-0.15682,-0.21361 -0.22978,-0.47687 -0.28113,-0.74303c-0.027,-0.03166 -0.05477,-0.06213 -0.08359,-0.09095z" fill="#00a92a" stroke="none" stroke-width="0.5" stroke-linecap="butt"/><path d="M108.79848,150.4769c0.6308,-0.08802 0.71881,0.54278 0.71881,0.54278l0.20208,0.28399c0,0.20234 0,0.40467 0,0.607c0.12984,0.27913 0.18616,0.62815 0.19597,0.66681c0.0241,0.09498 -0.03475,0.20234 0,0.29396c0.01264,0.03334 0.06148,-0.082 0.089,-0.05933c0.09091,0.07485 0.14349,0.18853 0.19597,0.29396c0.26205,0.52645 0.35422,1.11363 0.62764,1.63623c0.58195,1.1639 1.19431,2.17901 1.51801,3.46188c0.00452,0.01791 0.29318,0.91827 0.28029,0.93292c-0.30349,0.34496 -0.68805,0.6234 -1.09415,0.83832c-0.3366,0.17813 -0.61941,0.09398 -0.84686,-0.11161c-0.0613,0.28774 -0.31691,0.50356 -0.62292,0.50356c-0.03314,0 -0.06569,-0.00253 -0.09746,-0.00741c0.29391,0.28334 0.58442,0.59732 0.93976,0.87986c0.52373,0.41642 1.26782,0.79658 1.86265,1.09625c0.13476,0.06789 0.30698,0.04348 0.43603,0.12169c0.38945,0.23603 0.60892,0.52855 1.00815,0.74398c0.63933,0.3836 1.27907,0.69505 1.93142,1.01976c0.47218,0.23503 0.8597,0.62239 1.32771,0.85817c0.39279,0.19789 0.80793,0.29239 1.17583,0.58792c0.46464,0.37324 0.76088,0.87094 1.13609,1.32362c0.31812,0.3838 0.68764,0.67247 0.98279,1.08216c0.05515,-0.03578 0.19119,0.02159 0.27143,0.03488c0.16848,0.02789 0.33134,0.08315 0.49536,0.13067c0.07484,0.02168 0.14922,0.03839 0.2235,0.05182c-0.01025,-0.28732 0.02637,-0.66344 0.02637,-0.66344l0.29396,0.19597c0.24761,0.16587 0.67684,0.18704 0.75828,0.47372l0.47992,0.28795c0.1908,0.11001 0.31923,0.31608 0.31923,0.55215c0,0.35176 -0.28515,0.63691 -0.63691,0.63691c-0.05827,0 -0.11471,-0.00782 -0.16833,-0.02248l-0.69609,-0.17402c-0.83072,-0.15403 -1.91435,-0.03086 -2.40912,-0.77301c-0.24356,-0.412 -0.65401,-0.68402 -0.95945,-1.04899c-0.27399,-0.32739 -0.4841,-0.75807 -0.82363,-1.02803c-0.38455,-0.30575 -0.74028,-0.37111 -1.17583,-0.58792c-0.36661,-0.18248 -0.66438,-0.52846 -1.02394,-0.7096c-0.73882,-0.37222 -1.46261,-0.7031 -2.18398,-1.13592c-0.2042,-0.12991 -0.4166,-0.24776 -0.6126,-0.38974c-0.07497,-0.05431 -0.06296,-0.19156 -0.14299,-0.23808c-0.22697,-0.13195 -0.50477,-0.15327 -0.7398,-0.27026c-0.68701,-0.34197 -1.4568,-0.77346 -2.05678,-1.25541c-0.44666,-0.35879 -1.01965,-0.86338 -1.37272,-1.29222c-0.02266,-0.02753 0.09267,-0.07636 0.05933,-0.089h-0.16331l-0.18998,0.28497l-0.53122,-0.35414c-0.16617,-0.07581 -0.34031,-0.2347 -0.34031,-0.56774c0,-0.37922 0.22579,-0.53265 0.4085,-0.59473c0.0709,-0.02725 0.14791,-0.04218 0.22841,-0.04218h0.14529l-0.12705,-0.25409c-0.13871,-0.04331 -0.14507,-0.25284 -0.19519,-0.38983l-0.16008,0.10249c0,0 -0.17647,0.07563 -0.37715,0.04695c-0.00378,0.00465 -0.00754,0.00931 -0.01129,0.01397c-0.05786,0.07202 -0.10711,0.22125 -0.19597,0.19597c-0.00964,-0.00274 -0.01706,-0.00957 -0.02265,-0.01934c-0.03418,0.76619 0.01322,1.54782 0.01322,2.31258c0,0 0,0.63691 -0.63691,0.63691c-0.63691,0 -0.63691,-0.63691 -0.63691,-0.63691c0,-0.58792 0,-1.17583 0,-1.76374c0,-0.26129 -0.09033,-0.5387 0,-0.78388c0.19694,-0.53457 0.69625,-0.82015 0.89085,-1.33315c0.01446,-0.03812 -0.09005,0.09644 -0.10697,0.05933c-0.04065,-0.08916 -0.03002,-0.20068 0,-0.29396c0.10879,-0.33801 0.37297,-0.6092 0.49891,-0.94121c0.01446,-0.03812 -0.09005,0.09644 -0.10697,0.05933c-0.11886,-0.2607 0,-0.88445 0,-1.17583c0,-0.24141 -0.07347,-0.6536 0,-0.88187c0.22134,-0.6877 0.61416,-1.25572 0.81657,-1.96515c0.00915,-0.03208 0.17748,-0.73493 0.1823,-0.73695c0.12001,-0.05031 0.24502,-0.08705 0.37293,-0.11369c0,-0.10658 0,-0.21316 0,-0.31975l-0.18986,-0.10795c0,0 -0.08802,-0.6308 0.54278,-0.71881zM110.04931,157.85669c0.02323,0.06275 0.04684,0.12539 0.07067,0.18798c0.06297,-0.06516 0.14963,-0.14801 0.24842,-0.22369c-0.13078,0.02905 -0.24553,0.00702 -0.34039,-0.03524c0.00722,0.02361 0.01433,0.04725 0.02129,0.07095zM109.30255,159.82074c0.02034,0.01264 0.04048,0.02556 0.06044,0.03875l-0.04169,-0.05559c-0.00614,0.00574 -0.01238,0.01135 -0.01875,0.01684zM110.83898,157.6129c-0.0109,-0.02818 -0.02195,-0.05622 -0.03315,-0.08415c-0.0248,0.03542 -0.05517,0.07033 -0.09199,0.10423c0.04195,-0.01192 0.08387,-0.01906 0.12515,-0.02008z" fill="#00ff40" stroke="none" stroke-width="0.5" stroke-linecap="butt"/><path d="M110.25545,177.44354c0,1.08232 -0.74579,1.95972 -1.66576,1.95972c-0.91997,0 -1.66576,-0.87739 -1.66576,-1.95972c0,-1.08232 0.74579,-1.95972 1.66576,-1.95972c0.91997,0 1.66576,0.87739 1.66576,1.95972z" fill="#000000" stroke="#000000" stroke-width="0.5" stroke-linecap="butt"/><path d="M120.05404,177.34556c0,1.13644 -0.74579,2.0577 -1.66576,2.0577c-0.91997,0 -1.66576,-0.92126 -1.66576,-2.0577c0,-1.13644 0.74579,-2.0577 1.66576,-2.0577c0.91997,0 1.66576,0.92126 1.66576,2.0577z" fill="#000000" stroke="#000000" stroke-width="0.5" stroke-linecap="butt"/><path d="M98.73559,166.24633c-0.2835,-0.38982 0.10631,-0.67332 0.10631,-0.67332l0.09098,-0.09933c0.18377,-0.18377 0.38396,-0.36874 0.5972,-0.53832c-0.01438,-0.03723 -0.0287,-0.07735 -0.04306,-0.12052l-0.0676,-0.06921c0,0 0.0091,-0.02274 0.02831,-0.05592c-0.02284,-0.07671 -0.04601,-0.16125 -0.06992,-0.25421c-0.02124,-0.08255 0.4702,-0.44078 0.53302,-0.51978c0.29429,-0.37013 0.45373,-0.77489 0.84187,-1.07976c0.06776,-0.05322 0.18203,0.01144 0.25652,-0.03187c0.41676,-0.24229 0.56748,-0.50087 1.08238,-0.58611c0.47563,-0.07874 1.37187,-0.07071 1.37187,0.55616c-0.03834,0.58104 -0.26781,1.47733 -0.63773,1.94286c-0.31697,0.39889 -0.80139,0.43659 -1.20832,0.60869c-0.20317,0.08593 -0.3624,0.25454 -0.55988,0.35284c-0.40538,0.20178 -0.90459,0.30153 -1.33479,0.44493c0,0 -0.03816,0.01272 -0.09612,0.01979c-0.00403,0.00402 -0.00806,0.00805 -0.01209,0.01208l-0.20564,0.1973c0,0 -0.38982,0.2835 -0.67332,-0.10631z" fill="#000000" stroke="none" stroke-width="0.5" stroke-linecap="butt"/><path d="M117.37126,161.31748c0.08197,0.01621 0.17701,0.02194 0.23779,0.07926c0.17431,0.16438 0.29887,0.37442 0.44671,0.5631c0.23709,-0.00058 0.5219,0.13971 0.70585,0.19548c0.3687,0.11179 0.36631,0.66243 0.47294,1.0431c0.08608,0.05656 0.16915,0.11268 0.23466,0.15641c0.00232,0.0015 0.00464,0.00302 0.00693,0.00456l0.33032,0.16776c0,0 0.20747,0.14819 0.22627,0.38203c0.26102,0.02521 0.46507,0.24518 0.46507,0.51281c0,0.23177 -0.15303,0.42779 -0.36356,0.49254l-0.46431,0.15477l-0.00841,-0.02525c-0.28898,0.05052 -0.553,0.05168 -0.86789,0.05168c-0.01763,0 -0.03517,-0.00016 -0.05261,-0.00046c-0.27881,0.04838 -0.56309,0.06994 -0.8193,0.00046c-0.18138,-0.04918 -0.34164,-0.1085 -0.48425,-0.17742c-0.20024,-0.01404 -0.4043,-0.00652 -0.59418,-0.06764c-0.45974,-0.14797 -0.59572,-0.57569 -0.77701,-0.93554c-0.2462,-0.48868 -0.53896,-0.76963 -0.54674,-1.36193c-0.00419,-0.31908 0.14315,-0.64637 0.14315,-0.98474c0,0 0,-0.51522 0.51522,-0.51522c0.24743,0 0.37603,0.11882 0.44288,0.24235c0.19537,-0.06526 0.42938,-0.04163 0.75049,0.02188z" fill="#000000" stroke="none" stroke-width="0.5" stroke-linecap="butt"/><path d="M109.26373,222.58941l8.31176,12.46764" fill="none" stroke="#000000" stroke-width="0.5" stroke-linecap="round"/><g fill="#ff0000" stroke="none" stroke-width="1" stroke-linecap="butt"><path d="M318.02953,140.38198c-0.901,4.477 1.674,7.675 2.768,11.769c1.03,3.901 0.772,8.954 -1.416,12.408c-1.931,3.262 -5.02,5.628 -8.625,6.779c-4.634,1.407 -10.426,1.919 -15.575,1.919v-13.176c4.055,-0.063 9.912,0.128 11.971,-1.471c2.768,-2.174 2.124,-6.523 0.837,-9.338c-1.609,-3.517 -3.926,-6.715 -3.798,-10.745c0.129,-3.901 2.511,-6.652 4.699,-9.722c5.149,-7.163 2.059,-11.257 -2.768,-17.652c-2.317,-3.007 -2.96,-6.588 -3.153,-10.298c-0.065,-2.111 -0.258,-9.594 3.089,-9.53c1.158,0.96 0.193,4.733 0.451,5.948c0.579,0.768 1.415,1.28 2.381,1.407l0.708,-0.255c1.802,-2.239 1.03,-5.437 2.703,-7.803c0.322,-0.128 0.708,0 0.901,0.255c0.451,1.408 -1.416,8.571 2.446,7.228l0.45,-0.448c0.258,-0.831 1.288,-5.309 2.704,-5.053c1.222,0.896 0.193,4.222 0.064,5.437c-0.322,2.558 -0.579,5.053 -0.064,7.611c0.836,4.477 3.346,6.78 5.47,10.553c2.189,4.03 2.575,8.763 0.966,13.048c-1.609,4.157 -6.308,6.652 -7.209,11.129z"/><path d="M305.86553,169.93098c-3.926,0.192 -3.669,-5.308 0.129,-5.5c3.282,-0.192 3.797,5.308 -0.129,5.5z"/><path d="M309.14752,139.16698c-2.252,0.064 -2.059,-3.006 0.065,-3.134c1.802,-0.064 2.188,3.07 -0.065,3.134z"/><path d="M316.80653,157.20298c-2.252,0.064 -2.059,-3.006 0.065,-3.134c1.802,-0.064 2.188,3.07 -0.065,3.134z"/><path d="M307.21651,105.45998c-2.252,0.064 -2.059,-3.006 0.065,-3.134c1.866,-0.064 2.188,3.07 -0.065,3.134z"/></g><g fill="#ff0000" stroke="none" stroke-width="1" stroke-linecap="butt"><path d="M254.12783,130.73079c-5.27536,2.06315 -10.8373,3.27609 -16.45698,3.68091c-3.80881,0.0651 -7.47085,-1.52504 -9.97921,-4.35959c-5.43117,-6.32721 -2.81572,-14.76574 -5.26231,-22.13063c-1.45195,-4.31465 -4.31271,-5.82313 -7.83066,-8.23629c-3.40957,-2.31968 -5.00273,-5.46686 -5.25764,-9.58763c-0.25529,-4.12169 0.19538,-8.05258 -2.79627,-11.37783c-0.95722,-1.12511 -7.92049,-4.94146 -6.80541,-6.44714c2.54795,-0.57802 4.45951,1.32773 6.87827,0.94125c2.7849,-2.68701 -4.58828,-3.97543 -3.56587,-6.20421c2.59611,-2.46951 5.69739,3.7899 8.14846,2.14379c1.67406,-1.66964 -2.98056,-4.30079 -3.26068,-5.63916c1.35317,-1.60506 5.63071,2.2931 6.52375,3.09824c2.48924,2.28771 4.42372,5.08437 5.70483,8.15374c1.52763,3.65999 -0.24676,5.92523 -0.73698,9.59522c-0.44605,3.44351 0.86526,6.08416 3.43822,8.40628c2.24786,2.04171 5.05551,3.08798 7.11458,5.34719c2.2758,2.44615 2.66771,5.05445 2.55323,8.29021c-0.12044,4.55592 1.09797,12.15602 5.60598,14.43335c1.75429,0.86178 7.2725,-0.95706 10.94487,-2.35116z"/><path d="M214.03861,94.16607c-2.05451,0.92687 -3.0589,-1.98059 -1.14809,-2.91684c1.67272,-0.83687 3.20168,1.99035 1.14809,2.91684z"/><path d="M227.10817,111.44408c-2.05451,0.92687 -3.0589,-1.98059 -1.14809,-2.91684c1.6383,-0.75316 3.20261,1.98996 1.14809,2.91684z"/><path d="M227.8986,105.98544c-4.32154,2.0118 -6.52754,-4.27562 -2.40876,-6.27214c3.60818,-1.71405 6.7303,4.26035 2.40876,6.27214z"/></g><g fill="#b50000" stroke="none" stroke-width="1" stroke-linecap="butt"><path d="M263.83753,206.96398c-0.58,5.756 -2.382,7.675 -5.922,8.506c-1.802,0.448 -3.539,0.512 -5.149,-0.319c-3.411,-1.791 -4.119,-6.78 -5.856,-10.042c-3.476,-0.959 -3.025,2.686 -7.981,2.686c-8.625,0 -8.56,-4.541 -10.169,-17.525c-1.609,-12.983 33.854,-8.954 33.854,-8.954c0,0 1.802,19.955 1.223,25.648z"/><path d="M269.75853,204.14998c-1.223,-3.262 0.257,-19.188 0.257,-19.188l25.552,2.878c0,0 0.901,8.379 1.03,11.001c0.322,11.896 -3.54,13.367 -6.179,13.431c-11.842,0.448 -8.817,-11.065 -11.971,-12.728c-5.535,-2.878 -6.372,1.408 -8.689,4.606z"/></g><path d="M299.87951,188.67098c-0.193,4.605 0.065,11.321 -2.51,15.351c-2.574,4.029 -7.788,3.325 -10.684,0c-2.381,-2.687 -3.411,-11.577 -10.555,-11.001c-7.144,0.575 -0.901,14.966 -9.333,18.292c-4.119,1.599 -10.169,-1.279 -12.679,-4.733c-1.352,-1.855 0,-8.315 -5.149,-8.89c-5.149,-0.576 -6.822,4.477 -10.426,5.116c-7.853,1.407 -10.234,-13.367 -10.556,-21.298c-0.386,-8.443 -0.965,-16.438 -0.322,-24.816c1.095,-14.775 -0.321,-30.829 6.05,-44.772c5.793,-12.664 23.042,-20.147 37.073,-17.333c14.546,2.942 21.947,11.577 26.324,25.584c5.02,15.99 2.059,31.852 3.604,48.225c0.579,6.588 -0.515,13.624 -0.837,20.275z" fill="#dba9a9" stroke="none" stroke-width="1" stroke-linecap="butt"/><path d="M292.60653,184.19398c3.991,0.256 5.021,16.118 1.223,15.926c-3.282,-0.192 -4.183,-2.047 -4.376,-4.221c-0.387,-5.117 -0.837,-11.961 3.153,-11.705z" fill="#78c8c8" stroke="none" stroke-width="1" stroke-linecap="butt"/><path d="M282.56653,182.33898c3.99,0.192 5.02,8.059 1.223,7.995c-3.283,-0.128 -4.184,-1.023 -4.377,-2.11c-0.386,-2.559 -0.836,-6.077 3.154,-5.885z" fill="#78c8c8" stroke="none" stroke-width="1" stroke-linecap="butt"/><path d="M287.71552,181.95598c-3.926,0.319 -3.669,-10.298 0.129,-10.682c3.282,-0.319 3.797,10.362 -0.129,10.682z" fill="#00a0b4" stroke="none" stroke-width="1" stroke-linecap="butt"/><path d="M247.48953,194.42798c-3.926,0.192 -3.669,-5.309 0.129,-5.501c3.282,-0.128 3.797,5.309 -0.129,5.501z" fill="#006482" stroke="none" stroke-width="1" stroke-linecap="butt"/><path d="M294.66652,160.08098c-3.926,0.192 -3.669,-5.308 0.129,-5.5c3.282,-0.192 3.797,5.309 -0.129,5.5z" fill="#78c8c8" stroke="none" stroke-width="1" stroke-linecap="butt"/><path d="M238.47853,113.45498c-3.347,-2.111 4.441,-11.321 7.659,-9.338c2.768,1.727 -4.312,11.449 -7.659,9.338z" fill="#78c8c8" stroke="none" stroke-width="1" stroke-linecap="butt"/><path d="M246.84553,186.17698c-2.832,0.128 -2.574,-3.838 0.129,-3.966c2.317,-0.127 2.703,3.838 -0.129,3.966z" fill="#78c8c8" stroke="none" stroke-width="1" stroke-linecap="butt"/><path d="M263.45153,174.59998c-2.832,0.128 -2.575,-3.837 0.128,-3.965c2.317,-0.128 2.703,3.837 -0.128,3.965z" fill="#78c8c8" stroke="none" stroke-width="1" stroke-linecap="butt"/><path d="M258.30251,204.66098c-2.832,0.128 -2.575,-3.837 0.128,-3.965c2.317,-0.128 2.704,3.837 -0.128,3.965z" fill="#78c8c8" stroke="none" stroke-width="1" stroke-linecap="butt"/><path d="M273.23452,185.40898c-2.832,0.128 -2.575,-3.837 0.128,-3.965c2.317,-0.128 2.703,3.837 -0.128,3.965z" fill="#00a0b4" stroke="none" stroke-width="1" stroke-linecap="butt"/><path d="M237.19153,174.02498c6.179,0.383 7.788,23.793 1.866,23.473c-5.084,-0.256 -6.564,-2.942 -6.822,-6.204c-0.579,-7.548 -1.223,-17.653 4.956,-17.269z" fill="#78c8c8" stroke="none" stroke-width="1" stroke-linecap="butt"/><path d="M283.85353,138.46298c1.352,0.64 2.446,1.599 3.862,1.791c0.386,0.064 0.708,0.128 0.901,0.576l-0.193,0.256c-0.515,0.064 -0.966,0 -1.416,-0.256c-1.223,-0.64 -2.446,-1.216 -3.669,-1.855c-0.257,-0.128 -0.579,-0.256 -0.901,-0.384l-0.193,-0.512l4.892,-2.622l0.901,0.128l-0.065,0.448c-2.059,0.959 -3.411,1.663 -4.119,2.43z" fill="#000000" stroke="none" stroke-width="1" stroke-linecap="butt"/><path d="M241.76153,138.59098c-0.966,-1.087 -2.06,-2.047 -3.154,-3.006c-0.193,-0.256 -0.129,-0.576 0.129,-0.767c0,0 0,0 0.064,0c0.064,0 0.193,0 0.257,0.063c0.129,0.064 0.194,0.128 0.322,0.256c0.966,1.216 2.124,2.303 3.411,3.198c0.322,0.192 0.708,0.448 0.58,1.024l-0.58,0.128c-0.193,0 -0.386,0.064 -0.579,0.127c-0.901,0.384 -1.738,0.832 -2.639,1.216l-1.029,0.447c-0.451,-0.064 -0.644,-0.191 -0.58,-0.575c1.223,-0.576 2.382,-1.151 3.54,-1.727c0.065,-0.128 0.129,-0.256 0.258,-0.384z" fill="#000000" stroke="none" stroke-width="1" stroke-linecap="butt"/><path d="M240.77378,137.45984c1.65686,0 3,1.45508 3,3.25c0,1.79493 -1.34314,3.25 -3,3.25c-1.65685,0 -3,-1.45507 -3,-3.25c0,-1.79493 1.34315,-3.25 3,-3.25z" fill="#ff0000" stroke="#000000" stroke-width="0.5" stroke-linecap="butt"/><path d="M285.52378,137.95984c1.79492,0 3.25,1.34315 3.25,3c0,1.65686 -1.45508,3 -3.25,3c-1.79493,0 -3.25,-1.34314 -3.25,-3c0,-1.65686 1.45507,-3 3.25,-3z" fill="#ff0000" stroke="#000000" stroke-width="0.5" stroke-linecap="butt"/><path d="M209.21398,69.13285c6.63405,0 12.01201,4.90344 12.01201,10.95213c0,6.0487 -5.37796,10.95213 -12.01201,10.95213c-6.63405,0 -12.01201,-4.90344 -12.01201,-10.95213c0,-6.0487 5.37796,-10.95213 12.01201,-10.95213z" fill="#ffde8c" stroke="#bd7575" stroke-width="1.5" stroke-linecap="butt"/><path d="M279.24826,160.72786c0,4.55635 -6.93959,8.25 -15.5,8.25c-8.56041,0 -15.5,-3.69365 -15.5,-8.25c0,-4.55635 6.93959,-8.25 15.5,-8.25c8.56041,0 15.5,3.69365 15.5,8.25z" fill="#000000" stroke="#000000" stroke-width="0.5" stroke-linecap="butt"/><path d="M186.69147,87.90503l-253.75375,-15.01502" fill="none" stroke="#bd7575" stroke-width="1.5" stroke-linecap="round"/><path d="M194.19898,57.875l-124.62462,-99.0991" fill="none" stroke="#bd7575" stroke-width="1.5" stroke-linecap="round"/><path d="M222.7275,39.85698l60.06006,-151.65165" fill="none" stroke="#bd7575" stroke-width="1.5" stroke-linecap="round"/><path d="M234.73952,51.869l169.66967,-112.61261" fill="none" stroke="#bd7575" stroke-width="1.5" stroke-linecap="round"/><path d="M635.64042,80.39752l-390.39039,-10.51051" fill="none" stroke="#bd7575" stroke-width="1.5" stroke-linecap="round"/><path d="M261.76655,54.872l300.3003,-103.6036" fill="none" stroke="#bd7575" stroke-width="1.5" stroke-linecap="round"/><path d="M637.14192,250.0672l-399.3994,-166.66667" fill="none" stroke="#bd7575" stroke-width="1.5" stroke-linecap="round"/><path d="M207.71249,98.41554l-433.93393,249.24925" fill="none" stroke="#bd7575" stroke-width="1.5" stroke-linecap="round"/></g></g></svg>