<svg version="1.1" xmlns="http://www.w3.org/2000/svg" xmlns:xlink="http://www.w3.org/1999/xlink" width="398.31774" height="557.57298" viewBox="0,0,398.31774,557.57298"><g transform="translate(18.80255,120.12291)"><g data-paper-data="{&quot;isPaintingLayer&quot;:true}" fill="#70ff7b" fill-rule="nonzero" stroke="#00c81b" stroke-width="5" stroke-linecap="butt" stroke-linejoin="miter" stroke-miterlimit="10" stroke-dasharray="" stroke-dashoffset="0" style="mix-blend-mode: normal"><path d="M106.15394,434.95004v-156.16198h4.57681c-0.00039,0.61512 -0.00092,1.23265 -0.00164,1.85289c-0.00356,3.06092 -0.0204,5.95872 -0.02071,9.08365c-0.00083,8.48342 0.0031,16.97024 0,25.45089c-0.00401,10.98222 -0.08215,21.90479 -0.08282,33.10767c-0.0009,15.09974 0.00486,30.20387 0,45.29966c-0.00162,5.0196 -0.02038,10.89131 -0.02071,16.26191c-0.00051,8.36835 -0.00083,16.73704 -0.00017,25.10533z"/><path d="M369.4122,246.25635v-18.02384h7.57983c-0.00065,0.071 -0.00153,0.14227 -0.00272,0.21386c-0.0059,0.35328 -0.03379,0.68774 -0.03429,1.04841c-0.00137,0.97914 0.00513,1.95867 0,2.93748c-0.00665,1.26754 -0.13605,2.5282 -0.13716,3.82121c-0.00149,1.74278 0.00804,3.48606 0,5.22838c-0.00268,0.57935 -0.03375,1.25705 -0.03429,1.87691c-0.00084,0.96585 -0.00137,1.93175 -0.00028,2.8976z"/><path d="M-16.30255,428.94402v-546.56693h27.56284v546.56693z"/></g></g></svg>